M48
; DRILL file {KiCad (5.1.12)-1} date 12/28/21 16:54:37
; FORMAT={-:-/ absolute / inch / decimal}
; #@! TF.CreationDate,2021-12-28T16:54:37-05:00
; #@! TF.GenerationSoftware,Kicad,Pcbnew,(5.1.12)-1
; #@! TF.FileFunction,Plated,1,2,PTH
FMAT,2
INCH
T1C0.0157
T2C0.0374
T3C0.0394
%
G90
G05
T1
X5.4Y-3.2
X5.57Y-2.85
T2
X5.2Y-2.67
X5.2984Y-2.67
X5.3969Y-2.67
X5.65Y-2.67
X5.7484Y-2.67
X5.8469Y-2.67
X6.0Y-3.0247
X6.0Y-3.1231
X6.0Y-3.2216
X6.0Y-3.32
X6.0Y-3.5731
X6.0Y-3.6716
X6.0Y-3.77
X6.09Y-2.67
X6.1884Y-2.67
X6.2869Y-2.67
T3
X5.24Y-3.11
X5.24Y-3.21
X5.24Y-3.31
X5.24Y-3.41
X5.24Y-3.51
X5.24Y-3.61
X5.24Y-3.71
X5.24Y-3.81
X5.75Y-3.11
X5.75Y-3.21
X5.75Y-3.31
X5.75Y-3.41
X5.75Y-3.51
X5.75Y-3.61
X5.75Y-3.71
X5.75Y-3.81
T0
M30
