G04 #@! TF.GenerationSoftware,KiCad,Pcbnew,(5.1.12)-1*
G04 #@! TF.CreationDate,2021-12-28T16:54:34-05:00*
G04 #@! TF.ProjectId,FlipDisplay-Motor,466c6970-4469-4737-906c-61792d4d6f74,rev?*
G04 #@! TF.SameCoordinates,Original*
G04 #@! TF.FileFunction,Legend,Top*
G04 #@! TF.FilePolarity,Positive*
%FSLAX46Y46*%
G04 Gerber Fmt 4.6, Leading zero omitted, Abs format (unit mm)*
G04 Created by KiCad (PCBNEW (5.1.12)-1) date 2021-12-28 16:54:34*
%MOMM*%
%LPD*%
G01*
G04 APERTURE LIST*
%ADD10C,0.050000*%
%ADD11C,0.125000*%
%ADD12C,0.150000*%
%ADD13C,0.120000*%
G04 APERTURE END LIST*
D10*
X157971346Y-93514786D02*
X158077947Y-93185211D01*
X157955578Y-93562753D02*
X157971346Y-93514786D01*
X157835717Y-93920139D02*
X157955578Y-93562753D01*
X157633087Y-94336095D02*
X157654650Y-94282339D01*
X157654650Y-94282339D02*
X157677306Y-94229053D01*
X157677306Y-94229053D02*
X157701046Y-94176253D01*
X157701046Y-94176253D02*
X157725861Y-94123956D01*
X157725861Y-94123956D02*
X157751744Y-94072180D01*
X157751744Y-94072180D02*
X157778687Y-94020940D01*
X157778687Y-94020940D02*
X157806680Y-93970254D01*
X157806680Y-93970254D02*
X157835717Y-93920139D01*
X157645544Y-94424437D02*
X157633087Y-94336095D01*
X157569547Y-94588307D02*
X157645544Y-94424437D01*
X157592645Y-94738846D02*
X157569547Y-94588307D01*
X157605976Y-95357972D02*
X157592645Y-94738846D01*
X157582811Y-95509251D02*
X157614922Y-95467633D01*
X157614922Y-95467633D02*
X157624938Y-95417570D01*
X157624938Y-95417570D02*
X157611569Y-95367318D01*
X157611569Y-95367318D02*
X157605976Y-95357972D01*
X157565704Y-96114881D02*
X157548744Y-96058946D01*
X157548744Y-96058946D02*
X157535643Y-96002273D01*
X157535643Y-96002273D02*
X157526393Y-95945056D01*
X157526393Y-95945056D02*
X157520990Y-95887491D01*
X157520990Y-95887491D02*
X157519427Y-95829773D01*
X157519427Y-95829773D02*
X157521697Y-95772098D01*
X157521697Y-95772098D02*
X157527796Y-95714660D01*
X157527796Y-95714660D02*
X157537716Y-95657656D01*
X157537716Y-95657656D02*
X157551453Y-95601281D01*
X157551453Y-95601281D02*
X157568999Y-95545730D01*
X157568999Y-95545730D02*
X157582811Y-95509251D01*
X155027356Y-91912994D02*
X155075440Y-91892329D01*
X155075440Y-91892329D02*
X155106987Y-91852268D01*
X155106987Y-91852268D02*
X155116041Y-91805380D01*
X155018385Y-91939745D02*
X155027356Y-91912994D01*
X154980201Y-91994579D02*
X155002081Y-91947803D01*
X155002081Y-91947803D02*
X155018385Y-91939745D01*
X155027375Y-92039504D02*
X154985275Y-92011693D01*
X154985275Y-92011693D02*
X154980201Y-91994579D01*
X155164431Y-92023560D02*
X155115965Y-92004479D01*
X155115965Y-92004479D02*
X155065780Y-92011484D01*
X155065780Y-92011484D02*
X155027375Y-92039504D01*
X157732508Y-95886447D02*
X157754874Y-95938340D01*
X157754874Y-95938340D02*
X157770273Y-95992195D01*
X157770273Y-95992195D02*
X157778662Y-96047320D01*
X157778662Y-96047320D02*
X157780000Y-96103024D01*
X157780000Y-96103024D02*
X157774246Y-96158616D01*
X157774246Y-96158616D02*
X157761360Y-96213406D01*
X157761360Y-96213406D02*
X157754199Y-96234942D01*
X157825896Y-95618057D02*
X157791342Y-95661155D01*
X157791342Y-95661155D02*
X157764280Y-95708654D01*
X157764280Y-95708654D02*
X157745047Y-95759594D01*
X157745047Y-95759594D02*
X157733980Y-95813015D01*
X157733980Y-95813015D02*
X157731415Y-95867959D01*
X157731415Y-95867959D02*
X157732508Y-95886447D01*
X157782653Y-95333068D02*
X157810782Y-95381944D01*
X157810782Y-95381944D02*
X157829876Y-95434295D01*
X157829876Y-95434295D02*
X157839749Y-95488887D01*
X157839749Y-95488887D02*
X157840217Y-95544487D01*
X157840217Y-95544487D02*
X157831098Y-95599862D01*
X157831098Y-95599862D02*
X157825896Y-95618057D01*
X157821172Y-94967257D02*
X157782653Y-95333068D01*
X157872681Y-94725204D02*
X157870167Y-94779744D01*
X157870167Y-94779744D02*
X157862688Y-94833684D01*
X157862688Y-94833684D02*
X157850317Y-94886685D01*
X157850317Y-94886685D02*
X157833128Y-94938407D01*
X157833128Y-94938407D02*
X157821172Y-94967257D01*
X158144123Y-93717744D02*
X158105318Y-93772859D01*
X158105318Y-93772859D02*
X158069292Y-93829511D01*
X158069292Y-93829511D02*
X158036073Y-93887594D01*
X158036073Y-93887594D02*
X158005690Y-93947003D01*
X158005690Y-93947003D02*
X157978171Y-94007633D01*
X157978171Y-94007633D02*
X157953545Y-94069380D01*
X157953545Y-94069380D02*
X157931841Y-94132139D01*
X157931841Y-94132139D02*
X157913086Y-94195805D01*
X157913086Y-94195805D02*
X157897311Y-94260273D01*
X157897311Y-94260273D02*
X157884542Y-94325439D01*
X157884542Y-94325439D02*
X157874809Y-94391196D01*
X157874809Y-94391196D02*
X157868141Y-94457442D01*
X157868141Y-94457442D02*
X157864565Y-94524070D01*
X157864565Y-94524070D02*
X157864111Y-94590976D01*
X157864111Y-94590976D02*
X157866806Y-94658056D01*
X157866806Y-94658056D02*
X157872681Y-94725204D01*
X158201072Y-93648673D02*
X158165469Y-93684622D01*
X158165469Y-93684622D02*
X158144123Y-93717744D01*
X158619004Y-93341234D02*
X158570441Y-93384457D01*
X158570441Y-93384457D02*
X158520771Y-93426353D01*
X158520771Y-93426353D02*
X158470021Y-93466899D01*
X158470021Y-93466899D02*
X158418220Y-93506077D01*
X158418220Y-93506077D02*
X158365397Y-93543863D01*
X158365397Y-93543863D02*
X158311578Y-93580239D01*
X158311578Y-93580239D02*
X158256794Y-93615182D01*
X158256794Y-93615182D02*
X158201072Y-93648673D01*
X158972576Y-93165253D02*
X158923464Y-93175907D01*
X158923464Y-93175907D02*
X158875422Y-93189968D01*
X158875422Y-93189968D02*
X158817127Y-93212210D01*
X158817127Y-93212210D02*
X158761091Y-93239483D01*
X158761091Y-93239483D02*
X158707643Y-93271625D01*
X158707643Y-93271625D02*
X158666968Y-93300736D01*
X158666968Y-93300736D02*
X158628326Y-93332776D01*
X158628326Y-93332776D02*
X158619004Y-93341234D01*
X158959887Y-93203073D02*
X158972576Y-93165253D01*
X158853848Y-93412906D02*
X158897175Y-93379331D01*
X158897175Y-93379331D02*
X158930209Y-93336928D01*
X158930209Y-93336928D02*
X158951807Y-93287945D01*
X158951807Y-93287945D02*
X158960823Y-93234624D01*
X158960823Y-93234624D02*
X158959887Y-93203073D01*
X158719204Y-93732521D02*
X158732183Y-93679493D01*
X158732183Y-93679493D02*
X158748229Y-93627416D01*
X158748229Y-93627416D02*
X158767285Y-93576421D01*
X158767285Y-93576421D02*
X158789297Y-93526640D01*
X158789297Y-93526640D02*
X158814207Y-93478205D01*
X158814207Y-93478205D02*
X158841962Y-93431246D01*
X158841962Y-93431246D02*
X158853848Y-93412906D01*
X158554643Y-94035006D02*
X158719204Y-93732521D01*
X158541363Y-94388241D02*
X158554643Y-94035006D01*
X158691981Y-94817471D02*
X158541363Y-94388241D01*
X158737359Y-95139815D02*
X158742070Y-95088349D01*
X158742070Y-95088349D02*
X158742354Y-95036883D01*
X158742354Y-95036883D02*
X158738249Y-94985693D01*
X158738249Y-94985693D02*
X158729794Y-94935059D01*
X158729794Y-94935059D02*
X158717027Y-94885259D01*
X158717027Y-94885259D02*
X158699985Y-94836572D01*
X158699985Y-94836572D02*
X158691981Y-94817471D01*
X158828853Y-95852268D02*
X158737359Y-95139815D01*
X159231204Y-96597370D02*
X159191361Y-96560271D01*
X159191361Y-96560271D02*
X159153308Y-96521593D01*
X159153308Y-96521593D02*
X159117081Y-96481402D01*
X159117081Y-96481402D02*
X159082716Y-96439769D01*
X159082716Y-96439769D02*
X159050249Y-96396759D01*
X159050249Y-96396759D02*
X159019717Y-96352441D01*
X159019717Y-96352441D02*
X158991157Y-96306883D01*
X158991157Y-96306883D02*
X158964605Y-96260153D01*
X158964605Y-96260153D02*
X158940097Y-96212319D01*
X158940097Y-96212319D02*
X158917670Y-96163448D01*
X158917670Y-96163448D02*
X158897361Y-96113609D01*
X158897361Y-96113609D02*
X158879206Y-96062870D01*
X158879206Y-96062870D02*
X158863241Y-96011298D01*
X158863241Y-96011298D02*
X158849502Y-95958962D01*
X158849502Y-95958962D02*
X158838028Y-95905929D01*
X158838028Y-95905929D02*
X158828853Y-95852268D01*
X159438847Y-97014586D02*
X159231204Y-96597370D01*
X159608538Y-97228889D02*
X159567205Y-97197012D01*
X159567205Y-97197012D02*
X159529921Y-97160866D01*
X159529921Y-97160866D02*
X159496994Y-97120842D01*
X159496994Y-97120842D02*
X159468733Y-97077335D01*
X159468733Y-97077335D02*
X159445449Y-97030737D01*
X159445449Y-97030737D02*
X159438847Y-97014586D01*
X160137051Y-97974221D02*
X160108346Y-97924702D01*
X160108346Y-97924702D02*
X160079048Y-97875552D01*
X160079048Y-97875552D02*
X160049160Y-97826774D01*
X160049160Y-97826774D02*
X160018685Y-97778374D01*
X160018685Y-97778374D02*
X159987627Y-97730357D01*
X159987627Y-97730357D02*
X159955990Y-97682727D01*
X159955990Y-97682727D02*
X159923776Y-97635491D01*
X159923776Y-97635491D02*
X159890991Y-97588653D01*
X159890991Y-97588653D02*
X159857637Y-97542218D01*
X159857637Y-97542218D02*
X159823718Y-97496191D01*
X159823718Y-97496191D02*
X159789237Y-97450577D01*
X159789237Y-97450577D02*
X159754199Y-97405382D01*
X159754199Y-97405382D02*
X159718606Y-97360611D01*
X159718606Y-97360611D02*
X159682462Y-97316268D01*
X159682462Y-97316268D02*
X159645772Y-97272359D01*
X159645772Y-97272359D02*
X159608538Y-97228889D01*
X160321282Y-98213960D02*
X160278014Y-98176270D01*
X160278014Y-98176270D02*
X160238526Y-98134905D01*
X160238526Y-98134905D02*
X160203039Y-98090157D01*
X160203039Y-98090157D02*
X160171777Y-98042316D01*
X160171777Y-98042316D02*
X160144962Y-97991674D01*
X160144962Y-97991674D02*
X160137051Y-97974221D01*
X160464662Y-98189302D02*
X160420375Y-98219699D01*
X160420375Y-98219699D02*
X160368362Y-98227552D01*
X160368362Y-98227552D02*
X160321282Y-98213960D01*
X159873322Y-97317687D02*
X160464662Y-98189302D01*
X159697346Y-96964108D02*
X159873322Y-97317687D01*
X159521127Y-96736686D02*
X159558678Y-96775676D01*
X159558678Y-96775676D02*
X159594217Y-96816442D01*
X159594217Y-96816442D02*
X159627681Y-96858901D01*
X159627681Y-96858901D02*
X159659007Y-96902974D01*
X159659007Y-96902974D02*
X159688136Y-96948579D01*
X159688136Y-96948579D02*
X159697346Y-96964108D01*
X159106087Y-96029407D02*
X159521127Y-96736686D01*
X159079924Y-96014558D02*
X159106087Y-96029407D01*
X158959917Y-94979797D02*
X159079924Y-96014558D01*
X158870922Y-94514201D02*
X158878406Y-94573047D01*
X158878406Y-94573047D02*
X158886936Y-94631735D01*
X158886936Y-94631735D02*
X158896509Y-94690251D01*
X158896509Y-94690251D02*
X158907122Y-94748583D01*
X158907122Y-94748583D02*
X158918772Y-94806717D01*
X158918772Y-94806717D02*
X158931456Y-94864639D01*
X158931456Y-94864639D02*
X158945172Y-94922337D01*
X158945172Y-94922337D02*
X158959917Y-94979797D01*
X158844342Y-94300478D02*
X158845207Y-94354523D01*
X158845207Y-94354523D02*
X158849942Y-94408295D01*
X158849942Y-94408295D02*
X158858522Y-94461589D01*
X158858522Y-94461589D02*
X158870922Y-94514201D01*
X158869594Y-94287910D02*
X158844342Y-94300478D01*
X158984108Y-93758233D02*
X158955978Y-93802660D01*
X158955978Y-93802660D02*
X158931319Y-93848751D01*
X158931319Y-93848751D02*
X158910177Y-93896303D01*
X158910177Y-93896303D02*
X158892594Y-93945116D01*
X158892594Y-93945116D02*
X158878614Y-93994989D01*
X158878614Y-93994989D02*
X158868282Y-94045720D01*
X158868282Y-94045720D02*
X158861642Y-94097108D01*
X158861642Y-94097108D02*
X158858738Y-94148953D01*
X158858738Y-94148953D02*
X158859614Y-94201054D01*
X158859614Y-94201054D02*
X158864314Y-94253209D01*
X158864314Y-94253209D02*
X158869594Y-94287910D01*
X159084900Y-93834113D02*
X158984108Y-93758233D01*
X159106628Y-93904143D02*
X159101320Y-93852349D01*
X159101320Y-93852349D02*
X159084900Y-93834113D01*
X159046842Y-93947597D02*
X159092842Y-93927465D01*
X159092842Y-93927465D02*
X159106628Y-93904143D01*
X159008546Y-94187243D02*
X159046842Y-93947597D01*
X159083727Y-94464948D02*
X159008546Y-94187243D01*
X159071039Y-94502765D02*
X159083727Y-94464948D01*
X159194521Y-95008064D02*
X159180139Y-94944647D01*
X159180139Y-94944647D02*
X159165455Y-94881302D01*
X159165455Y-94881302D02*
X159150470Y-94818029D01*
X159150470Y-94818029D02*
X159135184Y-94754828D01*
X159135184Y-94754828D02*
X159119597Y-94691700D01*
X159119597Y-94691700D02*
X159103710Y-94628646D01*
X159103710Y-94628646D02*
X159087524Y-94565667D01*
X159087524Y-94565667D02*
X159071039Y-94502765D01*
X159196545Y-95071663D02*
X159197339Y-95019814D01*
X159197339Y-95019814D02*
X159194521Y-95008064D01*
X159455108Y-95670465D02*
X159196545Y-95071663D01*
X159638226Y-95863083D02*
X159585451Y-95848836D01*
X159585451Y-95848836D02*
X159539200Y-95822395D01*
X159539200Y-95822395D02*
X159501262Y-95785650D01*
X159501262Y-95785650D02*
X159473424Y-95740493D01*
X159473424Y-95740493D02*
X159457474Y-95688813D01*
X159457474Y-95688813D02*
X159455108Y-95670465D01*
X159730636Y-96049004D02*
X159719158Y-95997321D01*
X159719158Y-95997321D02*
X159699626Y-95948489D01*
X159699626Y-95948489D02*
X159672496Y-95903435D01*
X159672496Y-95903435D02*
X159638226Y-95863083D01*
X159951048Y-96207609D02*
X159898415Y-96196706D01*
X159898415Y-96196706D02*
X159849639Y-96176125D01*
X159849639Y-96176125D02*
X159805946Y-96146753D01*
X159805946Y-96146753D02*
X159768558Y-96109474D01*
X159768558Y-96109474D02*
X159738702Y-96065176D01*
X159738702Y-96065176D02*
X159730636Y-96049004D01*
X160202916Y-96460389D02*
X159951048Y-96207609D01*
X160447996Y-96576238D02*
X160418557Y-96528022D01*
X160418557Y-96528022D02*
X160378476Y-96490596D01*
X160378476Y-96490596D02*
X160330472Y-96465254D01*
X160330472Y-96465254D02*
X160277262Y-96453291D01*
X160277262Y-96453291D02*
X160221564Y-96456001D01*
X160221564Y-96456001D02*
X160202916Y-96460389D01*
X160505424Y-96624960D02*
X160447996Y-96576238D01*
X160656813Y-96612622D02*
X160505424Y-96624960D01*
X160782872Y-96675932D02*
X160656813Y-96612622D01*
X161035088Y-96739476D02*
X160985031Y-96742098D01*
X160985031Y-96742098D02*
X160927315Y-96736440D01*
X160927315Y-96736440D02*
X160871388Y-96721664D01*
X160871388Y-96721664D02*
X160818360Y-96698051D01*
X160818360Y-96698051D02*
X160782872Y-96675932D01*
X161300095Y-96702122D02*
X161252387Y-96719869D01*
X161252387Y-96719869D02*
X161203344Y-96732717D01*
X161203344Y-96732717D02*
X161153344Y-96740611D01*
X161153344Y-96740611D02*
X161102767Y-96743500D01*
X161102767Y-96743500D02*
X161051991Y-96741331D01*
X161051991Y-96741331D02*
X161035088Y-96739476D01*
X161432731Y-96735361D02*
X161379137Y-96741679D01*
X161379137Y-96741679D02*
X161328416Y-96724956D01*
X161328416Y-96724956D02*
X161300095Y-96702122D01*
X161514711Y-96626819D02*
X161499666Y-96678479D01*
X161499666Y-96678479D02*
X161464745Y-96718365D01*
X161464745Y-96718365D02*
X161432731Y-96735361D01*
X161779726Y-96589453D02*
X161514711Y-96626819D01*
X161981638Y-96551983D02*
X161937164Y-96583953D01*
X161937164Y-96583953D02*
X161886361Y-96601280D01*
X161886361Y-96601280D02*
X161832718Y-96603326D01*
X161832718Y-96603326D02*
X161779726Y-96589453D01*
X162436609Y-96136483D02*
X162391299Y-96172438D01*
X162391299Y-96172438D02*
X162346521Y-96209031D01*
X162346521Y-96209031D02*
X162302281Y-96246254D01*
X162302281Y-96246254D02*
X162258584Y-96284103D01*
X162258584Y-96284103D02*
X162215437Y-96322572D01*
X162215437Y-96322572D02*
X162172847Y-96361654D01*
X162172847Y-96361654D02*
X162130820Y-96401344D01*
X162130820Y-96401344D02*
X162089362Y-96441636D01*
X162089362Y-96441636D02*
X162048479Y-96482525D01*
X162048479Y-96482525D02*
X162008178Y-96524004D01*
X162008178Y-96524004D02*
X161981638Y-96551983D01*
X162465993Y-96029743D02*
X162436609Y-96136483D01*
X162501540Y-95924878D02*
X162465993Y-96029743D01*
X162640977Y-94384706D02*
X162659226Y-94432328D01*
X162659226Y-94432328D02*
X162675987Y-94480310D01*
X162675987Y-94480310D02*
X162691262Y-94528618D01*
X162691262Y-94528618D02*
X162705054Y-94577220D01*
X162705054Y-94577220D02*
X162717366Y-94626083D01*
X162717366Y-94626083D02*
X162728201Y-94675175D01*
X162728201Y-94675175D02*
X162737563Y-94724464D01*
X162737563Y-94724464D02*
X162745453Y-94773915D01*
X162745453Y-94773915D02*
X162756835Y-94873177D01*
X162756835Y-94873177D02*
X162762371Y-94972701D01*
X162762371Y-94972701D02*
X162762085Y-95072225D01*
X162762085Y-95072225D02*
X162756001Y-95171489D01*
X162756001Y-95171489D02*
X162744144Y-95270231D01*
X162744144Y-95270231D02*
X162726538Y-95368190D01*
X162726538Y-95368190D02*
X162703207Y-95465105D01*
X162703207Y-95465105D02*
X162674177Y-95560715D01*
X162674177Y-95560715D02*
X162657531Y-95607948D01*
X162657531Y-95607948D02*
X162639470Y-95654758D01*
X162639470Y-95654758D02*
X162619996Y-95701110D01*
X162619996Y-95701110D02*
X162599112Y-95746973D01*
X162599112Y-95746973D02*
X162576822Y-95792314D01*
X162576822Y-95792314D02*
X162553127Y-95837100D01*
X162553127Y-95837100D02*
X162528032Y-95881299D01*
X162528032Y-95881299D02*
X162501540Y-95924878D01*
X162591854Y-94042450D02*
X162640977Y-94384706D01*
X162495428Y-93778428D02*
X162528519Y-93821403D01*
X162528519Y-93821403D02*
X162554990Y-93868244D01*
X162554990Y-93868244D02*
X162574564Y-93918183D01*
X162574564Y-93918183D02*
X162586962Y-93970454D01*
X162586962Y-93970454D02*
X162591909Y-94024289D01*
X162591909Y-94024289D02*
X162591854Y-94042450D01*
X162340348Y-93600420D02*
X162369720Y-93643165D01*
X162369720Y-93643165D02*
X162401730Y-93683881D01*
X162401730Y-93683881D02*
X162436274Y-93722449D01*
X162436274Y-93722449D02*
X162473248Y-93758749D01*
X162473248Y-93758749D02*
X162495428Y-93778428D01*
X162189398Y-93360420D02*
X162194694Y-93417090D01*
X162194694Y-93417090D02*
X162211771Y-93470234D01*
X162211771Y-93470234D02*
X162239583Y-93518179D01*
X162239583Y-93518179D02*
X162277083Y-93559248D01*
X162277083Y-93559248D02*
X162323227Y-93591769D01*
X162323227Y-93591769D02*
X162340348Y-93600420D01*
X162176824Y-93335161D02*
X162189398Y-93360420D01*
X162151570Y-93347729D02*
X162176824Y-93335161D01*
X161899819Y-93031863D02*
X161935904Y-93067465D01*
X161935904Y-93067465D02*
X161970727Y-93104246D01*
X161970727Y-93104246D02*
X162004258Y-93142172D01*
X162004258Y-93142172D02*
X162036470Y-93181207D01*
X162036470Y-93181207D02*
X162067335Y-93221315D01*
X162067335Y-93221315D02*
X162096826Y-93262461D01*
X162096826Y-93262461D02*
X162124913Y-93304611D01*
X162124913Y-93304611D02*
X162151570Y-93347729D01*
X161673093Y-92829582D02*
X161721268Y-92860763D01*
X161721268Y-92860763D02*
X161767011Y-92895222D01*
X161767011Y-92895222D02*
X161810159Y-92932810D01*
X161810159Y-92932810D02*
X161850546Y-92973381D01*
X161850546Y-92973381D02*
X161888009Y-93016789D01*
X161888009Y-93016789D02*
X161899819Y-93031863D01*
X161471395Y-92740893D02*
X161673093Y-92829582D01*
X161576165Y-92709450D02*
X161523765Y-92712966D01*
X161523765Y-92712966D02*
X161476905Y-92736366D01*
X161476905Y-92736366D02*
X161471395Y-92740893D01*
X162017816Y-92954086D02*
X161967032Y-92916041D01*
X161967032Y-92916041D02*
X161914860Y-92880059D01*
X161914860Y-92880059D02*
X161861361Y-92846175D01*
X161861361Y-92846175D02*
X161806598Y-92814425D01*
X161806598Y-92814425D02*
X161750634Y-92784842D01*
X161750634Y-92784842D02*
X161693532Y-92757461D01*
X161693532Y-92757461D02*
X161635355Y-92732319D01*
X161635355Y-92732319D02*
X161576165Y-92709450D01*
X162039169Y-92957067D02*
X162017816Y-92954086D01*
X162242770Y-93101142D02*
X162039169Y-92957067D01*
X162970799Y-93790821D02*
X162933228Y-93739996D01*
X162933228Y-93739996D02*
X162894514Y-93690118D01*
X162894514Y-93690118D02*
X162854674Y-93641204D01*
X162854674Y-93641204D02*
X162813726Y-93593273D01*
X162813726Y-93593273D02*
X162771690Y-93546341D01*
X162771690Y-93546341D02*
X162728584Y-93500427D01*
X162728584Y-93500427D02*
X162684427Y-93455548D01*
X162684427Y-93455548D02*
X162639237Y-93411722D01*
X162639237Y-93411722D02*
X162593033Y-93368967D01*
X162593033Y-93368967D02*
X162545833Y-93327300D01*
X162545833Y-93327300D02*
X162497656Y-93286739D01*
X162497656Y-93286739D02*
X162448521Y-93247301D01*
X162448521Y-93247301D02*
X162398446Y-93209005D01*
X162398446Y-93209005D02*
X162347450Y-93171868D01*
X162347450Y-93171868D02*
X162295552Y-93135907D01*
X162295552Y-93135907D02*
X162242770Y-93101142D01*
X162985422Y-93791592D02*
X162970799Y-93790821D01*
X162999426Y-93795809D02*
X162985422Y-93791592D01*
X163043924Y-93831453D02*
X163003305Y-93802073D01*
X163003305Y-93802073D02*
X162999426Y-93795809D01*
X163235007Y-94195034D02*
X163227041Y-94142623D01*
X163227041Y-94142623D02*
X163214197Y-94091572D01*
X163214197Y-94091572D02*
X163196641Y-94042194D01*
X163196641Y-94042194D02*
X163174536Y-93994806D01*
X163174536Y-93994806D02*
X163148047Y-93949723D01*
X163148047Y-93949723D02*
X163117339Y-93907259D01*
X163117339Y-93907259D02*
X163082576Y-93867730D01*
X163082576Y-93867730D02*
X163043924Y-93831453D01*
X164077297Y-95824095D02*
X164058960Y-95769421D01*
X164058960Y-95769421D02*
X164040090Y-95714954D01*
X164040090Y-95714954D02*
X164020687Y-95660696D01*
X164020687Y-95660696D02*
X164000753Y-95606651D01*
X164000753Y-95606651D02*
X163980292Y-95552824D01*
X163980292Y-95552824D02*
X163959303Y-95499216D01*
X163959303Y-95499216D02*
X163937790Y-95445834D01*
X163937790Y-95445834D02*
X163915754Y-95392679D01*
X163915754Y-95392679D02*
X163893197Y-95339756D01*
X163893197Y-95339756D02*
X163870121Y-95287069D01*
X163870121Y-95287069D02*
X163846528Y-95234620D01*
X163846528Y-95234620D02*
X163822420Y-95182415D01*
X163822420Y-95182415D02*
X163797798Y-95130456D01*
X163797798Y-95130456D02*
X163772666Y-95078748D01*
X163772666Y-95078748D02*
X163747023Y-95027293D01*
X163747023Y-95027293D02*
X163720874Y-94976097D01*
X163720874Y-94976097D02*
X163694218Y-94925162D01*
X163694218Y-94925162D02*
X163667059Y-94874492D01*
X163667059Y-94874492D02*
X163639398Y-94824090D01*
X163639398Y-94824090D02*
X163611237Y-94773962D01*
X163611237Y-94773962D02*
X163582578Y-94724110D01*
X163582578Y-94724110D02*
X163553423Y-94674538D01*
X163553423Y-94674538D02*
X163523774Y-94625249D01*
X163523774Y-94625249D02*
X163493632Y-94576248D01*
X163493632Y-94576248D02*
X163463000Y-94527538D01*
X163463000Y-94527538D02*
X163431880Y-94479123D01*
X163431880Y-94479123D02*
X163400273Y-94431007D01*
X163400273Y-94431007D02*
X163368181Y-94383193D01*
X163368181Y-94383193D02*
X163335607Y-94335685D01*
X163335607Y-94335685D02*
X163302552Y-94288486D01*
X163302552Y-94288486D02*
X163269018Y-94241601D01*
X163269018Y-94241601D02*
X163235007Y-94195034D01*
X164253150Y-96240746D02*
X164223088Y-96192405D01*
X164223088Y-96192405D02*
X164195268Y-96142836D01*
X164195268Y-96142836D02*
X164169723Y-96092117D01*
X164169723Y-96092117D02*
X164146486Y-96040329D01*
X164146486Y-96040329D02*
X164125592Y-95987553D01*
X164125592Y-95987553D02*
X164107073Y-95933868D01*
X164107073Y-95933868D02*
X164090963Y-95879355D01*
X164090963Y-95879355D02*
X164077297Y-95824095D01*
X164391427Y-96518570D02*
X164253150Y-96240746D01*
X164450378Y-96466273D02*
X164418417Y-96504760D01*
X164418417Y-96504760D02*
X164391427Y-96518570D01*
X164452983Y-96387639D02*
X164458563Y-96439717D01*
X164458563Y-96439717D02*
X164450378Y-96466273D01*
X164291576Y-95938035D02*
X164299315Y-95998063D01*
X164299315Y-95998063D02*
X164310723Y-96057321D01*
X164310723Y-96057321D02*
X164325741Y-96115646D01*
X164325741Y-96115646D02*
X164344313Y-96172878D01*
X164344313Y-96172878D02*
X164366380Y-96228855D01*
X164366380Y-96228855D02*
X164391885Y-96283415D01*
X164391885Y-96283415D02*
X164420772Y-96336397D01*
X164420772Y-96336397D02*
X164452983Y-96387639D01*
X164216506Y-95597248D02*
X164237517Y-95648095D01*
X164237517Y-95648095D02*
X164255145Y-95700083D01*
X164255145Y-95700083D02*
X164269352Y-95753040D01*
X164269352Y-95753040D02*
X164280103Y-95806794D01*
X164280103Y-95806794D02*
X164287359Y-95861175D01*
X164287359Y-95861175D02*
X164291083Y-95916011D01*
X164291083Y-95916011D02*
X164291576Y-95938035D01*
X163650943Y-94391349D02*
X164216506Y-95597248D01*
X163489095Y-94017647D02*
X163527406Y-94054592D01*
X163527406Y-94054592D02*
X163560952Y-94095259D01*
X163560952Y-94095259D02*
X163589532Y-94139183D01*
X163589532Y-94139183D02*
X163612947Y-94185898D01*
X163612947Y-94185898D02*
X163630995Y-94234937D01*
X163630995Y-94234937D02*
X163643478Y-94285836D01*
X163643478Y-94285836D02*
X163650193Y-94338128D01*
X163650193Y-94338128D02*
X163650943Y-94391349D01*
X163273658Y-93766152D02*
X163298148Y-93812612D01*
X163298148Y-93812612D02*
X163326289Y-93856715D01*
X163326289Y-93856715D02*
X163357907Y-93898260D01*
X163357907Y-93898260D02*
X163392830Y-93937043D01*
X163392830Y-93937043D02*
X163430885Y-93972863D01*
X163430885Y-93972863D02*
X163471899Y-94005517D01*
X163471899Y-94005517D02*
X163489095Y-94017647D01*
X163072068Y-93614378D02*
X163094115Y-93660121D01*
X163094115Y-93660121D02*
X163130962Y-93704872D01*
X163130962Y-93704872D02*
X163177595Y-93738681D01*
X163177595Y-93738681D02*
X163231706Y-93759802D01*
X163231706Y-93759802D02*
X163273658Y-93766152D01*
X163034237Y-93601694D02*
X163072068Y-93614378D01*
X162832770Y-93386846D02*
X162876392Y-93421316D01*
X162876392Y-93421316D02*
X162917467Y-93458631D01*
X162917467Y-93458631D02*
X162955859Y-93498646D01*
X162955859Y-93498646D02*
X162991430Y-93541215D01*
X162991430Y-93541215D02*
X163024045Y-93586191D01*
X163024045Y-93586191D02*
X163034237Y-93601694D01*
X162543197Y-93058279D02*
X162832770Y-93386846D01*
X162367223Y-92704700D02*
X162543197Y-93058279D01*
X162161728Y-92571430D02*
X162213467Y-92568962D01*
X162213467Y-92568962D02*
X162262076Y-92581104D01*
X162262076Y-92581104D02*
X162311270Y-92611407D01*
X162311270Y-92611407D02*
X162348329Y-92656453D01*
X162348329Y-92656453D02*
X162367223Y-92704700D01*
X161824980Y-92564918D02*
X161876823Y-92577843D01*
X161876823Y-92577843D02*
X161929356Y-92586366D01*
X161929356Y-92586366D02*
X161982304Y-92590482D01*
X161982304Y-92590482D02*
X162035392Y-92590184D01*
X162035392Y-92590184D02*
X162088345Y-92585468D01*
X162088345Y-92585468D02*
X162140887Y-92576326D01*
X162140887Y-92576326D02*
X162161728Y-92571430D01*
X161408893Y-92425383D02*
X161824980Y-92564918D01*
X161812747Y-92350426D02*
X161760927Y-92323869D01*
X161760927Y-92323869D02*
X161706533Y-92308117D01*
X161706533Y-92308117D02*
X161651042Y-92302899D01*
X161651042Y-92302899D02*
X161595932Y-92307946D01*
X161595932Y-92307946D02*
X161542684Y-92322988D01*
X161542684Y-92322988D02*
X161492776Y-92347755D01*
X161492776Y-92347755D02*
X161447685Y-92381976D01*
X161447685Y-92381976D02*
X161408893Y-92425383D01*
X162128173Y-92350990D02*
X161812747Y-92350426D01*
X162140861Y-92313164D02*
X162128173Y-92350990D01*
X162557167Y-92326546D02*
X162140861Y-92313164D01*
X162998621Y-92390448D02*
X162942254Y-92394803D01*
X162942254Y-92394803D02*
X162885890Y-92395582D01*
X162885890Y-92395582D02*
X162829696Y-92392810D01*
X162829696Y-92392810D02*
X162773840Y-92386511D01*
X162773840Y-92386511D02*
X162718491Y-92376710D01*
X162718491Y-92376710D02*
X162663817Y-92363432D01*
X162663817Y-92363432D02*
X162609986Y-92346702D01*
X162609986Y-92346702D02*
X162557167Y-92326546D01*
X163238039Y-92554900D02*
X163186924Y-92533991D01*
X163186924Y-92533991D02*
X163138312Y-92508244D01*
X163138312Y-92508244D02*
X163092534Y-92477891D01*
X163092534Y-92477891D02*
X163049926Y-92443162D01*
X163049926Y-92443162D02*
X163010820Y-92404287D01*
X163010820Y-92404287D02*
X162998621Y-92390448D01*
X163250606Y-92580156D02*
X163238039Y-92554900D01*
X163653769Y-92883704D02*
X163597054Y-92854853D01*
X163597054Y-92854853D02*
X163541953Y-92823259D01*
X163541953Y-92823259D02*
X163488562Y-92788995D01*
X163488562Y-92788995D02*
X163436977Y-92752132D01*
X163436977Y-92752132D02*
X163387292Y-92712744D01*
X163387292Y-92712744D02*
X163339605Y-92670904D01*
X163339605Y-92670904D02*
X163294011Y-92626683D01*
X163294011Y-92626683D02*
X163250606Y-92580156D01*
X164219992Y-93452026D02*
X163653769Y-92883704D01*
X164282158Y-93398812D02*
X164248662Y-93438699D01*
X164248662Y-93438699D02*
X164219992Y-93452026D01*
X164280980Y-93317153D02*
X164290244Y-93368306D01*
X164290244Y-93368306D02*
X164282158Y-93398812D01*
X163922163Y-92975893D02*
X163972810Y-93012073D01*
X163972810Y-93012073D02*
X164021911Y-93050208D01*
X164021911Y-93050208D02*
X164069411Y-93090247D01*
X164069411Y-93090247D02*
X164115256Y-93132136D01*
X164115256Y-93132136D02*
X164159389Y-93175823D01*
X164159389Y-93175823D02*
X164201758Y-93221256D01*
X164201758Y-93221256D02*
X164242306Y-93268384D01*
X164242306Y-93268384D02*
X164280980Y-93317153D01*
X163452763Y-92416516D02*
X163496212Y-92469423D01*
X163496212Y-92469423D02*
X163539777Y-92522234D01*
X163539777Y-92522234D02*
X163583457Y-92574949D01*
X163583457Y-92574949D02*
X163627253Y-92627569D01*
X163627253Y-92627569D02*
X163671164Y-92680092D01*
X163671164Y-92680092D02*
X163715190Y-92732518D01*
X163715190Y-92732518D02*
X163759331Y-92784848D01*
X163759331Y-92784848D02*
X163803587Y-92837081D01*
X163803587Y-92837081D02*
X163847957Y-92889216D01*
X163847957Y-92889216D02*
X163892442Y-92941255D01*
X163892442Y-92941255D02*
X163922163Y-92975893D01*
X163271327Y-92251227D02*
X163327214Y-92266026D01*
X163327214Y-92266026D02*
X163376013Y-92294603D01*
X163376013Y-92294603D02*
X163415411Y-92334836D01*
X163415411Y-92334836D02*
X163443094Y-92384607D01*
X163443094Y-92384607D02*
X163452763Y-92416516D01*
X162930830Y-92166855D02*
X162979947Y-92193500D01*
X162979947Y-92193500D02*
X163031100Y-92215291D01*
X163031100Y-92215291D02*
X163083933Y-92232137D01*
X163083933Y-92232137D02*
X163138088Y-92243949D01*
X163138088Y-92243949D02*
X163193210Y-92250638D01*
X163193210Y-92250638D02*
X163248943Y-92252115D01*
X163248943Y-92252115D02*
X163271327Y-92251227D01*
X162746757Y-92137670D02*
X162800551Y-92124601D01*
X162800551Y-92124601D02*
X162854813Y-92128514D01*
X162854813Y-92128514D02*
X162905586Y-92148772D01*
X162905586Y-92148772D02*
X162930830Y-92166855D01*
X162141424Y-91997777D02*
X162195417Y-92020981D01*
X162195417Y-92020981D02*
X162250147Y-92042137D01*
X162250147Y-92042137D02*
X162305558Y-92061231D01*
X162305558Y-92061231D02*
X162361590Y-92078250D01*
X162361590Y-92078250D02*
X162418186Y-92093179D01*
X162418186Y-92093179D02*
X162475289Y-92106006D01*
X162475289Y-92106006D02*
X162532839Y-92116718D01*
X162532839Y-92116718D02*
X162590780Y-92125299D01*
X162590780Y-92125299D02*
X162649053Y-92131738D01*
X162649053Y-92131738D02*
X162707601Y-92136020D01*
X162707601Y-92136020D02*
X162746757Y-92137670D01*
X162116172Y-92010344D02*
X162141424Y-91997777D01*
X162053122Y-91947060D02*
X162096024Y-91975454D01*
X162096024Y-91975454D02*
X162116172Y-92010344D01*
X161964879Y-91959587D02*
X162013214Y-91942266D01*
X162013214Y-91942266D02*
X162053122Y-91947060D01*
X161952194Y-91997417D02*
X161964879Y-91959587D01*
X161753099Y-91970883D02*
X161804169Y-91960002D01*
X161804169Y-91960002D02*
X161855729Y-91960982D01*
X161855729Y-91960982D02*
X161905748Y-91973545D01*
X161905748Y-91973545D02*
X161952194Y-91997417D01*
X161523080Y-92084943D02*
X161573345Y-92059886D01*
X161573345Y-92059886D02*
X161623638Y-92034889D01*
X161623638Y-92034889D02*
X161673961Y-92009951D01*
X161673961Y-92009951D02*
X161724313Y-91985072D01*
X161724313Y-91985072D02*
X161753099Y-91970883D01*
X161497825Y-92097519D02*
X161523080Y-92084943D01*
X161270505Y-92210648D02*
X161320230Y-92185900D01*
X161320230Y-92185900D02*
X161369956Y-92161153D01*
X161369956Y-92161153D02*
X161419682Y-92136405D01*
X161419682Y-92136405D02*
X161469408Y-92111659D01*
X161469408Y-92111659D02*
X161497825Y-92097519D01*
X160980242Y-92260575D02*
X161033032Y-92243137D01*
X161033032Y-92243137D02*
X161086795Y-92229391D01*
X161086795Y-92229391D02*
X161141333Y-92219368D01*
X161141333Y-92219368D02*
X161196451Y-92213102D01*
X161196451Y-92213102D02*
X161251953Y-92210625D01*
X161251953Y-92210625D02*
X161270505Y-92210648D01*
X161018537Y-92020929D02*
X160980242Y-92260575D01*
X161221287Y-91541885D02*
X161180299Y-91594069D01*
X161180299Y-91594069D02*
X161143558Y-91648973D01*
X161143558Y-91648973D02*
X161111177Y-91706336D01*
X161111177Y-91706336D02*
X161083265Y-91765898D01*
X161083265Y-91765898D02*
X161059934Y-91827399D01*
X161059934Y-91827399D02*
X161041295Y-91890578D01*
X161041295Y-91890578D02*
X161027459Y-91955174D01*
X161027459Y-91955174D02*
X161018537Y-92020929D01*
X161423796Y-91189004D02*
X161423849Y-91243996D01*
X161423849Y-91243996D02*
X161415745Y-91297453D01*
X161415745Y-91297453D02*
X161399939Y-91348587D01*
X161399939Y-91348587D02*
X161376886Y-91396612D01*
X161376886Y-91396612D02*
X161347039Y-91440741D01*
X161347039Y-91440741D02*
X161310854Y-91480187D01*
X161310854Y-91480187D02*
X161268785Y-91514164D01*
X161268785Y-91514164D02*
X161221287Y-91541885D01*
X161499564Y-91151292D02*
X161423796Y-91189004D01*
X161449969Y-90671785D02*
X161499564Y-91151292D01*
X161462653Y-90633957D02*
X161449969Y-90671785D01*
X161450091Y-90608699D02*
X161462653Y-90633957D01*
X161501672Y-90015824D02*
X161450091Y-90608699D01*
X161514343Y-89978002D02*
X161501672Y-90015824D01*
X161439971Y-89258733D02*
X161464708Y-89323243D01*
X161464708Y-89323243D02*
X161485815Y-89388802D01*
X161485815Y-89388802D02*
X161503275Y-89455255D01*
X161503275Y-89455255D02*
X161517074Y-89522448D01*
X161517074Y-89522448D02*
X161527195Y-89590229D01*
X161527195Y-89590229D02*
X161533623Y-89658443D01*
X161533623Y-89658443D02*
X161536344Y-89726938D01*
X161536344Y-89726938D02*
X161535340Y-89795559D01*
X161535340Y-89795559D02*
X161530598Y-89864154D01*
X161530598Y-89864154D02*
X161522101Y-89932568D01*
X161522101Y-89932568D02*
X161514343Y-89978002D01*
X161352098Y-89018854D02*
X161344307Y-89070083D01*
X161344307Y-89070083D02*
X161348500Y-89120583D01*
X161348500Y-89120583D02*
X161363971Y-89168414D01*
X161363971Y-89168414D02*
X161390016Y-89211634D01*
X161390016Y-89211634D02*
X161425928Y-89248301D01*
X161425928Y-89248301D02*
X161439971Y-89258733D01*
X161138992Y-88274109D02*
X161352098Y-89018854D01*
X161025963Y-87983723D02*
X161138992Y-88274109D01*
X160915938Y-87942811D02*
X160968122Y-87949326D01*
X160968122Y-87949326D02*
X161014485Y-87973734D01*
X161014485Y-87973734D02*
X161025963Y-87983723D01*
X160811481Y-87995932D02*
X160851564Y-87961997D01*
X160851564Y-87961997D02*
X160900822Y-87944475D01*
X160900822Y-87944475D02*
X160915938Y-87942811D01*
X161162969Y-88955434D02*
X161153292Y-88891598D01*
X161153292Y-88891598D02*
X161141923Y-88828128D01*
X161141923Y-88828128D02*
X161128872Y-88765056D01*
X161128872Y-88765056D02*
X161114151Y-88702414D01*
X161114151Y-88702414D02*
X161097771Y-88640234D01*
X161097771Y-88640234D02*
X161079745Y-88578548D01*
X161079745Y-88578548D02*
X161060083Y-88517388D01*
X161060083Y-88517388D02*
X161038799Y-88456787D01*
X161038799Y-88456787D02*
X161015902Y-88396776D01*
X161015902Y-88396776D02*
X160991406Y-88337387D01*
X160991406Y-88337387D02*
X160965321Y-88278654D01*
X160965321Y-88278654D02*
X160937660Y-88220607D01*
X160937660Y-88220607D02*
X160908433Y-88163280D01*
X160908433Y-88163280D02*
X160877653Y-88106703D01*
X160877653Y-88106703D02*
X160845332Y-88050910D01*
X160845332Y-88050910D02*
X160811481Y-87995932D01*
X161300313Y-89737893D02*
X161282188Y-89691124D01*
X161282188Y-89691124D02*
X161265315Y-89643952D01*
X161265315Y-89643952D02*
X161249699Y-89596401D01*
X161249699Y-89596401D02*
X161235342Y-89548498D01*
X161235342Y-89548498D02*
X161216180Y-89476037D01*
X161216180Y-89476037D02*
X161199878Y-89402926D01*
X161199878Y-89402926D02*
X161186451Y-89329251D01*
X161186451Y-89329251D02*
X161175915Y-89255098D01*
X161175915Y-89255098D02*
X161168283Y-89180554D01*
X161168283Y-89180554D02*
X161163572Y-89105704D01*
X161163572Y-89105704D02*
X161162060Y-89055677D01*
X161162060Y-89055677D02*
X161161858Y-89005578D01*
X161161858Y-89005578D02*
X161162969Y-88955434D01*
X161238559Y-90009574D02*
X161223997Y-89955309D01*
X161223997Y-89955309D02*
X161222027Y-89900290D01*
X161222027Y-89900290D02*
X161232174Y-89846577D01*
X161232174Y-89846577D02*
X161253965Y-89796229D01*
X161253965Y-89796229D02*
X161286926Y-89751306D01*
X161286926Y-89751306D02*
X161300313Y-89737893D01*
X161236281Y-90242438D02*
X161268040Y-90195236D01*
X161268040Y-90195236D02*
X161282342Y-90142081D01*
X161282342Y-90142081D02*
X161279130Y-90087476D01*
X161279130Y-90087476D02*
X161258346Y-90035926D01*
X161258346Y-90035926D02*
X161238559Y-90009574D01*
X160842564Y-91667343D02*
X160874754Y-91580540D01*
X160874754Y-91580540D02*
X160905944Y-91493398D01*
X160905944Y-91493398D02*
X160936132Y-91405924D01*
X160936132Y-91405924D02*
X160965315Y-91318127D01*
X160965315Y-91318127D02*
X160993491Y-91230015D01*
X160993491Y-91230015D02*
X161020658Y-91141598D01*
X161020658Y-91141598D02*
X161046812Y-91052882D01*
X161046812Y-91052882D02*
X161071953Y-90963877D01*
X161071953Y-90963877D02*
X161096077Y-90874591D01*
X161096077Y-90874591D02*
X161119182Y-90785033D01*
X161119182Y-90785033D02*
X161141265Y-90695211D01*
X161141265Y-90695211D02*
X161162325Y-90605133D01*
X161162325Y-90605133D02*
X161182359Y-90514809D01*
X161182359Y-90514809D02*
X161201364Y-90424245D01*
X161201364Y-90424245D02*
X161219339Y-90333452D01*
X161219339Y-90333452D02*
X161236281Y-90242438D01*
X160488280Y-92221810D02*
X160842564Y-91667343D01*
X160450920Y-91956799D02*
X160435282Y-92007718D01*
X160435282Y-92007718D02*
X160430341Y-92059850D01*
X160430341Y-92059850D02*
X160435874Y-92111593D01*
X160435874Y-92111593D02*
X160451661Y-92161344D01*
X160451661Y-92161344D02*
X160477481Y-92207500D01*
X160477481Y-92207500D02*
X160488280Y-92221810D01*
X160527615Y-91414449D02*
X160450920Y-91956799D01*
X160642018Y-90947851D02*
X160527615Y-91414449D01*
X160562250Y-90856990D02*
X160579783Y-90906399D01*
X160579783Y-90906399D02*
X160618597Y-90939903D01*
X160618597Y-90939903D02*
X160642018Y-90947851D01*
X160625967Y-90752916D02*
X160583802Y-90784522D01*
X160583802Y-90784522D02*
X160563053Y-90832142D01*
X160563053Y-90832142D02*
X160562250Y-90856990D01*
X160566948Y-90607072D02*
X160606128Y-90642661D01*
X160606128Y-90642661D02*
X160627451Y-90689809D01*
X160627451Y-90689809D02*
X160628431Y-90742317D01*
X160628431Y-90742317D02*
X160625967Y-90752916D01*
X160365364Y-90455311D02*
X160566948Y-90607072D01*
X160340454Y-90278636D02*
X160365364Y-90455311D01*
X160189502Y-90038641D02*
X160228005Y-90076560D01*
X160228005Y-90076560D02*
X160262076Y-90118187D01*
X160262076Y-90118187D02*
X160291467Y-90163124D01*
X160291467Y-90163124D02*
X160315930Y-90210978D01*
X160315930Y-90210978D02*
X160335217Y-90261352D01*
X160335217Y-90261352D02*
X160340454Y-90278636D01*
X159925536Y-89508274D02*
X160189502Y-90038641D01*
X159799956Y-89192639D02*
X159798210Y-89248429D01*
X159798210Y-89248429D02*
X159804892Y-89303124D01*
X159804892Y-89303124D02*
X159819652Y-89355836D01*
X159819652Y-89355836D02*
X159842138Y-89405678D01*
X159842138Y-89405678D02*
X159872001Y-89451761D01*
X159872001Y-89451761D02*
X159908891Y-89493198D01*
X159908891Y-89493198D02*
X159925536Y-89508274D01*
X159721751Y-89196881D02*
X159771492Y-89204041D01*
X159771492Y-89204041D02*
X159799956Y-89192639D01*
X159678490Y-89131285D02*
X159697496Y-89177972D01*
X159697496Y-89177972D02*
X159721751Y-89196881D01*
X159656825Y-88929724D02*
X159686418Y-88975218D01*
X159686418Y-88975218D02*
X159700064Y-89026827D01*
X159700064Y-89026827D02*
X159697507Y-89080275D01*
X159697507Y-89080275D02*
X159678490Y-89131285D01*
X159459884Y-88889201D02*
X159512106Y-88874972D01*
X159512106Y-88874972D02*
X159564928Y-88877516D01*
X159564928Y-88877516D02*
X159614463Y-88896033D01*
X159614463Y-88896033D02*
X159656825Y-88929724D01*
X159094420Y-88661440D02*
X159459884Y-88889201D01*
X158754351Y-88358014D02*
X159094420Y-88661440D01*
X158452204Y-88004206D02*
X158754351Y-88358014D01*
X158300781Y-88016548D02*
X158345498Y-87993767D01*
X158345498Y-87993767D02*
X158399434Y-87988418D01*
X158399434Y-87988418D02*
X158447621Y-88001884D01*
X158447621Y-88001884D02*
X158452204Y-88004206D01*
X158590232Y-88408182D02*
X158300781Y-88016548D01*
X158905190Y-88661095D02*
X158864213Y-88631530D01*
X158864213Y-88631530D02*
X158823683Y-88601369D01*
X158823683Y-88601369D02*
X158783605Y-88570617D01*
X158783605Y-88570617D02*
X158743986Y-88539280D01*
X158743986Y-88539280D02*
X158704832Y-88507362D01*
X158704832Y-88507362D02*
X158666151Y-88474869D01*
X158666151Y-88474869D02*
X158627948Y-88441807D01*
X158627948Y-88441807D02*
X158590232Y-88408182D01*
X158917755Y-88686336D02*
X158905190Y-88661095D01*
X159245261Y-88964520D02*
X158917755Y-88686336D01*
X159522265Y-89267815D02*
X159479264Y-89238359D01*
X159479264Y-89238359D02*
X159438427Y-89206236D01*
X159438427Y-89206236D02*
X159399870Y-89171570D01*
X159399870Y-89171570D02*
X159363705Y-89134489D01*
X159363705Y-89134489D02*
X159330047Y-89095117D01*
X159330047Y-89095117D02*
X159299011Y-89053581D01*
X159299011Y-89053581D02*
X159270711Y-89010006D01*
X159270711Y-89010006D02*
X159245261Y-88964520D01*
X159660533Y-89545624D02*
X159613791Y-89518972D01*
X159613791Y-89518972D02*
X159575117Y-89483599D01*
X159575117Y-89483599D02*
X159545357Y-89441220D01*
X159545357Y-89441220D02*
X159525359Y-89393550D01*
X159525359Y-89393550D02*
X159515970Y-89342303D01*
X159515970Y-89342303D02*
X159518039Y-89289195D01*
X159518039Y-89289195D02*
X159522265Y-89267815D01*
X159911936Y-90050750D02*
X159660533Y-89545624D01*
X160088022Y-90341246D02*
X160054701Y-90299591D01*
X160054701Y-90299591D02*
X160023460Y-90256436D01*
X160023460Y-90256436D02*
X159994348Y-90211859D01*
X159994348Y-90211859D02*
X159967412Y-90165941D01*
X159967412Y-90165941D02*
X159942701Y-90118763D01*
X159942701Y-90118763D02*
X159920263Y-90070405D01*
X159920263Y-90070405D02*
X159911936Y-90050750D01*
X160137718Y-90757682D02*
X160088022Y-90341246D01*
X160213136Y-90909210D02*
X160137718Y-90757682D01*
X160162706Y-91065882D02*
X160164916Y-91013141D01*
X160164916Y-91013141D02*
X160179762Y-90962900D01*
X160179762Y-90962900D02*
X160206448Y-90917502D01*
X160206448Y-90917502D02*
X160213136Y-90909210D01*
X160237819Y-91212052D02*
X160202092Y-91173260D01*
X160202092Y-91173260D02*
X160177069Y-91127360D01*
X160177069Y-91127360D02*
X160163840Y-91076471D01*
X160163840Y-91076471D02*
X160162706Y-91065882D01*
X160186008Y-91931087D02*
X160237819Y-91212052D01*
X160173323Y-91968918D02*
X160186008Y-91931087D01*
X159858519Y-91652920D02*
X159908396Y-91680558D01*
X159908396Y-91680558D02*
X159955657Y-91711979D01*
X159955657Y-91711979D02*
X160000106Y-91746986D01*
X160000106Y-91746986D02*
X160041547Y-91785383D01*
X160041547Y-91785383D02*
X160079784Y-91826971D01*
X160079784Y-91826971D02*
X160114623Y-91871554D01*
X160114623Y-91871554D02*
X160145867Y-91918935D01*
X160145867Y-91918935D02*
X160173323Y-91968918D01*
X159756301Y-91251296D02*
X159795929Y-91291156D01*
X159795929Y-91291156D02*
X159828358Y-91335850D01*
X159828358Y-91335850D02*
X159853352Y-91384439D01*
X159853352Y-91384439D02*
X159870674Y-91435984D01*
X159870674Y-91435984D02*
X159880087Y-91489543D01*
X159880087Y-91489543D02*
X159881357Y-91544179D01*
X159881357Y-91544179D02*
X159874246Y-91598951D01*
X159874246Y-91598951D02*
X159858519Y-91652920D01*
X159089073Y-91563201D02*
X159115392Y-91520148D01*
X159115392Y-91520148D02*
X159160445Y-91460658D01*
X159160445Y-91460658D02*
X159211570Y-91407558D01*
X159211570Y-91407558D02*
X159268078Y-91361169D01*
X159268078Y-91361169D02*
X159329277Y-91321812D01*
X159329277Y-91321812D02*
X159394476Y-91289808D01*
X159394476Y-91289808D02*
X159462985Y-91265477D01*
X159462985Y-91265477D02*
X159534113Y-91249140D01*
X159534113Y-91249140D02*
X159607169Y-91241116D01*
X159607169Y-91241116D02*
X159681462Y-91241728D01*
X159681462Y-91241728D02*
X159731336Y-91247092D01*
X159731336Y-91247092D02*
X159756301Y-91251296D01*
X159151688Y-91815645D02*
X159089073Y-91563201D01*
X159276780Y-91878468D02*
X159244056Y-91838314D01*
X159244056Y-91838314D02*
X159198735Y-91816531D01*
X159198735Y-91816531D02*
X159151688Y-91815645D01*
X159252247Y-92017692D02*
X159281428Y-91974614D01*
X159281428Y-91974614D02*
X159289275Y-91924243D01*
X159289275Y-91924243D02*
X159276780Y-91878468D01*
X159264251Y-92358333D02*
X159268761Y-92305036D01*
X159268761Y-92305036D02*
X159270901Y-92251652D01*
X159270901Y-92251652D02*
X159270675Y-92198259D01*
X159270675Y-92198259D02*
X159268086Y-92144934D01*
X159268086Y-92144934D02*
X159263136Y-92091754D01*
X159263136Y-92091754D02*
X159255829Y-92038795D01*
X159255829Y-92038795D02*
X159252247Y-92017692D01*
X158924158Y-92054919D02*
X158956988Y-92102640D01*
X158956988Y-92102640D02*
X158992884Y-92147832D01*
X158992884Y-92147832D02*
X159031696Y-92190360D01*
X159031696Y-92190360D02*
X159073274Y-92230090D01*
X159073274Y-92230090D02*
X159117468Y-92266886D01*
X159117468Y-92266886D02*
X159164129Y-92300615D01*
X159164129Y-92300615D02*
X159213106Y-92331142D01*
X159213106Y-92331142D02*
X159264251Y-92358333D01*
X158672408Y-91739047D02*
X158924158Y-92054919D01*
X158623523Y-91757217D02*
X158671278Y-91740727D01*
X158671278Y-91740727D02*
X158672408Y-91739047D01*
X158575414Y-91719701D02*
X158611629Y-91754625D01*
X158611629Y-91754625D02*
X158623523Y-91757217D01*
X158587351Y-91659879D02*
X158572391Y-91707911D01*
X158572391Y-91707911D02*
X158575414Y-91719701D01*
X158529830Y-91533205D02*
X158564679Y-91574183D01*
X158564679Y-91574183D02*
X158584010Y-91623951D01*
X158584010Y-91623951D02*
X158587351Y-91659879D01*
X158395318Y-91498832D02*
X158449013Y-91497296D01*
X158449013Y-91497296D02*
X158499780Y-91513321D01*
X158499780Y-91513321D02*
X158529830Y-91533205D01*
X158206644Y-91183063D02*
X158239538Y-91230292D01*
X158239538Y-91230292D02*
X158271190Y-91278340D01*
X158271190Y-91278340D02*
X158301585Y-91327182D01*
X158301585Y-91327182D02*
X158330707Y-91376791D01*
X158330707Y-91376791D02*
X158358541Y-91427143D01*
X158358541Y-91427143D02*
X158385073Y-91478210D01*
X158385073Y-91478210D02*
X158395318Y-91498832D01*
X158017860Y-90930393D02*
X158206644Y-91183063D01*
X158008916Y-90846085D02*
X158025753Y-90895218D01*
X158025753Y-90895218D02*
X158017860Y-90930393D01*
X157929756Y-90816696D02*
X157981072Y-90823404D01*
X157981072Y-90823404D02*
X158008916Y-90846085D01*
X157829427Y-90488476D02*
X157929756Y-90816696D01*
X157808639Y-90318064D02*
X157831061Y-90368669D01*
X157831061Y-90368669D02*
X157839136Y-90422924D01*
X157839136Y-90422924D02*
X157832536Y-90477724D01*
X157832536Y-90477724D02*
X157829427Y-90488476D01*
X157665907Y-90223240D02*
X157718879Y-90239079D01*
X157718879Y-90239079D02*
X157765244Y-90268123D01*
X157765244Y-90268123D02*
X157802501Y-90308708D01*
X157802501Y-90308708D02*
X157808639Y-90318064D01*
X157615976Y-89932963D02*
X157649457Y-89981043D01*
X157649457Y-89981043D02*
X157672139Y-90034019D01*
X157672139Y-90034019D02*
X157683722Y-90090120D01*
X157683722Y-90090120D02*
X157683907Y-90147578D01*
X157683907Y-90147578D02*
X157672395Y-90204622D01*
X157672395Y-90204622D02*
X157665907Y-90223240D01*
X157490275Y-89680403D02*
X157481155Y-89739263D01*
X157481155Y-89739263D02*
X157488873Y-89796360D01*
X157488873Y-89796360D02*
X157511854Y-89848501D01*
X157511854Y-89848501D02*
X157548521Y-89892495D01*
X157548521Y-89892495D02*
X157597298Y-89925149D01*
X157597298Y-89925149D02*
X157615976Y-89932963D01*
X157440843Y-89315549D02*
X157442329Y-89373264D01*
X157442329Y-89373264D02*
X157446139Y-89430818D01*
X157446139Y-89430818D02*
X157452262Y-89488142D01*
X157452262Y-89488142D02*
X157460691Y-89545168D01*
X157460691Y-89545168D02*
X157471417Y-89601826D01*
X157471417Y-89601826D02*
X157484431Y-89658050D01*
X157484431Y-89658050D02*
X157490275Y-89680403D01*
X157353413Y-88573800D02*
X157370726Y-88641984D01*
X157370726Y-88641984D02*
X157386167Y-88710562D01*
X157386167Y-88710562D02*
X157399729Y-88779495D01*
X157399729Y-88779495D02*
X157411410Y-88848744D01*
X157411410Y-88848744D02*
X157421204Y-88918268D01*
X157421204Y-88918268D02*
X157429106Y-88988029D01*
X157429106Y-88988029D02*
X157435113Y-89057987D01*
X157435113Y-89057987D02*
X157439219Y-89128102D01*
X157439219Y-89128102D02*
X157441420Y-89198336D01*
X157441420Y-89198336D02*
X157441711Y-89268649D01*
X157441711Y-89268649D02*
X157440843Y-89315549D01*
X157240272Y-88418309D02*
X157289765Y-88438288D01*
X157289765Y-88438288D02*
X157327292Y-88473866D01*
X157327292Y-88473866D02*
X157349594Y-88520538D01*
X157349594Y-88520538D02*
X157353413Y-88573800D01*
X157241670Y-88891688D02*
X157248169Y-88832653D01*
X157248169Y-88832653D02*
X157252761Y-88773489D01*
X157252761Y-88773489D02*
X157255446Y-88714241D01*
X157255446Y-88714241D02*
X157256224Y-88654952D01*
X157256224Y-88654952D02*
X157255096Y-88595670D01*
X157255096Y-88595670D02*
X157252061Y-88536438D01*
X157252061Y-88536438D02*
X157247119Y-88477303D01*
X157247119Y-88477303D02*
X157240272Y-88418309D01*
X157288575Y-89591724D02*
X157280542Y-89526386D01*
X157280542Y-89526386D02*
X157273260Y-89460969D01*
X157273260Y-89460969D02*
X157266730Y-89395478D01*
X157266730Y-89395478D02*
X157260951Y-89329922D01*
X157260951Y-89329922D02*
X157255925Y-89264306D01*
X157255925Y-89264306D02*
X157251651Y-89198638D01*
X157251651Y-89198638D02*
X157248130Y-89132923D01*
X157248130Y-89132923D02*
X157245362Y-89067170D01*
X157245362Y-89067170D02*
X157243349Y-89001384D01*
X157243349Y-89001384D02*
X157242090Y-88935573D01*
X157242090Y-88935573D02*
X157241670Y-88891688D01*
X157350947Y-89970326D02*
X157288575Y-89591724D01*
X157297356Y-90085538D02*
X157306369Y-90033154D01*
X157306369Y-90033154D02*
X157333210Y-89987645D01*
X157333210Y-89987645D02*
X157350947Y-89970326D01*
X157353672Y-90199150D02*
X157318457Y-90159440D01*
X157318457Y-90159440D02*
X157299762Y-90110184D01*
X157299762Y-90110184D02*
X157297356Y-90085538D01*
X157446641Y-90196596D02*
X157396623Y-90185052D01*
X157396623Y-90185052D02*
X157353672Y-90199150D01*
X157497133Y-90277791D02*
X157481199Y-90227754D01*
X157481199Y-90227754D02*
X157446641Y-90196596D01*
X157451176Y-90361627D02*
X157486948Y-90323191D01*
X157486948Y-90323191D02*
X157497133Y-90277791D01*
X157488765Y-90500468D02*
X157451176Y-90361627D01*
X157690343Y-90652239D02*
X157488765Y-90500468D01*
X158080005Y-91435172D02*
X157690343Y-90652239D01*
X158167655Y-91801202D02*
X158148304Y-91745487D01*
X158148304Y-91745487D02*
X158131028Y-91689138D01*
X158131028Y-91689138D02*
X158115840Y-91632214D01*
X158115840Y-91632214D02*
X158102754Y-91574774D01*
X158102754Y-91574774D02*
X158091783Y-91516878D01*
X158091783Y-91516878D02*
X158082942Y-91458586D01*
X158082942Y-91458586D02*
X158080005Y-91435172D01*
X158545443Y-92180397D02*
X158167655Y-91801202D01*
X159024247Y-92509295D02*
X158987324Y-92468092D01*
X158987324Y-92468092D02*
X158948517Y-92428870D01*
X158948517Y-92428870D02*
X158907908Y-92391688D01*
X158907908Y-92391688D02*
X158865577Y-92356600D01*
X158865577Y-92356600D02*
X158821608Y-92323663D01*
X158821608Y-92323663D02*
X158776081Y-92292935D01*
X158776081Y-92292935D02*
X158729080Y-92264471D01*
X158729080Y-92264471D02*
X158680685Y-92238329D01*
X158680685Y-92238329D02*
X158630978Y-92214565D01*
X158630978Y-92214565D02*
X158580042Y-92193236D01*
X158580042Y-92193236D02*
X158545443Y-92180397D01*
X159011557Y-92547128D02*
X159024247Y-92509295D01*
X158582921Y-92382326D02*
X159011557Y-92547128D01*
X158330943Y-92192611D02*
X158582921Y-92382326D01*
X158192094Y-92230200D02*
X158330943Y-92192611D01*
X158041022Y-92053295D02*
X158192094Y-92230200D01*
X157707458Y-91945456D02*
X157762824Y-91950407D01*
X157762824Y-91950407D02*
X157817389Y-91959897D01*
X157817389Y-91959897D02*
X157870879Y-91973834D01*
X157870879Y-91973834D02*
X157923020Y-91992131D01*
X157923020Y-91992131D02*
X157973540Y-92014698D01*
X157973540Y-92014698D02*
X158022164Y-92041445D01*
X158022164Y-92041445D02*
X158041022Y-92053295D01*
X157702334Y-91942652D02*
X157707458Y-91945456D01*
X157618914Y-91890302D02*
X157702334Y-91942652D01*
X157121214Y-91408170D02*
X157618914Y-91890302D01*
X156693500Y-90738717D02*
X156707531Y-90787519D01*
X156707531Y-90787519D02*
X156723394Y-90835612D01*
X156723394Y-90835612D02*
X156741061Y-90882948D01*
X156741061Y-90882948D02*
X156760501Y-90929482D01*
X156760501Y-90929482D02*
X156781683Y-90975166D01*
X156781683Y-90975166D02*
X156804580Y-91019953D01*
X156804580Y-91019953D02*
X156829159Y-91063796D01*
X156829159Y-91063796D02*
X156855393Y-91106648D01*
X156855393Y-91106648D02*
X156883250Y-91148463D01*
X156883250Y-91148463D02*
X156912701Y-91189193D01*
X156912701Y-91189193D02*
X156943717Y-91228791D01*
X156943717Y-91228791D02*
X156976267Y-91267212D01*
X156976267Y-91267212D02*
X157010321Y-91304406D01*
X157010321Y-91304406D02*
X157045850Y-91340329D01*
X157045850Y-91340329D02*
X157082824Y-91374932D01*
X157082824Y-91374932D02*
X157121214Y-91408170D01*
X156570388Y-90335012D02*
X156589860Y-90384149D01*
X156589860Y-90384149D02*
X156608178Y-90433707D01*
X156608178Y-90433707D02*
X156625336Y-90483666D01*
X156625336Y-90483666D02*
X156641328Y-90534003D01*
X156641328Y-90534003D02*
X156656146Y-90584697D01*
X156656146Y-90584697D02*
X156669786Y-90635729D01*
X156669786Y-90635729D02*
X156682239Y-90687075D01*
X156682239Y-90687075D02*
X156693500Y-90738717D01*
X156455129Y-90006525D02*
X156570388Y-90335012D01*
X156459074Y-89921623D02*
X156468367Y-89972762D01*
X156468367Y-89972762D02*
X156455129Y-90006525D01*
X156384854Y-89886541D02*
X156434235Y-89896900D01*
X156434235Y-89896900D02*
X156459074Y-89921623D01*
X156322650Y-89940117D02*
X156352171Y-89899199D01*
X156352171Y-89899199D02*
X156384854Y-89886541D01*
X156489463Y-90624794D02*
X156322650Y-89940117D01*
X156629958Y-90990928D02*
X156600485Y-90936845D01*
X156600485Y-90936845D02*
X156573739Y-90881450D01*
X156573739Y-90881450D02*
X156549760Y-90824847D01*
X156549760Y-90824847D02*
X156528587Y-90767143D01*
X156528587Y-90767143D02*
X156510261Y-90708444D01*
X156510261Y-90708444D02*
X156494821Y-90648855D01*
X156494821Y-90648855D02*
X156489463Y-90624794D01*
X158291603Y-92999994D02*
X158543936Y-93000444D01*
X158278913Y-93037800D02*
X158291603Y-92999994D01*
X158077947Y-93185211D02*
X158102060Y-93139967D01*
X158102060Y-93139967D02*
X158127722Y-93095585D01*
X158127722Y-93095585D02*
X158140082Y-93075405D01*
X156755293Y-91432721D02*
X156629958Y-90990928D01*
X156981909Y-91698089D02*
X156755293Y-91432721D01*
X157603142Y-92165807D02*
X156981909Y-91698089D01*
X157825945Y-92380923D02*
X157780423Y-92344615D01*
X157780423Y-92344615D02*
X157736562Y-92306384D01*
X157736562Y-92306384D02*
X157694423Y-92266287D01*
X157694423Y-92266287D02*
X157654068Y-92224384D01*
X157654068Y-92224384D02*
X157615558Y-92180734D01*
X157615558Y-92180734D02*
X157603142Y-92165807D01*
X158040092Y-92557948D02*
X157988762Y-92540430D01*
X157988762Y-92540430D02*
X157941619Y-92514870D01*
X157941619Y-92514870D02*
X157899537Y-92481995D01*
X157899537Y-92481995D02*
X157863391Y-92442531D01*
X157863391Y-92442531D02*
X157834057Y-92397207D01*
X157834057Y-92397207D02*
X157825945Y-92380923D01*
X158607017Y-93000558D02*
X158909965Y-92912806D01*
X158543936Y-93000444D02*
X158607017Y-93000558D01*
X158173278Y-92562843D02*
X158124541Y-92543254D01*
X158124541Y-92543254D02*
X158072918Y-92544873D01*
X158072918Y-92544873D02*
X158040092Y-92557948D01*
X158229102Y-92684462D02*
X158224612Y-92632002D01*
X158224612Y-92632002D02*
X158199756Y-92586387D01*
X158199756Y-92586387D02*
X158173278Y-92562843D01*
X158266933Y-92697149D02*
X158229102Y-92684462D01*
X159048939Y-92812126D02*
X159002677Y-92792411D01*
X159002677Y-92792411D02*
X158955866Y-92774337D01*
X158955866Y-92774337D02*
X158908547Y-92757910D01*
X158908547Y-92757910D02*
X158860765Y-92743136D01*
X158860765Y-92743136D02*
X158788318Y-92724088D01*
X158788318Y-92724088D02*
X158715069Y-92708797D01*
X158715069Y-92708797D02*
X158641166Y-92697283D01*
X158641166Y-92697283D02*
X158566755Y-92689569D01*
X158566755Y-92689569D02*
X158491980Y-92685677D01*
X158491980Y-92685677D02*
X158416987Y-92685628D01*
X158416987Y-92685628D02*
X158366943Y-92687742D01*
X158366943Y-92687742D02*
X158316911Y-92691580D01*
X158316911Y-92691580D02*
X158266933Y-92697149D01*
X159032026Y-92881354D02*
X159053502Y-92835535D01*
X159053502Y-92835535D02*
X159048939Y-92812126D01*
X158960481Y-92887669D02*
X159011141Y-92893194D01*
X159011141Y-92893194D02*
X159032026Y-92881354D01*
X158935223Y-92900240D02*
X158960481Y-92887669D01*
X158909965Y-92912806D02*
X158935223Y-92900240D01*
X158191074Y-93126121D02*
X158241366Y-93121077D01*
X158241366Y-93121077D02*
X158260494Y-93107317D01*
X158140082Y-93075405D02*
X158169592Y-93116438D01*
X158169592Y-93116438D02*
X158191074Y-93126121D01*
X158260494Y-93107317D02*
X158281267Y-93061243D01*
X158281267Y-93061243D02*
X158278913Y-93037800D01*
D11*
X148286654Y-95686571D02*
X148358083Y-95734190D01*
X148381892Y-95781809D01*
X148405702Y-95877047D01*
X148405702Y-96019904D01*
X148381892Y-96115142D01*
X148358083Y-96162761D01*
X148310464Y-96210380D01*
X148119988Y-96210380D01*
X148119988Y-95210380D01*
X148286654Y-95210380D01*
X148334273Y-95258000D01*
X148358083Y-95305619D01*
X148381892Y-95400857D01*
X148381892Y-95496095D01*
X148358083Y-95591333D01*
X148334273Y-95638952D01*
X148286654Y-95686571D01*
X148119988Y-95686571D01*
X148905702Y-96210380D02*
X148739035Y-95734190D01*
X148619988Y-96210380D02*
X148619988Y-95210380D01*
X148810464Y-95210380D01*
X148858083Y-95258000D01*
X148881892Y-95305619D01*
X148905702Y-95400857D01*
X148905702Y-95543714D01*
X148881892Y-95638952D01*
X148858083Y-95686571D01*
X148810464Y-95734190D01*
X148619988Y-95734190D01*
X149119988Y-96210380D02*
X149119988Y-95210380D01*
X149405702Y-96210380D01*
X149405702Y-95210380D01*
X148191416Y-90384380D02*
X148286654Y-90384380D01*
X148334273Y-90432000D01*
X148381892Y-90527238D01*
X148405702Y-90717714D01*
X148405702Y-91051047D01*
X148381892Y-91241523D01*
X148334273Y-91336761D01*
X148286654Y-91384380D01*
X148191416Y-91384380D01*
X148143797Y-91336761D01*
X148096178Y-91241523D01*
X148072369Y-91051047D01*
X148072369Y-90717714D01*
X148096178Y-90527238D01*
X148143797Y-90432000D01*
X148191416Y-90384380D01*
X148905702Y-91384380D02*
X148739035Y-90908190D01*
X148619988Y-91384380D02*
X148619988Y-90384380D01*
X148810464Y-90384380D01*
X148858083Y-90432000D01*
X148881892Y-90479619D01*
X148905702Y-90574857D01*
X148905702Y-90717714D01*
X148881892Y-90812952D01*
X148858083Y-90860571D01*
X148810464Y-90908190D01*
X148619988Y-90908190D01*
X149119988Y-91384380D02*
X149119988Y-90384380D01*
X149405702Y-91384380D01*
X149405702Y-90384380D01*
X148477130Y-93670380D02*
X148310464Y-93194190D01*
X148191416Y-93670380D02*
X148191416Y-92670380D01*
X148381892Y-92670380D01*
X148429511Y-92718000D01*
X148453321Y-92765619D01*
X148477130Y-92860857D01*
X148477130Y-93003714D01*
X148453321Y-93098952D01*
X148429511Y-93146571D01*
X148381892Y-93194190D01*
X148191416Y-93194190D01*
X148691416Y-93146571D02*
X148858083Y-93146571D01*
X148929511Y-93670380D02*
X148691416Y-93670380D01*
X148691416Y-92670380D01*
X148929511Y-92670380D01*
X149143797Y-93670380D02*
X149143797Y-92670380D01*
X149262845Y-92670380D01*
X149334273Y-92718000D01*
X149381892Y-92813238D01*
X149405702Y-92908476D01*
X149429511Y-93098952D01*
X149429511Y-93241809D01*
X149405702Y-93432285D01*
X149381892Y-93527523D01*
X149334273Y-93622761D01*
X149262845Y-93670380D01*
X149143797Y-93670380D01*
X148405702Y-84256571D02*
X148477130Y-84304190D01*
X148500940Y-84351809D01*
X148524750Y-84447047D01*
X148524750Y-84589904D01*
X148500940Y-84685142D01*
X148477130Y-84732761D01*
X148429511Y-84780380D01*
X148239035Y-84780380D01*
X148239035Y-83780380D01*
X148405702Y-83780380D01*
X148453321Y-83828000D01*
X148477130Y-83875619D01*
X148500940Y-83970857D01*
X148500940Y-84066095D01*
X148477130Y-84161333D01*
X148453321Y-84208952D01*
X148405702Y-84256571D01*
X148239035Y-84256571D01*
X148977130Y-84780380D02*
X148739035Y-84780380D01*
X148739035Y-83780380D01*
X149143797Y-84780380D02*
X149143797Y-83780380D01*
X149429511Y-84780380D02*
X149215226Y-84208952D01*
X149429511Y-83780380D02*
X149143797Y-84351809D01*
X148381892Y-81288000D02*
X148334273Y-81240380D01*
X148262845Y-81240380D01*
X148191416Y-81288000D01*
X148143797Y-81383238D01*
X148119988Y-81478476D01*
X148096178Y-81668952D01*
X148096178Y-81811809D01*
X148119988Y-82002285D01*
X148143797Y-82097523D01*
X148191416Y-82192761D01*
X148262845Y-82240380D01*
X148310464Y-82240380D01*
X148381892Y-82192761D01*
X148405702Y-82145142D01*
X148405702Y-81811809D01*
X148310464Y-81811809D01*
X148905702Y-82240380D02*
X148739035Y-81764190D01*
X148619988Y-82240380D02*
X148619988Y-81240380D01*
X148810464Y-81240380D01*
X148858083Y-81288000D01*
X148881892Y-81335619D01*
X148905702Y-81430857D01*
X148905702Y-81573714D01*
X148881892Y-81668952D01*
X148858083Y-81716571D01*
X148810464Y-81764190D01*
X148619988Y-81764190D01*
X149119988Y-82240380D02*
X149119988Y-81240380D01*
X149405702Y-82240380D01*
X149405702Y-81240380D01*
X148381892Y-79176571D02*
X148453321Y-79224190D01*
X148477130Y-79271809D01*
X148500940Y-79367047D01*
X148500940Y-79509904D01*
X148477130Y-79605142D01*
X148453321Y-79652761D01*
X148405702Y-79700380D01*
X148215226Y-79700380D01*
X148215226Y-78700380D01*
X148381892Y-78700380D01*
X148429511Y-78748000D01*
X148453321Y-78795619D01*
X148477130Y-78890857D01*
X148477130Y-78986095D01*
X148453321Y-79081333D01*
X148429511Y-79128952D01*
X148381892Y-79176571D01*
X148215226Y-79176571D01*
X148953321Y-79700380D02*
X148715226Y-79700380D01*
X148715226Y-78700380D01*
X149119988Y-78700380D02*
X149119988Y-79509904D01*
X149143797Y-79605142D01*
X149167607Y-79652761D01*
X149215226Y-79700380D01*
X149310464Y-79700380D01*
X149358083Y-79652761D01*
X149381892Y-79605142D01*
X149405702Y-79509904D01*
X149405702Y-78700380D01*
X148477130Y-77414380D02*
X148310464Y-76938190D01*
X148191416Y-77414380D02*
X148191416Y-76414380D01*
X148381892Y-76414380D01*
X148429511Y-76462000D01*
X148453321Y-76509619D01*
X148477130Y-76604857D01*
X148477130Y-76747714D01*
X148453321Y-76842952D01*
X148429511Y-76890571D01*
X148381892Y-76938190D01*
X148191416Y-76938190D01*
X148691416Y-76890571D02*
X148858083Y-76890571D01*
X148929511Y-77414380D02*
X148691416Y-77414380D01*
X148691416Y-76414380D01*
X148929511Y-76414380D01*
X149143797Y-77414380D02*
X149143797Y-76414380D01*
X149262845Y-76414380D01*
X149334273Y-76462000D01*
X149381892Y-76557238D01*
X149405702Y-76652476D01*
X149429511Y-76842952D01*
X149429511Y-76985809D01*
X149405702Y-77176285D01*
X149381892Y-77271523D01*
X149334273Y-77366761D01*
X149262845Y-77414380D01*
X149143797Y-77414380D01*
D12*
X129693238Y-99671142D02*
X129655142Y-99718761D01*
X129540857Y-99766380D01*
X129464666Y-99766380D01*
X129350380Y-99718761D01*
X129274190Y-99623523D01*
X129236095Y-99528285D01*
X129198000Y-99337809D01*
X129198000Y-99194952D01*
X129236095Y-99004476D01*
X129274190Y-98909238D01*
X129350380Y-98814000D01*
X129464666Y-98766380D01*
X129540857Y-98766380D01*
X129655142Y-98814000D01*
X129693238Y-98861619D01*
X130036095Y-99766380D02*
X130036095Y-98766380D01*
X130378952Y-99766380D02*
X130378952Y-99242571D01*
X130340857Y-99147333D01*
X130264666Y-99099714D01*
X130150380Y-99099714D01*
X130074190Y-99147333D01*
X130036095Y-99194952D01*
X131102761Y-99766380D02*
X131102761Y-99242571D01*
X131064666Y-99147333D01*
X130988476Y-99099714D01*
X130836095Y-99099714D01*
X130759904Y-99147333D01*
X131102761Y-99718761D02*
X131026571Y-99766380D01*
X130836095Y-99766380D01*
X130759904Y-99718761D01*
X130721809Y-99623523D01*
X130721809Y-99528285D01*
X130759904Y-99433047D01*
X130836095Y-99385428D01*
X131026571Y-99385428D01*
X131102761Y-99337809D01*
X131483714Y-99766380D02*
X131483714Y-99099714D01*
X131483714Y-99290190D02*
X131521809Y-99194952D01*
X131559904Y-99147333D01*
X131636095Y-99099714D01*
X131712285Y-99099714D01*
X132321809Y-99766380D02*
X132321809Y-99242571D01*
X132283714Y-99147333D01*
X132207523Y-99099714D01*
X132055142Y-99099714D01*
X131978952Y-99147333D01*
X132321809Y-99718761D02*
X132245619Y-99766380D01*
X132055142Y-99766380D01*
X131978952Y-99718761D01*
X131940857Y-99623523D01*
X131940857Y-99528285D01*
X131978952Y-99433047D01*
X132055142Y-99385428D01*
X132245619Y-99385428D01*
X132321809Y-99337809D01*
X133045619Y-99718761D02*
X132969428Y-99766380D01*
X132817047Y-99766380D01*
X132740857Y-99718761D01*
X132702761Y-99671142D01*
X132664666Y-99575904D01*
X132664666Y-99290190D01*
X132702761Y-99194952D01*
X132740857Y-99147333D01*
X132817047Y-99099714D01*
X132969428Y-99099714D01*
X133045619Y-99147333D01*
X133274190Y-99099714D02*
X133578952Y-99099714D01*
X133388476Y-98766380D02*
X133388476Y-99623523D01*
X133426571Y-99718761D01*
X133502761Y-99766380D01*
X133578952Y-99766380D01*
X134150380Y-99718761D02*
X134074190Y-99766380D01*
X133921809Y-99766380D01*
X133845619Y-99718761D01*
X133807523Y-99623523D01*
X133807523Y-99242571D01*
X133845619Y-99147333D01*
X133921809Y-99099714D01*
X134074190Y-99099714D01*
X134150380Y-99147333D01*
X134188476Y-99242571D01*
X134188476Y-99337809D01*
X133807523Y-99433047D01*
X134531333Y-99766380D02*
X134531333Y-99099714D01*
X134531333Y-99290190D02*
X134569428Y-99194952D01*
X134607523Y-99147333D01*
X134683714Y-99099714D01*
X134759904Y-99099714D01*
X136093238Y-99671142D02*
X136055142Y-99718761D01*
X135940857Y-99766380D01*
X135864666Y-99766380D01*
X135750380Y-99718761D01*
X135674190Y-99623523D01*
X135636095Y-99528285D01*
X135598000Y-99337809D01*
X135598000Y-99194952D01*
X135636095Y-99004476D01*
X135674190Y-98909238D01*
X135750380Y-98814000D01*
X135864666Y-98766380D01*
X135940857Y-98766380D01*
X136055142Y-98814000D01*
X136093238Y-98861619D01*
X136550380Y-99766380D02*
X136474190Y-99718761D01*
X136436095Y-99671142D01*
X136398000Y-99575904D01*
X136398000Y-99290190D01*
X136436095Y-99194952D01*
X136474190Y-99147333D01*
X136550380Y-99099714D01*
X136664666Y-99099714D01*
X136740857Y-99147333D01*
X136778952Y-99194952D01*
X136817047Y-99290190D01*
X136817047Y-99575904D01*
X136778952Y-99671142D01*
X136740857Y-99718761D01*
X136664666Y-99766380D01*
X136550380Y-99766380D01*
X137159904Y-99099714D02*
X137159904Y-99766380D01*
X137159904Y-99194952D02*
X137198000Y-99147333D01*
X137274190Y-99099714D01*
X137388476Y-99099714D01*
X137464666Y-99147333D01*
X137502761Y-99242571D01*
X137502761Y-99766380D01*
X137769428Y-99099714D02*
X138074190Y-99099714D01*
X137883714Y-98766380D02*
X137883714Y-99623523D01*
X137921809Y-99718761D01*
X137998000Y-99766380D01*
X138074190Y-99766380D01*
X138340857Y-99766380D02*
X138340857Y-99099714D01*
X138340857Y-99290190D02*
X138378952Y-99194952D01*
X138417047Y-99147333D01*
X138493238Y-99099714D01*
X138569428Y-99099714D01*
X138950380Y-99766380D02*
X138874190Y-99718761D01*
X138836095Y-99671142D01*
X138798000Y-99575904D01*
X138798000Y-99290190D01*
X138836095Y-99194952D01*
X138874190Y-99147333D01*
X138950380Y-99099714D01*
X139064666Y-99099714D01*
X139140857Y-99147333D01*
X139178952Y-99194952D01*
X139217047Y-99290190D01*
X139217047Y-99575904D01*
X139178952Y-99671142D01*
X139140857Y-99718761D01*
X139064666Y-99766380D01*
X138950380Y-99766380D01*
X139674190Y-99766380D02*
X139598000Y-99718761D01*
X139559904Y-99623523D01*
X139559904Y-98766380D01*
X140093238Y-99766380D02*
X140017047Y-99718761D01*
X139978952Y-99623523D01*
X139978952Y-98766380D01*
X140702761Y-99718761D02*
X140626571Y-99766380D01*
X140474190Y-99766380D01*
X140398000Y-99718761D01*
X140359904Y-99623523D01*
X140359904Y-99242571D01*
X140398000Y-99147333D01*
X140474190Y-99099714D01*
X140626571Y-99099714D01*
X140702761Y-99147333D01*
X140740857Y-99242571D01*
X140740857Y-99337809D01*
X140359904Y-99433047D01*
X141083714Y-99766380D02*
X141083714Y-99099714D01*
X141083714Y-99290190D02*
X141121809Y-99194952D01*
X141159904Y-99147333D01*
X141236095Y-99099714D01*
X141312285Y-99099714D01*
X142112285Y-99099714D02*
X142302761Y-99766380D01*
X142493238Y-99099714D01*
X142798000Y-99671142D02*
X142836095Y-99718761D01*
X142798000Y-99766380D01*
X142759904Y-99718761D01*
X142798000Y-99671142D01*
X142798000Y-99766380D01*
X143102761Y-98766380D02*
X143598000Y-98766380D01*
X143331333Y-99147333D01*
X143445619Y-99147333D01*
X143521809Y-99194952D01*
X143559904Y-99242571D01*
X143598000Y-99337809D01*
X143598000Y-99575904D01*
X143559904Y-99671142D01*
X143521809Y-99718761D01*
X143445619Y-99766380D01*
X143217047Y-99766380D01*
X143140857Y-99718761D01*
X143102761Y-99671142D01*
X143325904Y-95300666D02*
X144125904Y-95034000D01*
X143325904Y-94767333D01*
X144125904Y-94500666D02*
X143325904Y-94500666D01*
X143325904Y-94310190D01*
X143364000Y-94195904D01*
X143440190Y-94119714D01*
X143516380Y-94081619D01*
X143668761Y-94043523D01*
X143783047Y-94043523D01*
X143935428Y-94081619D01*
X144011619Y-94119714D01*
X144087809Y-94195904D01*
X144125904Y-94310190D01*
X144125904Y-94500666D01*
X144125904Y-93700666D02*
X143325904Y-93700666D01*
X143325904Y-93510190D01*
X143364000Y-93395904D01*
X143440190Y-93319714D01*
X143516380Y-93281619D01*
X143668761Y-93243523D01*
X143783047Y-93243523D01*
X143935428Y-93281619D01*
X144011619Y-93319714D01*
X144087809Y-93395904D01*
X144125904Y-93510190D01*
X144125904Y-93700666D01*
X143364000Y-97383523D02*
X143325904Y-97459714D01*
X143325904Y-97574000D01*
X143364000Y-97688285D01*
X143440190Y-97764476D01*
X143516380Y-97802571D01*
X143668761Y-97840666D01*
X143783047Y-97840666D01*
X143935428Y-97802571D01*
X144011619Y-97764476D01*
X144087809Y-97688285D01*
X144125904Y-97574000D01*
X144125904Y-97497809D01*
X144087809Y-97383523D01*
X144049714Y-97345428D01*
X143783047Y-97345428D01*
X143783047Y-97497809D01*
X144125904Y-97002571D02*
X143325904Y-97002571D01*
X144125904Y-96545428D01*
X143325904Y-96545428D01*
X144125904Y-96164476D02*
X143325904Y-96164476D01*
X143325904Y-95974000D01*
X143364000Y-95859714D01*
X143440190Y-95783523D01*
X143516380Y-95745428D01*
X143668761Y-95707333D01*
X143783047Y-95707333D01*
X143935428Y-95745428D01*
X144011619Y-95783523D01*
X144087809Y-95859714D01*
X144125904Y-95974000D01*
X144125904Y-96164476D01*
X137065047Y-77160380D02*
X137065047Y-76160380D01*
X137303142Y-76160380D01*
X137446000Y-76208000D01*
X137541238Y-76303238D01*
X137588857Y-76398476D01*
X137636476Y-76588952D01*
X137636476Y-76731809D01*
X137588857Y-76922285D01*
X137541238Y-77017523D01*
X137446000Y-77112761D01*
X137303142Y-77160380D01*
X137065047Y-77160380D01*
X138636476Y-77160380D02*
X138303142Y-76684190D01*
X138065047Y-77160380D02*
X138065047Y-76160380D01*
X138446000Y-76160380D01*
X138541238Y-76208000D01*
X138588857Y-76255619D01*
X138636476Y-76350857D01*
X138636476Y-76493714D01*
X138588857Y-76588952D01*
X138541238Y-76636571D01*
X138446000Y-76684190D01*
X138065047Y-76684190D01*
X139065047Y-77160380D02*
X139065047Y-76160380D01*
X139398380Y-76160380D02*
X139731714Y-77160380D01*
X140065047Y-76160380D01*
X140398380Y-76636571D02*
X140731714Y-76636571D01*
X140874571Y-77160380D02*
X140398380Y-77160380D01*
X140398380Y-76160380D01*
X140874571Y-76160380D01*
X141874571Y-77160380D02*
X141541238Y-76684190D01*
X141303142Y-77160380D02*
X141303142Y-76160380D01*
X141684095Y-76160380D01*
X141779333Y-76208000D01*
X141826952Y-76255619D01*
X141874571Y-76350857D01*
X141874571Y-76493714D01*
X141826952Y-76588952D01*
X141779333Y-76636571D01*
X141684095Y-76684190D01*
X141303142Y-76684190D01*
D13*
X131572000Y-98298000D02*
X131572000Y-77470000D01*
X147574000Y-98298000D02*
X131572000Y-98298000D01*
X147574000Y-77470000D02*
X147574000Y-98298000D01*
X131572000Y-77470000D02*
X147574000Y-77470000D01*
D11*
X142300000Y-72588380D02*
X141966666Y-72588380D01*
X141966666Y-71588380D01*
X142666666Y-71588380D02*
X142800000Y-71588380D01*
X142866666Y-71636000D01*
X142933333Y-71731238D01*
X142966666Y-71921714D01*
X142966666Y-72255047D01*
X142933333Y-72445523D01*
X142866666Y-72540761D01*
X142800000Y-72588380D01*
X142666666Y-72588380D01*
X142600000Y-72540761D01*
X142533333Y-72445523D01*
X142500000Y-72255047D01*
X142500000Y-71921714D01*
X142533333Y-71731238D01*
X142600000Y-71636000D01*
X142666666Y-71588380D01*
X143400000Y-71588380D02*
X143533333Y-71588380D01*
X143600000Y-71636000D01*
X143666666Y-71731238D01*
X143700000Y-71921714D01*
X143700000Y-72255047D01*
X143666666Y-72445523D01*
X143600000Y-72540761D01*
X143533333Y-72588380D01*
X143400000Y-72588380D01*
X143333333Y-72540761D01*
X143266666Y-72445523D01*
X143233333Y-72255047D01*
X143233333Y-71921714D01*
X143266666Y-71731238D01*
X143333333Y-71636000D01*
X143400000Y-71588380D01*
X144000000Y-72588380D02*
X144000000Y-71588380D01*
X144266666Y-71588380D01*
X144333333Y-71636000D01*
X144366666Y-71683619D01*
X144400000Y-71778857D01*
X144400000Y-71921714D01*
X144366666Y-72016952D01*
X144333333Y-72064571D01*
X144266666Y-72112190D01*
X144000000Y-72112190D01*
X145200000Y-71540761D02*
X144600000Y-72826476D01*
X145400000Y-72540761D02*
X145500000Y-72588380D01*
X145666666Y-72588380D01*
X145733333Y-72540761D01*
X145766666Y-72493142D01*
X145800000Y-72397904D01*
X145800000Y-72302666D01*
X145766666Y-72207428D01*
X145733333Y-72159809D01*
X145666666Y-72112190D01*
X145533333Y-72064571D01*
X145466666Y-72016952D01*
X145433333Y-71969333D01*
X145400000Y-71874095D01*
X145400000Y-71778857D01*
X145433333Y-71683619D01*
X145466666Y-71636000D01*
X145533333Y-71588380D01*
X145700000Y-71588380D01*
X145800000Y-71636000D01*
X146000000Y-71588380D02*
X146400000Y-71588380D01*
X146200000Y-72588380D02*
X146200000Y-71588380D01*
X146633333Y-72064571D02*
X146866666Y-72064571D01*
X146966666Y-72588380D02*
X146633333Y-72588380D01*
X146633333Y-71588380D01*
X146966666Y-71588380D01*
X147266666Y-72588380D02*
X147266666Y-71588380D01*
X147533333Y-71588380D01*
X147600000Y-71636000D01*
X147633333Y-71683619D01*
X147666666Y-71778857D01*
X147666666Y-71921714D01*
X147633333Y-72016952D01*
X147600000Y-72064571D01*
X147533333Y-72112190D01*
X147266666Y-72112190D01*
X148466666Y-71540761D02*
X147866666Y-72826476D01*
X148600000Y-71683619D02*
X148733333Y-71540761D01*
X148866666Y-71683619D01*
X149100000Y-72064571D02*
X149333333Y-72064571D01*
X149433333Y-72588380D02*
X149100000Y-72588380D01*
X149100000Y-71588380D01*
X149433333Y-71588380D01*
X149733333Y-72588380D02*
X149733333Y-71588380D01*
X150133333Y-72588380D01*
X150133333Y-71588380D01*
X130453333Y-71636000D02*
X130386666Y-71588380D01*
X130286666Y-71588380D01*
X130186666Y-71636000D01*
X130120000Y-71731238D01*
X130086666Y-71826476D01*
X130053333Y-72016952D01*
X130053333Y-72159809D01*
X130086666Y-72350285D01*
X130120000Y-72445523D01*
X130186666Y-72540761D01*
X130286666Y-72588380D01*
X130353333Y-72588380D01*
X130453333Y-72540761D01*
X130486666Y-72493142D01*
X130486666Y-72159809D01*
X130353333Y-72159809D01*
X130786666Y-72588380D02*
X130786666Y-71588380D01*
X131186666Y-72588380D01*
X131186666Y-71588380D01*
X131520000Y-72588380D02*
X131520000Y-71588380D01*
X131686666Y-71588380D01*
X131786666Y-71636000D01*
X131853333Y-71731238D01*
X131886666Y-71826476D01*
X131920000Y-72016952D01*
X131920000Y-72159809D01*
X131886666Y-72350285D01*
X131853333Y-72445523D01*
X131786666Y-72540761D01*
X131686666Y-72588380D01*
X131520000Y-72588380D01*
X132720000Y-71540761D02*
X132120000Y-72826476D01*
X132953333Y-72207428D02*
X133486666Y-72207428D01*
X133220000Y-72588380D02*
X133220000Y-71826476D01*
X134186666Y-72588380D02*
X133786666Y-72588380D01*
X133986666Y-72588380D02*
X133986666Y-71588380D01*
X133920000Y-71731238D01*
X133853333Y-71826476D01*
X133786666Y-71874095D01*
X134453333Y-71683619D02*
X134486666Y-71636000D01*
X134553333Y-71588380D01*
X134720000Y-71588380D01*
X134786666Y-71636000D01*
X134820000Y-71683619D01*
X134853333Y-71778857D01*
X134853333Y-71874095D01*
X134820000Y-72016952D01*
X134420000Y-72588380D01*
X134853333Y-72588380D01*
X135086666Y-71921714D02*
X135253333Y-72588380D01*
X135420000Y-71921714D01*
X136186666Y-71540761D02*
X135586666Y-72826476D01*
X136420000Y-72207428D02*
X136953333Y-72207428D01*
X136686666Y-72588380D02*
X136686666Y-71826476D01*
X137220000Y-71588380D02*
X137653333Y-71588380D01*
X137420000Y-71969333D01*
X137520000Y-71969333D01*
X137586666Y-72016952D01*
X137620000Y-72064571D01*
X137653333Y-72159809D01*
X137653333Y-72397904D01*
X137620000Y-72493142D01*
X137586666Y-72540761D01*
X137520000Y-72588380D01*
X137320000Y-72588380D01*
X137253333Y-72540761D01*
X137220000Y-72493142D01*
X137953333Y-72493142D02*
X137986666Y-72540761D01*
X137953333Y-72588380D01*
X137920000Y-72540761D01*
X137953333Y-72493142D01*
X137953333Y-72588380D01*
X138220000Y-71588380D02*
X138653333Y-71588380D01*
X138420000Y-71969333D01*
X138520000Y-71969333D01*
X138586666Y-72016952D01*
X138620000Y-72064571D01*
X138653333Y-72159809D01*
X138653333Y-72397904D01*
X138620000Y-72493142D01*
X138586666Y-72540761D01*
X138520000Y-72588380D01*
X138320000Y-72588380D01*
X138253333Y-72540761D01*
X138220000Y-72493142D01*
X138886666Y-71921714D02*
X139053333Y-72588380D01*
X139220000Y-71921714D01*
X153313333Y-71636000D02*
X153246666Y-71588380D01*
X153146666Y-71588380D01*
X153046666Y-71636000D01*
X152980000Y-71731238D01*
X152946666Y-71826476D01*
X152913333Y-72016952D01*
X152913333Y-72159809D01*
X152946666Y-72350285D01*
X152980000Y-72445523D01*
X153046666Y-72540761D01*
X153146666Y-72588380D01*
X153213333Y-72588380D01*
X153313333Y-72540761D01*
X153346666Y-72493142D01*
X153346666Y-72159809D01*
X153213333Y-72159809D01*
X153646666Y-72588380D02*
X153646666Y-71588380D01*
X154046666Y-72588380D01*
X154046666Y-71588380D01*
X154380000Y-72588380D02*
X154380000Y-71588380D01*
X154546666Y-71588380D01*
X154646666Y-71636000D01*
X154713333Y-71731238D01*
X154746666Y-71826476D01*
X154780000Y-72016952D01*
X154780000Y-72159809D01*
X154746666Y-72350285D01*
X154713333Y-72445523D01*
X154646666Y-72540761D01*
X154546666Y-72588380D01*
X154380000Y-72588380D01*
X155580000Y-71540761D02*
X154980000Y-72826476D01*
X155813333Y-72207428D02*
X156346666Y-72207428D01*
X156080000Y-72588380D02*
X156080000Y-71826476D01*
X157046666Y-72588380D02*
X156646666Y-72588380D01*
X156846666Y-72588380D02*
X156846666Y-71588380D01*
X156780000Y-71731238D01*
X156713333Y-71826476D01*
X156646666Y-71874095D01*
X157313333Y-71683619D02*
X157346666Y-71636000D01*
X157413333Y-71588380D01*
X157580000Y-71588380D01*
X157646666Y-71636000D01*
X157680000Y-71683619D01*
X157713333Y-71778857D01*
X157713333Y-71874095D01*
X157680000Y-72016952D01*
X157280000Y-72588380D01*
X157713333Y-72588380D01*
X157946666Y-71921714D02*
X158113333Y-72588380D01*
X158280000Y-71921714D01*
X159046666Y-71540761D02*
X158446666Y-72826476D01*
X159280000Y-72207428D02*
X159813333Y-72207428D01*
X159546666Y-72588380D02*
X159546666Y-71826476D01*
X160080000Y-71588380D02*
X160513333Y-71588380D01*
X160280000Y-71969333D01*
X160380000Y-71969333D01*
X160446666Y-72016952D01*
X160480000Y-72064571D01*
X160513333Y-72159809D01*
X160513333Y-72397904D01*
X160480000Y-72493142D01*
X160446666Y-72540761D01*
X160380000Y-72588380D01*
X160180000Y-72588380D01*
X160113333Y-72540761D01*
X160080000Y-72493142D01*
X160813333Y-72493142D02*
X160846666Y-72540761D01*
X160813333Y-72588380D01*
X160780000Y-72540761D01*
X160813333Y-72493142D01*
X160813333Y-72588380D01*
X161080000Y-71588380D02*
X161513333Y-71588380D01*
X161280000Y-71969333D01*
X161380000Y-71969333D01*
X161446666Y-72016952D01*
X161480000Y-72064571D01*
X161513333Y-72159809D01*
X161513333Y-72397904D01*
X161480000Y-72493142D01*
X161446666Y-72540761D01*
X161380000Y-72588380D01*
X161180000Y-72588380D01*
X161113333Y-72540761D01*
X161080000Y-72493142D01*
X161746666Y-71921714D02*
X161913333Y-72588380D01*
X162080000Y-71921714D01*
D12*
X157424380Y-97758095D02*
X157424380Y-98234285D01*
X156424380Y-98234285D01*
X156424380Y-97234285D02*
X156424380Y-97043809D01*
X156472000Y-96948571D01*
X156567238Y-96853333D01*
X156757714Y-96805714D01*
X157091047Y-96805714D01*
X157281523Y-96853333D01*
X157376761Y-96948571D01*
X157424380Y-97043809D01*
X157424380Y-97234285D01*
X157376761Y-97329523D01*
X157281523Y-97424761D01*
X157091047Y-97472380D01*
X156757714Y-97472380D01*
X156567238Y-97424761D01*
X156472000Y-97329523D01*
X156424380Y-97234285D01*
X156424380Y-96186666D02*
X156424380Y-95996190D01*
X156472000Y-95900952D01*
X156567238Y-95805714D01*
X156757714Y-95758095D01*
X157091047Y-95758095D01*
X157281523Y-95805714D01*
X157376761Y-95900952D01*
X157424380Y-95996190D01*
X157424380Y-96186666D01*
X157376761Y-96281904D01*
X157281523Y-96377142D01*
X157091047Y-96424761D01*
X156757714Y-96424761D01*
X156567238Y-96377142D01*
X156472000Y-96281904D01*
X156424380Y-96186666D01*
X157424380Y-95329523D02*
X156424380Y-95329523D01*
X156424380Y-94948571D01*
X156472000Y-94853333D01*
X156519619Y-94805714D01*
X156614857Y-94758095D01*
X156757714Y-94758095D01*
X156852952Y-94805714D01*
X156900571Y-94853333D01*
X156948190Y-94948571D01*
X156948190Y-95329523D01*
X157424380Y-78969904D02*
X156424380Y-78969904D01*
X157138666Y-78636571D01*
X156424380Y-78303238D01*
X157424380Y-78303238D01*
X156424380Y-77636571D02*
X156424380Y-77446095D01*
X156472000Y-77350857D01*
X156567238Y-77255619D01*
X156757714Y-77208000D01*
X157091047Y-77208000D01*
X157281523Y-77255619D01*
X157376761Y-77350857D01*
X157424380Y-77446095D01*
X157424380Y-77636571D01*
X157376761Y-77731809D01*
X157281523Y-77827047D01*
X157091047Y-77874666D01*
X156757714Y-77874666D01*
X156567238Y-77827047D01*
X156472000Y-77731809D01*
X156424380Y-77636571D01*
X156424380Y-76922285D02*
X156424380Y-76350857D01*
X157424380Y-76636571D02*
X156424380Y-76636571D01*
X156424380Y-75827047D02*
X156424380Y-75636571D01*
X156472000Y-75541333D01*
X156567238Y-75446095D01*
X156757714Y-75398476D01*
X157091047Y-75398476D01*
X157281523Y-75446095D01*
X157376761Y-75541333D01*
X157424380Y-75636571D01*
X157424380Y-75827047D01*
X157376761Y-75922285D01*
X157281523Y-76017523D01*
X157091047Y-76065142D01*
X156757714Y-76065142D01*
X156567238Y-76017523D01*
X156472000Y-75922285D01*
X156424380Y-75827047D01*
X157424380Y-74398476D02*
X156948190Y-74731809D01*
X157424380Y-74969904D02*
X156424380Y-74969904D01*
X156424380Y-74588952D01*
X156472000Y-74493714D01*
X156519619Y-74446095D01*
X156614857Y-74398476D01*
X156757714Y-74398476D01*
X156852952Y-74446095D01*
X156900571Y-74493714D01*
X156948190Y-74588952D01*
X156948190Y-74969904D01*
D13*
X162365563Y-86722000D02*
X163430000Y-85657563D01*
X157674437Y-86722000D02*
X156610000Y-85657563D01*
X157674437Y-86722000D02*
X158960000Y-86722000D01*
X162365563Y-86722000D02*
X161080000Y-86722000D01*
X163430000Y-85657563D02*
X163430000Y-79902000D01*
X156610000Y-85657563D02*
X156610000Y-79902000D01*
X156610000Y-79902000D02*
X158960000Y-79902000D01*
X163430000Y-79902000D02*
X161080000Y-79902000D01*
X140660000Y-65068000D02*
X140660000Y-66318000D01*
X141910000Y-65068000D02*
X140660000Y-65068000D01*
X150310000Y-70568000D02*
X146010000Y-70568000D01*
X150310000Y-67618000D02*
X150310000Y-70568000D01*
X151060000Y-67618000D02*
X150310000Y-67618000D01*
X141710000Y-70568000D02*
X146010000Y-70568000D01*
X141710000Y-67618000D02*
X141710000Y-70568000D01*
X140960000Y-67618000D02*
X141710000Y-67618000D01*
X151060000Y-65368000D02*
X149260000Y-65368000D01*
X151060000Y-66118000D02*
X151060000Y-65368000D01*
X149260000Y-66118000D02*
X151060000Y-66118000D01*
X149260000Y-65368000D02*
X149260000Y-66118000D01*
X142760000Y-65368000D02*
X140960000Y-65368000D01*
X142760000Y-66118000D02*
X142760000Y-65368000D01*
X140960000Y-66118000D02*
X142760000Y-66118000D01*
X140960000Y-65368000D02*
X140960000Y-66118000D01*
X147760000Y-65368000D02*
X144260000Y-65368000D01*
X147760000Y-66118000D02*
X147760000Y-65368000D01*
X144260000Y-66118000D02*
X147760000Y-66118000D01*
X144260000Y-65368000D02*
X144260000Y-66118000D01*
X151070000Y-65358000D02*
X140950000Y-65358000D01*
X151070000Y-71328000D02*
X151070000Y-65358000D01*
X140950000Y-71328000D02*
X151070000Y-71328000D01*
X140950000Y-65358000D02*
X140950000Y-71328000D01*
X151836000Y-65068000D02*
X151836000Y-66318000D01*
X153086000Y-65068000D02*
X151836000Y-65068000D01*
X161486000Y-70568000D02*
X157186000Y-70568000D01*
X161486000Y-67618000D02*
X161486000Y-70568000D01*
X162236000Y-67618000D02*
X161486000Y-67618000D01*
X152886000Y-70568000D02*
X157186000Y-70568000D01*
X152886000Y-67618000D02*
X152886000Y-70568000D01*
X152136000Y-67618000D02*
X152886000Y-67618000D01*
X162236000Y-65368000D02*
X160436000Y-65368000D01*
X162236000Y-66118000D02*
X162236000Y-65368000D01*
X160436000Y-66118000D02*
X162236000Y-66118000D01*
X160436000Y-65368000D02*
X160436000Y-66118000D01*
X153936000Y-65368000D02*
X152136000Y-65368000D01*
X153936000Y-66118000D02*
X153936000Y-65368000D01*
X152136000Y-66118000D02*
X153936000Y-66118000D01*
X152136000Y-65368000D02*
X152136000Y-66118000D01*
X158936000Y-65368000D02*
X155436000Y-65368000D01*
X158936000Y-66118000D02*
X158936000Y-65368000D01*
X155436000Y-66118000D02*
X158936000Y-66118000D01*
X155436000Y-65368000D02*
X155436000Y-66118000D01*
X162246000Y-65358000D02*
X152126000Y-65358000D01*
X162246000Y-71328000D02*
X162246000Y-65358000D01*
X152126000Y-71328000D02*
X162246000Y-71328000D01*
X152126000Y-65358000D02*
X152126000Y-71328000D01*
X129230000Y-65068000D02*
X129230000Y-66318000D01*
X130480000Y-65068000D02*
X129230000Y-65068000D01*
X138880000Y-70568000D02*
X134580000Y-70568000D01*
X138880000Y-67618000D02*
X138880000Y-70568000D01*
X139630000Y-67618000D02*
X138880000Y-67618000D01*
X130280000Y-70568000D02*
X134580000Y-70568000D01*
X130280000Y-67618000D02*
X130280000Y-70568000D01*
X129530000Y-67618000D02*
X130280000Y-67618000D01*
X139630000Y-65368000D02*
X137830000Y-65368000D01*
X139630000Y-66118000D02*
X139630000Y-65368000D01*
X137830000Y-66118000D02*
X139630000Y-66118000D01*
X137830000Y-65368000D02*
X137830000Y-66118000D01*
X131330000Y-65368000D02*
X129530000Y-65368000D01*
X131330000Y-66118000D02*
X131330000Y-65368000D01*
X129530000Y-66118000D02*
X131330000Y-66118000D01*
X129530000Y-65368000D02*
X129530000Y-66118000D01*
X136330000Y-65368000D02*
X132830000Y-65368000D01*
X136330000Y-66118000D02*
X136330000Y-65368000D01*
X132830000Y-66118000D02*
X136330000Y-66118000D01*
X132830000Y-65368000D02*
X132830000Y-66118000D01*
X139640000Y-65358000D02*
X129520000Y-65358000D01*
X139640000Y-71328000D02*
X139640000Y-65358000D01*
X129520000Y-71328000D02*
X139640000Y-71328000D01*
X129520000Y-65358000D02*
X129520000Y-71328000D01*
X147380000Y-98104000D02*
X146050000Y-98104000D01*
X147380000Y-96774000D02*
X147380000Y-98104000D01*
X147380000Y-95504000D02*
X144720000Y-95504000D01*
X144720000Y-95504000D02*
X144720000Y-77664000D01*
X147380000Y-95504000D02*
X147380000Y-77664000D01*
X147380000Y-77664000D02*
X144720000Y-77664000D01*
X149650000Y-87178000D02*
X150900000Y-87178000D01*
X149650000Y-85928000D02*
X149650000Y-87178000D01*
X155150000Y-75028000D02*
X155150000Y-80578000D01*
X152200000Y-75028000D02*
X155150000Y-75028000D01*
X152200000Y-74278000D02*
X152200000Y-75028000D01*
X155150000Y-86128000D02*
X155150000Y-80578000D01*
X152200000Y-86128000D02*
X155150000Y-86128000D01*
X152200000Y-86878000D02*
X152200000Y-86128000D01*
X149950000Y-74278000D02*
X149950000Y-76078000D01*
X150700000Y-74278000D02*
X149950000Y-74278000D01*
X150700000Y-76078000D02*
X150700000Y-74278000D01*
X149950000Y-76078000D02*
X150700000Y-76078000D01*
X149950000Y-85078000D02*
X149950000Y-86878000D01*
X150700000Y-85078000D02*
X149950000Y-85078000D01*
X150700000Y-86878000D02*
X150700000Y-85078000D01*
X149950000Y-86878000D02*
X150700000Y-86878000D01*
X149950000Y-77578000D02*
X149950000Y-83578000D01*
X150700000Y-77578000D02*
X149950000Y-77578000D01*
X150700000Y-83578000D02*
X150700000Y-77578000D01*
X149950000Y-83578000D02*
X150700000Y-83578000D01*
X149940000Y-74268000D02*
X149940000Y-86888000D01*
X155910000Y-74268000D02*
X149940000Y-74268000D01*
X155910000Y-86888000D02*
X155910000Y-74268000D01*
X149940000Y-86888000D02*
X155910000Y-86888000D01*
X131766000Y-77664000D02*
X133096000Y-77664000D01*
X131766000Y-78994000D02*
X131766000Y-77664000D01*
X131766000Y-80264000D02*
X134426000Y-80264000D01*
X134426000Y-80264000D02*
X134426000Y-98104000D01*
X131766000Y-80264000D02*
X131766000Y-98104000D01*
X131766000Y-98104000D02*
X134426000Y-98104000D01*
X149650000Y-98608000D02*
X150900000Y-98608000D01*
X149650000Y-97358000D02*
X149650000Y-98608000D01*
X155150000Y-88958000D02*
X155150000Y-93258000D01*
X152200000Y-88958000D02*
X155150000Y-88958000D01*
X152200000Y-88208000D02*
X152200000Y-88958000D01*
X155150000Y-97558000D02*
X155150000Y-93258000D01*
X152200000Y-97558000D02*
X155150000Y-97558000D01*
X152200000Y-98308000D02*
X152200000Y-97558000D01*
X149950000Y-88208000D02*
X149950000Y-90008000D01*
X150700000Y-88208000D02*
X149950000Y-88208000D01*
X150700000Y-90008000D02*
X150700000Y-88208000D01*
X149950000Y-90008000D02*
X150700000Y-90008000D01*
X149950000Y-96508000D02*
X149950000Y-98308000D01*
X150700000Y-96508000D02*
X149950000Y-96508000D01*
X150700000Y-98308000D02*
X150700000Y-96508000D01*
X149950000Y-98308000D02*
X150700000Y-98308000D01*
X149950000Y-91508000D02*
X149950000Y-95008000D01*
X150700000Y-91508000D02*
X149950000Y-91508000D01*
X150700000Y-95008000D02*
X150700000Y-91508000D01*
X149950000Y-95008000D02*
X150700000Y-95008000D01*
X149940000Y-88198000D02*
X149940000Y-98318000D01*
X155910000Y-88198000D02*
X149940000Y-88198000D01*
X155910000Y-98318000D02*
X155910000Y-88198000D01*
X149940000Y-98318000D02*
X155910000Y-98318000D01*
D12*
X163171142Y-78906666D02*
X163218761Y-78954285D01*
X163266380Y-79097142D01*
X163266380Y-79192380D01*
X163218761Y-79335238D01*
X163123523Y-79430476D01*
X163028285Y-79478095D01*
X162837809Y-79525714D01*
X162694952Y-79525714D01*
X162504476Y-79478095D01*
X162409238Y-79430476D01*
X162314000Y-79335238D01*
X162266380Y-79192380D01*
X162266380Y-79097142D01*
X162314000Y-78954285D01*
X162361619Y-78906666D01*
X163266380Y-77954285D02*
X163266380Y-78525714D01*
X163266380Y-78240000D02*
X162266380Y-78240000D01*
X162409238Y-78335238D01*
X162504476Y-78430476D01*
X162552095Y-78525714D01*
M02*
