G04 #@! TF.GenerationSoftware,KiCad,Pcbnew,(5.1.12)-1*
G04 #@! TF.CreationDate,2021-12-28T16:54:34-05:00*
G04 #@! TF.ProjectId,FlipDisplay-Motor,466c6970-4469-4737-906c-61792d4d6f74,rev?*
G04 #@! TF.SameCoordinates,Original*
G04 #@! TF.FileFunction,Legend,Bot*
G04 #@! TF.FilePolarity,Positive*
%FSLAX46Y46*%
G04 Gerber Fmt 4.6, Leading zero omitted, Abs format (unit mm)*
G04 Created by KiCad (PCBNEW (5.1.12)-1) date 2021-12-28 16:54:34*
%MOMM*%
%LPD*%
G01*
G04 APERTURE LIST*
%ADD10C,0.100000*%
G04 APERTURE END LIST*
D10*
X140337435Y-86614340D02*
X140301730Y-86632100D01*
X139541700Y-87567419D02*
X139494035Y-87662231D01*
X139494035Y-87662231D02*
X139440248Y-87753609D01*
X139440248Y-87753609D02*
X139380528Y-87841253D01*
X139380528Y-87841253D02*
X139344856Y-87888220D01*
X139542696Y-87032150D02*
X139541700Y-87567419D01*
X139436696Y-86461019D02*
X139433375Y-86571436D01*
X139433375Y-86571436D02*
X139440919Y-86681186D01*
X139440919Y-86681186D02*
X139459185Y-86789487D01*
X139459185Y-86789487D02*
X139488029Y-86895555D01*
X139488029Y-86895555D02*
X139527308Y-86998605D01*
X139527308Y-86998605D02*
X139542696Y-87032150D01*
X139472421Y-86443240D02*
X139436696Y-86461019D01*
X139658980Y-86862864D02*
X139472421Y-86443240D01*
X139703006Y-87175189D02*
X139658980Y-86862864D01*
X139827766Y-87246790D02*
X139703006Y-87175189D01*
X139809501Y-87478705D02*
X139827766Y-87246790D01*
X139969111Y-87790824D02*
X139901589Y-87702879D01*
X139901589Y-87702879D02*
X139849690Y-87605393D01*
X139849690Y-87605393D02*
X139814456Y-87500418D01*
X139814456Y-87500418D02*
X139809501Y-87478705D01*
X139970751Y-87796430D02*
X139969111Y-87790824D01*
X139992721Y-87892434D02*
X139970751Y-87796430D01*
X140003731Y-88585280D02*
X139992721Y-87892434D01*
X139832795Y-89361095D02*
X139880171Y-89271440D01*
X139880171Y-89271440D02*
X139920309Y-89178825D01*
X139920309Y-89178825D02*
X139953113Y-89083684D01*
X139953113Y-89083684D02*
X139978486Y-88986450D01*
X139978486Y-88986450D02*
X139996330Y-88887559D01*
X139996330Y-88887559D02*
X140006551Y-88787444D01*
X140006551Y-88787444D02*
X140009050Y-88686540D01*
X140009050Y-88686540D02*
X140003731Y-88585280D01*
X140892200Y-86494544D02*
X140583776Y-86652210D01*
X140937265Y-86471775D02*
X140892200Y-86494544D01*
X141274731Y-86303820D02*
X140937265Y-86471775D01*
X141712136Y-86152975D02*
X141618643Y-86192086D01*
X141618643Y-86192086D02*
X141523842Y-86227802D01*
X141523842Y-86227802D02*
X141427830Y-86260089D01*
X141427830Y-86260089D02*
X141330699Y-86288914D01*
X141330699Y-86288914D02*
X141274731Y-86303820D01*
X141765796Y-86081700D02*
X141712136Y-86152975D01*
X141935406Y-86019564D02*
X141765796Y-86081700D01*
X142025521Y-85896785D02*
X141935406Y-86019564D01*
X142453885Y-85449569D02*
X142025521Y-85896785D01*
X142577235Y-85358979D02*
X142482617Y-85394018D01*
X142482617Y-85394018D02*
X142453885Y-85449569D01*
X143017575Y-84942830D02*
X142959206Y-85043712D01*
X142959206Y-85043712D02*
X142888404Y-85135237D01*
X142888404Y-85135237D02*
X142806308Y-85216332D01*
X142806308Y-85216332D02*
X142714059Y-85285926D01*
X142714059Y-85285926D02*
X142612795Y-85342950D01*
X142612795Y-85342950D02*
X142577235Y-85358979D01*
X143106260Y-84835216D02*
X143026628Y-84895941D01*
X143026628Y-84895941D02*
X143017575Y-84942830D01*
X143115231Y-84808465D02*
X143106260Y-84835216D01*
X143153415Y-84753631D02*
X143115231Y-84808465D01*
X143106241Y-84708706D02*
X143153415Y-84753631D01*
X142969185Y-84724650D02*
X143072125Y-84734835D01*
X143072125Y-84734835D02*
X143106241Y-84708706D01*
X142738101Y-84986411D02*
X142780250Y-84894416D01*
X142780250Y-84894416D02*
X142841666Y-84815235D01*
X142841666Y-84815235D02*
X142919669Y-84751889D01*
X142919669Y-84751889D02*
X142969185Y-84724650D01*
X142482285Y-85110155D02*
X142581319Y-85092636D01*
X142581319Y-85092636D02*
X142677853Y-85042788D01*
X142677853Y-85042788D02*
X142738101Y-84986411D01*
X142311345Y-85342249D02*
X142345029Y-85245383D01*
X142345029Y-85245383D02*
X142406369Y-85164543D01*
X142406369Y-85164543D02*
X142482285Y-85110155D01*
X142025441Y-85573680D02*
X142311345Y-85342249D01*
X141817861Y-85708415D02*
X141895251Y-85643219D01*
X141895251Y-85643219D02*
X141982425Y-85592151D01*
X141982425Y-85592151D02*
X142025441Y-85573680D01*
X140913540Y-86228860D02*
X141012833Y-86210412D01*
X141012833Y-86210412D02*
X141110044Y-86185160D01*
X141110044Y-86185160D02*
X141204853Y-86153286D01*
X141204853Y-86153286D02*
X141326980Y-86100802D01*
X141326980Y-86100802D02*
X141443516Y-86037300D01*
X141443516Y-86037300D02*
X141553708Y-85963213D01*
X141553708Y-85963213D02*
X141656801Y-85878972D01*
X141656801Y-85878972D02*
X141729007Y-85809387D01*
X141729007Y-85809387D02*
X141796478Y-85734515D01*
X141796478Y-85734515D02*
X141817861Y-85708415D01*
X140824431Y-86237430D02*
X140913540Y-86228860D01*
X140311515Y-86159300D02*
X140424994Y-86167036D01*
X140424994Y-86167036D02*
X140537917Y-86180035D01*
X140537917Y-86180035D02*
X140650096Y-86198269D01*
X140650096Y-86198269D02*
X140761347Y-86221709D01*
X140761347Y-86221709D02*
X140824431Y-86237430D01*
X139937066Y-86033724D02*
X140023239Y-86084945D01*
X140023239Y-86084945D02*
X140127173Y-86127127D01*
X140127173Y-86127127D02*
X140236559Y-86152302D01*
X140236559Y-86152302D02*
X140311515Y-86159300D01*
X139972780Y-86015954D02*
X139937066Y-86033724D01*
X140196136Y-85942560D02*
X140095881Y-85940543D01*
X140095881Y-85940543D02*
X140000277Y-85987803D01*
X140000277Y-85987803D02*
X139972780Y-86015954D01*
X140517345Y-85811765D02*
X140422501Y-85865561D01*
X140422501Y-85865561D02*
X140322202Y-85907781D01*
X140322202Y-85907781D02*
X140217508Y-85937995D01*
X140217508Y-85937995D02*
X140196136Y-85942560D01*
X140847596Y-85714240D02*
X140517345Y-85811765D01*
X141106761Y-85473854D02*
X140847596Y-85714240D01*
X141303770Y-85063840D02*
X141106761Y-85473854D01*
X141499615Y-84803821D02*
X141423298Y-84873072D01*
X141423298Y-84873072D02*
X141360179Y-84953954D01*
X141360179Y-84953954D02*
X141311616Y-85044673D01*
X141311616Y-85044673D02*
X141303770Y-85063840D01*
X141938700Y-84235345D02*
X141499615Y-84803821D01*
X142181061Y-83423975D02*
X142182558Y-83532637D01*
X142182558Y-83532637D02*
X142174617Y-83640411D01*
X142174617Y-83640411D02*
X142157413Y-83746708D01*
X142157413Y-83746708D02*
X142131126Y-83850935D01*
X142131126Y-83850935D02*
X142095933Y-83952503D01*
X142095933Y-83952503D02*
X142052013Y-84050821D01*
X142052013Y-84050821D02*
X141999542Y-84145298D01*
X141999542Y-84145298D02*
X141938700Y-84235345D01*
X142329250Y-82982131D02*
X142181061Y-83423975D01*
X142360796Y-82710606D02*
X142368286Y-82814295D01*
X142368286Y-82814295D02*
X142352487Y-82916626D01*
X142352487Y-82916626D02*
X142329250Y-82982131D01*
X142514111Y-81809861D02*
X142485355Y-81920644D01*
X142485355Y-81920644D02*
X142459323Y-82032043D01*
X142459323Y-82032043D02*
X142436023Y-82144008D01*
X142436023Y-82144008D02*
X142415463Y-82256490D01*
X142415463Y-82256490D02*
X142397651Y-82369440D01*
X142397651Y-82369440D02*
X142382598Y-82482808D01*
X142382598Y-82482808D02*
X142370309Y-82596547D01*
X142370309Y-82596547D02*
X142360796Y-82710606D01*
X142553360Y-81510070D02*
X142556563Y-81614978D01*
X142556563Y-81614978D02*
X142542186Y-81718621D01*
X142542186Y-81718621D02*
X142514111Y-81809861D01*
X142434541Y-81426121D02*
X142529680Y-81467168D01*
X142529680Y-81467168D02*
X142553360Y-81510070D01*
X142236356Y-82460585D02*
X142434541Y-81426121D01*
X142110771Y-82835040D02*
X142236356Y-82460585D01*
X142074566Y-83120455D02*
X142079278Y-83012376D01*
X142079278Y-83012376D02*
X142094652Y-82905375D01*
X142094652Y-82905375D02*
X142110771Y-82835040D01*
X141867920Y-83914055D02*
X142074566Y-83120455D01*
X141875921Y-83943055D02*
X141867920Y-83914055D01*
X141229091Y-84759600D02*
X141875921Y-83943055D01*
X140962796Y-85151755D02*
X141025793Y-85069261D01*
X141025793Y-85069261D02*
X141086168Y-84984873D01*
X141086168Y-84984873D02*
X141143879Y-84898651D01*
X141143879Y-84898651D02*
X141198887Y-84810656D01*
X141198887Y-84810656D02*
X141229091Y-84759600D01*
X140830466Y-85321674D02*
X140898573Y-85246779D01*
X140898573Y-85246779D02*
X140955992Y-85163446D01*
X140955992Y-85163446D02*
X140962796Y-85151755D01*
X140803721Y-85312705D02*
X140830466Y-85321674D01*
X140348211Y-85606270D02*
X140449544Y-85579590D01*
X140449544Y-85579590D02*
X140545068Y-85538833D01*
X140545068Y-85538833D02*
X140633396Y-85484886D01*
X140633396Y-85484886D02*
X140713141Y-85418637D01*
X140713141Y-85418637D02*
X140782917Y-85340975D01*
X140782917Y-85340975D02*
X140803721Y-85312705D01*
X140330595Y-85481344D02*
X140348211Y-85606270D01*
X140364751Y-85416460D02*
X140330595Y-85481344D01*
X140437751Y-85428009D02*
X140364751Y-85416460D01*
X140634286Y-85285634D02*
X140437751Y-85428009D01*
X140777491Y-85036105D02*
X140634286Y-85285634D01*
X140813205Y-85018335D02*
X140777491Y-85036105D01*
X141083191Y-84573720D02*
X141022687Y-84670098D01*
X141022687Y-84670098D02*
X140962990Y-84766973D01*
X140962990Y-84766973D02*
X140904103Y-84864342D01*
X140904103Y-84864342D02*
X140846026Y-84962199D01*
X140846026Y-84962199D02*
X140813205Y-85018335D01*
X141126731Y-84527320D02*
X141083191Y-84573720D01*
X141367316Y-83921070D02*
X141126731Y-84527320D01*
X141374031Y-83655385D02*
X141415283Y-83754176D01*
X141415283Y-83754176D02*
X141403881Y-83858600D01*
X141403881Y-83858600D02*
X141367316Y-83921070D01*
X141440155Y-83458575D02*
X141391007Y-83551576D01*
X141391007Y-83551576D02*
X141374031Y-83655385D01*
X141396450Y-83190570D02*
X141445895Y-83284538D01*
X141445895Y-83284538D02*
X141456098Y-83389000D01*
X141456098Y-83389000D02*
X141440155Y-83458575D01*
X141397095Y-82833730D02*
X141396450Y-83190570D01*
X141305716Y-82578515D02*
X141292993Y-82679222D01*
X141292993Y-82679222D02*
X141333776Y-82779019D01*
X141333776Y-82779019D02*
X141397095Y-82833730D01*
X141299560Y-82503456D02*
X141305716Y-82578515D01*
X141183786Y-82405130D02*
X141299560Y-82503456D01*
X141139416Y-82271226D02*
X141183786Y-82405130D01*
X141006006Y-82047950D02*
X141080067Y-82126303D01*
X141080067Y-82126303D02*
X141127522Y-82222529D01*
X141127522Y-82222529D02*
X141139416Y-82271226D01*
X140792205Y-81886976D02*
X140882251Y-81933754D01*
X140882251Y-81933754D02*
X140960994Y-81997247D01*
X140960994Y-81997247D02*
X141006006Y-82047950D01*
X140721921Y-81769686D02*
X140787118Y-81846459D01*
X140787118Y-81846459D02*
X140792205Y-81886976D01*
X140587201Y-81788466D02*
X140682824Y-81758476D01*
X140682824Y-81758476D02*
X140721921Y-81769686D01*
X140373385Y-81627495D02*
X140587201Y-81788466D01*
X140204116Y-81511216D02*
X140300744Y-81540027D01*
X140300744Y-81540027D02*
X140367727Y-81614772D01*
X140367727Y-81614772D02*
X140373385Y-81627495D01*
X139588601Y-81483306D02*
X139703601Y-81495707D01*
X139703601Y-81495707D02*
X139818866Y-81504804D01*
X139818866Y-81504804D02*
X139934328Y-81510593D01*
X139934328Y-81510593D02*
X140049917Y-81513070D01*
X140049917Y-81513070D02*
X140165565Y-81512232D01*
X140165565Y-81512232D02*
X140204116Y-81511216D01*
X139492346Y-81538005D02*
X139588601Y-81483306D01*
X139393061Y-81587020D02*
X139492346Y-81538005D01*
X138205397Y-82577490D02*
X138248243Y-82485131D01*
X138248243Y-82485131D02*
X138296215Y-82396052D01*
X138296215Y-82396052D02*
X138349113Y-82310419D01*
X138349113Y-82310419D02*
X138406733Y-82228400D01*
X138406733Y-82228400D02*
X138501576Y-82112515D01*
X138501576Y-82112515D02*
X138605910Y-82005703D01*
X138605910Y-82005703D02*
X138719053Y-81908529D01*
X138719053Y-81908529D02*
X138840324Y-81821559D01*
X138840324Y-81821559D02*
X138969042Y-81745358D01*
X138969042Y-81745358D02*
X139058654Y-81700819D01*
X139058654Y-81700819D02*
X139151071Y-81661485D01*
X139151071Y-81661485D02*
X139246091Y-81627523D01*
X139246091Y-81627523D02*
X139343512Y-81599101D01*
X139343512Y-81599101D02*
X139393061Y-81587020D01*
X137998121Y-82854236D02*
X138205397Y-82577490D01*
X137879612Y-83109111D02*
X137901004Y-83003484D01*
X137901004Y-83003484D02*
X137950670Y-82908603D01*
X137950670Y-82908603D02*
X137998121Y-82854236D01*
X137863401Y-83344640D02*
X137879012Y-83242219D01*
X137879012Y-83242219D02*
X137881380Y-83138709D01*
X137881380Y-83138709D02*
X137879612Y-83109111D01*
X137800432Y-83621085D02*
X137858783Y-83536212D01*
X137858783Y-83536212D02*
X137879510Y-83437109D01*
X137879510Y-83437109D02*
X137863401Y-83344640D01*
X137791461Y-83647835D02*
X137800432Y-83621085D01*
X137818206Y-83656806D02*
X137791461Y-83647835D01*
X137772871Y-84058171D02*
X137773914Y-83956848D01*
X137773914Y-83956848D02*
X137781845Y-83855941D01*
X137781845Y-83855941D02*
X137796623Y-83755808D01*
X137796623Y-83755808D02*
X137818206Y-83656806D01*
X137790156Y-84361526D02*
X137771208Y-84258184D01*
X137771208Y-84258184D02*
X137765863Y-84153450D01*
X137765863Y-84153450D02*
X137772871Y-84058171D01*
X137870066Y-84566860D02*
X137790156Y-84361526D01*
X137773747Y-84515010D02*
X137862968Y-84566164D01*
X137862968Y-84566164D02*
X137870066Y-84566860D01*
X137634437Y-84029731D02*
X137651803Y-84139341D01*
X137651803Y-84139341D02*
X137676601Y-84247334D01*
X137676601Y-84247334D02*
X137708723Y-84353338D01*
X137708723Y-84353338D02*
X137748065Y-84456984D01*
X137748065Y-84456984D02*
X137773747Y-84515010D01*
X137621447Y-84012525D02*
X137634437Y-84029731D01*
X137579356Y-83766681D02*
X137621447Y-84012525D01*
X137552237Y-82764210D02*
X137534970Y-82889359D01*
X137534970Y-82889359D02*
X137523616Y-83014964D01*
X137523616Y-83014964D02*
X137518169Y-83140820D01*
X137518169Y-83140820D02*
X137518623Y-83266722D01*
X137518623Y-83266722D02*
X137524974Y-83392464D01*
X137524974Y-83392464D02*
X137537217Y-83517842D01*
X137537217Y-83517842D02*
X137555345Y-83642649D01*
X137555345Y-83642649D02*
X137579356Y-83766681D01*
X137542442Y-82753325D02*
X137552237Y-82764210D01*
X137535521Y-82740441D02*
X137542442Y-82753325D01*
X137529261Y-82683771D02*
X137535521Y-82740441D01*
X137651236Y-82291566D02*
X137592792Y-82379437D01*
X137592792Y-82379437D02*
X137552413Y-82475906D01*
X137552413Y-82475906D02*
X137530952Y-82578255D01*
X137530952Y-82578255D02*
X137529261Y-82683771D01*
X138207567Y-80544056D02*
X138156702Y-80647539D01*
X138156702Y-80647539D02*
X138107935Y-80751935D01*
X138107935Y-80751935D02*
X138061277Y-80857213D01*
X138061277Y-80857213D02*
X138016738Y-80963340D01*
X138016738Y-80963340D02*
X137974327Y-81070285D01*
X137974327Y-81070285D02*
X137934056Y-81178016D01*
X137934056Y-81178016D02*
X137895934Y-81286502D01*
X137895934Y-81286502D02*
X137859971Y-81395710D01*
X137859971Y-81395710D02*
X137826178Y-81505608D01*
X137826178Y-81505608D02*
X137794565Y-81616165D01*
X137794565Y-81616165D02*
X137765142Y-81727350D01*
X137765142Y-81727350D02*
X137737920Y-81839129D01*
X137737920Y-81839129D02*
X137712907Y-81951473D01*
X137712907Y-81951473D02*
X137690116Y-82064348D01*
X137690116Y-82064348D02*
X137669555Y-82177722D01*
X137669555Y-82177722D02*
X137651236Y-82291566D01*
X138377837Y-80125091D02*
X138349532Y-80235253D01*
X138349532Y-80235253D02*
X138311543Y-80342231D01*
X138311543Y-80342231D02*
X138264133Y-80445379D01*
X138264133Y-80445379D02*
X138207567Y-80544056D01*
X138476511Y-79830865D02*
X138377837Y-80125091D01*
X138397846Y-79826161D02*
X138476511Y-79830865D01*
X138340402Y-79879920D02*
X138397846Y-79826161D01*
X138136616Y-80311971D02*
X138199264Y-80226759D01*
X138199264Y-80226759D02*
X138252131Y-80135628D01*
X138252131Y-80135628D02*
X138294823Y-80039409D01*
X138294823Y-80039409D02*
X138326944Y-79938930D01*
X138326944Y-79938930D02*
X138340402Y-79879920D01*
X137948726Y-80606026D02*
X137994120Y-80505988D01*
X137994120Y-80505988D02*
X138051928Y-80412883D01*
X138051928Y-80412883D02*
X138121391Y-80327891D01*
X138121391Y-80327891D02*
X138136616Y-80311971D01*
X137495941Y-81858640D02*
X137948726Y-80606026D01*
X137346136Y-82237330D02*
X137350206Y-82131638D01*
X137350206Y-82131638D02*
X137377531Y-82030781D01*
X137377531Y-82030781D02*
X137426610Y-81938526D01*
X137426610Y-81938526D02*
X137495941Y-81858640D01*
X137320641Y-82567501D02*
X137347462Y-82466245D01*
X137347462Y-82466245D02*
X137357211Y-82362393D01*
X137357211Y-82362393D02*
X137349718Y-82258065D01*
X137349718Y-82258065D02*
X137346136Y-82237330D01*
X137355866Y-82817366D02*
X137378209Y-82711732D01*
X137378209Y-82711732D02*
X137350005Y-82608920D01*
X137350005Y-82608920D02*
X137320641Y-82567501D01*
X137373646Y-82853085D02*
X137355866Y-82817366D01*
X137364186Y-83147465D02*
X137355233Y-83046058D01*
X137355233Y-83046058D02*
X137359079Y-82944504D01*
X137359079Y-82944504D02*
X137373646Y-82853085D01*
X137336612Y-83584555D02*
X137364186Y-83147465D01*
X137211027Y-83959006D02*
X137336612Y-83584555D01*
X137262097Y-84198550D02*
X137197980Y-84120751D01*
X137197980Y-84120751D02*
X137188260Y-84014700D01*
X137188260Y-84014700D02*
X137211027Y-83959006D01*
X137495611Y-84441271D02*
X137436970Y-84352299D01*
X137436970Y-84352299D02*
X137364691Y-84274620D01*
X137364691Y-84274620D02*
X137280296Y-84209823D01*
X137280296Y-84209823D02*
X137262097Y-84198550D01*
X137691161Y-84834155D02*
X137495611Y-84441271D01*
X137352592Y-84601590D02*
X137390128Y-84694803D01*
X137390128Y-84694803D02*
X137464642Y-84776840D01*
X137464642Y-84776840D02*
X137563399Y-84826200D01*
X137563399Y-84826200D02*
X137676506Y-84836043D01*
X137676506Y-84836043D02*
X137691161Y-84834155D01*
X137129952Y-84378151D02*
X137352592Y-84601590D01*
X137094231Y-84395926D02*
X137129952Y-84378151D01*
X136809322Y-84092091D02*
X137094231Y-84395926D01*
X136542351Y-83734750D02*
X136625694Y-83810832D01*
X136625694Y-83810832D02*
X136698510Y-83896478D01*
X136698510Y-83896478D02*
X136759990Y-83990595D01*
X136759990Y-83990595D02*
X136809322Y-84092091D01*
X136489342Y-83449171D02*
X136524537Y-83543817D01*
X136524537Y-83543817D02*
X136542087Y-83642898D01*
X136542087Y-83642898D02*
X136542351Y-83734750D01*
X136498316Y-83422426D02*
X136489342Y-83449171D01*
X136427877Y-82922705D02*
X136460336Y-83029118D01*
X136460336Y-83029118D02*
X136483322Y-83137702D01*
X136483322Y-83137702D02*
X136496746Y-83247820D01*
X136496746Y-83247820D02*
X136500523Y-83358833D01*
X136500523Y-83358833D02*
X136498316Y-83422426D01*
X136429361Y-82120461D02*
X136427877Y-82922705D01*
X136347776Y-82114131D02*
X136429361Y-82120461D01*
X136290867Y-82172705D02*
X136347776Y-82114131D01*
X136303281Y-82667735D02*
X136287003Y-82560097D01*
X136287003Y-82560097D02*
X136278312Y-82451748D01*
X136278312Y-82451748D02*
X136277217Y-82343092D01*
X136277217Y-82343092D02*
X136283727Y-82234536D01*
X136283727Y-82234536D02*
X136290867Y-82172705D01*
X136239656Y-83395191D02*
X136250719Y-83281626D01*
X136250719Y-83281626D02*
X136261367Y-83168022D01*
X136261367Y-83168022D02*
X136271600Y-83054381D01*
X136271600Y-83054381D02*
X136281417Y-82940703D01*
X136281417Y-82940703D02*
X136290818Y-82826990D01*
X136290818Y-82826990D02*
X136299803Y-82713243D01*
X136299803Y-82713243D02*
X136303281Y-82667735D01*
X136251076Y-83640361D02*
X136208856Y-83543652D01*
X136208856Y-83543652D02*
X136217926Y-83439898D01*
X136217926Y-83439898D02*
X136239656Y-83395191D01*
X136432182Y-83940790D02*
X136400063Y-83845779D01*
X136400063Y-83845779D02*
X136346481Y-83748825D01*
X136346481Y-83748825D02*
X136275525Y-83663375D01*
X136275525Y-83663375D02*
X136251076Y-83640361D01*
X136541706Y-84091585D02*
X136462130Y-84026731D01*
X136462130Y-84026731D02*
X136432182Y-83940790D01*
X136870821Y-84618540D02*
X136825308Y-84510293D01*
X136825308Y-84510293D02*
X136772042Y-84405956D01*
X136772042Y-84405956D02*
X136711272Y-84305931D01*
X136711272Y-84305931D02*
X136643250Y-84210624D01*
X136643250Y-84210624D02*
X136568226Y-84120439D01*
X136568226Y-84120439D02*
X136541706Y-84091585D01*
X136897562Y-84627511D02*
X136870821Y-84618540D01*
X136897396Y-84716841D02*
X136897562Y-84627511D01*
X136968652Y-84770380D02*
X136897396Y-84716841D01*
X137004372Y-84752601D02*
X136968652Y-84770380D01*
X137126391Y-84912146D02*
X137046818Y-84846574D01*
X137046818Y-84846574D02*
X137004372Y-84752601D01*
X137369692Y-84994140D02*
X137270796Y-84960986D01*
X137270796Y-84960986D02*
X137171975Y-84927619D01*
X137171975Y-84927619D02*
X137126391Y-84912146D01*
X137396442Y-85003105D02*
X137369692Y-84994140D01*
X137637176Y-85083851D02*
X137539377Y-85051049D01*
X137539377Y-85051049D02*
X137441579Y-85018247D01*
X137441579Y-85018247D02*
X137396442Y-85003105D01*
X137877727Y-85253794D02*
X137788147Y-85205439D01*
X137788147Y-85205439D02*
X137705483Y-85146326D01*
X137705483Y-85146326D02*
X137637176Y-85083851D01*
X137681192Y-85396170D02*
X137877727Y-85253794D01*
X137199091Y-85591540D02*
X137313691Y-85574446D01*
X137313691Y-85574446D02*
X137424379Y-85542506D01*
X137424379Y-85542506D02*
X137529747Y-85496288D01*
X137529747Y-85496288D02*
X137628387Y-85436356D01*
X137628387Y-85436356D02*
X137681192Y-85396170D01*
X136806372Y-85697869D02*
X136888748Y-85626876D01*
X136888748Y-85626876D02*
X136986342Y-85584237D01*
X136986342Y-85584237D02*
X137092130Y-85571832D01*
X137092130Y-85571832D02*
X137199091Y-85591540D01*
X136726127Y-85670959D02*
X136806372Y-85697869D01*
X136422136Y-86045090D02*
X136726127Y-85670959D01*
X136386417Y-86062870D02*
X136422136Y-86045090D01*
X136377441Y-86089614D02*
X136386417Y-86062870D01*
X135921741Y-86472365D02*
X136377441Y-86089614D01*
X135886037Y-86490150D02*
X135921741Y-86472365D01*
X135430026Y-87051339D02*
X135478743Y-86947166D01*
X135478743Y-86947166D02*
X135536469Y-86848288D01*
X135536469Y-86848288D02*
X135602753Y-86755259D01*
X135602753Y-86755259D02*
X135677141Y-86668630D01*
X135677141Y-86668630D02*
X135759182Y-86588956D01*
X135759182Y-86588956D02*
X135848424Y-86516790D01*
X135848424Y-86516790D02*
X135886037Y-86490150D01*
X135322541Y-87283095D02*
X135397019Y-87213704D01*
X135397019Y-87213704D02*
X135432045Y-87119966D01*
X135432045Y-87119966D02*
X135430026Y-87051339D01*
X134946616Y-87960399D02*
X135322541Y-87283095D01*
X134821206Y-88245655D02*
X134946616Y-87960399D01*
X134870077Y-88352385D02*
X134822259Y-88260833D01*
X134822259Y-88260833D02*
X134821206Y-88245655D01*
X134981502Y-88388684D02*
X134881941Y-88361895D01*
X134881941Y-88361895D02*
X134870077Y-88352385D01*
X135411431Y-87461674D02*
X135336293Y-87566573D01*
X135336293Y-87566573D02*
X135267038Y-87675105D01*
X135267038Y-87675105D02*
X135203780Y-87787020D01*
X135203780Y-87787020D02*
X135146636Y-87902072D01*
X135146636Y-87902072D02*
X135095720Y-88020012D01*
X135095720Y-88020012D02*
X135051148Y-88140592D01*
X135051148Y-88140592D02*
X135013037Y-88263565D01*
X135013037Y-88263565D02*
X134981502Y-88388684D01*
X135867596Y-86811274D02*
X135825916Y-86902446D01*
X135825916Y-86902446D02*
X135779615Y-86991137D01*
X135779615Y-86991137D02*
X135715420Y-87098253D01*
X135715420Y-87098253D02*
X135644423Y-87200894D01*
X135644423Y-87200894D02*
X135566857Y-87298731D01*
X135566857Y-87298731D02*
X135500232Y-87373319D01*
X135500232Y-87373319D02*
X135429672Y-87444451D01*
X135429672Y-87444451D02*
X135411431Y-87461674D01*
X136103371Y-86662834D02*
X136044617Y-86745710D01*
X136044617Y-86745710D02*
X135950451Y-86800215D01*
X135950451Y-86800215D02*
X135867596Y-86811274D01*
X136269642Y-86499785D02*
X136172302Y-86533358D01*
X136172302Y-86533358D02*
X136112552Y-86614730D01*
X136112552Y-86614730D02*
X136103371Y-86662834D01*
X137555601Y-85770625D02*
X137429565Y-85828905D01*
X137429565Y-85828905D02*
X137304587Y-85889312D01*
X137304587Y-85889312D02*
X137180694Y-85951832D01*
X137180694Y-85951832D02*
X137057911Y-86016450D01*
X137057911Y-86016450D02*
X136936265Y-86083152D01*
X136936265Y-86083152D02*
X136815780Y-86151923D01*
X136815780Y-86151923D02*
X136696483Y-86222749D01*
X136696483Y-86222749D02*
X136578400Y-86295614D01*
X136578400Y-86295614D02*
X136461556Y-86370505D01*
X136461556Y-86370505D02*
X136345978Y-86447407D01*
X136345978Y-86447407D02*
X136269642Y-86499785D01*
X138198187Y-85629074D02*
X137555601Y-85770625D01*
X138037211Y-85842884D02*
X138124631Y-85784566D01*
X138124631Y-85784566D02*
X138181323Y-85697723D01*
X138181323Y-85697723D02*
X138198187Y-85629074D01*
X137599481Y-86172150D02*
X138037211Y-85842884D01*
X137188652Y-86421190D02*
X137599481Y-86172150D01*
X137180807Y-86541844D02*
X137199593Y-86443370D01*
X137199593Y-86443370D02*
X137188652Y-86421190D01*
X137062162Y-86570379D02*
X137162668Y-86558845D01*
X137162668Y-86558845D02*
X137180807Y-86541844D01*
X137000767Y-86715240D02*
X137016489Y-86613952D01*
X137016489Y-86613952D02*
X137062162Y-86570379D01*
X137035997Y-86965094D02*
X137000767Y-86715240D01*
X136928682Y-87107634D02*
X137035997Y-86965094D01*
X136865721Y-87384075D02*
X136870649Y-87276510D01*
X136870649Y-87276510D02*
X136898182Y-87172816D01*
X136898182Y-87172816D02*
X136928682Y-87107634D01*
X136677346Y-87945754D02*
X136865721Y-87384075D01*
X136542957Y-88257740D02*
X136617591Y-88176123D01*
X136617591Y-88176123D02*
X136663770Y-88077271D01*
X136663770Y-88077271D02*
X136678455Y-87968183D01*
X136678455Y-87968183D02*
X136677346Y-87945754D01*
X136601256Y-88310040D02*
X136542957Y-88257740D01*
X136585462Y-88387015D02*
X136601256Y-88310040D01*
X136458256Y-88544859D02*
X136496344Y-88445621D01*
X136496344Y-88445621D02*
X136578827Y-88389002D01*
X136578827Y-88389002D02*
X136585462Y-88387015D01*
X136568861Y-88712770D02*
X136486320Y-88646754D01*
X136486320Y-88646754D02*
X136458256Y-88544859D01*
X136666231Y-89132244D02*
X136568861Y-88712770D01*
X136692142Y-89587264D02*
X136666231Y-89132244D01*
X136655612Y-90051094D02*
X136692142Y-89587264D01*
X136771411Y-90149440D02*
X136681762Y-90099570D01*
X136681762Y-90099570D02*
X136655612Y-90051094D01*
X136843666Y-89667839D02*
X136771411Y-90149440D01*
X136799792Y-89266294D02*
X136815193Y-89366161D01*
X136815193Y-89366161D02*
X136827645Y-89466419D01*
X136827645Y-89466419D02*
X136837138Y-89567001D01*
X136837138Y-89567001D02*
X136843666Y-89667839D01*
X136808756Y-89239560D02*
X136799792Y-89266294D01*
X136773881Y-88811274D02*
X136808756Y-89239560D01*
X136792472Y-88400940D02*
X136808210Y-88503764D01*
X136808210Y-88503764D02*
X136810314Y-88607334D01*
X136810314Y-88607334D02*
X136798849Y-88710290D01*
X136798849Y-88710290D02*
X136773881Y-88811274D01*
X136891141Y-88106729D02*
X136907681Y-88210984D01*
X136907681Y-88210984D02*
X136879191Y-88309843D01*
X136879191Y-88309843D02*
X136810577Y-88388809D01*
X136810577Y-88388809D02*
X136792472Y-88400940D01*
X137070551Y-87571784D02*
X136891141Y-88106729D01*
X137151451Y-87241859D02*
X137137132Y-87347480D01*
X137137132Y-87347480D02*
X137112775Y-87451102D01*
X137112775Y-87451102D02*
X137078561Y-87551996D01*
X137078561Y-87551996D02*
X137070551Y-87571784D01*
X137410776Y-86912254D02*
X137151451Y-87241859D01*
X137464592Y-86751779D02*
X137410776Y-86912254D01*
X137611036Y-86676655D02*
X137526156Y-86737413D01*
X137526156Y-86737413D02*
X137464592Y-86751779D01*
X137661281Y-86520184D02*
X137644351Y-86623025D01*
X137644351Y-86623025D02*
X137611036Y-86676655D01*
X138206352Y-86048385D02*
X137661281Y-86520184D01*
X138242071Y-86030604D02*
X138206352Y-86048385D01*
X138241227Y-86476649D02*
X138214301Y-86366199D01*
X138214301Y-86366199D02*
X138205472Y-86253562D01*
X138205472Y-86253562D02*
X138214732Y-86140957D01*
X138214732Y-86140957D02*
X138242071Y-86030604D01*
X138029516Y-86832919D02*
X138038352Y-86722177D01*
X138038352Y-86722177D02*
X138079235Y-86621450D01*
X138079235Y-86621450D02*
X138148186Y-86537390D01*
X138148186Y-86537390D02*
X138241227Y-86476649D01*
X138721867Y-87084169D02*
X138623541Y-87103799D01*
X138623541Y-87103799D02*
X138500799Y-87106158D01*
X138500799Y-87106158D02*
X138381330Y-87085006D01*
X138381330Y-87085006D02*
X138268444Y-87041555D01*
X138268444Y-87041555D02*
X138165454Y-86977017D01*
X138165454Y-86977017D02*
X138075670Y-86892603D01*
X138075670Y-86892603D02*
X138029516Y-86832919D01*
X138856097Y-86861390D02*
X138721867Y-87084169D01*
X138812066Y-86728514D02*
X138825993Y-86831372D01*
X138825993Y-86831372D02*
X138856097Y-86861390D01*
X138927861Y-86647415D02*
X138835598Y-86687309D01*
X138835598Y-86687309D02*
X138812066Y-86728514D01*
X139160241Y-86398059D02*
X139080104Y-86468790D01*
X139080104Y-86468790D02*
X139006634Y-86546241D01*
X139006634Y-86546241D02*
X138940250Y-86629959D01*
X138940250Y-86629959D02*
X138927861Y-86647415D01*
X139186176Y-86853085D02*
X139202006Y-86753147D01*
X139202006Y-86753147D02*
X139205744Y-86652510D01*
X139205744Y-86652510D02*
X139197449Y-86552252D01*
X139197449Y-86552252D02*
X139177178Y-86453449D01*
X139177178Y-86453449D02*
X139160241Y-86398059D01*
X139140836Y-87254455D02*
X139186176Y-86853085D01*
X139188250Y-87276174D02*
X139140836Y-87254455D01*
X139195740Y-87336720D02*
X139188250Y-87276174D01*
X139145000Y-87370580D02*
X139195740Y-87336720D01*
X139096101Y-87500825D02*
X139119549Y-87402128D01*
X139119549Y-87402128D02*
X139145000Y-87370580D01*
X139166910Y-87620245D02*
X139104727Y-87540369D01*
X139104727Y-87540369D02*
X139096101Y-87500825D01*
X139077041Y-87976940D02*
X139096336Y-87875173D01*
X139096336Y-87875173D02*
X139120334Y-87774450D01*
X139120334Y-87774450D02*
X139148991Y-87674941D01*
X139148991Y-87674941D02*
X139166910Y-87620245D01*
X139031866Y-88289095D02*
X139077041Y-87976940D01*
X138978576Y-88355034D02*
X139031866Y-88289095D01*
X140583776Y-86652210D02*
X140485205Y-86680388D01*
X140485205Y-86680388D02*
X140462196Y-86685919D01*
X138139132Y-90279525D02*
X138058862Y-90345481D01*
X138058862Y-90345481D02*
X137982514Y-90415774D01*
X137982514Y-90415774D02*
X137910257Y-90490233D01*
X137910257Y-90490233D02*
X137842265Y-90568686D01*
X137842265Y-90568686D02*
X137805392Y-90615244D01*
X138600967Y-89751359D02*
X138533105Y-89837562D01*
X138533105Y-89837562D02*
X138463620Y-89922439D01*
X138463620Y-89922439D02*
X138392534Y-90005964D01*
X138392534Y-90005964D02*
X138319866Y-90088114D01*
X138319866Y-90088114D02*
X138245636Y-90168866D01*
X138245636Y-90168866D02*
X138169866Y-90248196D01*
X138169866Y-90248196D02*
X138139132Y-90279525D01*
X138824577Y-89439544D02*
X138600967Y-89751359D01*
X140122810Y-86899410D02*
X140074210Y-86989509D01*
X140074210Y-86989509D02*
X140076286Y-87024880D01*
X140105031Y-86863689D02*
X140122810Y-86899410D01*
X139633370Y-86229425D02*
X139672462Y-86321958D01*
X139672462Y-86321958D02*
X139717645Y-86411267D01*
X139717645Y-86411267D02*
X139782373Y-86517941D01*
X139782373Y-86517941D02*
X139855889Y-86618591D01*
X139855889Y-86618591D02*
X139937786Y-86712667D01*
X139937786Y-86712667D02*
X140009067Y-86782827D01*
X140009067Y-86782827D02*
X140085245Y-86848147D01*
X140085245Y-86848147D02*
X140105031Y-86863689D01*
X139694280Y-86192434D02*
X139633370Y-86229425D01*
X139749335Y-86238559D02*
X139694280Y-86192434D01*
X139776086Y-86247529D02*
X139749335Y-86238559D01*
X139802830Y-86256504D02*
X139776086Y-86247529D01*
X140079096Y-86408670D02*
X139802830Y-86256504D01*
X140123621Y-86453355D02*
X140079096Y-86408670D01*
X140301730Y-86632100D02*
X140123621Y-86453355D01*
X140462196Y-86685919D02*
X140462000Y-86614000D01*
X140198686Y-87708775D02*
X140307236Y-88478780D01*
X140193250Y-87399120D02*
X140203258Y-87505345D01*
X140203258Y-87505345D02*
X140204742Y-87611958D01*
X140204742Y-87611958D02*
X140198686Y-87708775D01*
X140167001Y-87122519D02*
X140206171Y-87222610D01*
X140206171Y-87222610D02*
X140210335Y-87329076D01*
X140210335Y-87329076D02*
X140193250Y-87399120D01*
X140076286Y-87024880D02*
X140134543Y-87108553D01*
X140134543Y-87108553D02*
X140167001Y-87122519D01*
X139013771Y-88431789D02*
X138978576Y-88355034D01*
X138852626Y-88734819D02*
X139013771Y-88431789D01*
X138746826Y-88870019D02*
X138795626Y-88778304D01*
X138795626Y-88778304D02*
X138852626Y-88734819D01*
X138780702Y-89037995D02*
X138742774Y-88941474D01*
X138742774Y-88941474D02*
X138746826Y-88870019D01*
X138610751Y-89278560D02*
X138638198Y-89175952D01*
X138638198Y-89175952D02*
X138700035Y-89091475D01*
X138700035Y-89091475D02*
X138780702Y-89037995D01*
X138521047Y-89546030D02*
X138599176Y-89473262D01*
X138599176Y-89473262D02*
X138629893Y-89374111D01*
X138629893Y-89374111D02*
X138610751Y-89278560D01*
X138298012Y-89838975D02*
X138368316Y-89762520D01*
X138368316Y-89762520D02*
X138432819Y-89681254D01*
X138432819Y-89681254D02*
X138491275Y-89595496D01*
X138491275Y-89595496D02*
X138521047Y-89546030D01*
X137835337Y-90425295D02*
X137896181Y-90325112D01*
X137896181Y-90325112D02*
X137961433Y-90227893D01*
X137961433Y-90227893D02*
X138030979Y-90133781D01*
X138030979Y-90133781D02*
X138104703Y-90042919D01*
X138104703Y-90042919D02*
X138182493Y-89955452D01*
X138182493Y-89955452D02*
X138264234Y-89871523D01*
X138264234Y-89871523D02*
X138298012Y-89838975D01*
X137805392Y-90615244D02*
X137783145Y-90514425D01*
X137783145Y-90514425D02*
X137835337Y-90425295D01*
X140399616Y-86578210D02*
X140337435Y-86614340D01*
X138943936Y-89395970D02*
X138853457Y-89439484D01*
X138853457Y-89439484D02*
X138824577Y-89439544D01*
X138984451Y-89275814D02*
X138961940Y-89373433D01*
X138961940Y-89373433D02*
X138943936Y-89395970D01*
X138916907Y-89211880D02*
X138984451Y-89275814D01*
X138938617Y-89118765D02*
X138916907Y-89211880D01*
X139030395Y-89091979D02*
X138938617Y-89118765D01*
X139101990Y-88967224D02*
X139030395Y-89091979D01*
X139066770Y-88717369D02*
X139101990Y-88967224D01*
X139344856Y-87888220D02*
X139066770Y-88717369D01*
X139634386Y-89733609D02*
X139677452Y-89637099D01*
X139677452Y-89637099D02*
X139724931Y-89542739D01*
X139724931Y-89542739D02*
X139776740Y-89450686D01*
X139776740Y-89450686D02*
X139832795Y-89361095D01*
X139483611Y-90047385D02*
X139634386Y-89733609D01*
X139420785Y-90104630D02*
X139483611Y-90047385D01*
X139448461Y-90181919D02*
X139420785Y-90104630D01*
X139530330Y-90188020D02*
X139448461Y-90181919D01*
X139896516Y-89585925D02*
X139530330Y-90188020D01*
X140056066Y-89227685D02*
X140022682Y-89333318D01*
X140022682Y-89333318D02*
X139980166Y-89435445D01*
X139980166Y-89435445D02*
X139928788Y-89533465D01*
X139928788Y-89533465D02*
X139896516Y-89585925D01*
X140279835Y-88826665D02*
X140056066Y-89227685D01*
X140307236Y-88478780D02*
X140279835Y-88826665D01*
X140462000Y-86614000D02*
X140399616Y-86578210D01*
M02*
