G04 #@! TF.GenerationSoftware,KiCad,Pcbnew,(5.1.12)-1*
G04 #@! TF.CreationDate,2021-12-28T16:54:34-05:00*
G04 #@! TF.ProjectId,FlipDisplay-Motor,466c6970-4469-4737-906c-61792d4d6f74,rev?*
G04 #@! TF.SameCoordinates,Original*
G04 #@! TF.FileFunction,Copper,L1,Top*
G04 #@! TF.FilePolarity,Positive*
%FSLAX46Y46*%
G04 Gerber Fmt 4.6, Leading zero omitted, Abs format (unit mm)*
G04 Created by KiCad (PCBNEW (5.1.12)-1) date 2021-12-28 16:54:34*
%MOMM*%
%LPD*%
G01*
G04 APERTURE LIST*
G04 #@! TA.AperFunction,ComponentPad*
%ADD10O,1.700000X1.950000*%
G04 #@! TD*
G04 #@! TA.AperFunction,ComponentPad*
%ADD11O,1.700000X1.700000*%
G04 #@! TD*
G04 #@! TA.AperFunction,ComponentPad*
%ADD12R,1.700000X1.700000*%
G04 #@! TD*
G04 #@! TA.AperFunction,ComponentPad*
%ADD13O,1.950000X1.700000*%
G04 #@! TD*
G04 #@! TA.AperFunction,ViaPad*
%ADD14C,0.800000*%
G04 #@! TD*
G04 #@! TA.AperFunction,Conductor*
%ADD15C,1.000000*%
G04 #@! TD*
G04 #@! TA.AperFunction,Conductor*
%ADD16C,0.254000*%
G04 #@! TD*
G04 #@! TA.AperFunction,Conductor*
%ADD17C,0.100000*%
G04 #@! TD*
G04 APERTURE END LIST*
G04 #@! TA.AperFunction,SMDPad,CuDef*
G36*
G01*
X160570000Y-82437000D02*
X159470000Y-82437000D01*
G75*
G02*
X159220000Y-82187000I0J250000D01*
G01*
X159220000Y-79362000D01*
G75*
G02*
X159470000Y-79112000I250000J0D01*
G01*
X160570000Y-79112000D01*
G75*
G02*
X160820000Y-79362000I0J-250000D01*
G01*
X160820000Y-82187000D01*
G75*
G02*
X160570000Y-82437000I-250000J0D01*
G01*
G37*
G04 #@! TD.AperFunction*
G04 #@! TA.AperFunction,SMDPad,CuDef*
G36*
G01*
X160570000Y-87512000D02*
X159470000Y-87512000D01*
G75*
G02*
X159220000Y-87262000I0J250000D01*
G01*
X159220000Y-84437000D01*
G75*
G02*
X159470000Y-84187000I250000J0D01*
G01*
X160570000Y-84187000D01*
G75*
G02*
X160820000Y-84437000I0J-250000D01*
G01*
X160820000Y-87262000D01*
G75*
G02*
X160570000Y-87512000I-250000J0D01*
G01*
G37*
G04 #@! TD.AperFunction*
D10*
X148510000Y-67818000D03*
X146010000Y-67818000D03*
G04 #@! TA.AperFunction,ComponentPad*
G36*
G01*
X142660000Y-68543000D02*
X142660000Y-67093000D01*
G75*
G02*
X142910000Y-66843000I250000J0D01*
G01*
X144110000Y-66843000D01*
G75*
G02*
X144360000Y-67093000I0J-250000D01*
G01*
X144360000Y-68543000D01*
G75*
G02*
X144110000Y-68793000I-250000J0D01*
G01*
X142910000Y-68793000D01*
G75*
G02*
X142660000Y-68543000I0J250000D01*
G01*
G37*
G04 #@! TD.AperFunction*
X159686000Y-67818000D03*
X157186000Y-67818000D03*
G04 #@! TA.AperFunction,ComponentPad*
G36*
G01*
X153836000Y-68543000D02*
X153836000Y-67093000D01*
G75*
G02*
X154086000Y-66843000I250000J0D01*
G01*
X155286000Y-66843000D01*
G75*
G02*
X155536000Y-67093000I0J-250000D01*
G01*
X155536000Y-68543000D01*
G75*
G02*
X155286000Y-68793000I-250000J0D01*
G01*
X154086000Y-68793000D01*
G75*
G02*
X153836000Y-68543000I0J250000D01*
G01*
G37*
G04 #@! TD.AperFunction*
X137080000Y-67818000D03*
X134580000Y-67818000D03*
G04 #@! TA.AperFunction,ComponentPad*
G36*
G01*
X131230000Y-68543000D02*
X131230000Y-67093000D01*
G75*
G02*
X131480000Y-66843000I250000J0D01*
G01*
X132680000Y-66843000D01*
G75*
G02*
X132930000Y-67093000I0J-250000D01*
G01*
X132930000Y-68543000D01*
G75*
G02*
X132680000Y-68793000I-250000J0D01*
G01*
X131480000Y-68793000D01*
G75*
G02*
X131230000Y-68543000I0J250000D01*
G01*
G37*
G04 #@! TD.AperFunction*
D11*
X146050000Y-78994000D03*
X146050000Y-81534000D03*
X146050000Y-84074000D03*
X146050000Y-86614000D03*
X146050000Y-89154000D03*
X146050000Y-91694000D03*
X146050000Y-94234000D03*
D12*
X146050000Y-96774000D03*
D13*
X152400000Y-76828000D03*
X152400000Y-79328000D03*
X152400000Y-81828000D03*
G04 #@! TA.AperFunction,ComponentPad*
G36*
G01*
X153125000Y-85178000D02*
X151675000Y-85178000D01*
G75*
G02*
X151425000Y-84928000I0J250000D01*
G01*
X151425000Y-83728000D01*
G75*
G02*
X151675000Y-83478000I250000J0D01*
G01*
X153125000Y-83478000D01*
G75*
G02*
X153375000Y-83728000I0J-250000D01*
G01*
X153375000Y-84928000D01*
G75*
G02*
X153125000Y-85178000I-250000J0D01*
G01*
G37*
G04 #@! TD.AperFunction*
D11*
X133096000Y-96774000D03*
X133096000Y-94234000D03*
X133096000Y-91694000D03*
X133096000Y-89154000D03*
X133096000Y-86614000D03*
X133096000Y-84074000D03*
X133096000Y-81534000D03*
D12*
X133096000Y-78994000D03*
D13*
X152400000Y-90758000D03*
X152400000Y-93258000D03*
G04 #@! TA.AperFunction,ComponentPad*
G36*
G01*
X153125000Y-96608000D02*
X151675000Y-96608000D01*
G75*
G02*
X151425000Y-96358000I0J250000D01*
G01*
X151425000Y-95158000D01*
G75*
G02*
X151675000Y-94908000I250000J0D01*
G01*
X153125000Y-94908000D01*
G75*
G02*
X153375000Y-95158000I0J-250000D01*
G01*
X153375000Y-96358000D01*
G75*
G02*
X153125000Y-96608000I-250000J0D01*
G01*
G37*
G04 #@! TD.AperFunction*
D14*
X141478000Y-72390000D03*
X137160000Y-81280000D03*
D15*
X143837999Y-71990001D02*
X146010000Y-69818000D01*
X141877999Y-71990001D02*
X143837999Y-71990001D01*
X146010000Y-69818000D02*
X146010000Y-67818000D01*
X141478000Y-72390000D02*
X141877999Y-71990001D01*
X146050000Y-94234000D02*
X148082000Y-94234000D01*
X149058000Y-93258000D02*
X152400000Y-93258000D01*
X148082000Y-94234000D02*
X149058000Y-93258000D01*
X145034000Y-94234000D02*
X146050000Y-94234000D01*
X137160000Y-86360000D02*
X145034000Y-94234000D01*
X137160000Y-81280000D02*
X137160000Y-81280000D01*
X137160000Y-81280000D02*
X137160000Y-86360000D01*
X133350000Y-81534000D02*
X133096000Y-81534000D01*
X133096000Y-89154000D02*
X133096000Y-91694000D01*
X154075010Y-83334490D02*
X152568520Y-81828000D01*
X152568520Y-81828000D02*
X152400000Y-81828000D01*
X154075010Y-85321510D02*
X154075010Y-83334490D01*
X152782520Y-86614000D02*
X154075010Y-85321510D01*
X146050000Y-86614000D02*
X152782520Y-86614000D01*
X152146000Y-84074000D02*
X152400000Y-84328000D01*
X146050000Y-84074000D02*
X152146000Y-84074000D01*
X155679510Y-66142990D02*
X157186000Y-67649480D01*
X136130010Y-66142990D02*
X155679510Y-66142990D01*
X134580000Y-67693000D02*
X136130010Y-66142990D01*
X157186000Y-67649480D02*
X157186000Y-67818000D01*
X134580000Y-67818000D02*
X134580000Y-67693000D01*
X157186000Y-67986520D02*
X157186000Y-67818000D01*
X147028519Y-78144001D02*
X157186000Y-67986520D01*
X146899999Y-78144001D02*
X147028519Y-78144001D01*
X146050000Y-78994000D02*
X146899999Y-78144001D01*
X157186000Y-83015500D02*
X157186000Y-67818000D01*
X160020000Y-85849500D02*
X157186000Y-83015500D01*
X148510000Y-69793000D02*
X148510000Y-67818000D01*
X143755998Y-78994000D02*
X148510000Y-74239998D01*
X148510000Y-74239998D02*
X148510000Y-69793000D01*
X133096000Y-78994000D02*
X143755998Y-78994000D01*
D16*
X163932000Y-80975921D02*
X163829793Y-80921290D01*
X163705383Y-80883550D01*
X163608419Y-80874000D01*
X163289581Y-80874000D01*
X163192617Y-80883550D01*
X163068207Y-80921290D01*
X162953550Y-80982575D01*
X162853052Y-81065052D01*
X162770575Y-81165550D01*
X162709290Y-81280207D01*
X162671550Y-81404617D01*
X162658807Y-81534000D01*
X162671550Y-81663383D01*
X162709290Y-81787793D01*
X162770575Y-81902450D01*
X162853052Y-82002948D01*
X162953550Y-82085425D01*
X163068207Y-82146710D01*
X163192617Y-82184450D01*
X163289581Y-82194000D01*
X163608419Y-82194000D01*
X163705383Y-82184450D01*
X163829793Y-82146710D01*
X163932000Y-82092079D01*
X163932001Y-99924000D01*
X129184000Y-99924000D01*
X129184000Y-97130890D01*
X131654524Y-97130890D01*
X131699175Y-97278099D01*
X131824359Y-97540920D01*
X131998412Y-97774269D01*
X132214645Y-97969178D01*
X132464748Y-98118157D01*
X132739109Y-98215481D01*
X132969000Y-98094814D01*
X132969000Y-96901000D01*
X133223000Y-96901000D01*
X133223000Y-98094814D01*
X133452891Y-98215481D01*
X133727252Y-98118157D01*
X133977355Y-97969178D01*
X134193588Y-97774269D01*
X134305672Y-97624000D01*
X144561928Y-97624000D01*
X144574188Y-97748482D01*
X144610498Y-97868180D01*
X144669463Y-97978494D01*
X144748815Y-98075185D01*
X144845506Y-98154537D01*
X144955820Y-98213502D01*
X145075518Y-98249812D01*
X145200000Y-98262072D01*
X145764250Y-98259000D01*
X145923000Y-98100250D01*
X145923000Y-96901000D01*
X146177000Y-96901000D01*
X146177000Y-98100250D01*
X146335750Y-98259000D01*
X146900000Y-98262072D01*
X147024482Y-98249812D01*
X147144180Y-98213502D01*
X147254494Y-98154537D01*
X147351185Y-98075185D01*
X147430537Y-97978494D01*
X147489502Y-97868180D01*
X147525812Y-97748482D01*
X147538072Y-97624000D01*
X147536395Y-97315872D01*
X158293000Y-97315872D01*
X158293000Y-97756128D01*
X158378890Y-98187925D01*
X158547369Y-98594669D01*
X158791962Y-98960729D01*
X159103271Y-99272038D01*
X159469331Y-99516631D01*
X159876075Y-99685110D01*
X160307872Y-99771000D01*
X160748128Y-99771000D01*
X161179925Y-99685110D01*
X161586669Y-99516631D01*
X161952729Y-99272038D01*
X162264038Y-98960729D01*
X162508631Y-98594669D01*
X162677110Y-98187925D01*
X162763000Y-97756128D01*
X162763000Y-97315872D01*
X162677110Y-96884075D01*
X162508631Y-96477331D01*
X162264038Y-96111271D01*
X161952729Y-95799962D01*
X161586669Y-95555369D01*
X161179925Y-95386890D01*
X160748128Y-95301000D01*
X160307872Y-95301000D01*
X159876075Y-95386890D01*
X159469331Y-95555369D01*
X159103271Y-95799962D01*
X158791962Y-96111271D01*
X158547369Y-96477331D01*
X158378890Y-96884075D01*
X158293000Y-97315872D01*
X147536395Y-97315872D01*
X147535000Y-97059750D01*
X147376250Y-96901000D01*
X146177000Y-96901000D01*
X145923000Y-96901000D01*
X144723750Y-96901000D01*
X144565000Y-97059750D01*
X144561928Y-97624000D01*
X134305672Y-97624000D01*
X134367641Y-97540920D01*
X134492825Y-97278099D01*
X134537476Y-97130890D01*
X134416155Y-96901000D01*
X133223000Y-96901000D01*
X132969000Y-96901000D01*
X131775845Y-96901000D01*
X131654524Y-97130890D01*
X129184000Y-97130890D01*
X129184000Y-89007740D01*
X131611000Y-89007740D01*
X131611000Y-89300260D01*
X131668068Y-89587158D01*
X131780010Y-89857411D01*
X131942525Y-90100632D01*
X131961000Y-90119107D01*
X131961001Y-90728892D01*
X131942525Y-90747368D01*
X131780010Y-90990589D01*
X131668068Y-91260842D01*
X131611000Y-91547740D01*
X131611000Y-91840260D01*
X131668068Y-92127158D01*
X131780010Y-92397411D01*
X131942525Y-92640632D01*
X132149368Y-92847475D01*
X132323760Y-92964000D01*
X132149368Y-93080525D01*
X131942525Y-93287368D01*
X131780010Y-93530589D01*
X131668068Y-93800842D01*
X131611000Y-94087740D01*
X131611000Y-94380260D01*
X131668068Y-94667158D01*
X131780010Y-94937411D01*
X131942525Y-95180632D01*
X132149368Y-95387475D01*
X132331534Y-95509195D01*
X132214645Y-95578822D01*
X131998412Y-95773731D01*
X131824359Y-96007080D01*
X131699175Y-96269901D01*
X131654524Y-96417110D01*
X131775845Y-96647000D01*
X132969000Y-96647000D01*
X132969000Y-96627000D01*
X133223000Y-96627000D01*
X133223000Y-96647000D01*
X134416155Y-96647000D01*
X134537476Y-96417110D01*
X134492825Y-96269901D01*
X134367641Y-96007080D01*
X134193588Y-95773731D01*
X133977355Y-95578822D01*
X133860466Y-95509195D01*
X134042632Y-95387475D01*
X134249475Y-95180632D01*
X134411990Y-94937411D01*
X134523932Y-94667158D01*
X134581000Y-94380260D01*
X134581000Y-94087740D01*
X134523932Y-93800842D01*
X134411990Y-93530589D01*
X134249475Y-93287368D01*
X134042632Y-93080525D01*
X133868240Y-92964000D01*
X134042632Y-92847475D01*
X134249475Y-92640632D01*
X134411990Y-92397411D01*
X134523932Y-92127158D01*
X134581000Y-91840260D01*
X134581000Y-91547740D01*
X134523932Y-91260842D01*
X134411990Y-90990589D01*
X134249475Y-90747368D01*
X134231000Y-90728893D01*
X134231000Y-90119107D01*
X134249475Y-90100632D01*
X134411990Y-89857411D01*
X134523932Y-89587158D01*
X134581000Y-89300260D01*
X134581000Y-89007740D01*
X134523932Y-88720842D01*
X134411990Y-88450589D01*
X134249475Y-88207368D01*
X134042632Y-88000525D01*
X133860466Y-87878805D01*
X133977355Y-87809178D01*
X134193588Y-87614269D01*
X134367641Y-87380920D01*
X134492825Y-87118099D01*
X134537476Y-86970890D01*
X134416155Y-86741000D01*
X133223000Y-86741000D01*
X133223000Y-86761000D01*
X132969000Y-86761000D01*
X132969000Y-86741000D01*
X131775845Y-86741000D01*
X131654524Y-86970890D01*
X131699175Y-87118099D01*
X131824359Y-87380920D01*
X131998412Y-87614269D01*
X132214645Y-87809178D01*
X132331534Y-87878805D01*
X132149368Y-88000525D01*
X131942525Y-88207368D01*
X131780010Y-88450589D01*
X131668068Y-88720842D01*
X131611000Y-89007740D01*
X129184000Y-89007740D01*
X129184000Y-84430890D01*
X131654524Y-84430890D01*
X131699175Y-84578099D01*
X131824359Y-84840920D01*
X131998412Y-85074269D01*
X132214645Y-85269178D01*
X132340255Y-85344000D01*
X132214645Y-85418822D01*
X131998412Y-85613731D01*
X131824359Y-85847080D01*
X131699175Y-86109901D01*
X131654524Y-86257110D01*
X131775845Y-86487000D01*
X132969000Y-86487000D01*
X132969000Y-84201000D01*
X133223000Y-84201000D01*
X133223000Y-86487000D01*
X134416155Y-86487000D01*
X134537476Y-86257110D01*
X134492825Y-86109901D01*
X134367641Y-85847080D01*
X134193588Y-85613731D01*
X133977355Y-85418822D01*
X133851745Y-85344000D01*
X133977355Y-85269178D01*
X134193588Y-85074269D01*
X134367641Y-84840920D01*
X134492825Y-84578099D01*
X134537476Y-84430890D01*
X134416155Y-84201000D01*
X133223000Y-84201000D01*
X132969000Y-84201000D01*
X131775845Y-84201000D01*
X131654524Y-84430890D01*
X129184000Y-84430890D01*
X129184000Y-81890890D01*
X131654524Y-81890890D01*
X131699175Y-82038099D01*
X131824359Y-82300920D01*
X131998412Y-82534269D01*
X132214645Y-82729178D01*
X132340255Y-82804000D01*
X132214645Y-82878822D01*
X131998412Y-83073731D01*
X131824359Y-83307080D01*
X131699175Y-83569901D01*
X131654524Y-83717110D01*
X131775845Y-83947000D01*
X132969000Y-83947000D01*
X132969000Y-81661000D01*
X133223000Y-81661000D01*
X133223000Y-83947000D01*
X134416155Y-83947000D01*
X134537476Y-83717110D01*
X134492825Y-83569901D01*
X134367641Y-83307080D01*
X134193588Y-83073731D01*
X133977355Y-82878822D01*
X133851745Y-82804000D01*
X133977355Y-82729178D01*
X134193588Y-82534269D01*
X134367641Y-82300920D01*
X134492825Y-82038099D01*
X134537476Y-81890890D01*
X134416155Y-81661000D01*
X133223000Y-81661000D01*
X132969000Y-81661000D01*
X131775845Y-81661000D01*
X131654524Y-81890890D01*
X129184000Y-81890890D01*
X129184000Y-78144000D01*
X131607928Y-78144000D01*
X131607928Y-79844000D01*
X131620188Y-79968482D01*
X131656498Y-80088180D01*
X131715463Y-80198494D01*
X131794815Y-80295185D01*
X131891506Y-80374537D01*
X132001820Y-80433502D01*
X132082466Y-80457966D01*
X131998412Y-80533731D01*
X131824359Y-80767080D01*
X131699175Y-81029901D01*
X131654524Y-81177110D01*
X131775845Y-81407000D01*
X132969000Y-81407000D01*
X132969000Y-81387000D01*
X133223000Y-81387000D01*
X133223000Y-81407000D01*
X134416155Y-81407000D01*
X134483177Y-81280000D01*
X136019509Y-81280000D01*
X136025000Y-81335752D01*
X136025001Y-86304239D01*
X136019509Y-86360000D01*
X136041423Y-86582498D01*
X136106324Y-86796446D01*
X136127733Y-86836499D01*
X136211717Y-86993623D01*
X136353552Y-87166449D01*
X136396860Y-87201991D01*
X144192013Y-94997146D01*
X144227551Y-95040449D01*
X144270854Y-95075987D01*
X144270856Y-95075989D01*
X144400377Y-95182284D01*
X144597553Y-95287676D01*
X144811501Y-95352577D01*
X144904805Y-95361767D01*
X144845506Y-95393463D01*
X144748815Y-95472815D01*
X144669463Y-95569506D01*
X144610498Y-95679820D01*
X144574188Y-95799518D01*
X144561928Y-95924000D01*
X144565000Y-96488250D01*
X144723750Y-96647000D01*
X145923000Y-96647000D01*
X145923000Y-96627000D01*
X146177000Y-96627000D01*
X146177000Y-96647000D01*
X147376250Y-96647000D01*
X147415250Y-96608000D01*
X150786928Y-96608000D01*
X150799188Y-96732482D01*
X150835498Y-96852180D01*
X150894463Y-96962494D01*
X150973815Y-97059185D01*
X151070506Y-97138537D01*
X151180820Y-97197502D01*
X151300518Y-97233812D01*
X151425000Y-97246072D01*
X152114250Y-97243000D01*
X152273000Y-97084250D01*
X152273000Y-95885000D01*
X152527000Y-95885000D01*
X152527000Y-97084250D01*
X152685750Y-97243000D01*
X153375000Y-97246072D01*
X153499482Y-97233812D01*
X153619180Y-97197502D01*
X153729494Y-97138537D01*
X153826185Y-97059185D01*
X153905537Y-96962494D01*
X153964502Y-96852180D01*
X154000812Y-96732482D01*
X154013072Y-96608000D01*
X154010000Y-96043750D01*
X153851250Y-95885000D01*
X152527000Y-95885000D01*
X152273000Y-95885000D01*
X150948750Y-95885000D01*
X150790000Y-96043750D01*
X150786928Y-96608000D01*
X147415250Y-96608000D01*
X147535000Y-96488250D01*
X147538072Y-95924000D01*
X147525812Y-95799518D01*
X147489502Y-95679820D01*
X147430537Y-95569506D01*
X147351185Y-95472815D01*
X147254494Y-95393463D01*
X147208728Y-95369000D01*
X148026249Y-95369000D01*
X148082000Y-95374491D01*
X148137751Y-95369000D01*
X148137752Y-95369000D01*
X148304499Y-95352577D01*
X148518447Y-95287676D01*
X148715623Y-95182284D01*
X148888449Y-95040449D01*
X148923996Y-94997136D01*
X149528132Y-94393000D01*
X151051574Y-94393000D01*
X150973815Y-94456815D01*
X150894463Y-94553506D01*
X150835498Y-94663820D01*
X150799188Y-94783518D01*
X150786928Y-94908000D01*
X150790000Y-95472250D01*
X150948750Y-95631000D01*
X152273000Y-95631000D01*
X152273000Y-95611000D01*
X152527000Y-95611000D01*
X152527000Y-95631000D01*
X153851250Y-95631000D01*
X154010000Y-95472250D01*
X154013072Y-94908000D01*
X154000812Y-94783518D01*
X153964502Y-94663820D01*
X153905537Y-94553506D01*
X153826185Y-94456815D01*
X153729494Y-94377463D01*
X153619180Y-94318498D01*
X153584392Y-94307945D01*
X153765706Y-94087014D01*
X153903599Y-93829034D01*
X153988513Y-93549111D01*
X154017185Y-93258000D01*
X153988513Y-92966889D01*
X153903599Y-92686966D01*
X153765706Y-92428986D01*
X153580134Y-92202866D01*
X153354014Y-92017294D01*
X153336626Y-92008000D01*
X153354014Y-91998706D01*
X153580134Y-91813134D01*
X153765706Y-91587014D01*
X153903599Y-91329034D01*
X153988513Y-91049111D01*
X154017185Y-90758000D01*
X153988513Y-90466889D01*
X153903599Y-90186966D01*
X153765706Y-89928986D01*
X153580134Y-89702866D01*
X153354014Y-89517294D01*
X153096034Y-89379401D01*
X152816111Y-89294487D01*
X152597950Y-89273000D01*
X152202050Y-89273000D01*
X151983889Y-89294487D01*
X151703966Y-89379401D01*
X151445986Y-89517294D01*
X151219866Y-89702866D01*
X151034294Y-89928986D01*
X150896401Y-90186966D01*
X150811487Y-90466889D01*
X150782815Y-90758000D01*
X150811487Y-91049111D01*
X150896401Y-91329034D01*
X151034294Y-91587014D01*
X151219866Y-91813134D01*
X151445986Y-91998706D01*
X151463374Y-92008000D01*
X151445986Y-92017294D01*
X151317183Y-92123000D01*
X149113741Y-92123000D01*
X149057999Y-92117510D01*
X149002257Y-92123000D01*
X149002248Y-92123000D01*
X148835501Y-92139423D01*
X148621553Y-92204324D01*
X148424377Y-92309716D01*
X148251551Y-92451551D01*
X148216008Y-92494860D01*
X147611869Y-93099000D01*
X147015107Y-93099000D01*
X146996632Y-93080525D01*
X146822240Y-92964000D01*
X146996632Y-92847475D01*
X147203475Y-92640632D01*
X147365990Y-92397411D01*
X147477932Y-92127158D01*
X147535000Y-91840260D01*
X147535000Y-91547740D01*
X147477932Y-91260842D01*
X147365990Y-90990589D01*
X147203475Y-90747368D01*
X146996632Y-90540525D01*
X146822240Y-90424000D01*
X146996632Y-90307475D01*
X147203475Y-90100632D01*
X147365990Y-89857411D01*
X147477932Y-89587158D01*
X147535000Y-89300260D01*
X147535000Y-89007740D01*
X147477932Y-88720842D01*
X147365990Y-88450589D01*
X147203475Y-88207368D01*
X146996632Y-88000525D01*
X146822240Y-87884000D01*
X146996632Y-87767475D01*
X147015107Y-87749000D01*
X152726769Y-87749000D01*
X152782520Y-87754491D01*
X152838271Y-87749000D01*
X152838272Y-87749000D01*
X153005019Y-87732577D01*
X153218967Y-87667676D01*
X153416143Y-87562284D01*
X153588969Y-87420449D01*
X153624516Y-87377135D01*
X154838150Y-86163502D01*
X154881459Y-86127959D01*
X155023294Y-85955133D01*
X155128686Y-85757957D01*
X155193587Y-85544009D01*
X155210010Y-85377262D01*
X155210010Y-85377261D01*
X155215501Y-85321510D01*
X155210010Y-85265758D01*
X155210010Y-83390242D01*
X155215501Y-83334490D01*
X155193587Y-83111991D01*
X155128686Y-82898043D01*
X155023294Y-82700867D01*
X154916999Y-82571346D01*
X154916997Y-82571344D01*
X154881459Y-82528041D01*
X154838156Y-82492503D01*
X154000091Y-81654439D01*
X153988513Y-81536889D01*
X153903599Y-81256966D01*
X153765706Y-80998986D01*
X153580134Y-80772866D01*
X153354014Y-80587294D01*
X153336626Y-80578000D01*
X153354014Y-80568706D01*
X153580134Y-80383134D01*
X153765706Y-80157014D01*
X153903599Y-79899034D01*
X153988513Y-79619111D01*
X154017185Y-79328000D01*
X153988513Y-79036889D01*
X153903599Y-78756966D01*
X153765706Y-78498986D01*
X153580134Y-78272866D01*
X153354014Y-78087294D01*
X153336626Y-78078000D01*
X153354014Y-78068706D01*
X153580134Y-77883134D01*
X153765706Y-77657014D01*
X153903599Y-77399034D01*
X153988513Y-77119111D01*
X154017185Y-76828000D01*
X153988513Y-76536889D01*
X153903599Y-76256966D01*
X153765706Y-75998986D01*
X153580134Y-75772866D01*
X153354014Y-75587294D01*
X153096034Y-75449401D01*
X152816111Y-75364487D01*
X152597950Y-75343000D01*
X152202050Y-75343000D01*
X151983889Y-75364487D01*
X151703966Y-75449401D01*
X151445986Y-75587294D01*
X151219866Y-75772866D01*
X151034294Y-75998986D01*
X150896401Y-76256966D01*
X150811487Y-76536889D01*
X150782815Y-76828000D01*
X150811487Y-77119111D01*
X150896401Y-77399034D01*
X151034294Y-77657014D01*
X151219866Y-77883134D01*
X151445986Y-78068706D01*
X151463374Y-78078000D01*
X151445986Y-78087294D01*
X151219866Y-78272866D01*
X151034294Y-78498986D01*
X150896401Y-78756966D01*
X150811487Y-79036889D01*
X150782815Y-79328000D01*
X150811487Y-79619111D01*
X150896401Y-79899034D01*
X151034294Y-80157014D01*
X151219866Y-80383134D01*
X151445986Y-80568706D01*
X151463374Y-80578000D01*
X151445986Y-80587294D01*
X151219866Y-80772866D01*
X151034294Y-80998986D01*
X150896401Y-81256966D01*
X150811487Y-81536889D01*
X150782815Y-81828000D01*
X150811487Y-82119111D01*
X150896401Y-82399034D01*
X151034294Y-82657014D01*
X151219866Y-82883134D01*
X151283337Y-82935223D01*
X151276270Y-82939000D01*
X147015107Y-82939000D01*
X146996632Y-82920525D01*
X146814466Y-82798805D01*
X146931355Y-82729178D01*
X147147588Y-82534269D01*
X147321641Y-82300920D01*
X147446825Y-82038099D01*
X147491476Y-81890890D01*
X147370155Y-81661000D01*
X146177000Y-81661000D01*
X146177000Y-81681000D01*
X145923000Y-81681000D01*
X145923000Y-81661000D01*
X144729845Y-81661000D01*
X144608524Y-81890890D01*
X144653175Y-82038099D01*
X144778359Y-82300920D01*
X144952412Y-82534269D01*
X145168645Y-82729178D01*
X145285534Y-82798805D01*
X145103368Y-82920525D01*
X144896525Y-83127368D01*
X144734010Y-83370589D01*
X144622068Y-83640842D01*
X144565000Y-83927740D01*
X144565000Y-84220260D01*
X144622068Y-84507158D01*
X144734010Y-84777411D01*
X144896525Y-85020632D01*
X145103368Y-85227475D01*
X145277760Y-85344000D01*
X145103368Y-85460525D01*
X144896525Y-85667368D01*
X144734010Y-85910589D01*
X144622068Y-86180842D01*
X144565000Y-86467740D01*
X144565000Y-86760260D01*
X144622068Y-87047158D01*
X144734010Y-87317411D01*
X144896525Y-87560632D01*
X145103368Y-87767475D01*
X145277760Y-87884000D01*
X145103368Y-88000525D01*
X144896525Y-88207368D01*
X144734010Y-88450589D01*
X144622068Y-88720842D01*
X144565000Y-89007740D01*
X144565000Y-89300260D01*
X144622068Y-89587158D01*
X144734010Y-89857411D01*
X144896525Y-90100632D01*
X145103368Y-90307475D01*
X145277760Y-90424000D01*
X145103368Y-90540525D01*
X144896525Y-90747368D01*
X144734010Y-90990589D01*
X144622068Y-91260842D01*
X144565000Y-91547740D01*
X144565000Y-91840260D01*
X144622068Y-92127158D01*
X144685550Y-92280417D01*
X138295000Y-85889869D01*
X138295000Y-81335752D01*
X138300491Y-81280000D01*
X138278577Y-81057501D01*
X138213676Y-80843553D01*
X138108284Y-80646377D01*
X137966449Y-80473551D01*
X137793623Y-80331716D01*
X137596447Y-80226324D01*
X137382499Y-80161423D01*
X137215752Y-80145000D01*
X137215751Y-80145000D01*
X137160000Y-80139509D01*
X137104248Y-80145000D01*
X136937501Y-80161423D01*
X136723553Y-80226324D01*
X136526377Y-80331716D01*
X136353551Y-80473551D01*
X136211716Y-80646377D01*
X136106324Y-80843553D01*
X136041423Y-81057501D01*
X136019509Y-81280000D01*
X134483177Y-81280000D01*
X134537476Y-81177110D01*
X134492825Y-81029901D01*
X134367641Y-80767080D01*
X134193588Y-80533731D01*
X134109534Y-80457966D01*
X134190180Y-80433502D01*
X134300494Y-80374537D01*
X134397185Y-80295185D01*
X134476537Y-80198494D01*
X134513683Y-80129000D01*
X143700247Y-80129000D01*
X143755998Y-80134491D01*
X143811749Y-80129000D01*
X143811750Y-80129000D01*
X143978497Y-80112577D01*
X144192445Y-80047676D01*
X144389621Y-79942284D01*
X144562447Y-79800449D01*
X144597994Y-79757135D01*
X144711665Y-79643464D01*
X144734010Y-79697411D01*
X144896525Y-79940632D01*
X145103368Y-80147475D01*
X145285534Y-80269195D01*
X145168645Y-80338822D01*
X144952412Y-80533731D01*
X144778359Y-80767080D01*
X144653175Y-81029901D01*
X144608524Y-81177110D01*
X144729845Y-81407000D01*
X145923000Y-81407000D01*
X145923000Y-81387000D01*
X146177000Y-81387000D01*
X146177000Y-81407000D01*
X147370155Y-81407000D01*
X147491476Y-81177110D01*
X147446825Y-81029901D01*
X147321641Y-80767080D01*
X147147588Y-80533731D01*
X146931355Y-80338822D01*
X146814466Y-80269195D01*
X146996632Y-80147475D01*
X147203475Y-79940632D01*
X147365990Y-79697411D01*
X147477932Y-79427158D01*
X147530552Y-79162621D01*
X147662142Y-79092285D01*
X147834968Y-78950450D01*
X147870515Y-78907136D01*
X156051001Y-70726651D01*
X156051000Y-82959749D01*
X156045509Y-83015500D01*
X156056364Y-83125716D01*
X156067423Y-83237998D01*
X156132324Y-83451946D01*
X156237716Y-83649123D01*
X156379551Y-83821949D01*
X156422865Y-83857496D01*
X158581928Y-86016560D01*
X158581928Y-87262000D01*
X158598992Y-87435254D01*
X158649528Y-87601850D01*
X158731595Y-87755386D01*
X158842038Y-87889962D01*
X158976614Y-88000405D01*
X159130150Y-88082472D01*
X159296746Y-88133008D01*
X159470000Y-88150072D01*
X160570000Y-88150072D01*
X160743254Y-88133008D01*
X160909850Y-88082472D01*
X161063386Y-88000405D01*
X161197962Y-87889962D01*
X161308405Y-87755386D01*
X161390472Y-87601850D01*
X161441008Y-87435254D01*
X161458072Y-87262000D01*
X161458072Y-84437000D01*
X161441008Y-84263746D01*
X161390472Y-84097150D01*
X161308405Y-83943614D01*
X161197962Y-83809038D01*
X161063386Y-83698595D01*
X160909850Y-83616528D01*
X160743254Y-83565992D01*
X160570000Y-83548928D01*
X159470000Y-83548928D01*
X159337600Y-83561968D01*
X158321000Y-82545369D01*
X158321000Y-82437000D01*
X158581928Y-82437000D01*
X158594188Y-82561482D01*
X158630498Y-82681180D01*
X158689463Y-82791494D01*
X158768815Y-82888185D01*
X158865506Y-82967537D01*
X158975820Y-83026502D01*
X159095518Y-83062812D01*
X159220000Y-83075072D01*
X159734250Y-83072000D01*
X159893000Y-82913250D01*
X159893000Y-80901500D01*
X160147000Y-80901500D01*
X160147000Y-82913250D01*
X160305750Y-83072000D01*
X160820000Y-83075072D01*
X160944482Y-83062812D01*
X161064180Y-83026502D01*
X161174494Y-82967537D01*
X161271185Y-82888185D01*
X161350537Y-82791494D01*
X161409502Y-82681180D01*
X161445812Y-82561482D01*
X161458072Y-82437000D01*
X161455000Y-81060250D01*
X161296250Y-80901500D01*
X160147000Y-80901500D01*
X159893000Y-80901500D01*
X158743750Y-80901500D01*
X158585000Y-81060250D01*
X158581928Y-82437000D01*
X158321000Y-82437000D01*
X158321000Y-79112000D01*
X158581928Y-79112000D01*
X158585000Y-80488750D01*
X158743750Y-80647500D01*
X159893000Y-80647500D01*
X159893000Y-78635750D01*
X160147000Y-78635750D01*
X160147000Y-80647500D01*
X161296250Y-80647500D01*
X161455000Y-80488750D01*
X161458072Y-79112000D01*
X161445812Y-78987518D01*
X161409502Y-78867820D01*
X161350537Y-78757506D01*
X161271185Y-78660815D01*
X161174494Y-78581463D01*
X161064180Y-78522498D01*
X160944482Y-78486188D01*
X160820000Y-78473928D01*
X160305750Y-78477000D01*
X160147000Y-78635750D01*
X159893000Y-78635750D01*
X159734250Y-78477000D01*
X159220000Y-78473928D01*
X159095518Y-78486188D01*
X158975820Y-78522498D01*
X158865506Y-78581463D01*
X158768815Y-78660815D01*
X158689463Y-78757506D01*
X158630498Y-78867820D01*
X158594188Y-78987518D01*
X158581928Y-79112000D01*
X158321000Y-79112000D01*
X158321000Y-76030022D01*
X158537962Y-76354729D01*
X158849271Y-76666038D01*
X159215331Y-76910631D01*
X159622075Y-77079110D01*
X160053872Y-77165000D01*
X160494128Y-77165000D01*
X160925925Y-77079110D01*
X161332669Y-76910631D01*
X161698729Y-76666038D01*
X162010038Y-76354729D01*
X162254631Y-75988669D01*
X162423110Y-75581925D01*
X162509000Y-75150128D01*
X162509000Y-74709872D01*
X162423110Y-74278075D01*
X162254631Y-73871331D01*
X162010038Y-73505271D01*
X161698729Y-73193962D01*
X161332669Y-72949369D01*
X160925925Y-72780890D01*
X160494128Y-72695000D01*
X160053872Y-72695000D01*
X159622075Y-72780890D01*
X159215331Y-72949369D01*
X158849271Y-73193962D01*
X158537962Y-73505271D01*
X158321000Y-73829978D01*
X158321000Y-68900817D01*
X158426706Y-68772014D01*
X158436000Y-68754626D01*
X158445294Y-68772014D01*
X158630866Y-68998134D01*
X158856987Y-69183706D01*
X159114967Y-69321599D01*
X159394890Y-69406513D01*
X159686000Y-69435185D01*
X159977111Y-69406513D01*
X160257034Y-69321599D01*
X160515014Y-69183706D01*
X160741134Y-68998134D01*
X160926706Y-68772014D01*
X161064599Y-68514033D01*
X161149513Y-68234110D01*
X161171000Y-68015949D01*
X161171000Y-67620050D01*
X161149513Y-67401889D01*
X161064599Y-67121966D01*
X160926706Y-66863986D01*
X160741134Y-66637866D01*
X160515013Y-66452294D01*
X160257033Y-66314401D01*
X159977110Y-66229487D01*
X159686000Y-66200815D01*
X159394889Y-66229487D01*
X159114966Y-66314401D01*
X158856986Y-66452294D01*
X158630866Y-66637866D01*
X158445294Y-66863987D01*
X158436000Y-66881374D01*
X158426706Y-66863986D01*
X158241134Y-66637866D01*
X158015013Y-66452294D01*
X157757033Y-66314401D01*
X157477110Y-66229487D01*
X157359562Y-66217909D01*
X156521505Y-65379854D01*
X156485959Y-65336541D01*
X156313133Y-65194706D01*
X156115957Y-65089314D01*
X155902009Y-65024413D01*
X155735262Y-65007990D01*
X155735261Y-65007990D01*
X155679510Y-65002499D01*
X155623759Y-65007990D01*
X136185753Y-65007990D01*
X136130009Y-65002500D01*
X136074265Y-65007990D01*
X136074258Y-65007990D01*
X135928503Y-65022346D01*
X135907510Y-65024413D01*
X135857715Y-65039519D01*
X135693563Y-65089314D01*
X135496387Y-65194706D01*
X135323561Y-65336541D01*
X135288019Y-65379850D01*
X134454714Y-66213155D01*
X134288889Y-66229487D01*
X134008966Y-66314401D01*
X133750986Y-66452294D01*
X133530055Y-66633608D01*
X133519502Y-66598820D01*
X133460537Y-66488506D01*
X133381185Y-66391815D01*
X133284494Y-66312463D01*
X133174180Y-66253498D01*
X133054482Y-66217188D01*
X132930000Y-66204928D01*
X132365750Y-66208000D01*
X132207000Y-66366750D01*
X132207000Y-67691000D01*
X132227000Y-67691000D01*
X132227000Y-67945000D01*
X132207000Y-67945000D01*
X132207000Y-69269250D01*
X132365750Y-69428000D01*
X132930000Y-69431072D01*
X133054482Y-69418812D01*
X133174180Y-69382502D01*
X133284494Y-69323537D01*
X133381185Y-69244185D01*
X133460537Y-69147494D01*
X133519502Y-69037180D01*
X133530055Y-69002392D01*
X133750987Y-69183706D01*
X134008967Y-69321599D01*
X134288890Y-69406513D01*
X134580000Y-69435185D01*
X134871111Y-69406513D01*
X135151034Y-69321599D01*
X135409014Y-69183706D01*
X135635134Y-68998134D01*
X135820706Y-68772014D01*
X135830000Y-68754626D01*
X135839294Y-68772014D01*
X136024866Y-68998134D01*
X136250987Y-69183706D01*
X136508967Y-69321599D01*
X136788890Y-69406513D01*
X137080000Y-69435185D01*
X137371111Y-69406513D01*
X137651034Y-69321599D01*
X137909014Y-69183706D01*
X138135134Y-68998134D01*
X138320706Y-68772014D01*
X138458599Y-68514033D01*
X138543513Y-68234110D01*
X138565000Y-68015949D01*
X138565000Y-67620050D01*
X138543513Y-67401889D01*
X138505929Y-67277990D01*
X142021928Y-67277990D01*
X142021928Y-68543000D01*
X142038992Y-68716254D01*
X142089528Y-68882850D01*
X142171595Y-69036386D01*
X142282038Y-69170962D01*
X142416614Y-69281405D01*
X142570150Y-69363472D01*
X142736746Y-69414008D01*
X142910000Y-69431072D01*
X144110000Y-69431072D01*
X144283254Y-69414008D01*
X144449850Y-69363472D01*
X144603386Y-69281405D01*
X144737962Y-69170962D01*
X144848405Y-69036386D01*
X144875000Y-68986630D01*
X144875000Y-69347868D01*
X143367868Y-70855001D01*
X141933750Y-70855001D01*
X141877998Y-70849510D01*
X141822247Y-70855001D01*
X141655500Y-70871424D01*
X141441552Y-70936325D01*
X141244376Y-71041717D01*
X141071550Y-71183552D01*
X141036003Y-71226866D01*
X140636012Y-71626857D01*
X140529717Y-71756378D01*
X140424324Y-71953554D01*
X140359423Y-72167502D01*
X140337509Y-72390000D01*
X140359423Y-72612498D01*
X140424324Y-72826446D01*
X140529717Y-73023622D01*
X140671552Y-73196448D01*
X140844378Y-73338283D01*
X141041554Y-73443676D01*
X141255502Y-73508577D01*
X141478000Y-73530491D01*
X141700498Y-73508577D01*
X141914446Y-73443676D01*
X142111622Y-73338283D01*
X142241143Y-73231988D01*
X142348130Y-73125001D01*
X143782248Y-73125001D01*
X143837999Y-73130492D01*
X143893750Y-73125001D01*
X143893751Y-73125001D01*
X144060498Y-73108578D01*
X144274446Y-73043677D01*
X144471622Y-72938285D01*
X144644448Y-72796450D01*
X144679995Y-72753136D01*
X146773141Y-70659991D01*
X146816449Y-70624449D01*
X146958284Y-70451623D01*
X147063676Y-70254447D01*
X147128577Y-70040499D01*
X147145000Y-69873752D01*
X147145000Y-69873743D01*
X147150490Y-69818001D01*
X147145000Y-69762259D01*
X147145000Y-68900817D01*
X147250706Y-68772014D01*
X147260000Y-68754626D01*
X147269294Y-68772014D01*
X147375000Y-68900818D01*
X147375000Y-69848751D01*
X147375001Y-69848761D01*
X147375000Y-73769866D01*
X143285867Y-77859000D01*
X134513683Y-77859000D01*
X134476537Y-77789506D01*
X134397185Y-77692815D01*
X134300494Y-77613463D01*
X134190180Y-77554498D01*
X134070482Y-77518188D01*
X133946000Y-77505928D01*
X132246000Y-77505928D01*
X132121518Y-77518188D01*
X132001820Y-77554498D01*
X131891506Y-77613463D01*
X131794815Y-77692815D01*
X131715463Y-77789506D01*
X131656498Y-77899820D01*
X131620188Y-78019518D01*
X131607928Y-78144000D01*
X129184000Y-78144000D01*
X129184000Y-76139274D01*
X129327962Y-76354729D01*
X129639271Y-76666038D01*
X130005331Y-76910631D01*
X130412075Y-77079110D01*
X130843872Y-77165000D01*
X131284128Y-77165000D01*
X131715925Y-77079110D01*
X132122669Y-76910631D01*
X132488729Y-76666038D01*
X132800038Y-76354729D01*
X133044631Y-75988669D01*
X133213110Y-75581925D01*
X133299000Y-75150128D01*
X133299000Y-74709872D01*
X133213110Y-74278075D01*
X133044631Y-73871331D01*
X132800038Y-73505271D01*
X132488729Y-73193962D01*
X132122669Y-72949369D01*
X131715925Y-72780890D01*
X131284128Y-72695000D01*
X130843872Y-72695000D01*
X130412075Y-72780890D01*
X130005331Y-72949369D01*
X129639271Y-73193962D01*
X129327962Y-73505271D01*
X129184000Y-73720726D01*
X129184000Y-68793000D01*
X130591928Y-68793000D01*
X130604188Y-68917482D01*
X130640498Y-69037180D01*
X130699463Y-69147494D01*
X130778815Y-69244185D01*
X130875506Y-69323537D01*
X130985820Y-69382502D01*
X131105518Y-69418812D01*
X131230000Y-69431072D01*
X131794250Y-69428000D01*
X131953000Y-69269250D01*
X131953000Y-67945000D01*
X130753750Y-67945000D01*
X130595000Y-68103750D01*
X130591928Y-68793000D01*
X129184000Y-68793000D01*
X129184000Y-66843000D01*
X130591928Y-66843000D01*
X130595000Y-67532250D01*
X130753750Y-67691000D01*
X131953000Y-67691000D01*
X131953000Y-66366750D01*
X131794250Y-66208000D01*
X131230000Y-66204928D01*
X131105518Y-66217188D01*
X130985820Y-66253498D01*
X130875506Y-66312463D01*
X130778815Y-66391815D01*
X130699463Y-66488506D01*
X130640498Y-66598820D01*
X130604188Y-66718518D01*
X130591928Y-66843000D01*
X129184000Y-66843000D01*
X129184000Y-64922000D01*
X163932000Y-64922000D01*
X163932000Y-80975921D01*
G04 #@! TA.AperFunction,Conductor*
D17*
G36*
X163932000Y-80975921D02*
G01*
X163829793Y-80921290D01*
X163705383Y-80883550D01*
X163608419Y-80874000D01*
X163289581Y-80874000D01*
X163192617Y-80883550D01*
X163068207Y-80921290D01*
X162953550Y-80982575D01*
X162853052Y-81065052D01*
X162770575Y-81165550D01*
X162709290Y-81280207D01*
X162671550Y-81404617D01*
X162658807Y-81534000D01*
X162671550Y-81663383D01*
X162709290Y-81787793D01*
X162770575Y-81902450D01*
X162853052Y-82002948D01*
X162953550Y-82085425D01*
X163068207Y-82146710D01*
X163192617Y-82184450D01*
X163289581Y-82194000D01*
X163608419Y-82194000D01*
X163705383Y-82184450D01*
X163829793Y-82146710D01*
X163932000Y-82092079D01*
X163932001Y-99924000D01*
X129184000Y-99924000D01*
X129184000Y-97130890D01*
X131654524Y-97130890D01*
X131699175Y-97278099D01*
X131824359Y-97540920D01*
X131998412Y-97774269D01*
X132214645Y-97969178D01*
X132464748Y-98118157D01*
X132739109Y-98215481D01*
X132969000Y-98094814D01*
X132969000Y-96901000D01*
X133223000Y-96901000D01*
X133223000Y-98094814D01*
X133452891Y-98215481D01*
X133727252Y-98118157D01*
X133977355Y-97969178D01*
X134193588Y-97774269D01*
X134305672Y-97624000D01*
X144561928Y-97624000D01*
X144574188Y-97748482D01*
X144610498Y-97868180D01*
X144669463Y-97978494D01*
X144748815Y-98075185D01*
X144845506Y-98154537D01*
X144955820Y-98213502D01*
X145075518Y-98249812D01*
X145200000Y-98262072D01*
X145764250Y-98259000D01*
X145923000Y-98100250D01*
X145923000Y-96901000D01*
X146177000Y-96901000D01*
X146177000Y-98100250D01*
X146335750Y-98259000D01*
X146900000Y-98262072D01*
X147024482Y-98249812D01*
X147144180Y-98213502D01*
X147254494Y-98154537D01*
X147351185Y-98075185D01*
X147430537Y-97978494D01*
X147489502Y-97868180D01*
X147525812Y-97748482D01*
X147538072Y-97624000D01*
X147536395Y-97315872D01*
X158293000Y-97315872D01*
X158293000Y-97756128D01*
X158378890Y-98187925D01*
X158547369Y-98594669D01*
X158791962Y-98960729D01*
X159103271Y-99272038D01*
X159469331Y-99516631D01*
X159876075Y-99685110D01*
X160307872Y-99771000D01*
X160748128Y-99771000D01*
X161179925Y-99685110D01*
X161586669Y-99516631D01*
X161952729Y-99272038D01*
X162264038Y-98960729D01*
X162508631Y-98594669D01*
X162677110Y-98187925D01*
X162763000Y-97756128D01*
X162763000Y-97315872D01*
X162677110Y-96884075D01*
X162508631Y-96477331D01*
X162264038Y-96111271D01*
X161952729Y-95799962D01*
X161586669Y-95555369D01*
X161179925Y-95386890D01*
X160748128Y-95301000D01*
X160307872Y-95301000D01*
X159876075Y-95386890D01*
X159469331Y-95555369D01*
X159103271Y-95799962D01*
X158791962Y-96111271D01*
X158547369Y-96477331D01*
X158378890Y-96884075D01*
X158293000Y-97315872D01*
X147536395Y-97315872D01*
X147535000Y-97059750D01*
X147376250Y-96901000D01*
X146177000Y-96901000D01*
X145923000Y-96901000D01*
X144723750Y-96901000D01*
X144565000Y-97059750D01*
X144561928Y-97624000D01*
X134305672Y-97624000D01*
X134367641Y-97540920D01*
X134492825Y-97278099D01*
X134537476Y-97130890D01*
X134416155Y-96901000D01*
X133223000Y-96901000D01*
X132969000Y-96901000D01*
X131775845Y-96901000D01*
X131654524Y-97130890D01*
X129184000Y-97130890D01*
X129184000Y-89007740D01*
X131611000Y-89007740D01*
X131611000Y-89300260D01*
X131668068Y-89587158D01*
X131780010Y-89857411D01*
X131942525Y-90100632D01*
X131961000Y-90119107D01*
X131961001Y-90728892D01*
X131942525Y-90747368D01*
X131780010Y-90990589D01*
X131668068Y-91260842D01*
X131611000Y-91547740D01*
X131611000Y-91840260D01*
X131668068Y-92127158D01*
X131780010Y-92397411D01*
X131942525Y-92640632D01*
X132149368Y-92847475D01*
X132323760Y-92964000D01*
X132149368Y-93080525D01*
X131942525Y-93287368D01*
X131780010Y-93530589D01*
X131668068Y-93800842D01*
X131611000Y-94087740D01*
X131611000Y-94380260D01*
X131668068Y-94667158D01*
X131780010Y-94937411D01*
X131942525Y-95180632D01*
X132149368Y-95387475D01*
X132331534Y-95509195D01*
X132214645Y-95578822D01*
X131998412Y-95773731D01*
X131824359Y-96007080D01*
X131699175Y-96269901D01*
X131654524Y-96417110D01*
X131775845Y-96647000D01*
X132969000Y-96647000D01*
X132969000Y-96627000D01*
X133223000Y-96627000D01*
X133223000Y-96647000D01*
X134416155Y-96647000D01*
X134537476Y-96417110D01*
X134492825Y-96269901D01*
X134367641Y-96007080D01*
X134193588Y-95773731D01*
X133977355Y-95578822D01*
X133860466Y-95509195D01*
X134042632Y-95387475D01*
X134249475Y-95180632D01*
X134411990Y-94937411D01*
X134523932Y-94667158D01*
X134581000Y-94380260D01*
X134581000Y-94087740D01*
X134523932Y-93800842D01*
X134411990Y-93530589D01*
X134249475Y-93287368D01*
X134042632Y-93080525D01*
X133868240Y-92964000D01*
X134042632Y-92847475D01*
X134249475Y-92640632D01*
X134411990Y-92397411D01*
X134523932Y-92127158D01*
X134581000Y-91840260D01*
X134581000Y-91547740D01*
X134523932Y-91260842D01*
X134411990Y-90990589D01*
X134249475Y-90747368D01*
X134231000Y-90728893D01*
X134231000Y-90119107D01*
X134249475Y-90100632D01*
X134411990Y-89857411D01*
X134523932Y-89587158D01*
X134581000Y-89300260D01*
X134581000Y-89007740D01*
X134523932Y-88720842D01*
X134411990Y-88450589D01*
X134249475Y-88207368D01*
X134042632Y-88000525D01*
X133860466Y-87878805D01*
X133977355Y-87809178D01*
X134193588Y-87614269D01*
X134367641Y-87380920D01*
X134492825Y-87118099D01*
X134537476Y-86970890D01*
X134416155Y-86741000D01*
X133223000Y-86741000D01*
X133223000Y-86761000D01*
X132969000Y-86761000D01*
X132969000Y-86741000D01*
X131775845Y-86741000D01*
X131654524Y-86970890D01*
X131699175Y-87118099D01*
X131824359Y-87380920D01*
X131998412Y-87614269D01*
X132214645Y-87809178D01*
X132331534Y-87878805D01*
X132149368Y-88000525D01*
X131942525Y-88207368D01*
X131780010Y-88450589D01*
X131668068Y-88720842D01*
X131611000Y-89007740D01*
X129184000Y-89007740D01*
X129184000Y-84430890D01*
X131654524Y-84430890D01*
X131699175Y-84578099D01*
X131824359Y-84840920D01*
X131998412Y-85074269D01*
X132214645Y-85269178D01*
X132340255Y-85344000D01*
X132214645Y-85418822D01*
X131998412Y-85613731D01*
X131824359Y-85847080D01*
X131699175Y-86109901D01*
X131654524Y-86257110D01*
X131775845Y-86487000D01*
X132969000Y-86487000D01*
X132969000Y-84201000D01*
X133223000Y-84201000D01*
X133223000Y-86487000D01*
X134416155Y-86487000D01*
X134537476Y-86257110D01*
X134492825Y-86109901D01*
X134367641Y-85847080D01*
X134193588Y-85613731D01*
X133977355Y-85418822D01*
X133851745Y-85344000D01*
X133977355Y-85269178D01*
X134193588Y-85074269D01*
X134367641Y-84840920D01*
X134492825Y-84578099D01*
X134537476Y-84430890D01*
X134416155Y-84201000D01*
X133223000Y-84201000D01*
X132969000Y-84201000D01*
X131775845Y-84201000D01*
X131654524Y-84430890D01*
X129184000Y-84430890D01*
X129184000Y-81890890D01*
X131654524Y-81890890D01*
X131699175Y-82038099D01*
X131824359Y-82300920D01*
X131998412Y-82534269D01*
X132214645Y-82729178D01*
X132340255Y-82804000D01*
X132214645Y-82878822D01*
X131998412Y-83073731D01*
X131824359Y-83307080D01*
X131699175Y-83569901D01*
X131654524Y-83717110D01*
X131775845Y-83947000D01*
X132969000Y-83947000D01*
X132969000Y-81661000D01*
X133223000Y-81661000D01*
X133223000Y-83947000D01*
X134416155Y-83947000D01*
X134537476Y-83717110D01*
X134492825Y-83569901D01*
X134367641Y-83307080D01*
X134193588Y-83073731D01*
X133977355Y-82878822D01*
X133851745Y-82804000D01*
X133977355Y-82729178D01*
X134193588Y-82534269D01*
X134367641Y-82300920D01*
X134492825Y-82038099D01*
X134537476Y-81890890D01*
X134416155Y-81661000D01*
X133223000Y-81661000D01*
X132969000Y-81661000D01*
X131775845Y-81661000D01*
X131654524Y-81890890D01*
X129184000Y-81890890D01*
X129184000Y-78144000D01*
X131607928Y-78144000D01*
X131607928Y-79844000D01*
X131620188Y-79968482D01*
X131656498Y-80088180D01*
X131715463Y-80198494D01*
X131794815Y-80295185D01*
X131891506Y-80374537D01*
X132001820Y-80433502D01*
X132082466Y-80457966D01*
X131998412Y-80533731D01*
X131824359Y-80767080D01*
X131699175Y-81029901D01*
X131654524Y-81177110D01*
X131775845Y-81407000D01*
X132969000Y-81407000D01*
X132969000Y-81387000D01*
X133223000Y-81387000D01*
X133223000Y-81407000D01*
X134416155Y-81407000D01*
X134483177Y-81280000D01*
X136019509Y-81280000D01*
X136025000Y-81335752D01*
X136025001Y-86304239D01*
X136019509Y-86360000D01*
X136041423Y-86582498D01*
X136106324Y-86796446D01*
X136127733Y-86836499D01*
X136211717Y-86993623D01*
X136353552Y-87166449D01*
X136396860Y-87201991D01*
X144192013Y-94997146D01*
X144227551Y-95040449D01*
X144270854Y-95075987D01*
X144270856Y-95075989D01*
X144400377Y-95182284D01*
X144597553Y-95287676D01*
X144811501Y-95352577D01*
X144904805Y-95361767D01*
X144845506Y-95393463D01*
X144748815Y-95472815D01*
X144669463Y-95569506D01*
X144610498Y-95679820D01*
X144574188Y-95799518D01*
X144561928Y-95924000D01*
X144565000Y-96488250D01*
X144723750Y-96647000D01*
X145923000Y-96647000D01*
X145923000Y-96627000D01*
X146177000Y-96627000D01*
X146177000Y-96647000D01*
X147376250Y-96647000D01*
X147415250Y-96608000D01*
X150786928Y-96608000D01*
X150799188Y-96732482D01*
X150835498Y-96852180D01*
X150894463Y-96962494D01*
X150973815Y-97059185D01*
X151070506Y-97138537D01*
X151180820Y-97197502D01*
X151300518Y-97233812D01*
X151425000Y-97246072D01*
X152114250Y-97243000D01*
X152273000Y-97084250D01*
X152273000Y-95885000D01*
X152527000Y-95885000D01*
X152527000Y-97084250D01*
X152685750Y-97243000D01*
X153375000Y-97246072D01*
X153499482Y-97233812D01*
X153619180Y-97197502D01*
X153729494Y-97138537D01*
X153826185Y-97059185D01*
X153905537Y-96962494D01*
X153964502Y-96852180D01*
X154000812Y-96732482D01*
X154013072Y-96608000D01*
X154010000Y-96043750D01*
X153851250Y-95885000D01*
X152527000Y-95885000D01*
X152273000Y-95885000D01*
X150948750Y-95885000D01*
X150790000Y-96043750D01*
X150786928Y-96608000D01*
X147415250Y-96608000D01*
X147535000Y-96488250D01*
X147538072Y-95924000D01*
X147525812Y-95799518D01*
X147489502Y-95679820D01*
X147430537Y-95569506D01*
X147351185Y-95472815D01*
X147254494Y-95393463D01*
X147208728Y-95369000D01*
X148026249Y-95369000D01*
X148082000Y-95374491D01*
X148137751Y-95369000D01*
X148137752Y-95369000D01*
X148304499Y-95352577D01*
X148518447Y-95287676D01*
X148715623Y-95182284D01*
X148888449Y-95040449D01*
X148923996Y-94997136D01*
X149528132Y-94393000D01*
X151051574Y-94393000D01*
X150973815Y-94456815D01*
X150894463Y-94553506D01*
X150835498Y-94663820D01*
X150799188Y-94783518D01*
X150786928Y-94908000D01*
X150790000Y-95472250D01*
X150948750Y-95631000D01*
X152273000Y-95631000D01*
X152273000Y-95611000D01*
X152527000Y-95611000D01*
X152527000Y-95631000D01*
X153851250Y-95631000D01*
X154010000Y-95472250D01*
X154013072Y-94908000D01*
X154000812Y-94783518D01*
X153964502Y-94663820D01*
X153905537Y-94553506D01*
X153826185Y-94456815D01*
X153729494Y-94377463D01*
X153619180Y-94318498D01*
X153584392Y-94307945D01*
X153765706Y-94087014D01*
X153903599Y-93829034D01*
X153988513Y-93549111D01*
X154017185Y-93258000D01*
X153988513Y-92966889D01*
X153903599Y-92686966D01*
X153765706Y-92428986D01*
X153580134Y-92202866D01*
X153354014Y-92017294D01*
X153336626Y-92008000D01*
X153354014Y-91998706D01*
X153580134Y-91813134D01*
X153765706Y-91587014D01*
X153903599Y-91329034D01*
X153988513Y-91049111D01*
X154017185Y-90758000D01*
X153988513Y-90466889D01*
X153903599Y-90186966D01*
X153765706Y-89928986D01*
X153580134Y-89702866D01*
X153354014Y-89517294D01*
X153096034Y-89379401D01*
X152816111Y-89294487D01*
X152597950Y-89273000D01*
X152202050Y-89273000D01*
X151983889Y-89294487D01*
X151703966Y-89379401D01*
X151445986Y-89517294D01*
X151219866Y-89702866D01*
X151034294Y-89928986D01*
X150896401Y-90186966D01*
X150811487Y-90466889D01*
X150782815Y-90758000D01*
X150811487Y-91049111D01*
X150896401Y-91329034D01*
X151034294Y-91587014D01*
X151219866Y-91813134D01*
X151445986Y-91998706D01*
X151463374Y-92008000D01*
X151445986Y-92017294D01*
X151317183Y-92123000D01*
X149113741Y-92123000D01*
X149057999Y-92117510D01*
X149002257Y-92123000D01*
X149002248Y-92123000D01*
X148835501Y-92139423D01*
X148621553Y-92204324D01*
X148424377Y-92309716D01*
X148251551Y-92451551D01*
X148216008Y-92494860D01*
X147611869Y-93099000D01*
X147015107Y-93099000D01*
X146996632Y-93080525D01*
X146822240Y-92964000D01*
X146996632Y-92847475D01*
X147203475Y-92640632D01*
X147365990Y-92397411D01*
X147477932Y-92127158D01*
X147535000Y-91840260D01*
X147535000Y-91547740D01*
X147477932Y-91260842D01*
X147365990Y-90990589D01*
X147203475Y-90747368D01*
X146996632Y-90540525D01*
X146822240Y-90424000D01*
X146996632Y-90307475D01*
X147203475Y-90100632D01*
X147365990Y-89857411D01*
X147477932Y-89587158D01*
X147535000Y-89300260D01*
X147535000Y-89007740D01*
X147477932Y-88720842D01*
X147365990Y-88450589D01*
X147203475Y-88207368D01*
X146996632Y-88000525D01*
X146822240Y-87884000D01*
X146996632Y-87767475D01*
X147015107Y-87749000D01*
X152726769Y-87749000D01*
X152782520Y-87754491D01*
X152838271Y-87749000D01*
X152838272Y-87749000D01*
X153005019Y-87732577D01*
X153218967Y-87667676D01*
X153416143Y-87562284D01*
X153588969Y-87420449D01*
X153624516Y-87377135D01*
X154838150Y-86163502D01*
X154881459Y-86127959D01*
X155023294Y-85955133D01*
X155128686Y-85757957D01*
X155193587Y-85544009D01*
X155210010Y-85377262D01*
X155210010Y-85377261D01*
X155215501Y-85321510D01*
X155210010Y-85265758D01*
X155210010Y-83390242D01*
X155215501Y-83334490D01*
X155193587Y-83111991D01*
X155128686Y-82898043D01*
X155023294Y-82700867D01*
X154916999Y-82571346D01*
X154916997Y-82571344D01*
X154881459Y-82528041D01*
X154838156Y-82492503D01*
X154000091Y-81654439D01*
X153988513Y-81536889D01*
X153903599Y-81256966D01*
X153765706Y-80998986D01*
X153580134Y-80772866D01*
X153354014Y-80587294D01*
X153336626Y-80578000D01*
X153354014Y-80568706D01*
X153580134Y-80383134D01*
X153765706Y-80157014D01*
X153903599Y-79899034D01*
X153988513Y-79619111D01*
X154017185Y-79328000D01*
X153988513Y-79036889D01*
X153903599Y-78756966D01*
X153765706Y-78498986D01*
X153580134Y-78272866D01*
X153354014Y-78087294D01*
X153336626Y-78078000D01*
X153354014Y-78068706D01*
X153580134Y-77883134D01*
X153765706Y-77657014D01*
X153903599Y-77399034D01*
X153988513Y-77119111D01*
X154017185Y-76828000D01*
X153988513Y-76536889D01*
X153903599Y-76256966D01*
X153765706Y-75998986D01*
X153580134Y-75772866D01*
X153354014Y-75587294D01*
X153096034Y-75449401D01*
X152816111Y-75364487D01*
X152597950Y-75343000D01*
X152202050Y-75343000D01*
X151983889Y-75364487D01*
X151703966Y-75449401D01*
X151445986Y-75587294D01*
X151219866Y-75772866D01*
X151034294Y-75998986D01*
X150896401Y-76256966D01*
X150811487Y-76536889D01*
X150782815Y-76828000D01*
X150811487Y-77119111D01*
X150896401Y-77399034D01*
X151034294Y-77657014D01*
X151219866Y-77883134D01*
X151445986Y-78068706D01*
X151463374Y-78078000D01*
X151445986Y-78087294D01*
X151219866Y-78272866D01*
X151034294Y-78498986D01*
X150896401Y-78756966D01*
X150811487Y-79036889D01*
X150782815Y-79328000D01*
X150811487Y-79619111D01*
X150896401Y-79899034D01*
X151034294Y-80157014D01*
X151219866Y-80383134D01*
X151445986Y-80568706D01*
X151463374Y-80578000D01*
X151445986Y-80587294D01*
X151219866Y-80772866D01*
X151034294Y-80998986D01*
X150896401Y-81256966D01*
X150811487Y-81536889D01*
X150782815Y-81828000D01*
X150811487Y-82119111D01*
X150896401Y-82399034D01*
X151034294Y-82657014D01*
X151219866Y-82883134D01*
X151283337Y-82935223D01*
X151276270Y-82939000D01*
X147015107Y-82939000D01*
X146996632Y-82920525D01*
X146814466Y-82798805D01*
X146931355Y-82729178D01*
X147147588Y-82534269D01*
X147321641Y-82300920D01*
X147446825Y-82038099D01*
X147491476Y-81890890D01*
X147370155Y-81661000D01*
X146177000Y-81661000D01*
X146177000Y-81681000D01*
X145923000Y-81681000D01*
X145923000Y-81661000D01*
X144729845Y-81661000D01*
X144608524Y-81890890D01*
X144653175Y-82038099D01*
X144778359Y-82300920D01*
X144952412Y-82534269D01*
X145168645Y-82729178D01*
X145285534Y-82798805D01*
X145103368Y-82920525D01*
X144896525Y-83127368D01*
X144734010Y-83370589D01*
X144622068Y-83640842D01*
X144565000Y-83927740D01*
X144565000Y-84220260D01*
X144622068Y-84507158D01*
X144734010Y-84777411D01*
X144896525Y-85020632D01*
X145103368Y-85227475D01*
X145277760Y-85344000D01*
X145103368Y-85460525D01*
X144896525Y-85667368D01*
X144734010Y-85910589D01*
X144622068Y-86180842D01*
X144565000Y-86467740D01*
X144565000Y-86760260D01*
X144622068Y-87047158D01*
X144734010Y-87317411D01*
X144896525Y-87560632D01*
X145103368Y-87767475D01*
X145277760Y-87884000D01*
X145103368Y-88000525D01*
X144896525Y-88207368D01*
X144734010Y-88450589D01*
X144622068Y-88720842D01*
X144565000Y-89007740D01*
X144565000Y-89300260D01*
X144622068Y-89587158D01*
X144734010Y-89857411D01*
X144896525Y-90100632D01*
X145103368Y-90307475D01*
X145277760Y-90424000D01*
X145103368Y-90540525D01*
X144896525Y-90747368D01*
X144734010Y-90990589D01*
X144622068Y-91260842D01*
X144565000Y-91547740D01*
X144565000Y-91840260D01*
X144622068Y-92127158D01*
X144685550Y-92280417D01*
X138295000Y-85889869D01*
X138295000Y-81335752D01*
X138300491Y-81280000D01*
X138278577Y-81057501D01*
X138213676Y-80843553D01*
X138108284Y-80646377D01*
X137966449Y-80473551D01*
X137793623Y-80331716D01*
X137596447Y-80226324D01*
X137382499Y-80161423D01*
X137215752Y-80145000D01*
X137215751Y-80145000D01*
X137160000Y-80139509D01*
X137104248Y-80145000D01*
X136937501Y-80161423D01*
X136723553Y-80226324D01*
X136526377Y-80331716D01*
X136353551Y-80473551D01*
X136211716Y-80646377D01*
X136106324Y-80843553D01*
X136041423Y-81057501D01*
X136019509Y-81280000D01*
X134483177Y-81280000D01*
X134537476Y-81177110D01*
X134492825Y-81029901D01*
X134367641Y-80767080D01*
X134193588Y-80533731D01*
X134109534Y-80457966D01*
X134190180Y-80433502D01*
X134300494Y-80374537D01*
X134397185Y-80295185D01*
X134476537Y-80198494D01*
X134513683Y-80129000D01*
X143700247Y-80129000D01*
X143755998Y-80134491D01*
X143811749Y-80129000D01*
X143811750Y-80129000D01*
X143978497Y-80112577D01*
X144192445Y-80047676D01*
X144389621Y-79942284D01*
X144562447Y-79800449D01*
X144597994Y-79757135D01*
X144711665Y-79643464D01*
X144734010Y-79697411D01*
X144896525Y-79940632D01*
X145103368Y-80147475D01*
X145285534Y-80269195D01*
X145168645Y-80338822D01*
X144952412Y-80533731D01*
X144778359Y-80767080D01*
X144653175Y-81029901D01*
X144608524Y-81177110D01*
X144729845Y-81407000D01*
X145923000Y-81407000D01*
X145923000Y-81387000D01*
X146177000Y-81387000D01*
X146177000Y-81407000D01*
X147370155Y-81407000D01*
X147491476Y-81177110D01*
X147446825Y-81029901D01*
X147321641Y-80767080D01*
X147147588Y-80533731D01*
X146931355Y-80338822D01*
X146814466Y-80269195D01*
X146996632Y-80147475D01*
X147203475Y-79940632D01*
X147365990Y-79697411D01*
X147477932Y-79427158D01*
X147530552Y-79162621D01*
X147662142Y-79092285D01*
X147834968Y-78950450D01*
X147870515Y-78907136D01*
X156051001Y-70726651D01*
X156051000Y-82959749D01*
X156045509Y-83015500D01*
X156056364Y-83125716D01*
X156067423Y-83237998D01*
X156132324Y-83451946D01*
X156237716Y-83649123D01*
X156379551Y-83821949D01*
X156422865Y-83857496D01*
X158581928Y-86016560D01*
X158581928Y-87262000D01*
X158598992Y-87435254D01*
X158649528Y-87601850D01*
X158731595Y-87755386D01*
X158842038Y-87889962D01*
X158976614Y-88000405D01*
X159130150Y-88082472D01*
X159296746Y-88133008D01*
X159470000Y-88150072D01*
X160570000Y-88150072D01*
X160743254Y-88133008D01*
X160909850Y-88082472D01*
X161063386Y-88000405D01*
X161197962Y-87889962D01*
X161308405Y-87755386D01*
X161390472Y-87601850D01*
X161441008Y-87435254D01*
X161458072Y-87262000D01*
X161458072Y-84437000D01*
X161441008Y-84263746D01*
X161390472Y-84097150D01*
X161308405Y-83943614D01*
X161197962Y-83809038D01*
X161063386Y-83698595D01*
X160909850Y-83616528D01*
X160743254Y-83565992D01*
X160570000Y-83548928D01*
X159470000Y-83548928D01*
X159337600Y-83561968D01*
X158321000Y-82545369D01*
X158321000Y-82437000D01*
X158581928Y-82437000D01*
X158594188Y-82561482D01*
X158630498Y-82681180D01*
X158689463Y-82791494D01*
X158768815Y-82888185D01*
X158865506Y-82967537D01*
X158975820Y-83026502D01*
X159095518Y-83062812D01*
X159220000Y-83075072D01*
X159734250Y-83072000D01*
X159893000Y-82913250D01*
X159893000Y-80901500D01*
X160147000Y-80901500D01*
X160147000Y-82913250D01*
X160305750Y-83072000D01*
X160820000Y-83075072D01*
X160944482Y-83062812D01*
X161064180Y-83026502D01*
X161174494Y-82967537D01*
X161271185Y-82888185D01*
X161350537Y-82791494D01*
X161409502Y-82681180D01*
X161445812Y-82561482D01*
X161458072Y-82437000D01*
X161455000Y-81060250D01*
X161296250Y-80901500D01*
X160147000Y-80901500D01*
X159893000Y-80901500D01*
X158743750Y-80901500D01*
X158585000Y-81060250D01*
X158581928Y-82437000D01*
X158321000Y-82437000D01*
X158321000Y-79112000D01*
X158581928Y-79112000D01*
X158585000Y-80488750D01*
X158743750Y-80647500D01*
X159893000Y-80647500D01*
X159893000Y-78635750D01*
X160147000Y-78635750D01*
X160147000Y-80647500D01*
X161296250Y-80647500D01*
X161455000Y-80488750D01*
X161458072Y-79112000D01*
X161445812Y-78987518D01*
X161409502Y-78867820D01*
X161350537Y-78757506D01*
X161271185Y-78660815D01*
X161174494Y-78581463D01*
X161064180Y-78522498D01*
X160944482Y-78486188D01*
X160820000Y-78473928D01*
X160305750Y-78477000D01*
X160147000Y-78635750D01*
X159893000Y-78635750D01*
X159734250Y-78477000D01*
X159220000Y-78473928D01*
X159095518Y-78486188D01*
X158975820Y-78522498D01*
X158865506Y-78581463D01*
X158768815Y-78660815D01*
X158689463Y-78757506D01*
X158630498Y-78867820D01*
X158594188Y-78987518D01*
X158581928Y-79112000D01*
X158321000Y-79112000D01*
X158321000Y-76030022D01*
X158537962Y-76354729D01*
X158849271Y-76666038D01*
X159215331Y-76910631D01*
X159622075Y-77079110D01*
X160053872Y-77165000D01*
X160494128Y-77165000D01*
X160925925Y-77079110D01*
X161332669Y-76910631D01*
X161698729Y-76666038D01*
X162010038Y-76354729D01*
X162254631Y-75988669D01*
X162423110Y-75581925D01*
X162509000Y-75150128D01*
X162509000Y-74709872D01*
X162423110Y-74278075D01*
X162254631Y-73871331D01*
X162010038Y-73505271D01*
X161698729Y-73193962D01*
X161332669Y-72949369D01*
X160925925Y-72780890D01*
X160494128Y-72695000D01*
X160053872Y-72695000D01*
X159622075Y-72780890D01*
X159215331Y-72949369D01*
X158849271Y-73193962D01*
X158537962Y-73505271D01*
X158321000Y-73829978D01*
X158321000Y-68900817D01*
X158426706Y-68772014D01*
X158436000Y-68754626D01*
X158445294Y-68772014D01*
X158630866Y-68998134D01*
X158856987Y-69183706D01*
X159114967Y-69321599D01*
X159394890Y-69406513D01*
X159686000Y-69435185D01*
X159977111Y-69406513D01*
X160257034Y-69321599D01*
X160515014Y-69183706D01*
X160741134Y-68998134D01*
X160926706Y-68772014D01*
X161064599Y-68514033D01*
X161149513Y-68234110D01*
X161171000Y-68015949D01*
X161171000Y-67620050D01*
X161149513Y-67401889D01*
X161064599Y-67121966D01*
X160926706Y-66863986D01*
X160741134Y-66637866D01*
X160515013Y-66452294D01*
X160257033Y-66314401D01*
X159977110Y-66229487D01*
X159686000Y-66200815D01*
X159394889Y-66229487D01*
X159114966Y-66314401D01*
X158856986Y-66452294D01*
X158630866Y-66637866D01*
X158445294Y-66863987D01*
X158436000Y-66881374D01*
X158426706Y-66863986D01*
X158241134Y-66637866D01*
X158015013Y-66452294D01*
X157757033Y-66314401D01*
X157477110Y-66229487D01*
X157359562Y-66217909D01*
X156521505Y-65379854D01*
X156485959Y-65336541D01*
X156313133Y-65194706D01*
X156115957Y-65089314D01*
X155902009Y-65024413D01*
X155735262Y-65007990D01*
X155735261Y-65007990D01*
X155679510Y-65002499D01*
X155623759Y-65007990D01*
X136185753Y-65007990D01*
X136130009Y-65002500D01*
X136074265Y-65007990D01*
X136074258Y-65007990D01*
X135928503Y-65022346D01*
X135907510Y-65024413D01*
X135857715Y-65039519D01*
X135693563Y-65089314D01*
X135496387Y-65194706D01*
X135323561Y-65336541D01*
X135288019Y-65379850D01*
X134454714Y-66213155D01*
X134288889Y-66229487D01*
X134008966Y-66314401D01*
X133750986Y-66452294D01*
X133530055Y-66633608D01*
X133519502Y-66598820D01*
X133460537Y-66488506D01*
X133381185Y-66391815D01*
X133284494Y-66312463D01*
X133174180Y-66253498D01*
X133054482Y-66217188D01*
X132930000Y-66204928D01*
X132365750Y-66208000D01*
X132207000Y-66366750D01*
X132207000Y-67691000D01*
X132227000Y-67691000D01*
X132227000Y-67945000D01*
X132207000Y-67945000D01*
X132207000Y-69269250D01*
X132365750Y-69428000D01*
X132930000Y-69431072D01*
X133054482Y-69418812D01*
X133174180Y-69382502D01*
X133284494Y-69323537D01*
X133381185Y-69244185D01*
X133460537Y-69147494D01*
X133519502Y-69037180D01*
X133530055Y-69002392D01*
X133750987Y-69183706D01*
X134008967Y-69321599D01*
X134288890Y-69406513D01*
X134580000Y-69435185D01*
X134871111Y-69406513D01*
X135151034Y-69321599D01*
X135409014Y-69183706D01*
X135635134Y-68998134D01*
X135820706Y-68772014D01*
X135830000Y-68754626D01*
X135839294Y-68772014D01*
X136024866Y-68998134D01*
X136250987Y-69183706D01*
X136508967Y-69321599D01*
X136788890Y-69406513D01*
X137080000Y-69435185D01*
X137371111Y-69406513D01*
X137651034Y-69321599D01*
X137909014Y-69183706D01*
X138135134Y-68998134D01*
X138320706Y-68772014D01*
X138458599Y-68514033D01*
X138543513Y-68234110D01*
X138565000Y-68015949D01*
X138565000Y-67620050D01*
X138543513Y-67401889D01*
X138505929Y-67277990D01*
X142021928Y-67277990D01*
X142021928Y-68543000D01*
X142038992Y-68716254D01*
X142089528Y-68882850D01*
X142171595Y-69036386D01*
X142282038Y-69170962D01*
X142416614Y-69281405D01*
X142570150Y-69363472D01*
X142736746Y-69414008D01*
X142910000Y-69431072D01*
X144110000Y-69431072D01*
X144283254Y-69414008D01*
X144449850Y-69363472D01*
X144603386Y-69281405D01*
X144737962Y-69170962D01*
X144848405Y-69036386D01*
X144875000Y-68986630D01*
X144875000Y-69347868D01*
X143367868Y-70855001D01*
X141933750Y-70855001D01*
X141877998Y-70849510D01*
X141822247Y-70855001D01*
X141655500Y-70871424D01*
X141441552Y-70936325D01*
X141244376Y-71041717D01*
X141071550Y-71183552D01*
X141036003Y-71226866D01*
X140636012Y-71626857D01*
X140529717Y-71756378D01*
X140424324Y-71953554D01*
X140359423Y-72167502D01*
X140337509Y-72390000D01*
X140359423Y-72612498D01*
X140424324Y-72826446D01*
X140529717Y-73023622D01*
X140671552Y-73196448D01*
X140844378Y-73338283D01*
X141041554Y-73443676D01*
X141255502Y-73508577D01*
X141478000Y-73530491D01*
X141700498Y-73508577D01*
X141914446Y-73443676D01*
X142111622Y-73338283D01*
X142241143Y-73231988D01*
X142348130Y-73125001D01*
X143782248Y-73125001D01*
X143837999Y-73130492D01*
X143893750Y-73125001D01*
X143893751Y-73125001D01*
X144060498Y-73108578D01*
X144274446Y-73043677D01*
X144471622Y-72938285D01*
X144644448Y-72796450D01*
X144679995Y-72753136D01*
X146773141Y-70659991D01*
X146816449Y-70624449D01*
X146958284Y-70451623D01*
X147063676Y-70254447D01*
X147128577Y-70040499D01*
X147145000Y-69873752D01*
X147145000Y-69873743D01*
X147150490Y-69818001D01*
X147145000Y-69762259D01*
X147145000Y-68900817D01*
X147250706Y-68772014D01*
X147260000Y-68754626D01*
X147269294Y-68772014D01*
X147375000Y-68900818D01*
X147375000Y-69848751D01*
X147375001Y-69848761D01*
X147375000Y-73769866D01*
X143285867Y-77859000D01*
X134513683Y-77859000D01*
X134476537Y-77789506D01*
X134397185Y-77692815D01*
X134300494Y-77613463D01*
X134190180Y-77554498D01*
X134070482Y-77518188D01*
X133946000Y-77505928D01*
X132246000Y-77505928D01*
X132121518Y-77518188D01*
X132001820Y-77554498D01*
X131891506Y-77613463D01*
X131794815Y-77692815D01*
X131715463Y-77789506D01*
X131656498Y-77899820D01*
X131620188Y-78019518D01*
X131607928Y-78144000D01*
X129184000Y-78144000D01*
X129184000Y-76139274D01*
X129327962Y-76354729D01*
X129639271Y-76666038D01*
X130005331Y-76910631D01*
X130412075Y-77079110D01*
X130843872Y-77165000D01*
X131284128Y-77165000D01*
X131715925Y-77079110D01*
X132122669Y-76910631D01*
X132488729Y-76666038D01*
X132800038Y-76354729D01*
X133044631Y-75988669D01*
X133213110Y-75581925D01*
X133299000Y-75150128D01*
X133299000Y-74709872D01*
X133213110Y-74278075D01*
X133044631Y-73871331D01*
X132800038Y-73505271D01*
X132488729Y-73193962D01*
X132122669Y-72949369D01*
X131715925Y-72780890D01*
X131284128Y-72695000D01*
X130843872Y-72695000D01*
X130412075Y-72780890D01*
X130005331Y-72949369D01*
X129639271Y-73193962D01*
X129327962Y-73505271D01*
X129184000Y-73720726D01*
X129184000Y-68793000D01*
X130591928Y-68793000D01*
X130604188Y-68917482D01*
X130640498Y-69037180D01*
X130699463Y-69147494D01*
X130778815Y-69244185D01*
X130875506Y-69323537D01*
X130985820Y-69382502D01*
X131105518Y-69418812D01*
X131230000Y-69431072D01*
X131794250Y-69428000D01*
X131953000Y-69269250D01*
X131953000Y-67945000D01*
X130753750Y-67945000D01*
X130595000Y-68103750D01*
X130591928Y-68793000D01*
X129184000Y-68793000D01*
X129184000Y-66843000D01*
X130591928Y-66843000D01*
X130595000Y-67532250D01*
X130753750Y-67691000D01*
X131953000Y-67691000D01*
X131953000Y-66366750D01*
X131794250Y-66208000D01*
X131230000Y-66204928D01*
X131105518Y-66217188D01*
X130985820Y-66253498D01*
X130875506Y-66312463D01*
X130778815Y-66391815D01*
X130699463Y-66488506D01*
X130640498Y-66598820D01*
X130604188Y-66718518D01*
X130591928Y-66843000D01*
X129184000Y-66843000D01*
X129184000Y-64922000D01*
X163932000Y-64922000D01*
X163932000Y-80975921D01*
G37*
G04 #@! TD.AperFunction*
D16*
X153201000Y-67532250D02*
X153359750Y-67691000D01*
X154559000Y-67691000D01*
X154559000Y-67671000D01*
X154813000Y-67671000D01*
X154813000Y-67691000D01*
X154833000Y-67691000D01*
X154833000Y-67945000D01*
X154813000Y-67945000D01*
X154813000Y-67965000D01*
X154559000Y-67965000D01*
X154559000Y-67945000D01*
X153359750Y-67945000D01*
X153201000Y-68103750D01*
X153197928Y-68793000D01*
X153210188Y-68917482D01*
X153246498Y-69037180D01*
X153305463Y-69147494D01*
X153384815Y-69244185D01*
X153481506Y-69323537D01*
X153591820Y-69382502D01*
X153711518Y-69418812D01*
X153836000Y-69431072D01*
X154137960Y-69429428D01*
X149645000Y-73922389D01*
X149645000Y-68900817D01*
X149750706Y-68772014D01*
X149888599Y-68514033D01*
X149973513Y-68234110D01*
X149995000Y-68015949D01*
X149995000Y-67620050D01*
X149973513Y-67401889D01*
X149935929Y-67277990D01*
X153199867Y-67277990D01*
X153201000Y-67532250D01*
G04 #@! TA.AperFunction,Conductor*
D17*
G36*
X153201000Y-67532250D02*
G01*
X153359750Y-67691000D01*
X154559000Y-67691000D01*
X154559000Y-67671000D01*
X154813000Y-67671000D01*
X154813000Y-67691000D01*
X154833000Y-67691000D01*
X154833000Y-67945000D01*
X154813000Y-67945000D01*
X154813000Y-67965000D01*
X154559000Y-67965000D01*
X154559000Y-67945000D01*
X153359750Y-67945000D01*
X153201000Y-68103750D01*
X153197928Y-68793000D01*
X153210188Y-68917482D01*
X153246498Y-69037180D01*
X153305463Y-69147494D01*
X153384815Y-69244185D01*
X153481506Y-69323537D01*
X153591820Y-69382502D01*
X153711518Y-69418812D01*
X153836000Y-69431072D01*
X154137960Y-69429428D01*
X149645000Y-73922389D01*
X149645000Y-68900817D01*
X149750706Y-68772014D01*
X149888599Y-68514033D01*
X149973513Y-68234110D01*
X149995000Y-68015949D01*
X149995000Y-67620050D01*
X149973513Y-67401889D01*
X149935929Y-67277990D01*
X153199867Y-67277990D01*
X153201000Y-67532250D01*
G37*
G04 #@! TD.AperFunction*
M02*
