G04 #@! TF.GenerationSoftware,KiCad,Pcbnew,(5.1.12)-1*
G04 #@! TF.CreationDate,2021-12-28T16:54:34-05:00*
G04 #@! TF.ProjectId,FlipDisplay-Motor,466c6970-4469-4737-906c-61792d4d6f74,rev?*
G04 #@! TF.SameCoordinates,Original*
G04 #@! TF.FileFunction,Soldermask,Top*
G04 #@! TF.FilePolarity,Negative*
%FSLAX46Y46*%
G04 Gerber Fmt 4.6, Leading zero omitted, Abs format (unit mm)*
G04 Created by KiCad (PCBNEW (5.1.12)-1) date 2021-12-28 16:54:34*
%MOMM*%
%LPD*%
G01*
G04 APERTURE LIST*
%ADD10C,3.302000*%
%ADD11O,1.802000X2.052000*%
%ADD12O,1.802000X1.802000*%
%ADD13O,2.052000X1.802000*%
%ADD14C,0.100000*%
G04 APERTURE END LIST*
G36*
G01*
X160605063Y-82488000D02*
X159434937Y-82488000D01*
G75*
G02*
X159169000Y-82222063I0J265937D01*
G01*
X159169000Y-79326937D01*
G75*
G02*
X159434937Y-79061000I265937J0D01*
G01*
X160605063Y-79061000D01*
G75*
G02*
X160871000Y-79326937I0J-265937D01*
G01*
X160871000Y-82222063D01*
G75*
G02*
X160605063Y-82488000I-265937J0D01*
G01*
G37*
G36*
G01*
X160605063Y-87563000D02*
X159434937Y-87563000D01*
G75*
G02*
X159169000Y-87297063I0J265937D01*
G01*
X159169000Y-84401937D01*
G75*
G02*
X159434937Y-84136000I265937J0D01*
G01*
X160605063Y-84136000D01*
G75*
G02*
X160871000Y-84401937I0J-265937D01*
G01*
X160871000Y-87297063D01*
G75*
G02*
X160605063Y-87563000I-265937J0D01*
G01*
G37*
D10*
X131064000Y-74930000D03*
X160274000Y-74930000D03*
X160528000Y-97536000D03*
D11*
X148510000Y-67818000D03*
X146010000Y-67818000D03*
G36*
G01*
X142609000Y-68579000D02*
X142609000Y-67057000D01*
G75*
G02*
X142874000Y-66792000I265000J0D01*
G01*
X144146000Y-66792000D01*
G75*
G02*
X144411000Y-67057000I0J-265000D01*
G01*
X144411000Y-68579000D01*
G75*
G02*
X144146000Y-68844000I-265000J0D01*
G01*
X142874000Y-68844000D01*
G75*
G02*
X142609000Y-68579000I0J265000D01*
G01*
G37*
X159686000Y-67818000D03*
X157186000Y-67818000D03*
G36*
G01*
X153785000Y-68579000D02*
X153785000Y-67057000D01*
G75*
G02*
X154050000Y-66792000I265000J0D01*
G01*
X155322000Y-66792000D01*
G75*
G02*
X155587000Y-67057000I0J-265000D01*
G01*
X155587000Y-68579000D01*
G75*
G02*
X155322000Y-68844000I-265000J0D01*
G01*
X154050000Y-68844000D01*
G75*
G02*
X153785000Y-68579000I0J265000D01*
G01*
G37*
X137080000Y-67818000D03*
X134580000Y-67818000D03*
G36*
G01*
X131179000Y-68579000D02*
X131179000Y-67057000D01*
G75*
G02*
X131444000Y-66792000I265000J0D01*
G01*
X132716000Y-66792000D01*
G75*
G02*
X132981000Y-67057000I0J-265000D01*
G01*
X132981000Y-68579000D01*
G75*
G02*
X132716000Y-68844000I-265000J0D01*
G01*
X131444000Y-68844000D01*
G75*
G02*
X131179000Y-68579000I0J265000D01*
G01*
G37*
D12*
X146050000Y-78994000D03*
X146050000Y-81534000D03*
X146050000Y-84074000D03*
X146050000Y-86614000D03*
X146050000Y-89154000D03*
X146050000Y-91694000D03*
X146050000Y-94234000D03*
G36*
G01*
X146951000Y-95924000D02*
X146951000Y-97624000D01*
G75*
G02*
X146900000Y-97675000I-51000J0D01*
G01*
X145200000Y-97675000D01*
G75*
G02*
X145149000Y-97624000I0J51000D01*
G01*
X145149000Y-95924000D01*
G75*
G02*
X145200000Y-95873000I51000J0D01*
G01*
X146900000Y-95873000D01*
G75*
G02*
X146951000Y-95924000I0J-51000D01*
G01*
G37*
D13*
X152400000Y-76828000D03*
X152400000Y-79328000D03*
X152400000Y-81828000D03*
G36*
G01*
X153161000Y-85229000D02*
X151639000Y-85229000D01*
G75*
G02*
X151374000Y-84964000I0J265000D01*
G01*
X151374000Y-83692000D01*
G75*
G02*
X151639000Y-83427000I265000J0D01*
G01*
X153161000Y-83427000D01*
G75*
G02*
X153426000Y-83692000I0J-265000D01*
G01*
X153426000Y-84964000D01*
G75*
G02*
X153161000Y-85229000I-265000J0D01*
G01*
G37*
D12*
X133096000Y-96774000D03*
X133096000Y-94234000D03*
X133096000Y-91694000D03*
X133096000Y-89154000D03*
X133096000Y-86614000D03*
X133096000Y-84074000D03*
X133096000Y-81534000D03*
G36*
G01*
X132195000Y-79844000D02*
X132195000Y-78144000D01*
G75*
G02*
X132246000Y-78093000I51000J0D01*
G01*
X133946000Y-78093000D01*
G75*
G02*
X133997000Y-78144000I0J-51000D01*
G01*
X133997000Y-79844000D01*
G75*
G02*
X133946000Y-79895000I-51000J0D01*
G01*
X132246000Y-79895000D01*
G75*
G02*
X132195000Y-79844000I0J51000D01*
G01*
G37*
D13*
X152400000Y-90758000D03*
X152400000Y-93258000D03*
G36*
G01*
X153161000Y-96659000D02*
X151639000Y-96659000D01*
G75*
G02*
X151374000Y-96394000I0J265000D01*
G01*
X151374000Y-95122000D01*
G75*
G02*
X151639000Y-94857000I265000J0D01*
G01*
X153161000Y-94857000D01*
G75*
G02*
X153426000Y-95122000I0J-265000D01*
G01*
X153426000Y-96394000D01*
G75*
G02*
X153161000Y-96659000I-265000J0D01*
G01*
G37*
D14*
G36*
X153427165Y-96392374D02*
G01*
X153428000Y-96394000D01*
X153428000Y-96476097D01*
X153427990Y-96476293D01*
X153424001Y-96516796D01*
X153423925Y-96517181D01*
X153413899Y-96550233D01*
X153413749Y-96550595D01*
X153397472Y-96581046D01*
X153397254Y-96581372D01*
X153375345Y-96608068D01*
X153375068Y-96608345D01*
X153348372Y-96630254D01*
X153348046Y-96630472D01*
X153317595Y-96646749D01*
X153317233Y-96646899D01*
X153284181Y-96656925D01*
X153283796Y-96657001D01*
X153243293Y-96660990D01*
X153243097Y-96661000D01*
X153161000Y-96661000D01*
X153159268Y-96660000D01*
X153159268Y-96658000D01*
X153160804Y-96657010D01*
X153212304Y-96651938D01*
X153261642Y-96636971D01*
X153307110Y-96612668D01*
X153346962Y-96579962D01*
X153379668Y-96540110D01*
X153403971Y-96494642D01*
X153418938Y-96445304D01*
X153424010Y-96393804D01*
X153425175Y-96392178D01*
X153427165Y-96392374D01*
G37*
G36*
X151375990Y-96393804D02*
G01*
X151381062Y-96445304D01*
X151396029Y-96494642D01*
X151420332Y-96540110D01*
X151453038Y-96579962D01*
X151492890Y-96612668D01*
X151538358Y-96636971D01*
X151587696Y-96651938D01*
X151639196Y-96657010D01*
X151640822Y-96658175D01*
X151640626Y-96660165D01*
X151639000Y-96661000D01*
X151556903Y-96661000D01*
X151556707Y-96660990D01*
X151516204Y-96657001D01*
X151515819Y-96656925D01*
X151482767Y-96646899D01*
X151482405Y-96646749D01*
X151451954Y-96630472D01*
X151451628Y-96630254D01*
X151424932Y-96608345D01*
X151424655Y-96608068D01*
X151402746Y-96581372D01*
X151402528Y-96581046D01*
X151386251Y-96550595D01*
X151386101Y-96550233D01*
X151376075Y-96517181D01*
X151375999Y-96516796D01*
X151372010Y-96476293D01*
X151372000Y-96476097D01*
X151372000Y-96394000D01*
X151373000Y-96392268D01*
X151375000Y-96392268D01*
X151375990Y-96393804D01*
G37*
G36*
X151640732Y-94856000D02*
G01*
X151640732Y-94858000D01*
X151639196Y-94858990D01*
X151587696Y-94864062D01*
X151538358Y-94879029D01*
X151492890Y-94903332D01*
X151453038Y-94936038D01*
X151420332Y-94975890D01*
X151396029Y-95021358D01*
X151381062Y-95070696D01*
X151375990Y-95122196D01*
X151374825Y-95123822D01*
X151372835Y-95123626D01*
X151372000Y-95122000D01*
X151372000Y-95039903D01*
X151372010Y-95039707D01*
X151375999Y-94999204D01*
X151376075Y-94998819D01*
X151386101Y-94965767D01*
X151386251Y-94965405D01*
X151402528Y-94934954D01*
X151402746Y-94934628D01*
X151424655Y-94907932D01*
X151424932Y-94907655D01*
X151451628Y-94885746D01*
X151451954Y-94885528D01*
X151482405Y-94869251D01*
X151482767Y-94869101D01*
X151515819Y-94859075D01*
X151516204Y-94858999D01*
X151556707Y-94855010D01*
X151556903Y-94855000D01*
X151639000Y-94855000D01*
X151640732Y-94856000D01*
G37*
G36*
X153243293Y-94855010D02*
G01*
X153283796Y-94858999D01*
X153284181Y-94859075D01*
X153317233Y-94869101D01*
X153317595Y-94869251D01*
X153348046Y-94885528D01*
X153348372Y-94885746D01*
X153375068Y-94907655D01*
X153375345Y-94907932D01*
X153397254Y-94934628D01*
X153397472Y-94934954D01*
X153413749Y-94965405D01*
X153413899Y-94965767D01*
X153423925Y-94998819D01*
X153424001Y-94999204D01*
X153427990Y-95039707D01*
X153428000Y-95039903D01*
X153428000Y-95122000D01*
X153427000Y-95123732D01*
X153425000Y-95123732D01*
X153424010Y-95122196D01*
X153418938Y-95070696D01*
X153403971Y-95021358D01*
X153379668Y-94975890D01*
X153346962Y-94936038D01*
X153307110Y-94903332D01*
X153261642Y-94879029D01*
X153212304Y-94864062D01*
X153160804Y-94858990D01*
X153159178Y-94857825D01*
X153159374Y-94855835D01*
X153161000Y-94855000D01*
X153243097Y-94855000D01*
X153243293Y-94855010D01*
G37*
G36*
X153427165Y-84962374D02*
G01*
X153428000Y-84964000D01*
X153428000Y-85046097D01*
X153427990Y-85046293D01*
X153424001Y-85086796D01*
X153423925Y-85087181D01*
X153413899Y-85120233D01*
X153413749Y-85120595D01*
X153397472Y-85151046D01*
X153397254Y-85151372D01*
X153375345Y-85178068D01*
X153375068Y-85178345D01*
X153348372Y-85200254D01*
X153348046Y-85200472D01*
X153317595Y-85216749D01*
X153317233Y-85216899D01*
X153284181Y-85226925D01*
X153283796Y-85227001D01*
X153243293Y-85230990D01*
X153243097Y-85231000D01*
X153161000Y-85231000D01*
X153159268Y-85230000D01*
X153159268Y-85228000D01*
X153160804Y-85227010D01*
X153212304Y-85221938D01*
X153261642Y-85206971D01*
X153307110Y-85182668D01*
X153346962Y-85149962D01*
X153379668Y-85110110D01*
X153403971Y-85064642D01*
X153418938Y-85015304D01*
X153424010Y-84963804D01*
X153425175Y-84962178D01*
X153427165Y-84962374D01*
G37*
G36*
X151375990Y-84963804D02*
G01*
X151381062Y-85015304D01*
X151396029Y-85064642D01*
X151420332Y-85110110D01*
X151453038Y-85149962D01*
X151492890Y-85182668D01*
X151538358Y-85206971D01*
X151587696Y-85221938D01*
X151639196Y-85227010D01*
X151640822Y-85228175D01*
X151640626Y-85230165D01*
X151639000Y-85231000D01*
X151556903Y-85231000D01*
X151556707Y-85230990D01*
X151516204Y-85227001D01*
X151515819Y-85226925D01*
X151482767Y-85216899D01*
X151482405Y-85216749D01*
X151451954Y-85200472D01*
X151451628Y-85200254D01*
X151424932Y-85178345D01*
X151424655Y-85178068D01*
X151402746Y-85151372D01*
X151402528Y-85151046D01*
X151386251Y-85120595D01*
X151386101Y-85120233D01*
X151376075Y-85087181D01*
X151375999Y-85086796D01*
X151372010Y-85046293D01*
X151372000Y-85046097D01*
X151372000Y-84964000D01*
X151373000Y-84962268D01*
X151375000Y-84962268D01*
X151375990Y-84963804D01*
G37*
G36*
X151640732Y-83426000D02*
G01*
X151640732Y-83428000D01*
X151639196Y-83428990D01*
X151587696Y-83434062D01*
X151538358Y-83449029D01*
X151492890Y-83473332D01*
X151453038Y-83506038D01*
X151420332Y-83545890D01*
X151396029Y-83591358D01*
X151381062Y-83640696D01*
X151375990Y-83692196D01*
X151374825Y-83693822D01*
X151372835Y-83693626D01*
X151372000Y-83692000D01*
X151372000Y-83609903D01*
X151372010Y-83609707D01*
X151375999Y-83569204D01*
X151376075Y-83568819D01*
X151386101Y-83535767D01*
X151386251Y-83535405D01*
X151402528Y-83504954D01*
X151402746Y-83504628D01*
X151424655Y-83477932D01*
X151424932Y-83477655D01*
X151451628Y-83455746D01*
X151451954Y-83455528D01*
X151482405Y-83439251D01*
X151482767Y-83439101D01*
X151515819Y-83429075D01*
X151516204Y-83428999D01*
X151556707Y-83425010D01*
X151556903Y-83425000D01*
X151639000Y-83425000D01*
X151640732Y-83426000D01*
G37*
G36*
X153243293Y-83425010D02*
G01*
X153283796Y-83428999D01*
X153284181Y-83429075D01*
X153317233Y-83439101D01*
X153317595Y-83439251D01*
X153348046Y-83455528D01*
X153348372Y-83455746D01*
X153375068Y-83477655D01*
X153375345Y-83477932D01*
X153397254Y-83504628D01*
X153397472Y-83504954D01*
X153413749Y-83535405D01*
X153413899Y-83535767D01*
X153423925Y-83568819D01*
X153424001Y-83569204D01*
X153427990Y-83609707D01*
X153428000Y-83609903D01*
X153428000Y-83692000D01*
X153427000Y-83693732D01*
X153425000Y-83693732D01*
X153424010Y-83692196D01*
X153418938Y-83640696D01*
X153403971Y-83591358D01*
X153379668Y-83545890D01*
X153346962Y-83506038D01*
X153307110Y-83473332D01*
X153261642Y-83449029D01*
X153212304Y-83434062D01*
X153160804Y-83428990D01*
X153159178Y-83427825D01*
X153159374Y-83425835D01*
X153161000Y-83425000D01*
X153243097Y-83425000D01*
X153243293Y-83425010D01*
G37*
G36*
X132982165Y-68577374D02*
G01*
X132983000Y-68579000D01*
X132983000Y-68661097D01*
X132982990Y-68661293D01*
X132979001Y-68701796D01*
X132978925Y-68702181D01*
X132968899Y-68735233D01*
X132968749Y-68735595D01*
X132952472Y-68766046D01*
X132952254Y-68766372D01*
X132930345Y-68793068D01*
X132930068Y-68793345D01*
X132903372Y-68815254D01*
X132903046Y-68815472D01*
X132872595Y-68831749D01*
X132872233Y-68831899D01*
X132839181Y-68841925D01*
X132838796Y-68842001D01*
X132798293Y-68845990D01*
X132798097Y-68846000D01*
X132716000Y-68846000D01*
X132714268Y-68845000D01*
X132714268Y-68843000D01*
X132715804Y-68842010D01*
X132767304Y-68836938D01*
X132816642Y-68821971D01*
X132862110Y-68797668D01*
X132901962Y-68764962D01*
X132934668Y-68725110D01*
X132958971Y-68679642D01*
X132973938Y-68630304D01*
X132979010Y-68578804D01*
X132980175Y-68577178D01*
X132982165Y-68577374D01*
G37*
G36*
X144412165Y-68577374D02*
G01*
X144413000Y-68579000D01*
X144413000Y-68661097D01*
X144412990Y-68661293D01*
X144409001Y-68701796D01*
X144408925Y-68702181D01*
X144398899Y-68735233D01*
X144398749Y-68735595D01*
X144382472Y-68766046D01*
X144382254Y-68766372D01*
X144360345Y-68793068D01*
X144360068Y-68793345D01*
X144333372Y-68815254D01*
X144333046Y-68815472D01*
X144302595Y-68831749D01*
X144302233Y-68831899D01*
X144269181Y-68841925D01*
X144268796Y-68842001D01*
X144228293Y-68845990D01*
X144228097Y-68846000D01*
X144146000Y-68846000D01*
X144144268Y-68845000D01*
X144144268Y-68843000D01*
X144145804Y-68842010D01*
X144197304Y-68836938D01*
X144246642Y-68821971D01*
X144292110Y-68797668D01*
X144331962Y-68764962D01*
X144364668Y-68725110D01*
X144388971Y-68679642D01*
X144403938Y-68630304D01*
X144409010Y-68578804D01*
X144410175Y-68577178D01*
X144412165Y-68577374D01*
G37*
G36*
X155588165Y-68577374D02*
G01*
X155589000Y-68579000D01*
X155589000Y-68661097D01*
X155588990Y-68661293D01*
X155585001Y-68701796D01*
X155584925Y-68702181D01*
X155574899Y-68735233D01*
X155574749Y-68735595D01*
X155558472Y-68766046D01*
X155558254Y-68766372D01*
X155536345Y-68793068D01*
X155536068Y-68793345D01*
X155509372Y-68815254D01*
X155509046Y-68815472D01*
X155478595Y-68831749D01*
X155478233Y-68831899D01*
X155445181Y-68841925D01*
X155444796Y-68842001D01*
X155404293Y-68845990D01*
X155404097Y-68846000D01*
X155322000Y-68846000D01*
X155320268Y-68845000D01*
X155320268Y-68843000D01*
X155321804Y-68842010D01*
X155373304Y-68836938D01*
X155422642Y-68821971D01*
X155468110Y-68797668D01*
X155507962Y-68764962D01*
X155540668Y-68725110D01*
X155564971Y-68679642D01*
X155579938Y-68630304D01*
X155585010Y-68578804D01*
X155586175Y-68577178D01*
X155588165Y-68577374D01*
G37*
G36*
X142610990Y-68578804D02*
G01*
X142616062Y-68630304D01*
X142631029Y-68679642D01*
X142655332Y-68725110D01*
X142688038Y-68764962D01*
X142727890Y-68797668D01*
X142773358Y-68821971D01*
X142822696Y-68836938D01*
X142874196Y-68842010D01*
X142875822Y-68843175D01*
X142875626Y-68845165D01*
X142874000Y-68846000D01*
X142791903Y-68846000D01*
X142791707Y-68845990D01*
X142751204Y-68842001D01*
X142750819Y-68841925D01*
X142717767Y-68831899D01*
X142717405Y-68831749D01*
X142686954Y-68815472D01*
X142686628Y-68815254D01*
X142659932Y-68793345D01*
X142659655Y-68793068D01*
X142637746Y-68766372D01*
X142637528Y-68766046D01*
X142621251Y-68735595D01*
X142621101Y-68735233D01*
X142611075Y-68702181D01*
X142610999Y-68701796D01*
X142607010Y-68661293D01*
X142607000Y-68661097D01*
X142607000Y-68579000D01*
X142608000Y-68577268D01*
X142610000Y-68577268D01*
X142610990Y-68578804D01*
G37*
G36*
X131180990Y-68578804D02*
G01*
X131186062Y-68630304D01*
X131201029Y-68679642D01*
X131225332Y-68725110D01*
X131258038Y-68764962D01*
X131297890Y-68797668D01*
X131343358Y-68821971D01*
X131392696Y-68836938D01*
X131444196Y-68842010D01*
X131445822Y-68843175D01*
X131445626Y-68845165D01*
X131444000Y-68846000D01*
X131361903Y-68846000D01*
X131361707Y-68845990D01*
X131321204Y-68842001D01*
X131320819Y-68841925D01*
X131287767Y-68831899D01*
X131287405Y-68831749D01*
X131256954Y-68815472D01*
X131256628Y-68815254D01*
X131229932Y-68793345D01*
X131229655Y-68793068D01*
X131207746Y-68766372D01*
X131207528Y-68766046D01*
X131191251Y-68735595D01*
X131191101Y-68735233D01*
X131181075Y-68702181D01*
X131180999Y-68701796D01*
X131177010Y-68661293D01*
X131177000Y-68661097D01*
X131177000Y-68579000D01*
X131178000Y-68577268D01*
X131180000Y-68577268D01*
X131180990Y-68578804D01*
G37*
G36*
X153786990Y-68578804D02*
G01*
X153792062Y-68630304D01*
X153807029Y-68679642D01*
X153831332Y-68725110D01*
X153864038Y-68764962D01*
X153903890Y-68797668D01*
X153949358Y-68821971D01*
X153998696Y-68836938D01*
X154050196Y-68842010D01*
X154051822Y-68843175D01*
X154051626Y-68845165D01*
X154050000Y-68846000D01*
X153967903Y-68846000D01*
X153967707Y-68845990D01*
X153927204Y-68842001D01*
X153926819Y-68841925D01*
X153893767Y-68831899D01*
X153893405Y-68831749D01*
X153862954Y-68815472D01*
X153862628Y-68815254D01*
X153835932Y-68793345D01*
X153835655Y-68793068D01*
X153813746Y-68766372D01*
X153813528Y-68766046D01*
X153797251Y-68735595D01*
X153797101Y-68735233D01*
X153787075Y-68702181D01*
X153786999Y-68701796D01*
X153783010Y-68661293D01*
X153783000Y-68661097D01*
X153783000Y-68579000D01*
X153784000Y-68577268D01*
X153786000Y-68577268D01*
X153786990Y-68578804D01*
G37*
G36*
X131445732Y-66791000D02*
G01*
X131445732Y-66793000D01*
X131444196Y-66793990D01*
X131392696Y-66799062D01*
X131343358Y-66814029D01*
X131297890Y-66838332D01*
X131258038Y-66871038D01*
X131225332Y-66910890D01*
X131201029Y-66956358D01*
X131186062Y-67005696D01*
X131180990Y-67057196D01*
X131179825Y-67058822D01*
X131177835Y-67058626D01*
X131177000Y-67057000D01*
X131177000Y-66974903D01*
X131177010Y-66974707D01*
X131180999Y-66934204D01*
X131181075Y-66933819D01*
X131191101Y-66900767D01*
X131191251Y-66900405D01*
X131207528Y-66869954D01*
X131207746Y-66869628D01*
X131229655Y-66842932D01*
X131229932Y-66842655D01*
X131256628Y-66820746D01*
X131256954Y-66820528D01*
X131287405Y-66804251D01*
X131287767Y-66804101D01*
X131320819Y-66794075D01*
X131321204Y-66793999D01*
X131361707Y-66790010D01*
X131361903Y-66790000D01*
X131444000Y-66790000D01*
X131445732Y-66791000D01*
G37*
G36*
X142875732Y-66791000D02*
G01*
X142875732Y-66793000D01*
X142874196Y-66793990D01*
X142822696Y-66799062D01*
X142773358Y-66814029D01*
X142727890Y-66838332D01*
X142688038Y-66871038D01*
X142655332Y-66910890D01*
X142631029Y-66956358D01*
X142616062Y-67005696D01*
X142610990Y-67057196D01*
X142609825Y-67058822D01*
X142607835Y-67058626D01*
X142607000Y-67057000D01*
X142607000Y-66974903D01*
X142607010Y-66974707D01*
X142610999Y-66934204D01*
X142611075Y-66933819D01*
X142621101Y-66900767D01*
X142621251Y-66900405D01*
X142637528Y-66869954D01*
X142637746Y-66869628D01*
X142659655Y-66842932D01*
X142659932Y-66842655D01*
X142686628Y-66820746D01*
X142686954Y-66820528D01*
X142717405Y-66804251D01*
X142717767Y-66804101D01*
X142750819Y-66794075D01*
X142751204Y-66793999D01*
X142791707Y-66790010D01*
X142791903Y-66790000D01*
X142874000Y-66790000D01*
X142875732Y-66791000D01*
G37*
G36*
X154051732Y-66791000D02*
G01*
X154051732Y-66793000D01*
X154050196Y-66793990D01*
X153998696Y-66799062D01*
X153949358Y-66814029D01*
X153903890Y-66838332D01*
X153864038Y-66871038D01*
X153831332Y-66910890D01*
X153807029Y-66956358D01*
X153792062Y-67005696D01*
X153786990Y-67057196D01*
X153785825Y-67058822D01*
X153783835Y-67058626D01*
X153783000Y-67057000D01*
X153783000Y-66974903D01*
X153783010Y-66974707D01*
X153786999Y-66934204D01*
X153787075Y-66933819D01*
X153797101Y-66900767D01*
X153797251Y-66900405D01*
X153813528Y-66869954D01*
X153813746Y-66869628D01*
X153835655Y-66842932D01*
X153835932Y-66842655D01*
X153862628Y-66820746D01*
X153862954Y-66820528D01*
X153893405Y-66804251D01*
X153893767Y-66804101D01*
X153926819Y-66794075D01*
X153927204Y-66793999D01*
X153967707Y-66790010D01*
X153967903Y-66790000D01*
X154050000Y-66790000D01*
X154051732Y-66791000D01*
G37*
G36*
X132798293Y-66790010D02*
G01*
X132838796Y-66793999D01*
X132839181Y-66794075D01*
X132872233Y-66804101D01*
X132872595Y-66804251D01*
X132903046Y-66820528D01*
X132903372Y-66820746D01*
X132930068Y-66842655D01*
X132930345Y-66842932D01*
X132952254Y-66869628D01*
X132952472Y-66869954D01*
X132968749Y-66900405D01*
X132968899Y-66900767D01*
X132978925Y-66933819D01*
X132979001Y-66934204D01*
X132982990Y-66974707D01*
X132983000Y-66974903D01*
X132983000Y-67057000D01*
X132982000Y-67058732D01*
X132980000Y-67058732D01*
X132979010Y-67057196D01*
X132973938Y-67005696D01*
X132958971Y-66956358D01*
X132934668Y-66910890D01*
X132901962Y-66871038D01*
X132862110Y-66838332D01*
X132816642Y-66814029D01*
X132767304Y-66799062D01*
X132715804Y-66793990D01*
X132714178Y-66792825D01*
X132714374Y-66790835D01*
X132716000Y-66790000D01*
X132798097Y-66790000D01*
X132798293Y-66790010D01*
G37*
G36*
X144228293Y-66790010D02*
G01*
X144268796Y-66793999D01*
X144269181Y-66794075D01*
X144302233Y-66804101D01*
X144302595Y-66804251D01*
X144333046Y-66820528D01*
X144333372Y-66820746D01*
X144360068Y-66842655D01*
X144360345Y-66842932D01*
X144382254Y-66869628D01*
X144382472Y-66869954D01*
X144398749Y-66900405D01*
X144398899Y-66900767D01*
X144408925Y-66933819D01*
X144409001Y-66934204D01*
X144412990Y-66974707D01*
X144413000Y-66974903D01*
X144413000Y-67057000D01*
X144412000Y-67058732D01*
X144410000Y-67058732D01*
X144409010Y-67057196D01*
X144403938Y-67005696D01*
X144388971Y-66956358D01*
X144364668Y-66910890D01*
X144331962Y-66871038D01*
X144292110Y-66838332D01*
X144246642Y-66814029D01*
X144197304Y-66799062D01*
X144145804Y-66793990D01*
X144144178Y-66792825D01*
X144144374Y-66790835D01*
X144146000Y-66790000D01*
X144228097Y-66790000D01*
X144228293Y-66790010D01*
G37*
G36*
X155404293Y-66790010D02*
G01*
X155444796Y-66793999D01*
X155445181Y-66794075D01*
X155478233Y-66804101D01*
X155478595Y-66804251D01*
X155509046Y-66820528D01*
X155509372Y-66820746D01*
X155536068Y-66842655D01*
X155536345Y-66842932D01*
X155558254Y-66869628D01*
X155558472Y-66869954D01*
X155574749Y-66900405D01*
X155574899Y-66900767D01*
X155584925Y-66933819D01*
X155585001Y-66934204D01*
X155588990Y-66974707D01*
X155589000Y-66974903D01*
X155589000Y-67057000D01*
X155588000Y-67058732D01*
X155586000Y-67058732D01*
X155585010Y-67057196D01*
X155579938Y-67005696D01*
X155564971Y-66956358D01*
X155540668Y-66910890D01*
X155507962Y-66871038D01*
X155468110Y-66838332D01*
X155422642Y-66814029D01*
X155373304Y-66799062D01*
X155321804Y-66793990D01*
X155320178Y-66792825D01*
X155320374Y-66790835D01*
X155322000Y-66790000D01*
X155404097Y-66790000D01*
X155404293Y-66790010D01*
G37*
M02*
