%TF.GenerationSoftware,KiCad,Pcbnew,(5.1.12)-1*%
%TF.CreationDate,2021-12-19T17:26:01-05:00*%
%TF.ProjectId,FlipDisplay-Main,466c6970-4469-4737-906c-61792d4d6169,rev?*%
%TF.SameCoordinates,Original*%
%TF.FileFunction,Copper,L1,Top*%
%TF.FilePolarity,Positive*%
%FSLAX46Y46*%
G04 Gerber Fmt 4.6, Leading zero omitted, Abs format (unit mm)*
G04 Created by KiCad (PCBNEW (5.1.12)-1) date 2021-12-19 17:26:01*
%MOMM*%
%LPD*%
G01*
G04 APERTURE LIST*
%TA.AperFunction,ComponentPad*%
%ADD10C,2.600000*%
%TD*%
%TA.AperFunction,ComponentPad*%
%ADD11R,2.600000X2.600000*%
%TD*%
%TA.AperFunction,ComponentPad*%
%ADD12O,1.700000X1.950000*%
%TD*%
%TA.AperFunction,ComponentPad*%
%ADD13R,1.700000X1.700000*%
%TD*%
%TA.AperFunction,ComponentPad*%
%ADD14O,1.700000X1.700000*%
%TD*%
%TA.AperFunction,ViaPad*%
%ADD15C,0.800000*%
%TD*%
%TA.AperFunction,Conductor*%
%ADD16C,0.250000*%
%TD*%
%TA.AperFunction,Conductor*%
%ADD17C,1.000000*%
%TD*%
%TA.AperFunction,Conductor*%
%ADD18C,0.254000*%
%TD*%
%TA.AperFunction,Conductor*%
%ADD19C,0.100000*%
%TD*%
G04 APERTURE END LIST*
D10*
%TO.P,J13,3*%
%TO.N,/GPIO16*%
X242500000Y-89500000D03*
%TO.P,J13,2*%
%TO.N,/GPIO4*%
X247500000Y-89500000D03*
D11*
%TO.P,J13,1*%
%TO.N,/GPIO2*%
X252500000Y-89500000D03*
%TD*%
D10*
%TO.P,J24,3*%
%TO.N,/5V*%
X78000000Y-84000000D03*
%TO.P,J24,2*%
%TO.N,/GND*%
X78000000Y-89000000D03*
D11*
%TO.P,J24,1*%
%TO.N,/12V*%
X78000000Y-94000000D03*
%TD*%
D10*
%TO.P,J15,3*%
%TO.N,/GPIO15*%
X259000000Y-115000000D03*
%TO.P,J15,2*%
%TO.N,/GND*%
X259000000Y-110000000D03*
D11*
%TO.P,J15,1*%
%TO.N,/5V*%
X259000000Y-105000000D03*
%TD*%
D10*
%TO.P,J12,3*%
%TO.N,/GPIO18*%
X227500000Y-89500000D03*
%TO.P,J12,2*%
%TO.N,/GPIO5*%
X232500000Y-89500000D03*
D11*
%TO.P,J12,1*%
%TO.N,/GPIO17*%
X237500000Y-89500000D03*
%TD*%
D10*
%TO.P,J10,3*%
%TO.N,/GPIO3*%
X212500000Y-89500000D03*
%TO.P,J10,2*%
%TO.N,/GPIO21*%
X217500000Y-89500000D03*
D11*
%TO.P,J10,1*%
%TO.N,/GPIO19*%
X222500000Y-89500000D03*
%TD*%
D10*
%TO.P,J9,3*%
%TO.N,/GPIO23*%
X197500000Y-89500000D03*
%TO.P,J9,2*%
%TO.N,/GPIO22*%
X202500000Y-89500000D03*
D11*
%TO.P,J9,1*%
%TO.N,/GPIO1*%
X207500000Y-89500000D03*
%TD*%
D10*
%TO.P,J6,3*%
%TO.N,/GPIO34*%
X182500000Y-89500000D03*
%TO.P,J6,2*%
%TO.N,/GPIO39*%
X187500000Y-89500000D03*
D11*
%TO.P,J6,1*%
%TO.N,/GPIO36*%
X192500000Y-89500000D03*
%TD*%
D10*
%TO.P,J5,3*%
%TO.N,/GPIO33*%
X167500000Y-89500000D03*
%TO.P,J5,2*%
%TO.N,/GPIO32*%
X172500000Y-89500000D03*
D11*
%TO.P,J5,1*%
%TO.N,/GPIO35*%
X177500000Y-89500000D03*
%TD*%
D10*
%TO.P,J4,3*%
%TO.N,/GPIO27*%
X152500000Y-89500000D03*
%TO.P,J4,2*%
%TO.N,/GPIO26*%
X157500000Y-89500000D03*
D11*
%TO.P,J4,1*%
%TO.N,/GPIO25*%
X162500000Y-89500000D03*
%TD*%
D10*
%TO.P,J1,3*%
%TO.N,/GPIO13*%
X137500000Y-89500000D03*
%TO.P,J1,2*%
%TO.N,/GPIO12*%
X142500000Y-89500000D03*
D11*
%TO.P,J1,1*%
%TO.N,/GPIO14*%
X147500000Y-89500000D03*
%TD*%
D12*
%TO.P,J23,3*%
%TO.N,/5V*%
X254000000Y-135000000D03*
%TO.P,J23,2*%
%TO.N,/12V*%
X251500000Y-135000000D03*
%TO.P,J23,1*%
%TO.N,/GND*%
%TA.AperFunction,ComponentPad*%
G36*
G01*
X248150000Y-135725000D02*
X248150000Y-134275000D01*
G75*
G02*
X248400000Y-134025000I250000J0D01*
G01*
X249600000Y-134025000D01*
G75*
G02*
X249850000Y-134275000I0J-250000D01*
G01*
X249850000Y-135725000D01*
G75*
G02*
X249600000Y-135975000I-250000J0D01*
G01*
X248400000Y-135975000D01*
G75*
G02*
X248150000Y-135725000I0J250000D01*
G01*
G37*
%TD.AperFunction*%
%TD*%
%TO.P,J22,3*%
%TO.N,/5V*%
X81000000Y-135000000D03*
%TO.P,J22,2*%
%TO.N,/12V*%
X78500000Y-135000000D03*
%TO.P,J22,1*%
%TO.N,/GND*%
%TA.AperFunction,ComponentPad*%
G36*
G01*
X75150000Y-135725000D02*
X75150000Y-134275000D01*
G75*
G02*
X75400000Y-134025000I250000J0D01*
G01*
X76600000Y-134025000D01*
G75*
G02*
X76850000Y-134275000I0J-250000D01*
G01*
X76850000Y-135725000D01*
G75*
G02*
X76600000Y-135975000I-250000J0D01*
G01*
X75400000Y-135975000D01*
G75*
G02*
X75150000Y-135725000I0J250000D01*
G01*
G37*
%TD.AperFunction*%
%TD*%
%TO.P,J21,3*%
%TO.N,/GPIO13*%
X229285710Y-135000000D03*
%TO.P,J21,2*%
%TO.N,/GPIO26*%
X226785710Y-135000000D03*
%TO.P,J21,1*%
%TO.N,/GPIO25*%
%TA.AperFunction,ComponentPad*%
G36*
G01*
X223435710Y-135725000D02*
X223435710Y-134275000D01*
G75*
G02*
X223685710Y-134025000I250000J0D01*
G01*
X224885710Y-134025000D01*
G75*
G02*
X225135710Y-134275000I0J-250000D01*
G01*
X225135710Y-135725000D01*
G75*
G02*
X224885710Y-135975000I-250000J0D01*
G01*
X223685710Y-135975000D01*
G75*
G02*
X223435710Y-135725000I0J250000D01*
G01*
G37*
%TD.AperFunction*%
%TD*%
D13*
%TO.P,J20,1*%
%TO.N,/GND*%
X113500000Y-127000000D03*
%TD*%
%TO.P,J19,1*%
%TO.N,/12V*%
X131500000Y-87000000D03*
%TD*%
%TO.P,J18,1*%
%TO.N,/GND*%
X113500000Y-87000000D03*
%TD*%
%TO.P,J17,1*%
%TO.N,/5V*%
X131500000Y-127000000D03*
%TD*%
D12*
%TO.P,J16,3*%
%TO.N,/GPIO13*%
X204571425Y-135000000D03*
%TO.P,J16,2*%
%TO.N,/GPIO32*%
X202071425Y-135000000D03*
%TO.P,J16,1*%
%TO.N,/GPIO35*%
%TA.AperFunction,ComponentPad*%
G36*
G01*
X198721425Y-135725000D02*
X198721425Y-134275000D01*
G75*
G02*
X198971425Y-134025000I250000J0D01*
G01*
X200171425Y-134025000D01*
G75*
G02*
X200421425Y-134275000I0J-250000D01*
G01*
X200421425Y-135725000D01*
G75*
G02*
X200171425Y-135975000I-250000J0D01*
G01*
X198971425Y-135975000D01*
G75*
G02*
X198721425Y-135725000I0J250000D01*
G01*
G37*
%TD.AperFunction*%
%TD*%
%TO.P,J14,3*%
%TO.N,/GPIO13*%
X179857140Y-135000000D03*
%TO.P,J14,2*%
%TO.N,/GPIO23*%
X177357140Y-135000000D03*
%TO.P,J14,1*%
%TO.N,/GPIO22*%
%TA.AperFunction,ComponentPad*%
G36*
G01*
X174007140Y-135725000D02*
X174007140Y-134275000D01*
G75*
G02*
X174257140Y-134025000I250000J0D01*
G01*
X175457140Y-134025000D01*
G75*
G02*
X175707140Y-134275000I0J-250000D01*
G01*
X175707140Y-135725000D01*
G75*
G02*
X175457140Y-135975000I-250000J0D01*
G01*
X174257140Y-135975000D01*
G75*
G02*
X174007140Y-135725000I0J250000D01*
G01*
G37*
%TD.AperFunction*%
%TD*%
%TO.P,J11,3*%
%TO.N,/GPIO13*%
X155142855Y-135000000D03*
%TO.P,J11,2*%
%TO.N,/GPIO21*%
X152642855Y-135000000D03*
%TO.P,J11,1*%
%TO.N,/GPIO19*%
%TA.AperFunction,ComponentPad*%
G36*
G01*
X149292855Y-135725000D02*
X149292855Y-134275000D01*
G75*
G02*
X149542855Y-134025000I250000J0D01*
G01*
X150742855Y-134025000D01*
G75*
G02*
X150992855Y-134275000I0J-250000D01*
G01*
X150992855Y-135725000D01*
G75*
G02*
X150742855Y-135975000I-250000J0D01*
G01*
X149542855Y-135975000D01*
G75*
G02*
X149292855Y-135725000I0J250000D01*
G01*
G37*
%TD.AperFunction*%
%TD*%
D14*
%TO.P,J8,15*%
%TO.N,/GPIO23*%
X103840000Y-127000000D03*
%TO.P,J8,14*%
%TO.N,/GPIO22*%
X101300000Y-127000000D03*
%TO.P,J8,13*%
%TO.N,/GPIO1*%
X98760000Y-127000000D03*
%TO.P,J8,12*%
%TO.N,/GPIO3*%
X96220000Y-127000000D03*
%TO.P,J8,11*%
%TO.N,/GPIO21*%
X93680000Y-127000000D03*
%TO.P,J8,10*%
%TO.N,/GPIO19*%
X91140000Y-127000000D03*
%TO.P,J8,9*%
%TO.N,/GPIO18*%
X88600000Y-127000000D03*
%TO.P,J8,8*%
%TO.N,/GPIO5*%
X86060000Y-127000000D03*
%TO.P,J8,7*%
%TO.N,/GPIO17*%
X83520000Y-127000000D03*
%TO.P,J8,6*%
%TO.N,/GPIO16*%
X80980000Y-127000000D03*
%TO.P,J8,5*%
%TO.N,/GPIO4*%
X78440000Y-127000000D03*
%TO.P,J8,4*%
%TO.N,/GPIO2*%
X75900000Y-127000000D03*
%TO.P,J8,3*%
%TO.N,/GPIO15*%
X73360000Y-127000000D03*
%TO.P,J8,2*%
%TO.N,/GND*%
X70820000Y-127000000D03*
D13*
%TO.P,J8,1*%
%TO.N,/3V3*%
X68280000Y-127000000D03*
%TD*%
D12*
%TO.P,J7,3*%
%TO.N,/GPIO13*%
X130428570Y-135000000D03*
%TO.P,J7,2*%
%TO.N,/GPIO18*%
X127928570Y-135000000D03*
%TO.P,J7,1*%
%TO.N,/GPIO5*%
%TA.AperFunction,ComponentPad*%
G36*
G01*
X124578570Y-135725000D02*
X124578570Y-134275000D01*
G75*
G02*
X124828570Y-134025000I250000J0D01*
G01*
X126028570Y-134025000D01*
G75*
G02*
X126278570Y-134275000I0J-250000D01*
G01*
X126278570Y-135725000D01*
G75*
G02*
X126028570Y-135975000I-250000J0D01*
G01*
X124828570Y-135975000D01*
G75*
G02*
X124578570Y-135725000I0J250000D01*
G01*
G37*
%TD.AperFunction*%
%TD*%
%TO.P,J3,3*%
%TO.N,/GPIO13*%
X105714285Y-135000000D03*
%TO.P,J3,2*%
%TO.N,/GPIO4*%
X103214285Y-135000000D03*
%TO.P,J3,1*%
%TO.N,/GPIO2*%
%TA.AperFunction,ComponentPad*%
G36*
G01*
X99864285Y-135725000D02*
X99864285Y-134275000D01*
G75*
G02*
X100114285Y-134025000I250000J0D01*
G01*
X101314285Y-134025000D01*
G75*
G02*
X101564285Y-134275000I0J-250000D01*
G01*
X101564285Y-135725000D01*
G75*
G02*
X101314285Y-135975000I-250000J0D01*
G01*
X100114285Y-135975000D01*
G75*
G02*
X99864285Y-135725000I0J250000D01*
G01*
G37*
%TD.AperFunction*%
%TD*%
D14*
%TO.P,J2,15*%
%TO.N,/5V*%
X68270000Y-102000000D03*
%TO.P,J2,14*%
%TO.N,/GND*%
X70810000Y-102000000D03*
%TO.P,J2,13*%
%TO.N,/GPIO13*%
X73350000Y-102000000D03*
%TO.P,J2,12*%
%TO.N,/GPIO12*%
X75890000Y-102000000D03*
%TO.P,J2,11*%
%TO.N,/GPIO14*%
X78430000Y-102000000D03*
%TO.P,J2,10*%
%TO.N,/GPIO27*%
X80970000Y-102000000D03*
%TO.P,J2,9*%
%TO.N,/GPIO26*%
X83510000Y-102000000D03*
%TO.P,J2,8*%
%TO.N,/GPIO25*%
X86050000Y-102000000D03*
%TO.P,J2,7*%
%TO.N,/GPIO33*%
X88590000Y-102000000D03*
%TO.P,J2,6*%
%TO.N,/GPIO32*%
X91130000Y-102000000D03*
%TO.P,J2,5*%
%TO.N,/GPIO35*%
X93670000Y-102000000D03*
%TO.P,J2,4*%
%TO.N,/GPIO34*%
X96210000Y-102000000D03*
%TO.P,J2,3*%
%TO.N,/GPIO39*%
X98750000Y-102000000D03*
%TO.P,J2,2*%
%TO.N,/GPIO36*%
X101290000Y-102000000D03*
D13*
%TO.P,J2,1*%
%TO.N,Net-(J2-Pad1)*%
X103830000Y-102000000D03*
%TD*%
D15*
%TO.N,/GPIO13*%
X132000000Y-95000000D03*
%TO.N,/GPIO12*%
X136500000Y-95500000D03*
%TO.N,/GPIO14*%
X141500000Y-95500000D03*
%TO.N,/5V*%
X243700010Y-137799990D03*
%TO.N,/GPIO27*%
X146500000Y-95500000D03*
%TO.N,/GPIO26*%
X151500000Y-95500000D03*
X151500000Y-104000000D03*
%TO.N,/GPIO25*%
X156500000Y-95500000D03*
X156500000Y-105000000D03*
%TO.N,/GPIO33*%
X161500000Y-95500000D03*
%TO.N,/GPIO32*%
X166500000Y-95500000D03*
X170500000Y-106500000D03*
%TO.N,/GPIO35*%
X171500000Y-95500000D03*
X172000000Y-108000000D03*
%TO.N,/GPIO34*%
X176500000Y-95500000D03*
%TO.N,/GPIO39*%
X181500000Y-95500000D03*
%TO.N,/GPIO36*%
X186500000Y-95500000D03*
%TO.N,/GPIO4*%
X187000000Y-111000000D03*
X94500000Y-111000000D03*
%TO.N,/GPIO2*%
X188000000Y-110000000D03*
X93000000Y-110000000D03*
%TO.N,/GPIO18*%
X183000000Y-115000000D03*
X100550000Y-115050000D03*
%TO.N,/GPIO5*%
X184000000Y-114000000D03*
X99030000Y-114030000D03*
%TO.N,/GPIO23*%
X177160000Y-120840000D03*
X109920000Y-120920000D03*
%TO.N,/GPIO22*%
X178000000Y-120000000D03*
X108150000Y-120150000D03*
%TO.N,/GPIO1*%
X179000000Y-119000000D03*
X106630000Y-119130000D03*
%TO.N,/GPIO3*%
X180000000Y-118000000D03*
X105110000Y-118110000D03*
%TO.N,/GPIO21*%
X181000000Y-117000000D03*
X103590000Y-117090000D03*
%TO.N,/GPIO19*%
X182000000Y-116000000D03*
X102070000Y-116070000D03*
%TO.N,/GPIO17*%
X185000000Y-113000000D03*
X97510000Y-113010000D03*
%TO.N,/GPIO16*%
X186000000Y-112000000D03*
X96000000Y-112000000D03*
%TO.N,/GPIO15*%
X189000000Y-109000000D03*
X91500000Y-109000000D03*
%TO.N,/12V*%
X69500000Y-100000000D03*
X80500000Y-139000000D03*
%TD*%
D16*
%TO.N,/GPIO13*%
X131500000Y-95500000D02*
X132000000Y-95000000D01*
X79850000Y-95500000D02*
X131500000Y-95500000D01*
X73350000Y-102000000D02*
X79850000Y-95500000D01*
X132000000Y-95000000D02*
X137500000Y-89500000D01*
X129128560Y-136300010D02*
X130428570Y-135000000D01*
X105789295Y-136300010D02*
X129128560Y-136300010D01*
X105714285Y-136225000D02*
X105789295Y-136300010D01*
X105714285Y-135000000D02*
X105714285Y-136225000D01*
X130428570Y-135000000D02*
X130500000Y-135000000D01*
X153842845Y-136300010D02*
X155142855Y-135000000D01*
X131800010Y-136300010D02*
X153842845Y-136300010D01*
X130500000Y-135000000D02*
X131800010Y-136300010D01*
X155142855Y-135000000D02*
X155142855Y-135142855D01*
X178557130Y-136300010D02*
X179857140Y-135000000D01*
X156300010Y-136300010D02*
X178557130Y-136300010D01*
X155142855Y-135142855D02*
X156300010Y-136300010D01*
X179857140Y-135000000D02*
X179857140Y-135357140D01*
X203271415Y-136300010D02*
X204571425Y-135000000D01*
X180800010Y-136300010D02*
X203271415Y-136300010D01*
X179857140Y-135357140D02*
X180800010Y-136300010D01*
X204571425Y-135000000D02*
X204571425Y-135571425D01*
X227985700Y-136300010D02*
X229285710Y-135000000D01*
X205300010Y-136300010D02*
X227985700Y-136300010D01*
X204571425Y-135571425D02*
X205300010Y-136300010D01*
%TO.N,/GPIO12*%
X136000000Y-96000000D02*
X136500000Y-95500000D01*
X81890000Y-96000000D02*
X136000000Y-96000000D01*
X75890000Y-102000000D02*
X81890000Y-96000000D01*
X136500000Y-95500000D02*
X142500000Y-89500000D01*
%TO.N,/GPIO14*%
X140500000Y-96500000D02*
X141500000Y-95500000D01*
X83930000Y-96500000D02*
X140500000Y-96500000D01*
X78430000Y-102000000D02*
X83930000Y-96500000D01*
X141500000Y-95500000D02*
X147500000Y-89500000D01*
D17*
%TO.N,/5V*%
X68270000Y-93730000D02*
X78000000Y-84000000D01*
X68270000Y-102000000D02*
X68270000Y-93730000D01*
X66729999Y-103540001D02*
X68270000Y-102000000D01*
X66729999Y-128410001D02*
X66729999Y-103540001D01*
X71644988Y-133324990D02*
X66729999Y-128410001D01*
X79324990Y-133324990D02*
X71644988Y-133324990D01*
X81000000Y-135000000D02*
X79324990Y-133324990D01*
X254000000Y-135000000D02*
X254000000Y-130500000D01*
X261000001Y-107000001D02*
X259000000Y-105000000D01*
X261000001Y-123499999D02*
X261000001Y-107000001D01*
X254000000Y-130500000D02*
X261000001Y-123499999D01*
X81000000Y-135000000D02*
X83799990Y-137799990D01*
X83799990Y-137799990D02*
X243700010Y-137799990D01*
X243700010Y-137799990D02*
X243700010Y-137799990D01*
D16*
%TO.N,/GPIO27*%
X145000000Y-97000000D02*
X146500000Y-95500000D01*
X85970000Y-97000000D02*
X145000000Y-97000000D01*
X80970000Y-102000000D02*
X85970000Y-97000000D01*
X146500000Y-95500000D02*
X152500000Y-89500000D01*
%TO.N,/GPIO26*%
X149500000Y-97500000D02*
X151500000Y-95500000D01*
X88010000Y-97500000D02*
X149500000Y-97500000D01*
X83510000Y-102000000D02*
X88010000Y-97500000D01*
X151500000Y-95500000D02*
X157500000Y-89500000D01*
X226785710Y-135000000D02*
X195785710Y-104000000D01*
X195785710Y-104000000D02*
X151500000Y-104000000D01*
X151500000Y-104000000D02*
X151500000Y-104000000D01*
%TO.N,/GPIO25*%
X154000000Y-98000000D02*
X156500000Y-95500000D01*
X90050000Y-98000000D02*
X154000000Y-98000000D01*
X86050000Y-102000000D02*
X90050000Y-98000000D01*
X156500000Y-95500000D02*
X162500000Y-89500000D01*
X224285710Y-135000000D02*
X194285710Y-105000000D01*
X194285710Y-105000000D02*
X156500000Y-105000000D01*
X156500000Y-105000000D02*
X156500000Y-105000000D01*
%TO.N,/GPIO33*%
X158500000Y-98500000D02*
X161500000Y-95500000D01*
X92090000Y-98500000D02*
X158500000Y-98500000D01*
X88590000Y-102000000D02*
X92090000Y-98500000D01*
X161500000Y-95500000D02*
X167500000Y-89500000D01*
%TO.N,/GPIO32*%
X163000000Y-99000000D02*
X166500000Y-95500000D01*
X94130000Y-99000000D02*
X163000000Y-99000000D01*
X91130000Y-102000000D02*
X94130000Y-99000000D01*
X166500000Y-95500000D02*
X172500000Y-89500000D01*
X202071425Y-120362013D02*
X188209412Y-106500000D01*
X202071425Y-135000000D02*
X202071425Y-120362013D01*
X188209412Y-106500000D02*
X170500000Y-106500000D01*
X170500000Y-106500000D02*
X170500000Y-106500000D01*
%TO.N,/GPIO35*%
X167525031Y-99474969D02*
X171500000Y-95500000D01*
X96195031Y-99474969D02*
X167525031Y-99474969D01*
X93670000Y-102000000D02*
X96195031Y-99474969D01*
X171500000Y-95500000D02*
X177500000Y-89500000D01*
X199571425Y-118498423D02*
X189073002Y-108000000D01*
X199571425Y-135000000D02*
X199571425Y-118498423D01*
X189073002Y-108000000D02*
X172000000Y-108000000D01*
X172000000Y-108000000D02*
X172000000Y-108000000D01*
%TO.N,/GPIO34*%
X172075021Y-99924979D02*
X176500000Y-95500000D01*
X98285021Y-99924979D02*
X172075021Y-99924979D01*
X96210000Y-102000000D02*
X98285021Y-99924979D01*
X176500000Y-95500000D02*
X182500000Y-89500000D01*
%TO.N,/GPIO39*%
X176625011Y-100374989D02*
X181500000Y-95500000D01*
X100375011Y-100374989D02*
X176625011Y-100374989D01*
X98750000Y-102000000D02*
X100375011Y-100374989D01*
X181500000Y-95500000D02*
X187500000Y-89500000D01*
%TO.N,/GPIO36*%
X181175001Y-100824999D02*
X186500000Y-95500000D01*
X102465001Y-100824999D02*
X181175001Y-100824999D01*
X101290000Y-102000000D02*
X102465001Y-100824999D01*
X186500000Y-95500000D02*
X192500000Y-89500000D01*
%TO.N,/GPIO4*%
X78440000Y-127000000D02*
X94440000Y-111000000D01*
X94440000Y-111000000D02*
X94500000Y-111000000D01*
X109000000Y-111000000D02*
X126500000Y-111000000D01*
X126500000Y-111000000D02*
X175500000Y-111000000D01*
X175500000Y-111000000D02*
X187000000Y-111000000D01*
X187000000Y-111000000D02*
X187000000Y-111000000D01*
X94500000Y-111000000D02*
X109000000Y-111000000D01*
X101914275Y-133699990D02*
X87199990Y-133699990D01*
X103214285Y-135000000D02*
X101914275Y-133699990D01*
X84440000Y-133000000D02*
X78440000Y-127000000D01*
X86500000Y-133000000D02*
X84440000Y-133000000D01*
X87199990Y-133699990D02*
X86500000Y-133000000D01*
%TO.N,/GPIO2*%
X75900000Y-127000000D02*
X92900000Y-110000000D01*
X92900000Y-110000000D02*
X93000000Y-110000000D01*
X109000000Y-110000000D02*
X126500000Y-110000000D01*
X126500000Y-110000000D02*
X175500000Y-110000000D01*
X175500000Y-110000000D02*
X188000000Y-110000000D01*
X188000000Y-110000000D02*
X188000000Y-110000000D01*
X93000000Y-110000000D02*
X109000000Y-110000000D01*
X100714285Y-135000000D02*
X84500000Y-135000000D01*
X76500000Y-127000000D02*
X75900000Y-127000000D01*
X84500000Y-135000000D02*
X76500000Y-127000000D01*
%TO.N,/GPIO18*%
X88600000Y-127000000D02*
X100550000Y-115050000D01*
X100600000Y-115000000D02*
X109000000Y-115000000D01*
X109000000Y-115000000D02*
X126500000Y-115000000D01*
X126500000Y-115000000D02*
X175500000Y-115000000D01*
X175500000Y-115000000D02*
X183000000Y-115000000D01*
X183000000Y-115000000D02*
X183000000Y-115000000D01*
X100550000Y-115050000D02*
X100600000Y-115000000D01*
X127928570Y-135000000D02*
X124428570Y-131500000D01*
X93100000Y-131500000D02*
X88600000Y-127000000D01*
X124428570Y-131500000D02*
X93100000Y-131500000D01*
%TO.N,/GPIO5*%
X86060000Y-127000000D02*
X99030000Y-114030000D01*
X99060000Y-114000000D02*
X109000000Y-114000000D01*
X109000000Y-114000000D02*
X126500000Y-114000000D01*
X126500000Y-114000000D02*
X175500000Y-114000000D01*
X175500000Y-114000000D02*
X184000000Y-114000000D01*
X184000000Y-114000000D02*
X184000000Y-114000000D01*
X99030000Y-114030000D02*
X99060000Y-114000000D01*
X125428570Y-135000000D02*
X122428570Y-132000000D01*
X91060000Y-132000000D02*
X86060000Y-127000000D01*
X122428570Y-132000000D02*
X91060000Y-132000000D01*
%TO.N,/GPIO23*%
X103840000Y-127000000D02*
X109920000Y-120920000D01*
X110000000Y-120840000D02*
X177160000Y-120840000D01*
X177160000Y-120840000D02*
X177160000Y-120840000D01*
X177160000Y-120840000D02*
X177160000Y-120840000D01*
X109920000Y-120920000D02*
X110000000Y-120840000D01*
X177357140Y-135000000D02*
X171857140Y-129500000D01*
X106340000Y-129500000D02*
X103840000Y-127000000D01*
X171857140Y-129500000D02*
X106340000Y-129500000D01*
%TO.N,/GPIO22*%
X101300000Y-127000000D02*
X108150000Y-120150000D01*
X108300000Y-120000000D02*
X162000000Y-120000000D01*
X162000000Y-120000000D02*
X178000000Y-120000000D01*
X178000000Y-120000000D02*
X178000000Y-120000000D01*
X108150000Y-120150000D02*
X108300000Y-120000000D01*
X174857140Y-135000000D02*
X169857140Y-130000000D01*
X104300000Y-130000000D02*
X101300000Y-127000000D01*
X169857140Y-130000000D02*
X104300000Y-130000000D01*
%TO.N,/GPIO1*%
X98760000Y-127000000D02*
X106630000Y-119130000D01*
X106760000Y-119000000D02*
X109000000Y-119000000D01*
X109000000Y-119000000D02*
X179000000Y-119000000D01*
X179000000Y-119000000D02*
X179000000Y-119000000D01*
X106630000Y-119130000D02*
X106760000Y-119000000D01*
%TO.N,/GPIO3*%
X96220000Y-127000000D02*
X105110000Y-118110000D01*
X105220000Y-118000000D02*
X109000000Y-118000000D01*
X109000000Y-118000000D02*
X126500000Y-118000000D01*
X126500000Y-118000000D02*
X175500000Y-118000000D01*
X175500000Y-118000000D02*
X180000000Y-118000000D01*
X180000000Y-118000000D02*
X180000000Y-118000000D01*
X105110000Y-118110000D02*
X105220000Y-118000000D01*
%TO.N,/GPIO21*%
X93680000Y-127000000D02*
X103590000Y-117090000D01*
X103680000Y-117000000D02*
X109000000Y-117000000D01*
X109000000Y-117000000D02*
X126500000Y-117000000D01*
X126500000Y-117000000D02*
X175500000Y-117000000D01*
X175500000Y-117000000D02*
X181000000Y-117000000D01*
X181000000Y-117000000D02*
X181000000Y-117000000D01*
X103590000Y-117090000D02*
X103680000Y-117000000D01*
X152642855Y-135000000D02*
X148142855Y-130500000D01*
X97180000Y-130500000D02*
X93680000Y-127000000D01*
X148142855Y-130500000D02*
X97180000Y-130500000D01*
%TO.N,/GPIO19*%
X91140000Y-127000000D02*
X102070000Y-116070000D01*
X102140000Y-116000000D02*
X109000000Y-116000000D01*
X109000000Y-116000000D02*
X126500000Y-116000000D01*
X126500000Y-116000000D02*
X175500000Y-116000000D01*
X175500000Y-116000000D02*
X182000000Y-116000000D01*
X182000000Y-116000000D02*
X182000000Y-116000000D01*
X102070000Y-116070000D02*
X102140000Y-116000000D01*
X150142855Y-135000000D02*
X146142855Y-131000000D01*
X95140000Y-131000000D02*
X91140000Y-127000000D01*
X146142855Y-131000000D02*
X95140000Y-131000000D01*
%TO.N,/GPIO17*%
X83520000Y-127000000D02*
X97510000Y-113010000D01*
X97520000Y-113000000D02*
X109000000Y-113000000D01*
X109000000Y-113000000D02*
X126500000Y-113000000D01*
X126500000Y-113000000D02*
X175500000Y-113000000D01*
X175500000Y-113000000D02*
X185000000Y-113000000D01*
X185000000Y-113000000D02*
X185000000Y-113000000D01*
X97510000Y-113010000D02*
X97520000Y-113000000D01*
%TO.N,/GPIO16*%
X80980000Y-127000000D02*
X95980000Y-112000000D01*
X95980000Y-112000000D02*
X96000000Y-112000000D01*
X109000000Y-112000000D02*
X126500000Y-112000000D01*
X126500000Y-112000000D02*
X175500000Y-112000000D01*
X175500000Y-112000000D02*
X186000000Y-112000000D01*
X186000000Y-112000000D02*
X186000000Y-112000000D01*
X96000000Y-112000000D02*
X109000000Y-112000000D01*
%TO.N,/GPIO15*%
X189000000Y-109000000D02*
X189000000Y-109000000D01*
X73360000Y-127000000D02*
X91360000Y-109000000D01*
X91360000Y-109000000D02*
X91500000Y-109000000D01*
X109000000Y-109000000D02*
X126500000Y-109000000D01*
X126500000Y-109000000D02*
X175500000Y-109000000D01*
X175500000Y-109000000D02*
X189000000Y-109000000D01*
X91500000Y-109000000D02*
X109000000Y-109000000D01*
D17*
%TO.N,/12V*%
X124500000Y-94000000D02*
X131500000Y-87000000D01*
X78000000Y-94000000D02*
X124500000Y-94000000D01*
X75700000Y-94000000D02*
X75200000Y-94500000D01*
X78000000Y-94000000D02*
X75700000Y-94000000D01*
X73000000Y-94500000D02*
X69500000Y-98000000D01*
X75200000Y-94500000D02*
X73000000Y-94500000D01*
X69500000Y-98000000D02*
X69500000Y-100000000D01*
X69500000Y-100000000D02*
X69500000Y-100000000D01*
X78500000Y-136975000D02*
X80525000Y-139000000D01*
X78500000Y-135000000D02*
X78500000Y-136975000D01*
X251500000Y-136975000D02*
X251500000Y-135000000D01*
X249475000Y-139000000D02*
X251500000Y-136975000D01*
X80525000Y-139000000D02*
X249475000Y-139000000D01*
%TD*%
D18*
%TO.N,/GND*%
X65676323Y-128846447D02*
X65781715Y-129043624D01*
X65923550Y-129216450D01*
X65966864Y-129251997D01*
X70802997Y-134088131D01*
X70838539Y-134131439D01*
X71011365Y-134273274D01*
X71183022Y-134365026D01*
X71208541Y-134378666D01*
X71422489Y-134443567D01*
X71644987Y-134465481D01*
X71700739Y-134459990D01*
X74513867Y-134459990D01*
X74515000Y-134714250D01*
X74673750Y-134873000D01*
X75873000Y-134873000D01*
X75873000Y-134853000D01*
X76127000Y-134853000D01*
X76127000Y-134873000D01*
X76147000Y-134873000D01*
X76147000Y-135127000D01*
X76127000Y-135127000D01*
X76127000Y-136451250D01*
X76285750Y-136610000D01*
X76850000Y-136613072D01*
X76974482Y-136600812D01*
X77094180Y-136564502D01*
X77204494Y-136505537D01*
X77301185Y-136426185D01*
X77365001Y-136348425D01*
X77365001Y-136919239D01*
X77359509Y-136975000D01*
X77381423Y-137197498D01*
X77446324Y-137411446D01*
X77492637Y-137498092D01*
X77551717Y-137608623D01*
X77693552Y-137781449D01*
X77736860Y-137816991D01*
X79259868Y-139340000D01*
X65660000Y-139340000D01*
X65660000Y-136279872D01*
X66265000Y-136279872D01*
X66265000Y-136720128D01*
X66350890Y-137151925D01*
X66519369Y-137558669D01*
X66763962Y-137924729D01*
X67075271Y-138236038D01*
X67441331Y-138480631D01*
X67848075Y-138649110D01*
X68279872Y-138735000D01*
X68720128Y-138735000D01*
X69151925Y-138649110D01*
X69558669Y-138480631D01*
X69924729Y-138236038D01*
X70236038Y-137924729D01*
X70480631Y-137558669D01*
X70649110Y-137151925D01*
X70735000Y-136720128D01*
X70735000Y-136279872D01*
X70674358Y-135975000D01*
X74511928Y-135975000D01*
X74524188Y-136099482D01*
X74560498Y-136219180D01*
X74619463Y-136329494D01*
X74698815Y-136426185D01*
X74795506Y-136505537D01*
X74905820Y-136564502D01*
X75025518Y-136600812D01*
X75150000Y-136613072D01*
X75714250Y-136610000D01*
X75873000Y-136451250D01*
X75873000Y-135127000D01*
X74673750Y-135127000D01*
X74515000Y-135285750D01*
X74511928Y-135975000D01*
X70674358Y-135975000D01*
X70649110Y-135848075D01*
X70480631Y-135441331D01*
X70236038Y-135075271D01*
X69924729Y-134763962D01*
X69558669Y-134519369D01*
X69151925Y-134350890D01*
X68720128Y-134265000D01*
X68279872Y-134265000D01*
X67848075Y-134350890D01*
X67441331Y-134519369D01*
X67075271Y-134763962D01*
X66763962Y-135075271D01*
X66519369Y-135441331D01*
X66350890Y-135848075D01*
X66265000Y-136279872D01*
X65660000Y-136279872D01*
X65660000Y-128792638D01*
X65676323Y-128846447D01*
%TA.AperFunction,Conductor*%
D19*
G36*
X65676323Y-128846447D02*
G01*
X65781715Y-129043624D01*
X65923550Y-129216450D01*
X65966864Y-129251997D01*
X70802997Y-134088131D01*
X70838539Y-134131439D01*
X71011365Y-134273274D01*
X71183022Y-134365026D01*
X71208541Y-134378666D01*
X71422489Y-134443567D01*
X71644987Y-134465481D01*
X71700739Y-134459990D01*
X74513867Y-134459990D01*
X74515000Y-134714250D01*
X74673750Y-134873000D01*
X75873000Y-134873000D01*
X75873000Y-134853000D01*
X76127000Y-134853000D01*
X76127000Y-134873000D01*
X76147000Y-134873000D01*
X76147000Y-135127000D01*
X76127000Y-135127000D01*
X76127000Y-136451250D01*
X76285750Y-136610000D01*
X76850000Y-136613072D01*
X76974482Y-136600812D01*
X77094180Y-136564502D01*
X77204494Y-136505537D01*
X77301185Y-136426185D01*
X77365001Y-136348425D01*
X77365001Y-136919239D01*
X77359509Y-136975000D01*
X77381423Y-137197498D01*
X77446324Y-137411446D01*
X77492637Y-137498092D01*
X77551717Y-137608623D01*
X77693552Y-137781449D01*
X77736860Y-137816991D01*
X79259868Y-139340000D01*
X65660000Y-139340000D01*
X65660000Y-136279872D01*
X66265000Y-136279872D01*
X66265000Y-136720128D01*
X66350890Y-137151925D01*
X66519369Y-137558669D01*
X66763962Y-137924729D01*
X67075271Y-138236038D01*
X67441331Y-138480631D01*
X67848075Y-138649110D01*
X68279872Y-138735000D01*
X68720128Y-138735000D01*
X69151925Y-138649110D01*
X69558669Y-138480631D01*
X69924729Y-138236038D01*
X70236038Y-137924729D01*
X70480631Y-137558669D01*
X70649110Y-137151925D01*
X70735000Y-136720128D01*
X70735000Y-136279872D01*
X70674358Y-135975000D01*
X74511928Y-135975000D01*
X74524188Y-136099482D01*
X74560498Y-136219180D01*
X74619463Y-136329494D01*
X74698815Y-136426185D01*
X74795506Y-136505537D01*
X74905820Y-136564502D01*
X75025518Y-136600812D01*
X75150000Y-136613072D01*
X75714250Y-136610000D01*
X75873000Y-136451250D01*
X75873000Y-135127000D01*
X74673750Y-135127000D01*
X74515000Y-135285750D01*
X74511928Y-135975000D01*
X70674358Y-135975000D01*
X70649110Y-135848075D01*
X70480631Y-135441331D01*
X70236038Y-135075271D01*
X69924729Y-134763962D01*
X69558669Y-134519369D01*
X69151925Y-134350890D01*
X68720128Y-134265000D01*
X68279872Y-134265000D01*
X67848075Y-134350890D01*
X67441331Y-134519369D01*
X67075271Y-134763962D01*
X66763962Y-135075271D01*
X66519369Y-135441331D01*
X66350890Y-135848075D01*
X66265000Y-136279872D01*
X65660000Y-136279872D01*
X65660000Y-128792638D01*
X65676323Y-128846447D01*
G37*
%TD.AperFunction*%
D18*
X264340001Y-139340000D02*
X250740131Y-139340000D01*
X252263141Y-137816991D01*
X252306449Y-137781449D01*
X252448284Y-137608623D01*
X252553676Y-137411447D01*
X252618577Y-137197499D01*
X252635000Y-137030752D01*
X252635000Y-137030743D01*
X252640490Y-136975001D01*
X252635000Y-136919259D01*
X252635000Y-136082817D01*
X252740706Y-135954014D01*
X252750000Y-135936626D01*
X252759294Y-135954014D01*
X252944866Y-136180134D01*
X253170987Y-136365706D01*
X253428967Y-136503599D01*
X253708890Y-136588513D01*
X254000000Y-136617185D01*
X254291111Y-136588513D01*
X254571034Y-136503599D01*
X254829014Y-136365706D01*
X254933602Y-136279872D01*
X259265000Y-136279872D01*
X259265000Y-136720128D01*
X259350890Y-137151925D01*
X259519369Y-137558669D01*
X259763962Y-137924729D01*
X260075271Y-138236038D01*
X260441331Y-138480631D01*
X260848075Y-138649110D01*
X261279872Y-138735000D01*
X261720128Y-138735000D01*
X262151925Y-138649110D01*
X262558669Y-138480631D01*
X262924729Y-138236038D01*
X263236038Y-137924729D01*
X263480631Y-137558669D01*
X263649110Y-137151925D01*
X263735000Y-136720128D01*
X263735000Y-136279872D01*
X263649110Y-135848075D01*
X263480631Y-135441331D01*
X263236038Y-135075271D01*
X262924729Y-134763962D01*
X262558669Y-134519369D01*
X262151925Y-134350890D01*
X261720128Y-134265000D01*
X261279872Y-134265000D01*
X260848075Y-134350890D01*
X260441331Y-134519369D01*
X260075271Y-134763962D01*
X259763962Y-135075271D01*
X259519369Y-135441331D01*
X259350890Y-135848075D01*
X259265000Y-136279872D01*
X254933602Y-136279872D01*
X255055134Y-136180134D01*
X255240706Y-135954014D01*
X255378599Y-135696033D01*
X255463513Y-135416110D01*
X255485000Y-135197949D01*
X255485000Y-134802050D01*
X255463513Y-134583889D01*
X255378599Y-134303966D01*
X255240706Y-134045986D01*
X255135000Y-133917183D01*
X255135000Y-130970131D01*
X261763142Y-124341990D01*
X261806450Y-124306448D01*
X261948285Y-124133622D01*
X262053677Y-123936446D01*
X262118578Y-123722498D01*
X262135001Y-123555751D01*
X262135001Y-123555742D01*
X262140491Y-123500000D01*
X262135001Y-123444258D01*
X262135001Y-107055753D01*
X262140492Y-107000001D01*
X262118578Y-106777502D01*
X262053677Y-106563554D01*
X261948285Y-106366378D01*
X261841990Y-106236857D01*
X261841988Y-106236855D01*
X261806450Y-106193552D01*
X261763147Y-106158014D01*
X260938072Y-105332940D01*
X260938072Y-103700000D01*
X260925812Y-103575518D01*
X260889502Y-103455820D01*
X260830537Y-103345506D01*
X260751185Y-103248815D01*
X260654494Y-103169463D01*
X260544180Y-103110498D01*
X260424482Y-103074188D01*
X260300000Y-103061928D01*
X257700000Y-103061928D01*
X257575518Y-103074188D01*
X257455820Y-103110498D01*
X257345506Y-103169463D01*
X257248815Y-103248815D01*
X257169463Y-103345506D01*
X257110498Y-103455820D01*
X257074188Y-103575518D01*
X257061928Y-103700000D01*
X257061928Y-106300000D01*
X257074188Y-106424482D01*
X257110498Y-106544180D01*
X257169463Y-106654494D01*
X257248815Y-106751185D01*
X257345506Y-106830537D01*
X257455820Y-106889502D01*
X257575518Y-106925812D01*
X257700000Y-106938072D01*
X259332940Y-106938072D01*
X259865002Y-107470135D01*
X259865002Y-108269103D01*
X259696955Y-108184841D01*
X259329443Y-108083750D01*
X258949271Y-108056299D01*
X258571049Y-108103543D01*
X258209310Y-108223667D01*
X257962317Y-108355688D01*
X257830381Y-108650776D01*
X259000000Y-109820395D01*
X259014143Y-109806253D01*
X259193748Y-109985858D01*
X259179605Y-110000000D01*
X259193748Y-110014143D01*
X259014143Y-110193748D01*
X259000000Y-110179605D01*
X257830381Y-111349224D01*
X257962317Y-111644312D01*
X258303045Y-111815159D01*
X258670557Y-111916250D01*
X259050729Y-111943701D01*
X259428951Y-111896457D01*
X259790690Y-111776333D01*
X259865002Y-111736612D01*
X259865002Y-113263866D01*
X259564419Y-113139361D01*
X259190581Y-113065000D01*
X258809419Y-113065000D01*
X258435581Y-113139361D01*
X258083434Y-113285225D01*
X257766509Y-113496987D01*
X257496987Y-113766509D01*
X257285225Y-114083434D01*
X257139361Y-114435581D01*
X257065000Y-114809419D01*
X257065000Y-115190581D01*
X257139361Y-115564419D01*
X257285225Y-115916566D01*
X257496987Y-116233491D01*
X257766509Y-116503013D01*
X258083434Y-116714775D01*
X258435581Y-116860639D01*
X258809419Y-116935000D01*
X259190581Y-116935000D01*
X259564419Y-116860639D01*
X259865001Y-116736134D01*
X259865001Y-123029867D01*
X253236860Y-129658009D01*
X253193552Y-129693551D01*
X253051717Y-129866377D01*
X253020770Y-129924276D01*
X252946324Y-130063554D01*
X252881423Y-130277502D01*
X252859509Y-130500000D01*
X252865001Y-130555761D01*
X252865000Y-133917183D01*
X252759294Y-134045987D01*
X252750000Y-134063374D01*
X252740706Y-134045986D01*
X252555134Y-133819866D01*
X252329013Y-133634294D01*
X252071033Y-133496401D01*
X251791110Y-133411487D01*
X251500000Y-133382815D01*
X251208889Y-133411487D01*
X250928966Y-133496401D01*
X250670986Y-133634294D01*
X250450055Y-133815608D01*
X250439502Y-133780820D01*
X250380537Y-133670506D01*
X250301185Y-133573815D01*
X250204494Y-133494463D01*
X250094180Y-133435498D01*
X249974482Y-133399188D01*
X249850000Y-133386928D01*
X249285750Y-133390000D01*
X249127000Y-133548750D01*
X249127000Y-134873000D01*
X249147000Y-134873000D01*
X249147000Y-135127000D01*
X249127000Y-135127000D01*
X249127000Y-136451250D01*
X249285750Y-136610000D01*
X249850000Y-136613072D01*
X249974482Y-136600812D01*
X250094180Y-136564502D01*
X250204494Y-136505537D01*
X250301185Y-136426185D01*
X250365000Y-136348426D01*
X250365000Y-136504868D01*
X249004869Y-137865000D01*
X244834098Y-137865000D01*
X244840501Y-137799990D01*
X244818587Y-137577491D01*
X244753686Y-137363543D01*
X244648294Y-137166367D01*
X244506459Y-136993541D01*
X244333633Y-136851706D01*
X244136457Y-136746314D01*
X243922509Y-136681413D01*
X243755762Y-136664990D01*
X228695521Y-136664990D01*
X228823808Y-136536704D01*
X228994600Y-136588513D01*
X229285710Y-136617185D01*
X229576821Y-136588513D01*
X229856744Y-136503599D01*
X230114724Y-136365706D01*
X230340844Y-136180134D01*
X230509193Y-135975000D01*
X247511928Y-135975000D01*
X247524188Y-136099482D01*
X247560498Y-136219180D01*
X247619463Y-136329494D01*
X247698815Y-136426185D01*
X247795506Y-136505537D01*
X247905820Y-136564502D01*
X248025518Y-136600812D01*
X248150000Y-136613072D01*
X248714250Y-136610000D01*
X248873000Y-136451250D01*
X248873000Y-135127000D01*
X247673750Y-135127000D01*
X247515000Y-135285750D01*
X247511928Y-135975000D01*
X230509193Y-135975000D01*
X230526416Y-135954014D01*
X230664309Y-135696033D01*
X230749223Y-135416110D01*
X230770710Y-135197949D01*
X230770710Y-134802050D01*
X230749223Y-134583889D01*
X230664309Y-134303966D01*
X230526416Y-134045986D01*
X230509194Y-134025000D01*
X247511928Y-134025000D01*
X247515000Y-134714250D01*
X247673750Y-134873000D01*
X248873000Y-134873000D01*
X248873000Y-133548750D01*
X248714250Y-133390000D01*
X248150000Y-133386928D01*
X248025518Y-133399188D01*
X247905820Y-133435498D01*
X247795506Y-133494463D01*
X247698815Y-133573815D01*
X247619463Y-133670506D01*
X247560498Y-133780820D01*
X247524188Y-133900518D01*
X247511928Y-134025000D01*
X230509194Y-134025000D01*
X230340844Y-133819866D01*
X230114723Y-133634294D01*
X229856743Y-133496401D01*
X229576820Y-133411487D01*
X229285710Y-133382815D01*
X228994599Y-133411487D01*
X228714676Y-133496401D01*
X228456696Y-133634294D01*
X228230576Y-133819866D01*
X228045004Y-134045987D01*
X228035710Y-134063374D01*
X228026416Y-134045986D01*
X227840844Y-133819866D01*
X227614723Y-133634294D01*
X227356743Y-133496401D01*
X227076820Y-133411487D01*
X226785710Y-133382815D01*
X226494599Y-133411487D01*
X226323809Y-133463296D01*
X202911241Y-110050729D01*
X257056299Y-110050729D01*
X257103543Y-110428951D01*
X257223667Y-110790690D01*
X257355688Y-111037683D01*
X257650776Y-111169619D01*
X258820395Y-110000000D01*
X257650776Y-108830381D01*
X257355688Y-108962317D01*
X257184841Y-109303045D01*
X257083750Y-109670557D01*
X257056299Y-110050729D01*
X202911241Y-110050729D01*
X196349514Y-103489003D01*
X196325711Y-103459999D01*
X196209986Y-103365026D01*
X196077957Y-103294454D01*
X195934696Y-103250997D01*
X195823043Y-103240000D01*
X195823032Y-103240000D01*
X195785710Y-103236324D01*
X195748388Y-103240000D01*
X152203711Y-103240000D01*
X152159774Y-103196063D01*
X151990256Y-103082795D01*
X151801898Y-103004774D01*
X151601939Y-102965000D01*
X151398061Y-102965000D01*
X151198102Y-103004774D01*
X151009744Y-103082795D01*
X150840226Y-103196063D01*
X150696063Y-103340226D01*
X150582795Y-103509744D01*
X150504774Y-103698102D01*
X150465000Y-103898061D01*
X150465000Y-104101939D01*
X150504774Y-104301898D01*
X150582795Y-104490256D01*
X150696063Y-104659774D01*
X150840226Y-104803937D01*
X151009744Y-104917205D01*
X151198102Y-104995226D01*
X151398061Y-105035000D01*
X151601939Y-105035000D01*
X151801898Y-104995226D01*
X151990256Y-104917205D01*
X152159774Y-104803937D01*
X152203711Y-104760000D01*
X155492462Y-104760000D01*
X155465000Y-104898061D01*
X155465000Y-105101939D01*
X155504774Y-105301898D01*
X155582795Y-105490256D01*
X155696063Y-105659774D01*
X155840226Y-105803937D01*
X156009744Y-105917205D01*
X156198102Y-105995226D01*
X156398061Y-106035000D01*
X156601939Y-106035000D01*
X156801898Y-105995226D01*
X156990256Y-105917205D01*
X157159774Y-105803937D01*
X157203711Y-105760000D01*
X169776289Y-105760000D01*
X169696063Y-105840226D01*
X169582795Y-106009744D01*
X169504774Y-106198102D01*
X169465000Y-106398061D01*
X169465000Y-106601939D01*
X169504774Y-106801898D01*
X169582795Y-106990256D01*
X169696063Y-107159774D01*
X169840226Y-107303937D01*
X170009744Y-107417205D01*
X170198102Y-107495226D01*
X170398061Y-107535000D01*
X170601939Y-107535000D01*
X170801898Y-107495226D01*
X170990256Y-107417205D01*
X171159774Y-107303937D01*
X171203711Y-107260000D01*
X171276289Y-107260000D01*
X171196063Y-107340226D01*
X171082795Y-107509744D01*
X171004774Y-107698102D01*
X170965000Y-107898061D01*
X170965000Y-108101939D01*
X170992462Y-108240000D01*
X92203711Y-108240000D01*
X92159774Y-108196063D01*
X91990256Y-108082795D01*
X91801898Y-108004774D01*
X91601939Y-107965000D01*
X91398061Y-107965000D01*
X91198102Y-108004774D01*
X91009744Y-108082795D01*
X90840226Y-108196063D01*
X90696063Y-108340226D01*
X90582795Y-108509744D01*
X90504774Y-108698102D01*
X90484333Y-108800865D01*
X73726408Y-125558791D01*
X73506260Y-125515000D01*
X73213740Y-125515000D01*
X72926842Y-125572068D01*
X72656589Y-125684010D01*
X72413368Y-125846525D01*
X72206525Y-126053368D01*
X72084805Y-126235534D01*
X72015178Y-126118645D01*
X71820269Y-125902412D01*
X71586920Y-125728359D01*
X71324099Y-125603175D01*
X71176890Y-125558524D01*
X70947000Y-125679845D01*
X70947000Y-126873000D01*
X70967000Y-126873000D01*
X70967000Y-127127000D01*
X70947000Y-127127000D01*
X70947000Y-128320155D01*
X71176890Y-128441476D01*
X71324099Y-128396825D01*
X71586920Y-128271641D01*
X71820269Y-128097588D01*
X72015178Y-127881355D01*
X72084805Y-127764466D01*
X72206525Y-127946632D01*
X72413368Y-128153475D01*
X72656589Y-128315990D01*
X72926842Y-128427932D01*
X73213740Y-128485000D01*
X73506260Y-128485000D01*
X73793158Y-128427932D01*
X74063411Y-128315990D01*
X74306632Y-128153475D01*
X74513475Y-127946632D01*
X74630000Y-127772240D01*
X74746525Y-127946632D01*
X74953368Y-128153475D01*
X75196589Y-128315990D01*
X75466842Y-128427932D01*
X75753740Y-128485000D01*
X76046260Y-128485000D01*
X76333158Y-128427932D01*
X76603411Y-128315990D01*
X76686003Y-128260804D01*
X83936205Y-135511008D01*
X83959999Y-135540001D01*
X83988992Y-135563795D01*
X83988996Y-135563799D01*
X84059685Y-135621811D01*
X84075724Y-135634974D01*
X84207753Y-135705546D01*
X84351014Y-135749003D01*
X84462667Y-135760000D01*
X84462676Y-135760000D01*
X84499999Y-135763676D01*
X84537322Y-135760000D01*
X99229660Y-135760000D01*
X99243277Y-135898254D01*
X99293813Y-136064850D01*
X99375880Y-136218386D01*
X99486323Y-136352962D01*
X99620899Y-136463405D01*
X99774435Y-136545472D01*
X99941031Y-136596008D01*
X100114285Y-136613072D01*
X101314285Y-136613072D01*
X101487539Y-136596008D01*
X101654135Y-136545472D01*
X101807671Y-136463405D01*
X101942247Y-136352962D01*
X102052690Y-136218386D01*
X102107062Y-136116663D01*
X102159151Y-136180134D01*
X102385272Y-136365706D01*
X102643252Y-136503599D01*
X102923175Y-136588513D01*
X103214285Y-136617185D01*
X103505396Y-136588513D01*
X103785319Y-136503599D01*
X104043299Y-136365706D01*
X104269419Y-136180134D01*
X104454991Y-135954014D01*
X104464285Y-135936626D01*
X104473579Y-135954014D01*
X104659151Y-136180134D01*
X104885272Y-136365706D01*
X104977769Y-136415146D01*
X105008739Y-136517246D01*
X105079311Y-136649276D01*
X105092207Y-136664990D01*
X84270122Y-136664990D01*
X82485000Y-134879869D01*
X82485000Y-134802050D01*
X82463513Y-134583889D01*
X82378599Y-134303966D01*
X82240706Y-134045986D01*
X82055134Y-133819866D01*
X81829013Y-133634294D01*
X81571033Y-133496401D01*
X81291110Y-133411487D01*
X81000000Y-133382815D01*
X80989027Y-133383896D01*
X80166986Y-132561855D01*
X80131439Y-132518541D01*
X79958613Y-132376706D01*
X79761437Y-132271314D01*
X79547489Y-132206413D01*
X79380742Y-132189990D01*
X79380741Y-132189990D01*
X79324990Y-132184499D01*
X79269239Y-132189990D01*
X72115120Y-132189990D01*
X68413201Y-128488072D01*
X69130000Y-128488072D01*
X69254482Y-128475812D01*
X69374180Y-128439502D01*
X69484494Y-128380537D01*
X69581185Y-128301185D01*
X69660537Y-128204494D01*
X69719502Y-128094180D01*
X69743966Y-128013534D01*
X69819731Y-128097588D01*
X70053080Y-128271641D01*
X70315901Y-128396825D01*
X70463110Y-128441476D01*
X70693000Y-128320155D01*
X70693000Y-127127000D01*
X70673000Y-127127000D01*
X70673000Y-126873000D01*
X70693000Y-126873000D01*
X70693000Y-125679845D01*
X70463110Y-125558524D01*
X70315901Y-125603175D01*
X70053080Y-125728359D01*
X69819731Y-125902412D01*
X69743966Y-125986466D01*
X69719502Y-125905820D01*
X69660537Y-125795506D01*
X69581185Y-125698815D01*
X69484494Y-125619463D01*
X69374180Y-125560498D01*
X69254482Y-125524188D01*
X69130000Y-125511928D01*
X67864999Y-125511928D01*
X67864999Y-104010132D01*
X68390132Y-103485000D01*
X68416260Y-103485000D01*
X68703158Y-103427932D01*
X68973411Y-103315990D01*
X69216632Y-103153475D01*
X69423475Y-102946632D01*
X69545195Y-102764466D01*
X69614822Y-102881355D01*
X69809731Y-103097588D01*
X70043080Y-103271641D01*
X70305901Y-103396825D01*
X70453110Y-103441476D01*
X70683000Y-103320155D01*
X70683000Y-102127000D01*
X70663000Y-102127000D01*
X70663000Y-101873000D01*
X70683000Y-101873000D01*
X70683000Y-100679845D01*
X70480655Y-100573061D01*
X70553676Y-100436447D01*
X70618577Y-100222499D01*
X70640491Y-100000000D01*
X70635000Y-99944248D01*
X70635000Y-98470131D01*
X73470132Y-95635000D01*
X75144249Y-95635000D01*
X75200000Y-95640491D01*
X75255751Y-95635000D01*
X75255752Y-95635000D01*
X75422499Y-95618577D01*
X75636447Y-95553676D01*
X75833623Y-95448284D01*
X76006449Y-95306449D01*
X76041996Y-95263135D01*
X76061928Y-95243203D01*
X76061928Y-95300000D01*
X76074188Y-95424482D01*
X76110498Y-95544180D01*
X76169463Y-95654494D01*
X76248815Y-95751185D01*
X76345506Y-95830537D01*
X76455820Y-95889502D01*
X76575518Y-95925812D01*
X76700000Y-95938072D01*
X78337126Y-95938072D01*
X73716408Y-100558791D01*
X73496260Y-100515000D01*
X73203740Y-100515000D01*
X72916842Y-100572068D01*
X72646589Y-100684010D01*
X72403368Y-100846525D01*
X72196525Y-101053368D01*
X72074805Y-101235534D01*
X72005178Y-101118645D01*
X71810269Y-100902412D01*
X71576920Y-100728359D01*
X71314099Y-100603175D01*
X71166890Y-100558524D01*
X70937000Y-100679845D01*
X70937000Y-101873000D01*
X70957000Y-101873000D01*
X70957000Y-102127000D01*
X70937000Y-102127000D01*
X70937000Y-103320155D01*
X71166890Y-103441476D01*
X71314099Y-103396825D01*
X71576920Y-103271641D01*
X71810269Y-103097588D01*
X72005178Y-102881355D01*
X72074805Y-102764466D01*
X72196525Y-102946632D01*
X72403368Y-103153475D01*
X72646589Y-103315990D01*
X72916842Y-103427932D01*
X73203740Y-103485000D01*
X73496260Y-103485000D01*
X73783158Y-103427932D01*
X74053411Y-103315990D01*
X74296632Y-103153475D01*
X74503475Y-102946632D01*
X74620000Y-102772240D01*
X74736525Y-102946632D01*
X74943368Y-103153475D01*
X75186589Y-103315990D01*
X75456842Y-103427932D01*
X75743740Y-103485000D01*
X76036260Y-103485000D01*
X76323158Y-103427932D01*
X76593411Y-103315990D01*
X76836632Y-103153475D01*
X77043475Y-102946632D01*
X77160000Y-102772240D01*
X77276525Y-102946632D01*
X77483368Y-103153475D01*
X77726589Y-103315990D01*
X77996842Y-103427932D01*
X78283740Y-103485000D01*
X78576260Y-103485000D01*
X78863158Y-103427932D01*
X79133411Y-103315990D01*
X79376632Y-103153475D01*
X79583475Y-102946632D01*
X79700000Y-102772240D01*
X79816525Y-102946632D01*
X80023368Y-103153475D01*
X80266589Y-103315990D01*
X80536842Y-103427932D01*
X80823740Y-103485000D01*
X81116260Y-103485000D01*
X81403158Y-103427932D01*
X81673411Y-103315990D01*
X81916632Y-103153475D01*
X82123475Y-102946632D01*
X82240000Y-102772240D01*
X82356525Y-102946632D01*
X82563368Y-103153475D01*
X82806589Y-103315990D01*
X83076842Y-103427932D01*
X83363740Y-103485000D01*
X83656260Y-103485000D01*
X83943158Y-103427932D01*
X84213411Y-103315990D01*
X84456632Y-103153475D01*
X84663475Y-102946632D01*
X84780000Y-102772240D01*
X84896525Y-102946632D01*
X85103368Y-103153475D01*
X85346589Y-103315990D01*
X85616842Y-103427932D01*
X85903740Y-103485000D01*
X86196260Y-103485000D01*
X86483158Y-103427932D01*
X86753411Y-103315990D01*
X86996632Y-103153475D01*
X87203475Y-102946632D01*
X87320000Y-102772240D01*
X87436525Y-102946632D01*
X87643368Y-103153475D01*
X87886589Y-103315990D01*
X88156842Y-103427932D01*
X88443740Y-103485000D01*
X88736260Y-103485000D01*
X89023158Y-103427932D01*
X89293411Y-103315990D01*
X89536632Y-103153475D01*
X89743475Y-102946632D01*
X89860000Y-102772240D01*
X89976525Y-102946632D01*
X90183368Y-103153475D01*
X90426589Y-103315990D01*
X90696842Y-103427932D01*
X90983740Y-103485000D01*
X91276260Y-103485000D01*
X91563158Y-103427932D01*
X91833411Y-103315990D01*
X92076632Y-103153475D01*
X92283475Y-102946632D01*
X92400000Y-102772240D01*
X92516525Y-102946632D01*
X92723368Y-103153475D01*
X92966589Y-103315990D01*
X93236842Y-103427932D01*
X93523740Y-103485000D01*
X93816260Y-103485000D01*
X94103158Y-103427932D01*
X94373411Y-103315990D01*
X94616632Y-103153475D01*
X94823475Y-102946632D01*
X94940000Y-102772240D01*
X95056525Y-102946632D01*
X95263368Y-103153475D01*
X95506589Y-103315990D01*
X95776842Y-103427932D01*
X96063740Y-103485000D01*
X96356260Y-103485000D01*
X96643158Y-103427932D01*
X96913411Y-103315990D01*
X97156632Y-103153475D01*
X97363475Y-102946632D01*
X97480000Y-102772240D01*
X97596525Y-102946632D01*
X97803368Y-103153475D01*
X98046589Y-103315990D01*
X98316842Y-103427932D01*
X98603740Y-103485000D01*
X98896260Y-103485000D01*
X99183158Y-103427932D01*
X99453411Y-103315990D01*
X99696632Y-103153475D01*
X99903475Y-102946632D01*
X100020000Y-102772240D01*
X100136525Y-102946632D01*
X100343368Y-103153475D01*
X100586589Y-103315990D01*
X100856842Y-103427932D01*
X101143740Y-103485000D01*
X101436260Y-103485000D01*
X101723158Y-103427932D01*
X101993411Y-103315990D01*
X102236632Y-103153475D01*
X102368487Y-103021620D01*
X102390498Y-103094180D01*
X102449463Y-103204494D01*
X102528815Y-103301185D01*
X102625506Y-103380537D01*
X102735820Y-103439502D01*
X102855518Y-103475812D01*
X102980000Y-103488072D01*
X104680000Y-103488072D01*
X104804482Y-103475812D01*
X104924180Y-103439502D01*
X105034494Y-103380537D01*
X105131185Y-103301185D01*
X105210537Y-103204494D01*
X105269502Y-103094180D01*
X105305812Y-102974482D01*
X105318072Y-102850000D01*
X105318072Y-101584999D01*
X181137679Y-101584999D01*
X181175001Y-101588675D01*
X181212323Y-101584999D01*
X181212334Y-101584999D01*
X181323987Y-101574002D01*
X181467248Y-101530545D01*
X181599277Y-101459973D01*
X181715002Y-101365000D01*
X181738805Y-101335996D01*
X186539802Y-96535000D01*
X186601939Y-96535000D01*
X186801898Y-96495226D01*
X186990256Y-96417205D01*
X187159774Y-96303937D01*
X187303937Y-96159774D01*
X187417205Y-95990256D01*
X187495226Y-95801898D01*
X187535000Y-95601939D01*
X187535000Y-95539801D01*
X191636731Y-91438072D01*
X193800000Y-91438072D01*
X193924482Y-91425812D01*
X194044180Y-91389502D01*
X194154494Y-91330537D01*
X194251185Y-91251185D01*
X194330537Y-91154494D01*
X194389502Y-91044180D01*
X194425812Y-90924482D01*
X194438072Y-90800000D01*
X194438072Y-89309419D01*
X195565000Y-89309419D01*
X195565000Y-89690581D01*
X195639361Y-90064419D01*
X195785225Y-90416566D01*
X195996987Y-90733491D01*
X196266509Y-91003013D01*
X196583434Y-91214775D01*
X196935581Y-91360639D01*
X197309419Y-91435000D01*
X197690581Y-91435000D01*
X198064419Y-91360639D01*
X198416566Y-91214775D01*
X198733491Y-91003013D01*
X199003013Y-90733491D01*
X199214775Y-90416566D01*
X199360639Y-90064419D01*
X199435000Y-89690581D01*
X199435000Y-89309419D01*
X200565000Y-89309419D01*
X200565000Y-89690581D01*
X200639361Y-90064419D01*
X200785225Y-90416566D01*
X200996987Y-90733491D01*
X201266509Y-91003013D01*
X201583434Y-91214775D01*
X201935581Y-91360639D01*
X202309419Y-91435000D01*
X202690581Y-91435000D01*
X203064419Y-91360639D01*
X203416566Y-91214775D01*
X203733491Y-91003013D01*
X204003013Y-90733491D01*
X204214775Y-90416566D01*
X204360639Y-90064419D01*
X204435000Y-89690581D01*
X204435000Y-89309419D01*
X204360639Y-88935581D01*
X204214775Y-88583434D01*
X204003013Y-88266509D01*
X203936504Y-88200000D01*
X205561928Y-88200000D01*
X205561928Y-90800000D01*
X205574188Y-90924482D01*
X205610498Y-91044180D01*
X205669463Y-91154494D01*
X205748815Y-91251185D01*
X205845506Y-91330537D01*
X205955820Y-91389502D01*
X206075518Y-91425812D01*
X206200000Y-91438072D01*
X208800000Y-91438072D01*
X208924482Y-91425812D01*
X209044180Y-91389502D01*
X209154494Y-91330537D01*
X209251185Y-91251185D01*
X209330537Y-91154494D01*
X209389502Y-91044180D01*
X209425812Y-90924482D01*
X209438072Y-90800000D01*
X209438072Y-89309419D01*
X210565000Y-89309419D01*
X210565000Y-89690581D01*
X210639361Y-90064419D01*
X210785225Y-90416566D01*
X210996987Y-90733491D01*
X211266509Y-91003013D01*
X211583434Y-91214775D01*
X211935581Y-91360639D01*
X212309419Y-91435000D01*
X212690581Y-91435000D01*
X213064419Y-91360639D01*
X213416566Y-91214775D01*
X213733491Y-91003013D01*
X214003013Y-90733491D01*
X214214775Y-90416566D01*
X214360639Y-90064419D01*
X214435000Y-89690581D01*
X214435000Y-89309419D01*
X215565000Y-89309419D01*
X215565000Y-89690581D01*
X215639361Y-90064419D01*
X215785225Y-90416566D01*
X215996987Y-90733491D01*
X216266509Y-91003013D01*
X216583434Y-91214775D01*
X216935581Y-91360639D01*
X217309419Y-91435000D01*
X217690581Y-91435000D01*
X218064419Y-91360639D01*
X218416566Y-91214775D01*
X218733491Y-91003013D01*
X219003013Y-90733491D01*
X219214775Y-90416566D01*
X219360639Y-90064419D01*
X219435000Y-89690581D01*
X219435000Y-89309419D01*
X219360639Y-88935581D01*
X219214775Y-88583434D01*
X219003013Y-88266509D01*
X218936504Y-88200000D01*
X220561928Y-88200000D01*
X220561928Y-90800000D01*
X220574188Y-90924482D01*
X220610498Y-91044180D01*
X220669463Y-91154494D01*
X220748815Y-91251185D01*
X220845506Y-91330537D01*
X220955820Y-91389502D01*
X221075518Y-91425812D01*
X221200000Y-91438072D01*
X223800000Y-91438072D01*
X223924482Y-91425812D01*
X224044180Y-91389502D01*
X224154494Y-91330537D01*
X224251185Y-91251185D01*
X224330537Y-91154494D01*
X224389502Y-91044180D01*
X224425812Y-90924482D01*
X224438072Y-90800000D01*
X224438072Y-89309419D01*
X225565000Y-89309419D01*
X225565000Y-89690581D01*
X225639361Y-90064419D01*
X225785225Y-90416566D01*
X225996987Y-90733491D01*
X226266509Y-91003013D01*
X226583434Y-91214775D01*
X226935581Y-91360639D01*
X227309419Y-91435000D01*
X227690581Y-91435000D01*
X228064419Y-91360639D01*
X228416566Y-91214775D01*
X228733491Y-91003013D01*
X229003013Y-90733491D01*
X229214775Y-90416566D01*
X229360639Y-90064419D01*
X229435000Y-89690581D01*
X229435000Y-89309419D01*
X230565000Y-89309419D01*
X230565000Y-89690581D01*
X230639361Y-90064419D01*
X230785225Y-90416566D01*
X230996987Y-90733491D01*
X231266509Y-91003013D01*
X231583434Y-91214775D01*
X231935581Y-91360639D01*
X232309419Y-91435000D01*
X232690581Y-91435000D01*
X233064419Y-91360639D01*
X233416566Y-91214775D01*
X233733491Y-91003013D01*
X234003013Y-90733491D01*
X234214775Y-90416566D01*
X234360639Y-90064419D01*
X234435000Y-89690581D01*
X234435000Y-89309419D01*
X234360639Y-88935581D01*
X234214775Y-88583434D01*
X234003013Y-88266509D01*
X233936504Y-88200000D01*
X235561928Y-88200000D01*
X235561928Y-90800000D01*
X235574188Y-90924482D01*
X235610498Y-91044180D01*
X235669463Y-91154494D01*
X235748815Y-91251185D01*
X235845506Y-91330537D01*
X235955820Y-91389502D01*
X236075518Y-91425812D01*
X236200000Y-91438072D01*
X238800000Y-91438072D01*
X238924482Y-91425812D01*
X239044180Y-91389502D01*
X239154494Y-91330537D01*
X239251185Y-91251185D01*
X239330537Y-91154494D01*
X239389502Y-91044180D01*
X239425812Y-90924482D01*
X239438072Y-90800000D01*
X239438072Y-89309419D01*
X240565000Y-89309419D01*
X240565000Y-89690581D01*
X240639361Y-90064419D01*
X240785225Y-90416566D01*
X240996987Y-90733491D01*
X241266509Y-91003013D01*
X241583434Y-91214775D01*
X241935581Y-91360639D01*
X242309419Y-91435000D01*
X242690581Y-91435000D01*
X243064419Y-91360639D01*
X243416566Y-91214775D01*
X243733491Y-91003013D01*
X244003013Y-90733491D01*
X244214775Y-90416566D01*
X244360639Y-90064419D01*
X244435000Y-89690581D01*
X244435000Y-89309419D01*
X245565000Y-89309419D01*
X245565000Y-89690581D01*
X245639361Y-90064419D01*
X245785225Y-90416566D01*
X245996987Y-90733491D01*
X246266509Y-91003013D01*
X246583434Y-91214775D01*
X246935581Y-91360639D01*
X247309419Y-91435000D01*
X247690581Y-91435000D01*
X248064419Y-91360639D01*
X248416566Y-91214775D01*
X248733491Y-91003013D01*
X249003013Y-90733491D01*
X249214775Y-90416566D01*
X249360639Y-90064419D01*
X249435000Y-89690581D01*
X249435000Y-89309419D01*
X249360639Y-88935581D01*
X249214775Y-88583434D01*
X249003013Y-88266509D01*
X248936504Y-88200000D01*
X250561928Y-88200000D01*
X250561928Y-90800000D01*
X250574188Y-90924482D01*
X250610498Y-91044180D01*
X250669463Y-91154494D01*
X250748815Y-91251185D01*
X250845506Y-91330537D01*
X250955820Y-91389502D01*
X251075518Y-91425812D01*
X251200000Y-91438072D01*
X253800000Y-91438072D01*
X253924482Y-91425812D01*
X254044180Y-91389502D01*
X254154494Y-91330537D01*
X254251185Y-91251185D01*
X254330537Y-91154494D01*
X254389502Y-91044180D01*
X254425812Y-90924482D01*
X254438072Y-90800000D01*
X254438072Y-88200000D01*
X254425812Y-88075518D01*
X254389502Y-87955820D01*
X254330537Y-87845506D01*
X254251185Y-87748815D01*
X254154494Y-87669463D01*
X254044180Y-87610498D01*
X253924482Y-87574188D01*
X253800000Y-87561928D01*
X251200000Y-87561928D01*
X251075518Y-87574188D01*
X250955820Y-87610498D01*
X250845506Y-87669463D01*
X250748815Y-87748815D01*
X250669463Y-87845506D01*
X250610498Y-87955820D01*
X250574188Y-88075518D01*
X250561928Y-88200000D01*
X248936504Y-88200000D01*
X248733491Y-87996987D01*
X248416566Y-87785225D01*
X248064419Y-87639361D01*
X247690581Y-87565000D01*
X247309419Y-87565000D01*
X246935581Y-87639361D01*
X246583434Y-87785225D01*
X246266509Y-87996987D01*
X245996987Y-88266509D01*
X245785225Y-88583434D01*
X245639361Y-88935581D01*
X245565000Y-89309419D01*
X244435000Y-89309419D01*
X244360639Y-88935581D01*
X244214775Y-88583434D01*
X244003013Y-88266509D01*
X243733491Y-87996987D01*
X243416566Y-87785225D01*
X243064419Y-87639361D01*
X242690581Y-87565000D01*
X242309419Y-87565000D01*
X241935581Y-87639361D01*
X241583434Y-87785225D01*
X241266509Y-87996987D01*
X240996987Y-88266509D01*
X240785225Y-88583434D01*
X240639361Y-88935581D01*
X240565000Y-89309419D01*
X239438072Y-89309419D01*
X239438072Y-88200000D01*
X239425812Y-88075518D01*
X239389502Y-87955820D01*
X239330537Y-87845506D01*
X239251185Y-87748815D01*
X239154494Y-87669463D01*
X239044180Y-87610498D01*
X238924482Y-87574188D01*
X238800000Y-87561928D01*
X236200000Y-87561928D01*
X236075518Y-87574188D01*
X235955820Y-87610498D01*
X235845506Y-87669463D01*
X235748815Y-87748815D01*
X235669463Y-87845506D01*
X235610498Y-87955820D01*
X235574188Y-88075518D01*
X235561928Y-88200000D01*
X233936504Y-88200000D01*
X233733491Y-87996987D01*
X233416566Y-87785225D01*
X233064419Y-87639361D01*
X232690581Y-87565000D01*
X232309419Y-87565000D01*
X231935581Y-87639361D01*
X231583434Y-87785225D01*
X231266509Y-87996987D01*
X230996987Y-88266509D01*
X230785225Y-88583434D01*
X230639361Y-88935581D01*
X230565000Y-89309419D01*
X229435000Y-89309419D01*
X229360639Y-88935581D01*
X229214775Y-88583434D01*
X229003013Y-88266509D01*
X228733491Y-87996987D01*
X228416566Y-87785225D01*
X228064419Y-87639361D01*
X227690581Y-87565000D01*
X227309419Y-87565000D01*
X226935581Y-87639361D01*
X226583434Y-87785225D01*
X226266509Y-87996987D01*
X225996987Y-88266509D01*
X225785225Y-88583434D01*
X225639361Y-88935581D01*
X225565000Y-89309419D01*
X224438072Y-89309419D01*
X224438072Y-88200000D01*
X224425812Y-88075518D01*
X224389502Y-87955820D01*
X224330537Y-87845506D01*
X224251185Y-87748815D01*
X224154494Y-87669463D01*
X224044180Y-87610498D01*
X223924482Y-87574188D01*
X223800000Y-87561928D01*
X221200000Y-87561928D01*
X221075518Y-87574188D01*
X220955820Y-87610498D01*
X220845506Y-87669463D01*
X220748815Y-87748815D01*
X220669463Y-87845506D01*
X220610498Y-87955820D01*
X220574188Y-88075518D01*
X220561928Y-88200000D01*
X218936504Y-88200000D01*
X218733491Y-87996987D01*
X218416566Y-87785225D01*
X218064419Y-87639361D01*
X217690581Y-87565000D01*
X217309419Y-87565000D01*
X216935581Y-87639361D01*
X216583434Y-87785225D01*
X216266509Y-87996987D01*
X215996987Y-88266509D01*
X215785225Y-88583434D01*
X215639361Y-88935581D01*
X215565000Y-89309419D01*
X214435000Y-89309419D01*
X214360639Y-88935581D01*
X214214775Y-88583434D01*
X214003013Y-88266509D01*
X213733491Y-87996987D01*
X213416566Y-87785225D01*
X213064419Y-87639361D01*
X212690581Y-87565000D01*
X212309419Y-87565000D01*
X211935581Y-87639361D01*
X211583434Y-87785225D01*
X211266509Y-87996987D01*
X210996987Y-88266509D01*
X210785225Y-88583434D01*
X210639361Y-88935581D01*
X210565000Y-89309419D01*
X209438072Y-89309419D01*
X209438072Y-88200000D01*
X209425812Y-88075518D01*
X209389502Y-87955820D01*
X209330537Y-87845506D01*
X209251185Y-87748815D01*
X209154494Y-87669463D01*
X209044180Y-87610498D01*
X208924482Y-87574188D01*
X208800000Y-87561928D01*
X206200000Y-87561928D01*
X206075518Y-87574188D01*
X205955820Y-87610498D01*
X205845506Y-87669463D01*
X205748815Y-87748815D01*
X205669463Y-87845506D01*
X205610498Y-87955820D01*
X205574188Y-88075518D01*
X205561928Y-88200000D01*
X203936504Y-88200000D01*
X203733491Y-87996987D01*
X203416566Y-87785225D01*
X203064419Y-87639361D01*
X202690581Y-87565000D01*
X202309419Y-87565000D01*
X201935581Y-87639361D01*
X201583434Y-87785225D01*
X201266509Y-87996987D01*
X200996987Y-88266509D01*
X200785225Y-88583434D01*
X200639361Y-88935581D01*
X200565000Y-89309419D01*
X199435000Y-89309419D01*
X199360639Y-88935581D01*
X199214775Y-88583434D01*
X199003013Y-88266509D01*
X198733491Y-87996987D01*
X198416566Y-87785225D01*
X198064419Y-87639361D01*
X197690581Y-87565000D01*
X197309419Y-87565000D01*
X196935581Y-87639361D01*
X196583434Y-87785225D01*
X196266509Y-87996987D01*
X195996987Y-88266509D01*
X195785225Y-88583434D01*
X195639361Y-88935581D01*
X195565000Y-89309419D01*
X194438072Y-89309419D01*
X194438072Y-88200000D01*
X194425812Y-88075518D01*
X194389502Y-87955820D01*
X194330537Y-87845506D01*
X194251185Y-87748815D01*
X194154494Y-87669463D01*
X194044180Y-87610498D01*
X193924482Y-87574188D01*
X193800000Y-87561928D01*
X191200000Y-87561928D01*
X191075518Y-87574188D01*
X190955820Y-87610498D01*
X190845506Y-87669463D01*
X190748815Y-87748815D01*
X190669463Y-87845506D01*
X190610498Y-87955820D01*
X190574188Y-88075518D01*
X190561928Y-88200000D01*
X190561928Y-90363269D01*
X186460199Y-94465000D01*
X186398061Y-94465000D01*
X186198102Y-94504774D01*
X186009744Y-94582795D01*
X185840226Y-94696063D01*
X185696063Y-94840226D01*
X185582795Y-95009744D01*
X185504774Y-95198102D01*
X185465000Y-95398061D01*
X185465000Y-95460198D01*
X180860200Y-100064999D01*
X178009802Y-100064999D01*
X181539802Y-96535000D01*
X181601939Y-96535000D01*
X181801898Y-96495226D01*
X181990256Y-96417205D01*
X182159774Y-96303937D01*
X182303937Y-96159774D01*
X182417205Y-95990256D01*
X182495226Y-95801898D01*
X182535000Y-95601939D01*
X182535000Y-95539801D01*
X186779015Y-91295787D01*
X186935581Y-91360639D01*
X187309419Y-91435000D01*
X187690581Y-91435000D01*
X188064419Y-91360639D01*
X188416566Y-91214775D01*
X188733491Y-91003013D01*
X189003013Y-90733491D01*
X189214775Y-90416566D01*
X189360639Y-90064419D01*
X189435000Y-89690581D01*
X189435000Y-89309419D01*
X189360639Y-88935581D01*
X189214775Y-88583434D01*
X189003013Y-88266509D01*
X188733491Y-87996987D01*
X188416566Y-87785225D01*
X188064419Y-87639361D01*
X187690581Y-87565000D01*
X187309419Y-87565000D01*
X186935581Y-87639361D01*
X186583434Y-87785225D01*
X186266509Y-87996987D01*
X185996987Y-88266509D01*
X185785225Y-88583434D01*
X185639361Y-88935581D01*
X185565000Y-89309419D01*
X185565000Y-89690581D01*
X185639361Y-90064419D01*
X185704213Y-90220985D01*
X181460199Y-94465000D01*
X181398061Y-94465000D01*
X181198102Y-94504774D01*
X181009744Y-94582795D01*
X180840226Y-94696063D01*
X180696063Y-94840226D01*
X180582795Y-95009744D01*
X180504774Y-95198102D01*
X180465000Y-95398061D01*
X180465000Y-95460198D01*
X176310210Y-99614989D01*
X173459812Y-99614989D01*
X176539802Y-96535000D01*
X176601939Y-96535000D01*
X176801898Y-96495226D01*
X176990256Y-96417205D01*
X177159774Y-96303937D01*
X177303937Y-96159774D01*
X177417205Y-95990256D01*
X177495226Y-95801898D01*
X177535000Y-95601939D01*
X177535000Y-95539801D01*
X181779015Y-91295787D01*
X181935581Y-91360639D01*
X182309419Y-91435000D01*
X182690581Y-91435000D01*
X183064419Y-91360639D01*
X183416566Y-91214775D01*
X183733491Y-91003013D01*
X184003013Y-90733491D01*
X184214775Y-90416566D01*
X184360639Y-90064419D01*
X184435000Y-89690581D01*
X184435000Y-89309419D01*
X184360639Y-88935581D01*
X184214775Y-88583434D01*
X184003013Y-88266509D01*
X183733491Y-87996987D01*
X183416566Y-87785225D01*
X183064419Y-87639361D01*
X182690581Y-87565000D01*
X182309419Y-87565000D01*
X181935581Y-87639361D01*
X181583434Y-87785225D01*
X181266509Y-87996987D01*
X180996987Y-88266509D01*
X180785225Y-88583434D01*
X180639361Y-88935581D01*
X180565000Y-89309419D01*
X180565000Y-89690581D01*
X180639361Y-90064419D01*
X180704213Y-90220985D01*
X176460199Y-94465000D01*
X176398061Y-94465000D01*
X176198102Y-94504774D01*
X176009744Y-94582795D01*
X175840226Y-94696063D01*
X175696063Y-94840226D01*
X175582795Y-95009744D01*
X175504774Y-95198102D01*
X175465000Y-95398061D01*
X175465000Y-95460198D01*
X171760220Y-99164979D01*
X168909822Y-99164979D01*
X171539802Y-96535000D01*
X171601939Y-96535000D01*
X171801898Y-96495226D01*
X171990256Y-96417205D01*
X172159774Y-96303937D01*
X172303937Y-96159774D01*
X172417205Y-95990256D01*
X172495226Y-95801898D01*
X172535000Y-95601939D01*
X172535000Y-95539801D01*
X176636731Y-91438072D01*
X178800000Y-91438072D01*
X178924482Y-91425812D01*
X179044180Y-91389502D01*
X179154494Y-91330537D01*
X179251185Y-91251185D01*
X179330537Y-91154494D01*
X179389502Y-91044180D01*
X179425812Y-90924482D01*
X179438072Y-90800000D01*
X179438072Y-88200000D01*
X179425812Y-88075518D01*
X179389502Y-87955820D01*
X179330537Y-87845506D01*
X179251185Y-87748815D01*
X179154494Y-87669463D01*
X179044180Y-87610498D01*
X178924482Y-87574188D01*
X178800000Y-87561928D01*
X176200000Y-87561928D01*
X176075518Y-87574188D01*
X175955820Y-87610498D01*
X175845506Y-87669463D01*
X175748815Y-87748815D01*
X175669463Y-87845506D01*
X175610498Y-87955820D01*
X175574188Y-88075518D01*
X175561928Y-88200000D01*
X175561928Y-90363269D01*
X171460199Y-94465000D01*
X171398061Y-94465000D01*
X171198102Y-94504774D01*
X171009744Y-94582795D01*
X170840226Y-94696063D01*
X170696063Y-94840226D01*
X170582795Y-95009744D01*
X170504774Y-95198102D01*
X170465000Y-95398061D01*
X170465000Y-95460198D01*
X167210230Y-98714969D01*
X164359832Y-98714969D01*
X166539803Y-96535000D01*
X166601939Y-96535000D01*
X166801898Y-96495226D01*
X166990256Y-96417205D01*
X167159774Y-96303937D01*
X167303937Y-96159774D01*
X167417205Y-95990256D01*
X167495226Y-95801898D01*
X167535000Y-95601939D01*
X167535000Y-95539801D01*
X171779015Y-91295787D01*
X171935581Y-91360639D01*
X172309419Y-91435000D01*
X172690581Y-91435000D01*
X173064419Y-91360639D01*
X173416566Y-91214775D01*
X173733491Y-91003013D01*
X174003013Y-90733491D01*
X174214775Y-90416566D01*
X174360639Y-90064419D01*
X174435000Y-89690581D01*
X174435000Y-89309419D01*
X174360639Y-88935581D01*
X174214775Y-88583434D01*
X174003013Y-88266509D01*
X173733491Y-87996987D01*
X173416566Y-87785225D01*
X173064419Y-87639361D01*
X172690581Y-87565000D01*
X172309419Y-87565000D01*
X171935581Y-87639361D01*
X171583434Y-87785225D01*
X171266509Y-87996987D01*
X170996987Y-88266509D01*
X170785225Y-88583434D01*
X170639361Y-88935581D01*
X170565000Y-89309419D01*
X170565000Y-89690581D01*
X170639361Y-90064419D01*
X170704213Y-90220985D01*
X166460199Y-94465000D01*
X166398061Y-94465000D01*
X166198102Y-94504774D01*
X166009744Y-94582795D01*
X165840226Y-94696063D01*
X165696063Y-94840226D01*
X165582795Y-95009744D01*
X165504774Y-95198102D01*
X165465000Y-95398061D01*
X165465000Y-95460197D01*
X162685199Y-98240000D01*
X159834801Y-98240000D01*
X161539802Y-96535000D01*
X161601939Y-96535000D01*
X161801898Y-96495226D01*
X161990256Y-96417205D01*
X162159774Y-96303937D01*
X162303937Y-96159774D01*
X162417205Y-95990256D01*
X162495226Y-95801898D01*
X162535000Y-95601939D01*
X162535000Y-95539801D01*
X166779015Y-91295787D01*
X166935581Y-91360639D01*
X167309419Y-91435000D01*
X167690581Y-91435000D01*
X168064419Y-91360639D01*
X168416566Y-91214775D01*
X168733491Y-91003013D01*
X169003013Y-90733491D01*
X169214775Y-90416566D01*
X169360639Y-90064419D01*
X169435000Y-89690581D01*
X169435000Y-89309419D01*
X169360639Y-88935581D01*
X169214775Y-88583434D01*
X169003013Y-88266509D01*
X168733491Y-87996987D01*
X168416566Y-87785225D01*
X168064419Y-87639361D01*
X167690581Y-87565000D01*
X167309419Y-87565000D01*
X166935581Y-87639361D01*
X166583434Y-87785225D01*
X166266509Y-87996987D01*
X165996987Y-88266509D01*
X165785225Y-88583434D01*
X165639361Y-88935581D01*
X165565000Y-89309419D01*
X165565000Y-89690581D01*
X165639361Y-90064419D01*
X165704213Y-90220985D01*
X161460199Y-94465000D01*
X161398061Y-94465000D01*
X161198102Y-94504774D01*
X161009744Y-94582795D01*
X160840226Y-94696063D01*
X160696063Y-94840226D01*
X160582795Y-95009744D01*
X160504774Y-95198102D01*
X160465000Y-95398061D01*
X160465000Y-95460198D01*
X158185199Y-97740000D01*
X155334801Y-97740000D01*
X156539802Y-96535000D01*
X156601939Y-96535000D01*
X156801898Y-96495226D01*
X156990256Y-96417205D01*
X157159774Y-96303937D01*
X157303937Y-96159774D01*
X157417205Y-95990256D01*
X157495226Y-95801898D01*
X157535000Y-95601939D01*
X157535000Y-95539801D01*
X161636731Y-91438072D01*
X163800000Y-91438072D01*
X163924482Y-91425812D01*
X164044180Y-91389502D01*
X164154494Y-91330537D01*
X164251185Y-91251185D01*
X164330537Y-91154494D01*
X164389502Y-91044180D01*
X164425812Y-90924482D01*
X164438072Y-90800000D01*
X164438072Y-88200000D01*
X164425812Y-88075518D01*
X164389502Y-87955820D01*
X164330537Y-87845506D01*
X164251185Y-87748815D01*
X164154494Y-87669463D01*
X164044180Y-87610498D01*
X163924482Y-87574188D01*
X163800000Y-87561928D01*
X161200000Y-87561928D01*
X161075518Y-87574188D01*
X160955820Y-87610498D01*
X160845506Y-87669463D01*
X160748815Y-87748815D01*
X160669463Y-87845506D01*
X160610498Y-87955820D01*
X160574188Y-88075518D01*
X160561928Y-88200000D01*
X160561928Y-90363269D01*
X156460199Y-94465000D01*
X156398061Y-94465000D01*
X156198102Y-94504774D01*
X156009744Y-94582795D01*
X155840226Y-94696063D01*
X155696063Y-94840226D01*
X155582795Y-95009744D01*
X155504774Y-95198102D01*
X155465000Y-95398061D01*
X155465000Y-95460198D01*
X153685199Y-97240000D01*
X150834801Y-97240000D01*
X151539802Y-96535000D01*
X151601939Y-96535000D01*
X151801898Y-96495226D01*
X151990256Y-96417205D01*
X152159774Y-96303937D01*
X152303937Y-96159774D01*
X152417205Y-95990256D01*
X152495226Y-95801898D01*
X152535000Y-95601939D01*
X152535000Y-95539801D01*
X156779015Y-91295787D01*
X156935581Y-91360639D01*
X157309419Y-91435000D01*
X157690581Y-91435000D01*
X158064419Y-91360639D01*
X158416566Y-91214775D01*
X158733491Y-91003013D01*
X159003013Y-90733491D01*
X159214775Y-90416566D01*
X159360639Y-90064419D01*
X159435000Y-89690581D01*
X159435000Y-89309419D01*
X159360639Y-88935581D01*
X159214775Y-88583434D01*
X159003013Y-88266509D01*
X158733491Y-87996987D01*
X158416566Y-87785225D01*
X158064419Y-87639361D01*
X157690581Y-87565000D01*
X157309419Y-87565000D01*
X156935581Y-87639361D01*
X156583434Y-87785225D01*
X156266509Y-87996987D01*
X155996987Y-88266509D01*
X155785225Y-88583434D01*
X155639361Y-88935581D01*
X155565000Y-89309419D01*
X155565000Y-89690581D01*
X155639361Y-90064419D01*
X155704213Y-90220985D01*
X151460199Y-94465000D01*
X151398061Y-94465000D01*
X151198102Y-94504774D01*
X151009744Y-94582795D01*
X150840226Y-94696063D01*
X150696063Y-94840226D01*
X150582795Y-95009744D01*
X150504774Y-95198102D01*
X150465000Y-95398061D01*
X150465000Y-95460198D01*
X149185199Y-96740000D01*
X146334802Y-96740000D01*
X146539802Y-96535000D01*
X146601939Y-96535000D01*
X146801898Y-96495226D01*
X146990256Y-96417205D01*
X147159774Y-96303937D01*
X147303937Y-96159774D01*
X147417205Y-95990256D01*
X147495226Y-95801898D01*
X147535000Y-95601939D01*
X147535000Y-95539801D01*
X151779015Y-91295787D01*
X151935581Y-91360639D01*
X152309419Y-91435000D01*
X152690581Y-91435000D01*
X153064419Y-91360639D01*
X153416566Y-91214775D01*
X153733491Y-91003013D01*
X154003013Y-90733491D01*
X154214775Y-90416566D01*
X154360639Y-90064419D01*
X154435000Y-89690581D01*
X154435000Y-89309419D01*
X154360639Y-88935581D01*
X154214775Y-88583434D01*
X154003013Y-88266509D01*
X153733491Y-87996987D01*
X153416566Y-87785225D01*
X153064419Y-87639361D01*
X152690581Y-87565000D01*
X152309419Y-87565000D01*
X151935581Y-87639361D01*
X151583434Y-87785225D01*
X151266509Y-87996987D01*
X150996987Y-88266509D01*
X150785225Y-88583434D01*
X150639361Y-88935581D01*
X150565000Y-89309419D01*
X150565000Y-89690581D01*
X150639361Y-90064419D01*
X150704213Y-90220985D01*
X146460199Y-94465000D01*
X146398061Y-94465000D01*
X146198102Y-94504774D01*
X146009744Y-94582795D01*
X145840226Y-94696063D01*
X145696063Y-94840226D01*
X145582795Y-95009744D01*
X145504774Y-95198102D01*
X145465000Y-95398061D01*
X145465000Y-95460198D01*
X144685199Y-96240000D01*
X142223711Y-96240000D01*
X142303937Y-96159774D01*
X142417205Y-95990256D01*
X142495226Y-95801898D01*
X142535000Y-95601939D01*
X142535000Y-95539801D01*
X146636731Y-91438072D01*
X148800000Y-91438072D01*
X148924482Y-91425812D01*
X149044180Y-91389502D01*
X149154494Y-91330537D01*
X149251185Y-91251185D01*
X149330537Y-91154494D01*
X149389502Y-91044180D01*
X149425812Y-90924482D01*
X149438072Y-90800000D01*
X149438072Y-88200000D01*
X149425812Y-88075518D01*
X149389502Y-87955820D01*
X149330537Y-87845506D01*
X149251185Y-87748815D01*
X149154494Y-87669463D01*
X149044180Y-87610498D01*
X148924482Y-87574188D01*
X148800000Y-87561928D01*
X146200000Y-87561928D01*
X146075518Y-87574188D01*
X145955820Y-87610498D01*
X145845506Y-87669463D01*
X145748815Y-87748815D01*
X145669463Y-87845506D01*
X145610498Y-87955820D01*
X145574188Y-88075518D01*
X145561928Y-88200000D01*
X145561928Y-90363269D01*
X141460199Y-94465000D01*
X141398061Y-94465000D01*
X141198102Y-94504774D01*
X141009744Y-94582795D01*
X140840226Y-94696063D01*
X140696063Y-94840226D01*
X140582795Y-95009744D01*
X140504774Y-95198102D01*
X140465000Y-95398061D01*
X140465000Y-95460198D01*
X140185199Y-95740000D01*
X137507538Y-95740000D01*
X137535000Y-95601939D01*
X137535000Y-95539801D01*
X141779015Y-91295787D01*
X141935581Y-91360639D01*
X142309419Y-91435000D01*
X142690581Y-91435000D01*
X143064419Y-91360639D01*
X143416566Y-91214775D01*
X143733491Y-91003013D01*
X144003013Y-90733491D01*
X144214775Y-90416566D01*
X144360639Y-90064419D01*
X144435000Y-89690581D01*
X144435000Y-89309419D01*
X144360639Y-88935581D01*
X144214775Y-88583434D01*
X144003013Y-88266509D01*
X143733491Y-87996987D01*
X143416566Y-87785225D01*
X143064419Y-87639361D01*
X142690581Y-87565000D01*
X142309419Y-87565000D01*
X141935581Y-87639361D01*
X141583434Y-87785225D01*
X141266509Y-87996987D01*
X140996987Y-88266509D01*
X140785225Y-88583434D01*
X140639361Y-88935581D01*
X140565000Y-89309419D01*
X140565000Y-89690581D01*
X140639361Y-90064419D01*
X140704213Y-90220985D01*
X136460199Y-94465000D01*
X136398061Y-94465000D01*
X136198102Y-94504774D01*
X136009744Y-94582795D01*
X135840226Y-94696063D01*
X135696063Y-94840226D01*
X135582795Y-95009744D01*
X135504774Y-95198102D01*
X135496440Y-95240000D01*
X133007538Y-95240000D01*
X133035000Y-95101939D01*
X133035000Y-95039801D01*
X136779015Y-91295787D01*
X136935581Y-91360639D01*
X137309419Y-91435000D01*
X137690581Y-91435000D01*
X138064419Y-91360639D01*
X138416566Y-91214775D01*
X138733491Y-91003013D01*
X139003013Y-90733491D01*
X139214775Y-90416566D01*
X139360639Y-90064419D01*
X139435000Y-89690581D01*
X139435000Y-89309419D01*
X139360639Y-88935581D01*
X139214775Y-88583434D01*
X139003013Y-88266509D01*
X138733491Y-87996987D01*
X138416566Y-87785225D01*
X138064419Y-87639361D01*
X137690581Y-87565000D01*
X137309419Y-87565000D01*
X136935581Y-87639361D01*
X136583434Y-87785225D01*
X136266509Y-87996987D01*
X135996987Y-88266509D01*
X135785225Y-88583434D01*
X135639361Y-88935581D01*
X135565000Y-89309419D01*
X135565000Y-89690581D01*
X135639361Y-90064419D01*
X135704213Y-90220985D01*
X131960199Y-93965000D01*
X131898061Y-93965000D01*
X131698102Y-94004774D01*
X131509744Y-94082795D01*
X131340226Y-94196063D01*
X131196063Y-94340226D01*
X131082795Y-94509744D01*
X131004774Y-94698102D01*
X130996440Y-94740000D01*
X125365131Y-94740000D01*
X131617060Y-88488072D01*
X132350000Y-88488072D01*
X132474482Y-88475812D01*
X132594180Y-88439502D01*
X132704494Y-88380537D01*
X132801185Y-88301185D01*
X132880537Y-88204494D01*
X132939502Y-88094180D01*
X132975812Y-87974482D01*
X132988072Y-87850000D01*
X132988072Y-86150000D01*
X132975812Y-86025518D01*
X132939502Y-85905820D01*
X132880537Y-85795506D01*
X132801185Y-85698815D01*
X132704494Y-85619463D01*
X132594180Y-85560498D01*
X132474482Y-85524188D01*
X132350000Y-85511928D01*
X130650000Y-85511928D01*
X130525518Y-85524188D01*
X130405820Y-85560498D01*
X130295506Y-85619463D01*
X130198815Y-85698815D01*
X130119463Y-85795506D01*
X130060498Y-85905820D01*
X130024188Y-86025518D01*
X130011928Y-86150000D01*
X130011928Y-86882940D01*
X124029869Y-92865000D01*
X79938072Y-92865000D01*
X79938072Y-92700000D01*
X79925812Y-92575518D01*
X79889502Y-92455820D01*
X79830537Y-92345506D01*
X79751185Y-92248815D01*
X79654494Y-92169463D01*
X79544180Y-92110498D01*
X79424482Y-92074188D01*
X79300000Y-92061928D01*
X76700000Y-92061928D01*
X76575518Y-92074188D01*
X76455820Y-92110498D01*
X76345506Y-92169463D01*
X76248815Y-92248815D01*
X76169463Y-92345506D01*
X76110498Y-92455820D01*
X76074188Y-92575518D01*
X76061928Y-92700000D01*
X76061928Y-92865000D01*
X75755752Y-92865000D01*
X75700000Y-92859509D01*
X75644248Y-92865000D01*
X75477501Y-92881423D01*
X75263553Y-92946324D01*
X75066377Y-93051716D01*
X74893551Y-93193551D01*
X74858004Y-93236865D01*
X74729869Y-93365000D01*
X73055741Y-93365000D01*
X72999999Y-93359510D01*
X72944257Y-93365000D01*
X72944248Y-93365000D01*
X72777501Y-93381423D01*
X72563553Y-93446324D01*
X72366377Y-93551716D01*
X72193551Y-93693551D01*
X72158011Y-93736857D01*
X69405000Y-96489869D01*
X69405000Y-94200131D01*
X73255907Y-90349224D01*
X76830381Y-90349224D01*
X76962317Y-90644312D01*
X77303045Y-90815159D01*
X77670557Y-90916250D01*
X78050729Y-90943701D01*
X78428951Y-90896457D01*
X78790690Y-90776333D01*
X79037683Y-90644312D01*
X79169619Y-90349224D01*
X78000000Y-89179605D01*
X76830381Y-90349224D01*
X73255907Y-90349224D01*
X74554402Y-89050729D01*
X76056299Y-89050729D01*
X76103543Y-89428951D01*
X76223667Y-89790690D01*
X76355688Y-90037683D01*
X76650776Y-90169619D01*
X77820395Y-89000000D01*
X78179605Y-89000000D01*
X79349224Y-90169619D01*
X79644312Y-90037683D01*
X79815159Y-89696955D01*
X79916250Y-89329443D01*
X79943701Y-88949271D01*
X79896457Y-88571049D01*
X79776333Y-88209310D01*
X79644312Y-87962317D01*
X79393104Y-87850000D01*
X112011928Y-87850000D01*
X112024188Y-87974482D01*
X112060498Y-88094180D01*
X112119463Y-88204494D01*
X112198815Y-88301185D01*
X112295506Y-88380537D01*
X112405820Y-88439502D01*
X112525518Y-88475812D01*
X112650000Y-88488072D01*
X113214250Y-88485000D01*
X113373000Y-88326250D01*
X113373000Y-87127000D01*
X113627000Y-87127000D01*
X113627000Y-88326250D01*
X113785750Y-88485000D01*
X114350000Y-88488072D01*
X114474482Y-88475812D01*
X114594180Y-88439502D01*
X114704494Y-88380537D01*
X114801185Y-88301185D01*
X114880537Y-88204494D01*
X114939502Y-88094180D01*
X114975812Y-87974482D01*
X114988072Y-87850000D01*
X114985000Y-87285750D01*
X114826250Y-87127000D01*
X113627000Y-87127000D01*
X113373000Y-87127000D01*
X112173750Y-87127000D01*
X112015000Y-87285750D01*
X112011928Y-87850000D01*
X79393104Y-87850000D01*
X79349224Y-87830381D01*
X78179605Y-89000000D01*
X77820395Y-89000000D01*
X76650776Y-87830381D01*
X76355688Y-87962317D01*
X76184841Y-88303045D01*
X76083750Y-88670557D01*
X76056299Y-89050729D01*
X74554402Y-89050729D01*
X75954355Y-87650776D01*
X76830381Y-87650776D01*
X78000000Y-88820395D01*
X79169619Y-87650776D01*
X79037683Y-87355688D01*
X78696955Y-87184841D01*
X78329443Y-87083750D01*
X77949271Y-87056299D01*
X77571049Y-87103543D01*
X77209310Y-87223667D01*
X76962317Y-87355688D01*
X76830381Y-87650776D01*
X75954355Y-87650776D01*
X77455131Y-86150000D01*
X112011928Y-86150000D01*
X112015000Y-86714250D01*
X112173750Y-86873000D01*
X113373000Y-86873000D01*
X113373000Y-85673750D01*
X113627000Y-85673750D01*
X113627000Y-86873000D01*
X114826250Y-86873000D01*
X114985000Y-86714250D01*
X114988072Y-86150000D01*
X114975812Y-86025518D01*
X114939502Y-85905820D01*
X114880537Y-85795506D01*
X114801185Y-85698815D01*
X114704494Y-85619463D01*
X114594180Y-85560498D01*
X114474482Y-85524188D01*
X114350000Y-85511928D01*
X113785750Y-85515000D01*
X113627000Y-85673750D01*
X113373000Y-85673750D01*
X113214250Y-85515000D01*
X112650000Y-85511928D01*
X112525518Y-85524188D01*
X112405820Y-85560498D01*
X112295506Y-85619463D01*
X112198815Y-85698815D01*
X112119463Y-85795506D01*
X112060498Y-85905820D01*
X112024188Y-86025518D01*
X112011928Y-86150000D01*
X77455131Y-86150000D01*
X77693241Y-85911891D01*
X77809419Y-85935000D01*
X78190581Y-85935000D01*
X78564419Y-85860639D01*
X78916566Y-85714775D01*
X79233491Y-85503013D01*
X79503013Y-85233491D01*
X79714775Y-84916566D01*
X79860639Y-84564419D01*
X79935000Y-84190581D01*
X79935000Y-83809419D01*
X79860639Y-83435581D01*
X79796143Y-83279872D01*
X259265000Y-83279872D01*
X259265000Y-83720128D01*
X259350890Y-84151925D01*
X259519369Y-84558669D01*
X259763962Y-84924729D01*
X260075271Y-85236038D01*
X260441331Y-85480631D01*
X260848075Y-85649110D01*
X261279872Y-85735000D01*
X261720128Y-85735000D01*
X262151925Y-85649110D01*
X262558669Y-85480631D01*
X262924729Y-85236038D01*
X263236038Y-84924729D01*
X263480631Y-84558669D01*
X263649110Y-84151925D01*
X263735000Y-83720128D01*
X263735000Y-83279872D01*
X263649110Y-82848075D01*
X263480631Y-82441331D01*
X263236038Y-82075271D01*
X262924729Y-81763962D01*
X262558669Y-81519369D01*
X262151925Y-81350890D01*
X261720128Y-81265000D01*
X261279872Y-81265000D01*
X260848075Y-81350890D01*
X260441331Y-81519369D01*
X260075271Y-81763962D01*
X259763962Y-82075271D01*
X259519369Y-82441331D01*
X259350890Y-82848075D01*
X259265000Y-83279872D01*
X79796143Y-83279872D01*
X79714775Y-83083434D01*
X79503013Y-82766509D01*
X79233491Y-82496987D01*
X78916566Y-82285225D01*
X78564419Y-82139361D01*
X78190581Y-82065000D01*
X77809419Y-82065000D01*
X77435581Y-82139361D01*
X77083434Y-82285225D01*
X76766509Y-82496987D01*
X76496987Y-82766509D01*
X76285225Y-83083434D01*
X76139361Y-83435581D01*
X76065000Y-83809419D01*
X76065000Y-84190581D01*
X76088109Y-84306759D01*
X67506860Y-92888009D01*
X67463552Y-92923551D01*
X67321717Y-93096377D01*
X67288773Y-93158012D01*
X67216324Y-93293554D01*
X67151423Y-93507502D01*
X67129509Y-93730000D01*
X67135001Y-93785761D01*
X67135000Y-101034893D01*
X67116525Y-101053368D01*
X66954010Y-101296589D01*
X66842068Y-101566842D01*
X66785000Y-101853740D01*
X66785000Y-101879868D01*
X65966859Y-102698010D01*
X65923551Y-102733552D01*
X65781716Y-102906378D01*
X65760200Y-102946632D01*
X65676323Y-103103555D01*
X65660000Y-103157364D01*
X65660000Y-83279872D01*
X66265000Y-83279872D01*
X66265000Y-83720128D01*
X66350890Y-84151925D01*
X66519369Y-84558669D01*
X66763962Y-84924729D01*
X67075271Y-85236038D01*
X67441331Y-85480631D01*
X67848075Y-85649110D01*
X68279872Y-85735000D01*
X68720128Y-85735000D01*
X69151925Y-85649110D01*
X69558669Y-85480631D01*
X69924729Y-85236038D01*
X70236038Y-84924729D01*
X70480631Y-84558669D01*
X70649110Y-84151925D01*
X70735000Y-83720128D01*
X70735000Y-83279872D01*
X70649110Y-82848075D01*
X70480631Y-82441331D01*
X70236038Y-82075271D01*
X69924729Y-81763962D01*
X69558669Y-81519369D01*
X69151925Y-81350890D01*
X68720128Y-81265000D01*
X68279872Y-81265000D01*
X67848075Y-81350890D01*
X67441331Y-81519369D01*
X67075271Y-81763962D01*
X66763962Y-82075271D01*
X66519369Y-82441331D01*
X66350890Y-82848075D01*
X66265000Y-83279872D01*
X65660000Y-83279872D01*
X65660000Y-80660000D01*
X264340000Y-80660000D01*
X264340001Y-139340000D01*
%TA.AperFunction,Conductor*%
D19*
G36*
X264340001Y-139340000D02*
G01*
X250740131Y-139340000D01*
X252263141Y-137816991D01*
X252306449Y-137781449D01*
X252448284Y-137608623D01*
X252553676Y-137411447D01*
X252618577Y-137197499D01*
X252635000Y-137030752D01*
X252635000Y-137030743D01*
X252640490Y-136975001D01*
X252635000Y-136919259D01*
X252635000Y-136082817D01*
X252740706Y-135954014D01*
X252750000Y-135936626D01*
X252759294Y-135954014D01*
X252944866Y-136180134D01*
X253170987Y-136365706D01*
X253428967Y-136503599D01*
X253708890Y-136588513D01*
X254000000Y-136617185D01*
X254291111Y-136588513D01*
X254571034Y-136503599D01*
X254829014Y-136365706D01*
X254933602Y-136279872D01*
X259265000Y-136279872D01*
X259265000Y-136720128D01*
X259350890Y-137151925D01*
X259519369Y-137558669D01*
X259763962Y-137924729D01*
X260075271Y-138236038D01*
X260441331Y-138480631D01*
X260848075Y-138649110D01*
X261279872Y-138735000D01*
X261720128Y-138735000D01*
X262151925Y-138649110D01*
X262558669Y-138480631D01*
X262924729Y-138236038D01*
X263236038Y-137924729D01*
X263480631Y-137558669D01*
X263649110Y-137151925D01*
X263735000Y-136720128D01*
X263735000Y-136279872D01*
X263649110Y-135848075D01*
X263480631Y-135441331D01*
X263236038Y-135075271D01*
X262924729Y-134763962D01*
X262558669Y-134519369D01*
X262151925Y-134350890D01*
X261720128Y-134265000D01*
X261279872Y-134265000D01*
X260848075Y-134350890D01*
X260441331Y-134519369D01*
X260075271Y-134763962D01*
X259763962Y-135075271D01*
X259519369Y-135441331D01*
X259350890Y-135848075D01*
X259265000Y-136279872D01*
X254933602Y-136279872D01*
X255055134Y-136180134D01*
X255240706Y-135954014D01*
X255378599Y-135696033D01*
X255463513Y-135416110D01*
X255485000Y-135197949D01*
X255485000Y-134802050D01*
X255463513Y-134583889D01*
X255378599Y-134303966D01*
X255240706Y-134045986D01*
X255135000Y-133917183D01*
X255135000Y-130970131D01*
X261763142Y-124341990D01*
X261806450Y-124306448D01*
X261948285Y-124133622D01*
X262053677Y-123936446D01*
X262118578Y-123722498D01*
X262135001Y-123555751D01*
X262135001Y-123555742D01*
X262140491Y-123500000D01*
X262135001Y-123444258D01*
X262135001Y-107055753D01*
X262140492Y-107000001D01*
X262118578Y-106777502D01*
X262053677Y-106563554D01*
X261948285Y-106366378D01*
X261841990Y-106236857D01*
X261841988Y-106236855D01*
X261806450Y-106193552D01*
X261763147Y-106158014D01*
X260938072Y-105332940D01*
X260938072Y-103700000D01*
X260925812Y-103575518D01*
X260889502Y-103455820D01*
X260830537Y-103345506D01*
X260751185Y-103248815D01*
X260654494Y-103169463D01*
X260544180Y-103110498D01*
X260424482Y-103074188D01*
X260300000Y-103061928D01*
X257700000Y-103061928D01*
X257575518Y-103074188D01*
X257455820Y-103110498D01*
X257345506Y-103169463D01*
X257248815Y-103248815D01*
X257169463Y-103345506D01*
X257110498Y-103455820D01*
X257074188Y-103575518D01*
X257061928Y-103700000D01*
X257061928Y-106300000D01*
X257074188Y-106424482D01*
X257110498Y-106544180D01*
X257169463Y-106654494D01*
X257248815Y-106751185D01*
X257345506Y-106830537D01*
X257455820Y-106889502D01*
X257575518Y-106925812D01*
X257700000Y-106938072D01*
X259332940Y-106938072D01*
X259865002Y-107470135D01*
X259865002Y-108269103D01*
X259696955Y-108184841D01*
X259329443Y-108083750D01*
X258949271Y-108056299D01*
X258571049Y-108103543D01*
X258209310Y-108223667D01*
X257962317Y-108355688D01*
X257830381Y-108650776D01*
X259000000Y-109820395D01*
X259014143Y-109806253D01*
X259193748Y-109985858D01*
X259179605Y-110000000D01*
X259193748Y-110014143D01*
X259014143Y-110193748D01*
X259000000Y-110179605D01*
X257830381Y-111349224D01*
X257962317Y-111644312D01*
X258303045Y-111815159D01*
X258670557Y-111916250D01*
X259050729Y-111943701D01*
X259428951Y-111896457D01*
X259790690Y-111776333D01*
X259865002Y-111736612D01*
X259865002Y-113263866D01*
X259564419Y-113139361D01*
X259190581Y-113065000D01*
X258809419Y-113065000D01*
X258435581Y-113139361D01*
X258083434Y-113285225D01*
X257766509Y-113496987D01*
X257496987Y-113766509D01*
X257285225Y-114083434D01*
X257139361Y-114435581D01*
X257065000Y-114809419D01*
X257065000Y-115190581D01*
X257139361Y-115564419D01*
X257285225Y-115916566D01*
X257496987Y-116233491D01*
X257766509Y-116503013D01*
X258083434Y-116714775D01*
X258435581Y-116860639D01*
X258809419Y-116935000D01*
X259190581Y-116935000D01*
X259564419Y-116860639D01*
X259865001Y-116736134D01*
X259865001Y-123029867D01*
X253236860Y-129658009D01*
X253193552Y-129693551D01*
X253051717Y-129866377D01*
X253020770Y-129924276D01*
X252946324Y-130063554D01*
X252881423Y-130277502D01*
X252859509Y-130500000D01*
X252865001Y-130555761D01*
X252865000Y-133917183D01*
X252759294Y-134045987D01*
X252750000Y-134063374D01*
X252740706Y-134045986D01*
X252555134Y-133819866D01*
X252329013Y-133634294D01*
X252071033Y-133496401D01*
X251791110Y-133411487D01*
X251500000Y-133382815D01*
X251208889Y-133411487D01*
X250928966Y-133496401D01*
X250670986Y-133634294D01*
X250450055Y-133815608D01*
X250439502Y-133780820D01*
X250380537Y-133670506D01*
X250301185Y-133573815D01*
X250204494Y-133494463D01*
X250094180Y-133435498D01*
X249974482Y-133399188D01*
X249850000Y-133386928D01*
X249285750Y-133390000D01*
X249127000Y-133548750D01*
X249127000Y-134873000D01*
X249147000Y-134873000D01*
X249147000Y-135127000D01*
X249127000Y-135127000D01*
X249127000Y-136451250D01*
X249285750Y-136610000D01*
X249850000Y-136613072D01*
X249974482Y-136600812D01*
X250094180Y-136564502D01*
X250204494Y-136505537D01*
X250301185Y-136426185D01*
X250365000Y-136348426D01*
X250365000Y-136504868D01*
X249004869Y-137865000D01*
X244834098Y-137865000D01*
X244840501Y-137799990D01*
X244818587Y-137577491D01*
X244753686Y-137363543D01*
X244648294Y-137166367D01*
X244506459Y-136993541D01*
X244333633Y-136851706D01*
X244136457Y-136746314D01*
X243922509Y-136681413D01*
X243755762Y-136664990D01*
X228695521Y-136664990D01*
X228823808Y-136536704D01*
X228994600Y-136588513D01*
X229285710Y-136617185D01*
X229576821Y-136588513D01*
X229856744Y-136503599D01*
X230114724Y-136365706D01*
X230340844Y-136180134D01*
X230509193Y-135975000D01*
X247511928Y-135975000D01*
X247524188Y-136099482D01*
X247560498Y-136219180D01*
X247619463Y-136329494D01*
X247698815Y-136426185D01*
X247795506Y-136505537D01*
X247905820Y-136564502D01*
X248025518Y-136600812D01*
X248150000Y-136613072D01*
X248714250Y-136610000D01*
X248873000Y-136451250D01*
X248873000Y-135127000D01*
X247673750Y-135127000D01*
X247515000Y-135285750D01*
X247511928Y-135975000D01*
X230509193Y-135975000D01*
X230526416Y-135954014D01*
X230664309Y-135696033D01*
X230749223Y-135416110D01*
X230770710Y-135197949D01*
X230770710Y-134802050D01*
X230749223Y-134583889D01*
X230664309Y-134303966D01*
X230526416Y-134045986D01*
X230509194Y-134025000D01*
X247511928Y-134025000D01*
X247515000Y-134714250D01*
X247673750Y-134873000D01*
X248873000Y-134873000D01*
X248873000Y-133548750D01*
X248714250Y-133390000D01*
X248150000Y-133386928D01*
X248025518Y-133399188D01*
X247905820Y-133435498D01*
X247795506Y-133494463D01*
X247698815Y-133573815D01*
X247619463Y-133670506D01*
X247560498Y-133780820D01*
X247524188Y-133900518D01*
X247511928Y-134025000D01*
X230509194Y-134025000D01*
X230340844Y-133819866D01*
X230114723Y-133634294D01*
X229856743Y-133496401D01*
X229576820Y-133411487D01*
X229285710Y-133382815D01*
X228994599Y-133411487D01*
X228714676Y-133496401D01*
X228456696Y-133634294D01*
X228230576Y-133819866D01*
X228045004Y-134045987D01*
X228035710Y-134063374D01*
X228026416Y-134045986D01*
X227840844Y-133819866D01*
X227614723Y-133634294D01*
X227356743Y-133496401D01*
X227076820Y-133411487D01*
X226785710Y-133382815D01*
X226494599Y-133411487D01*
X226323809Y-133463296D01*
X202911241Y-110050729D01*
X257056299Y-110050729D01*
X257103543Y-110428951D01*
X257223667Y-110790690D01*
X257355688Y-111037683D01*
X257650776Y-111169619D01*
X258820395Y-110000000D01*
X257650776Y-108830381D01*
X257355688Y-108962317D01*
X257184841Y-109303045D01*
X257083750Y-109670557D01*
X257056299Y-110050729D01*
X202911241Y-110050729D01*
X196349514Y-103489003D01*
X196325711Y-103459999D01*
X196209986Y-103365026D01*
X196077957Y-103294454D01*
X195934696Y-103250997D01*
X195823043Y-103240000D01*
X195823032Y-103240000D01*
X195785710Y-103236324D01*
X195748388Y-103240000D01*
X152203711Y-103240000D01*
X152159774Y-103196063D01*
X151990256Y-103082795D01*
X151801898Y-103004774D01*
X151601939Y-102965000D01*
X151398061Y-102965000D01*
X151198102Y-103004774D01*
X151009744Y-103082795D01*
X150840226Y-103196063D01*
X150696063Y-103340226D01*
X150582795Y-103509744D01*
X150504774Y-103698102D01*
X150465000Y-103898061D01*
X150465000Y-104101939D01*
X150504774Y-104301898D01*
X150582795Y-104490256D01*
X150696063Y-104659774D01*
X150840226Y-104803937D01*
X151009744Y-104917205D01*
X151198102Y-104995226D01*
X151398061Y-105035000D01*
X151601939Y-105035000D01*
X151801898Y-104995226D01*
X151990256Y-104917205D01*
X152159774Y-104803937D01*
X152203711Y-104760000D01*
X155492462Y-104760000D01*
X155465000Y-104898061D01*
X155465000Y-105101939D01*
X155504774Y-105301898D01*
X155582795Y-105490256D01*
X155696063Y-105659774D01*
X155840226Y-105803937D01*
X156009744Y-105917205D01*
X156198102Y-105995226D01*
X156398061Y-106035000D01*
X156601939Y-106035000D01*
X156801898Y-105995226D01*
X156990256Y-105917205D01*
X157159774Y-105803937D01*
X157203711Y-105760000D01*
X169776289Y-105760000D01*
X169696063Y-105840226D01*
X169582795Y-106009744D01*
X169504774Y-106198102D01*
X169465000Y-106398061D01*
X169465000Y-106601939D01*
X169504774Y-106801898D01*
X169582795Y-106990256D01*
X169696063Y-107159774D01*
X169840226Y-107303937D01*
X170009744Y-107417205D01*
X170198102Y-107495226D01*
X170398061Y-107535000D01*
X170601939Y-107535000D01*
X170801898Y-107495226D01*
X170990256Y-107417205D01*
X171159774Y-107303937D01*
X171203711Y-107260000D01*
X171276289Y-107260000D01*
X171196063Y-107340226D01*
X171082795Y-107509744D01*
X171004774Y-107698102D01*
X170965000Y-107898061D01*
X170965000Y-108101939D01*
X170992462Y-108240000D01*
X92203711Y-108240000D01*
X92159774Y-108196063D01*
X91990256Y-108082795D01*
X91801898Y-108004774D01*
X91601939Y-107965000D01*
X91398061Y-107965000D01*
X91198102Y-108004774D01*
X91009744Y-108082795D01*
X90840226Y-108196063D01*
X90696063Y-108340226D01*
X90582795Y-108509744D01*
X90504774Y-108698102D01*
X90484333Y-108800865D01*
X73726408Y-125558791D01*
X73506260Y-125515000D01*
X73213740Y-125515000D01*
X72926842Y-125572068D01*
X72656589Y-125684010D01*
X72413368Y-125846525D01*
X72206525Y-126053368D01*
X72084805Y-126235534D01*
X72015178Y-126118645D01*
X71820269Y-125902412D01*
X71586920Y-125728359D01*
X71324099Y-125603175D01*
X71176890Y-125558524D01*
X70947000Y-125679845D01*
X70947000Y-126873000D01*
X70967000Y-126873000D01*
X70967000Y-127127000D01*
X70947000Y-127127000D01*
X70947000Y-128320155D01*
X71176890Y-128441476D01*
X71324099Y-128396825D01*
X71586920Y-128271641D01*
X71820269Y-128097588D01*
X72015178Y-127881355D01*
X72084805Y-127764466D01*
X72206525Y-127946632D01*
X72413368Y-128153475D01*
X72656589Y-128315990D01*
X72926842Y-128427932D01*
X73213740Y-128485000D01*
X73506260Y-128485000D01*
X73793158Y-128427932D01*
X74063411Y-128315990D01*
X74306632Y-128153475D01*
X74513475Y-127946632D01*
X74630000Y-127772240D01*
X74746525Y-127946632D01*
X74953368Y-128153475D01*
X75196589Y-128315990D01*
X75466842Y-128427932D01*
X75753740Y-128485000D01*
X76046260Y-128485000D01*
X76333158Y-128427932D01*
X76603411Y-128315990D01*
X76686003Y-128260804D01*
X83936205Y-135511008D01*
X83959999Y-135540001D01*
X83988992Y-135563795D01*
X83988996Y-135563799D01*
X84059685Y-135621811D01*
X84075724Y-135634974D01*
X84207753Y-135705546D01*
X84351014Y-135749003D01*
X84462667Y-135760000D01*
X84462676Y-135760000D01*
X84499999Y-135763676D01*
X84537322Y-135760000D01*
X99229660Y-135760000D01*
X99243277Y-135898254D01*
X99293813Y-136064850D01*
X99375880Y-136218386D01*
X99486323Y-136352962D01*
X99620899Y-136463405D01*
X99774435Y-136545472D01*
X99941031Y-136596008D01*
X100114285Y-136613072D01*
X101314285Y-136613072D01*
X101487539Y-136596008D01*
X101654135Y-136545472D01*
X101807671Y-136463405D01*
X101942247Y-136352962D01*
X102052690Y-136218386D01*
X102107062Y-136116663D01*
X102159151Y-136180134D01*
X102385272Y-136365706D01*
X102643252Y-136503599D01*
X102923175Y-136588513D01*
X103214285Y-136617185D01*
X103505396Y-136588513D01*
X103785319Y-136503599D01*
X104043299Y-136365706D01*
X104269419Y-136180134D01*
X104454991Y-135954014D01*
X104464285Y-135936626D01*
X104473579Y-135954014D01*
X104659151Y-136180134D01*
X104885272Y-136365706D01*
X104977769Y-136415146D01*
X105008739Y-136517246D01*
X105079311Y-136649276D01*
X105092207Y-136664990D01*
X84270122Y-136664990D01*
X82485000Y-134879869D01*
X82485000Y-134802050D01*
X82463513Y-134583889D01*
X82378599Y-134303966D01*
X82240706Y-134045986D01*
X82055134Y-133819866D01*
X81829013Y-133634294D01*
X81571033Y-133496401D01*
X81291110Y-133411487D01*
X81000000Y-133382815D01*
X80989027Y-133383896D01*
X80166986Y-132561855D01*
X80131439Y-132518541D01*
X79958613Y-132376706D01*
X79761437Y-132271314D01*
X79547489Y-132206413D01*
X79380742Y-132189990D01*
X79380741Y-132189990D01*
X79324990Y-132184499D01*
X79269239Y-132189990D01*
X72115120Y-132189990D01*
X68413201Y-128488072D01*
X69130000Y-128488072D01*
X69254482Y-128475812D01*
X69374180Y-128439502D01*
X69484494Y-128380537D01*
X69581185Y-128301185D01*
X69660537Y-128204494D01*
X69719502Y-128094180D01*
X69743966Y-128013534D01*
X69819731Y-128097588D01*
X70053080Y-128271641D01*
X70315901Y-128396825D01*
X70463110Y-128441476D01*
X70693000Y-128320155D01*
X70693000Y-127127000D01*
X70673000Y-127127000D01*
X70673000Y-126873000D01*
X70693000Y-126873000D01*
X70693000Y-125679845D01*
X70463110Y-125558524D01*
X70315901Y-125603175D01*
X70053080Y-125728359D01*
X69819731Y-125902412D01*
X69743966Y-125986466D01*
X69719502Y-125905820D01*
X69660537Y-125795506D01*
X69581185Y-125698815D01*
X69484494Y-125619463D01*
X69374180Y-125560498D01*
X69254482Y-125524188D01*
X69130000Y-125511928D01*
X67864999Y-125511928D01*
X67864999Y-104010132D01*
X68390132Y-103485000D01*
X68416260Y-103485000D01*
X68703158Y-103427932D01*
X68973411Y-103315990D01*
X69216632Y-103153475D01*
X69423475Y-102946632D01*
X69545195Y-102764466D01*
X69614822Y-102881355D01*
X69809731Y-103097588D01*
X70043080Y-103271641D01*
X70305901Y-103396825D01*
X70453110Y-103441476D01*
X70683000Y-103320155D01*
X70683000Y-102127000D01*
X70663000Y-102127000D01*
X70663000Y-101873000D01*
X70683000Y-101873000D01*
X70683000Y-100679845D01*
X70480655Y-100573061D01*
X70553676Y-100436447D01*
X70618577Y-100222499D01*
X70640491Y-100000000D01*
X70635000Y-99944248D01*
X70635000Y-98470131D01*
X73470132Y-95635000D01*
X75144249Y-95635000D01*
X75200000Y-95640491D01*
X75255751Y-95635000D01*
X75255752Y-95635000D01*
X75422499Y-95618577D01*
X75636447Y-95553676D01*
X75833623Y-95448284D01*
X76006449Y-95306449D01*
X76041996Y-95263135D01*
X76061928Y-95243203D01*
X76061928Y-95300000D01*
X76074188Y-95424482D01*
X76110498Y-95544180D01*
X76169463Y-95654494D01*
X76248815Y-95751185D01*
X76345506Y-95830537D01*
X76455820Y-95889502D01*
X76575518Y-95925812D01*
X76700000Y-95938072D01*
X78337126Y-95938072D01*
X73716408Y-100558791D01*
X73496260Y-100515000D01*
X73203740Y-100515000D01*
X72916842Y-100572068D01*
X72646589Y-100684010D01*
X72403368Y-100846525D01*
X72196525Y-101053368D01*
X72074805Y-101235534D01*
X72005178Y-101118645D01*
X71810269Y-100902412D01*
X71576920Y-100728359D01*
X71314099Y-100603175D01*
X71166890Y-100558524D01*
X70937000Y-100679845D01*
X70937000Y-101873000D01*
X70957000Y-101873000D01*
X70957000Y-102127000D01*
X70937000Y-102127000D01*
X70937000Y-103320155D01*
X71166890Y-103441476D01*
X71314099Y-103396825D01*
X71576920Y-103271641D01*
X71810269Y-103097588D01*
X72005178Y-102881355D01*
X72074805Y-102764466D01*
X72196525Y-102946632D01*
X72403368Y-103153475D01*
X72646589Y-103315990D01*
X72916842Y-103427932D01*
X73203740Y-103485000D01*
X73496260Y-103485000D01*
X73783158Y-103427932D01*
X74053411Y-103315990D01*
X74296632Y-103153475D01*
X74503475Y-102946632D01*
X74620000Y-102772240D01*
X74736525Y-102946632D01*
X74943368Y-103153475D01*
X75186589Y-103315990D01*
X75456842Y-103427932D01*
X75743740Y-103485000D01*
X76036260Y-103485000D01*
X76323158Y-103427932D01*
X76593411Y-103315990D01*
X76836632Y-103153475D01*
X77043475Y-102946632D01*
X77160000Y-102772240D01*
X77276525Y-102946632D01*
X77483368Y-103153475D01*
X77726589Y-103315990D01*
X77996842Y-103427932D01*
X78283740Y-103485000D01*
X78576260Y-103485000D01*
X78863158Y-103427932D01*
X79133411Y-103315990D01*
X79376632Y-103153475D01*
X79583475Y-102946632D01*
X79700000Y-102772240D01*
X79816525Y-102946632D01*
X80023368Y-103153475D01*
X80266589Y-103315990D01*
X80536842Y-103427932D01*
X80823740Y-103485000D01*
X81116260Y-103485000D01*
X81403158Y-103427932D01*
X81673411Y-103315990D01*
X81916632Y-103153475D01*
X82123475Y-102946632D01*
X82240000Y-102772240D01*
X82356525Y-102946632D01*
X82563368Y-103153475D01*
X82806589Y-103315990D01*
X83076842Y-103427932D01*
X83363740Y-103485000D01*
X83656260Y-103485000D01*
X83943158Y-103427932D01*
X84213411Y-103315990D01*
X84456632Y-103153475D01*
X84663475Y-102946632D01*
X84780000Y-102772240D01*
X84896525Y-102946632D01*
X85103368Y-103153475D01*
X85346589Y-103315990D01*
X85616842Y-103427932D01*
X85903740Y-103485000D01*
X86196260Y-103485000D01*
X86483158Y-103427932D01*
X86753411Y-103315990D01*
X86996632Y-103153475D01*
X87203475Y-102946632D01*
X87320000Y-102772240D01*
X87436525Y-102946632D01*
X87643368Y-103153475D01*
X87886589Y-103315990D01*
X88156842Y-103427932D01*
X88443740Y-103485000D01*
X88736260Y-103485000D01*
X89023158Y-103427932D01*
X89293411Y-103315990D01*
X89536632Y-103153475D01*
X89743475Y-102946632D01*
X89860000Y-102772240D01*
X89976525Y-102946632D01*
X90183368Y-103153475D01*
X90426589Y-103315990D01*
X90696842Y-103427932D01*
X90983740Y-103485000D01*
X91276260Y-103485000D01*
X91563158Y-103427932D01*
X91833411Y-103315990D01*
X92076632Y-103153475D01*
X92283475Y-102946632D01*
X92400000Y-102772240D01*
X92516525Y-102946632D01*
X92723368Y-103153475D01*
X92966589Y-103315990D01*
X93236842Y-103427932D01*
X93523740Y-103485000D01*
X93816260Y-103485000D01*
X94103158Y-103427932D01*
X94373411Y-103315990D01*
X94616632Y-103153475D01*
X94823475Y-102946632D01*
X94940000Y-102772240D01*
X95056525Y-102946632D01*
X95263368Y-103153475D01*
X95506589Y-103315990D01*
X95776842Y-103427932D01*
X96063740Y-103485000D01*
X96356260Y-103485000D01*
X96643158Y-103427932D01*
X96913411Y-103315990D01*
X97156632Y-103153475D01*
X97363475Y-102946632D01*
X97480000Y-102772240D01*
X97596525Y-102946632D01*
X97803368Y-103153475D01*
X98046589Y-103315990D01*
X98316842Y-103427932D01*
X98603740Y-103485000D01*
X98896260Y-103485000D01*
X99183158Y-103427932D01*
X99453411Y-103315990D01*
X99696632Y-103153475D01*
X99903475Y-102946632D01*
X100020000Y-102772240D01*
X100136525Y-102946632D01*
X100343368Y-103153475D01*
X100586589Y-103315990D01*
X100856842Y-103427932D01*
X101143740Y-103485000D01*
X101436260Y-103485000D01*
X101723158Y-103427932D01*
X101993411Y-103315990D01*
X102236632Y-103153475D01*
X102368487Y-103021620D01*
X102390498Y-103094180D01*
X102449463Y-103204494D01*
X102528815Y-103301185D01*
X102625506Y-103380537D01*
X102735820Y-103439502D01*
X102855518Y-103475812D01*
X102980000Y-103488072D01*
X104680000Y-103488072D01*
X104804482Y-103475812D01*
X104924180Y-103439502D01*
X105034494Y-103380537D01*
X105131185Y-103301185D01*
X105210537Y-103204494D01*
X105269502Y-103094180D01*
X105305812Y-102974482D01*
X105318072Y-102850000D01*
X105318072Y-101584999D01*
X181137679Y-101584999D01*
X181175001Y-101588675D01*
X181212323Y-101584999D01*
X181212334Y-101584999D01*
X181323987Y-101574002D01*
X181467248Y-101530545D01*
X181599277Y-101459973D01*
X181715002Y-101365000D01*
X181738805Y-101335996D01*
X186539802Y-96535000D01*
X186601939Y-96535000D01*
X186801898Y-96495226D01*
X186990256Y-96417205D01*
X187159774Y-96303937D01*
X187303937Y-96159774D01*
X187417205Y-95990256D01*
X187495226Y-95801898D01*
X187535000Y-95601939D01*
X187535000Y-95539801D01*
X191636731Y-91438072D01*
X193800000Y-91438072D01*
X193924482Y-91425812D01*
X194044180Y-91389502D01*
X194154494Y-91330537D01*
X194251185Y-91251185D01*
X194330537Y-91154494D01*
X194389502Y-91044180D01*
X194425812Y-90924482D01*
X194438072Y-90800000D01*
X194438072Y-89309419D01*
X195565000Y-89309419D01*
X195565000Y-89690581D01*
X195639361Y-90064419D01*
X195785225Y-90416566D01*
X195996987Y-90733491D01*
X196266509Y-91003013D01*
X196583434Y-91214775D01*
X196935581Y-91360639D01*
X197309419Y-91435000D01*
X197690581Y-91435000D01*
X198064419Y-91360639D01*
X198416566Y-91214775D01*
X198733491Y-91003013D01*
X199003013Y-90733491D01*
X199214775Y-90416566D01*
X199360639Y-90064419D01*
X199435000Y-89690581D01*
X199435000Y-89309419D01*
X200565000Y-89309419D01*
X200565000Y-89690581D01*
X200639361Y-90064419D01*
X200785225Y-90416566D01*
X200996987Y-90733491D01*
X201266509Y-91003013D01*
X201583434Y-91214775D01*
X201935581Y-91360639D01*
X202309419Y-91435000D01*
X202690581Y-91435000D01*
X203064419Y-91360639D01*
X203416566Y-91214775D01*
X203733491Y-91003013D01*
X204003013Y-90733491D01*
X204214775Y-90416566D01*
X204360639Y-90064419D01*
X204435000Y-89690581D01*
X204435000Y-89309419D01*
X204360639Y-88935581D01*
X204214775Y-88583434D01*
X204003013Y-88266509D01*
X203936504Y-88200000D01*
X205561928Y-88200000D01*
X205561928Y-90800000D01*
X205574188Y-90924482D01*
X205610498Y-91044180D01*
X205669463Y-91154494D01*
X205748815Y-91251185D01*
X205845506Y-91330537D01*
X205955820Y-91389502D01*
X206075518Y-91425812D01*
X206200000Y-91438072D01*
X208800000Y-91438072D01*
X208924482Y-91425812D01*
X209044180Y-91389502D01*
X209154494Y-91330537D01*
X209251185Y-91251185D01*
X209330537Y-91154494D01*
X209389502Y-91044180D01*
X209425812Y-90924482D01*
X209438072Y-90800000D01*
X209438072Y-89309419D01*
X210565000Y-89309419D01*
X210565000Y-89690581D01*
X210639361Y-90064419D01*
X210785225Y-90416566D01*
X210996987Y-90733491D01*
X211266509Y-91003013D01*
X211583434Y-91214775D01*
X211935581Y-91360639D01*
X212309419Y-91435000D01*
X212690581Y-91435000D01*
X213064419Y-91360639D01*
X213416566Y-91214775D01*
X213733491Y-91003013D01*
X214003013Y-90733491D01*
X214214775Y-90416566D01*
X214360639Y-90064419D01*
X214435000Y-89690581D01*
X214435000Y-89309419D01*
X215565000Y-89309419D01*
X215565000Y-89690581D01*
X215639361Y-90064419D01*
X215785225Y-90416566D01*
X215996987Y-90733491D01*
X216266509Y-91003013D01*
X216583434Y-91214775D01*
X216935581Y-91360639D01*
X217309419Y-91435000D01*
X217690581Y-91435000D01*
X218064419Y-91360639D01*
X218416566Y-91214775D01*
X218733491Y-91003013D01*
X219003013Y-90733491D01*
X219214775Y-90416566D01*
X219360639Y-90064419D01*
X219435000Y-89690581D01*
X219435000Y-89309419D01*
X219360639Y-88935581D01*
X219214775Y-88583434D01*
X219003013Y-88266509D01*
X218936504Y-88200000D01*
X220561928Y-88200000D01*
X220561928Y-90800000D01*
X220574188Y-90924482D01*
X220610498Y-91044180D01*
X220669463Y-91154494D01*
X220748815Y-91251185D01*
X220845506Y-91330537D01*
X220955820Y-91389502D01*
X221075518Y-91425812D01*
X221200000Y-91438072D01*
X223800000Y-91438072D01*
X223924482Y-91425812D01*
X224044180Y-91389502D01*
X224154494Y-91330537D01*
X224251185Y-91251185D01*
X224330537Y-91154494D01*
X224389502Y-91044180D01*
X224425812Y-90924482D01*
X224438072Y-90800000D01*
X224438072Y-89309419D01*
X225565000Y-89309419D01*
X225565000Y-89690581D01*
X225639361Y-90064419D01*
X225785225Y-90416566D01*
X225996987Y-90733491D01*
X226266509Y-91003013D01*
X226583434Y-91214775D01*
X226935581Y-91360639D01*
X227309419Y-91435000D01*
X227690581Y-91435000D01*
X228064419Y-91360639D01*
X228416566Y-91214775D01*
X228733491Y-91003013D01*
X229003013Y-90733491D01*
X229214775Y-90416566D01*
X229360639Y-90064419D01*
X229435000Y-89690581D01*
X229435000Y-89309419D01*
X230565000Y-89309419D01*
X230565000Y-89690581D01*
X230639361Y-90064419D01*
X230785225Y-90416566D01*
X230996987Y-90733491D01*
X231266509Y-91003013D01*
X231583434Y-91214775D01*
X231935581Y-91360639D01*
X232309419Y-91435000D01*
X232690581Y-91435000D01*
X233064419Y-91360639D01*
X233416566Y-91214775D01*
X233733491Y-91003013D01*
X234003013Y-90733491D01*
X234214775Y-90416566D01*
X234360639Y-90064419D01*
X234435000Y-89690581D01*
X234435000Y-89309419D01*
X234360639Y-88935581D01*
X234214775Y-88583434D01*
X234003013Y-88266509D01*
X233936504Y-88200000D01*
X235561928Y-88200000D01*
X235561928Y-90800000D01*
X235574188Y-90924482D01*
X235610498Y-91044180D01*
X235669463Y-91154494D01*
X235748815Y-91251185D01*
X235845506Y-91330537D01*
X235955820Y-91389502D01*
X236075518Y-91425812D01*
X236200000Y-91438072D01*
X238800000Y-91438072D01*
X238924482Y-91425812D01*
X239044180Y-91389502D01*
X239154494Y-91330537D01*
X239251185Y-91251185D01*
X239330537Y-91154494D01*
X239389502Y-91044180D01*
X239425812Y-90924482D01*
X239438072Y-90800000D01*
X239438072Y-89309419D01*
X240565000Y-89309419D01*
X240565000Y-89690581D01*
X240639361Y-90064419D01*
X240785225Y-90416566D01*
X240996987Y-90733491D01*
X241266509Y-91003013D01*
X241583434Y-91214775D01*
X241935581Y-91360639D01*
X242309419Y-91435000D01*
X242690581Y-91435000D01*
X243064419Y-91360639D01*
X243416566Y-91214775D01*
X243733491Y-91003013D01*
X244003013Y-90733491D01*
X244214775Y-90416566D01*
X244360639Y-90064419D01*
X244435000Y-89690581D01*
X244435000Y-89309419D01*
X245565000Y-89309419D01*
X245565000Y-89690581D01*
X245639361Y-90064419D01*
X245785225Y-90416566D01*
X245996987Y-90733491D01*
X246266509Y-91003013D01*
X246583434Y-91214775D01*
X246935581Y-91360639D01*
X247309419Y-91435000D01*
X247690581Y-91435000D01*
X248064419Y-91360639D01*
X248416566Y-91214775D01*
X248733491Y-91003013D01*
X249003013Y-90733491D01*
X249214775Y-90416566D01*
X249360639Y-90064419D01*
X249435000Y-89690581D01*
X249435000Y-89309419D01*
X249360639Y-88935581D01*
X249214775Y-88583434D01*
X249003013Y-88266509D01*
X248936504Y-88200000D01*
X250561928Y-88200000D01*
X250561928Y-90800000D01*
X250574188Y-90924482D01*
X250610498Y-91044180D01*
X250669463Y-91154494D01*
X250748815Y-91251185D01*
X250845506Y-91330537D01*
X250955820Y-91389502D01*
X251075518Y-91425812D01*
X251200000Y-91438072D01*
X253800000Y-91438072D01*
X253924482Y-91425812D01*
X254044180Y-91389502D01*
X254154494Y-91330537D01*
X254251185Y-91251185D01*
X254330537Y-91154494D01*
X254389502Y-91044180D01*
X254425812Y-90924482D01*
X254438072Y-90800000D01*
X254438072Y-88200000D01*
X254425812Y-88075518D01*
X254389502Y-87955820D01*
X254330537Y-87845506D01*
X254251185Y-87748815D01*
X254154494Y-87669463D01*
X254044180Y-87610498D01*
X253924482Y-87574188D01*
X253800000Y-87561928D01*
X251200000Y-87561928D01*
X251075518Y-87574188D01*
X250955820Y-87610498D01*
X250845506Y-87669463D01*
X250748815Y-87748815D01*
X250669463Y-87845506D01*
X250610498Y-87955820D01*
X250574188Y-88075518D01*
X250561928Y-88200000D01*
X248936504Y-88200000D01*
X248733491Y-87996987D01*
X248416566Y-87785225D01*
X248064419Y-87639361D01*
X247690581Y-87565000D01*
X247309419Y-87565000D01*
X246935581Y-87639361D01*
X246583434Y-87785225D01*
X246266509Y-87996987D01*
X245996987Y-88266509D01*
X245785225Y-88583434D01*
X245639361Y-88935581D01*
X245565000Y-89309419D01*
X244435000Y-89309419D01*
X244360639Y-88935581D01*
X244214775Y-88583434D01*
X244003013Y-88266509D01*
X243733491Y-87996987D01*
X243416566Y-87785225D01*
X243064419Y-87639361D01*
X242690581Y-87565000D01*
X242309419Y-87565000D01*
X241935581Y-87639361D01*
X241583434Y-87785225D01*
X241266509Y-87996987D01*
X240996987Y-88266509D01*
X240785225Y-88583434D01*
X240639361Y-88935581D01*
X240565000Y-89309419D01*
X239438072Y-89309419D01*
X239438072Y-88200000D01*
X239425812Y-88075518D01*
X239389502Y-87955820D01*
X239330537Y-87845506D01*
X239251185Y-87748815D01*
X239154494Y-87669463D01*
X239044180Y-87610498D01*
X238924482Y-87574188D01*
X238800000Y-87561928D01*
X236200000Y-87561928D01*
X236075518Y-87574188D01*
X235955820Y-87610498D01*
X235845506Y-87669463D01*
X235748815Y-87748815D01*
X235669463Y-87845506D01*
X235610498Y-87955820D01*
X235574188Y-88075518D01*
X235561928Y-88200000D01*
X233936504Y-88200000D01*
X233733491Y-87996987D01*
X233416566Y-87785225D01*
X233064419Y-87639361D01*
X232690581Y-87565000D01*
X232309419Y-87565000D01*
X231935581Y-87639361D01*
X231583434Y-87785225D01*
X231266509Y-87996987D01*
X230996987Y-88266509D01*
X230785225Y-88583434D01*
X230639361Y-88935581D01*
X230565000Y-89309419D01*
X229435000Y-89309419D01*
X229360639Y-88935581D01*
X229214775Y-88583434D01*
X229003013Y-88266509D01*
X228733491Y-87996987D01*
X228416566Y-87785225D01*
X228064419Y-87639361D01*
X227690581Y-87565000D01*
X227309419Y-87565000D01*
X226935581Y-87639361D01*
X226583434Y-87785225D01*
X226266509Y-87996987D01*
X225996987Y-88266509D01*
X225785225Y-88583434D01*
X225639361Y-88935581D01*
X225565000Y-89309419D01*
X224438072Y-89309419D01*
X224438072Y-88200000D01*
X224425812Y-88075518D01*
X224389502Y-87955820D01*
X224330537Y-87845506D01*
X224251185Y-87748815D01*
X224154494Y-87669463D01*
X224044180Y-87610498D01*
X223924482Y-87574188D01*
X223800000Y-87561928D01*
X221200000Y-87561928D01*
X221075518Y-87574188D01*
X220955820Y-87610498D01*
X220845506Y-87669463D01*
X220748815Y-87748815D01*
X220669463Y-87845506D01*
X220610498Y-87955820D01*
X220574188Y-88075518D01*
X220561928Y-88200000D01*
X218936504Y-88200000D01*
X218733491Y-87996987D01*
X218416566Y-87785225D01*
X218064419Y-87639361D01*
X217690581Y-87565000D01*
X217309419Y-87565000D01*
X216935581Y-87639361D01*
X216583434Y-87785225D01*
X216266509Y-87996987D01*
X215996987Y-88266509D01*
X215785225Y-88583434D01*
X215639361Y-88935581D01*
X215565000Y-89309419D01*
X214435000Y-89309419D01*
X214360639Y-88935581D01*
X214214775Y-88583434D01*
X214003013Y-88266509D01*
X213733491Y-87996987D01*
X213416566Y-87785225D01*
X213064419Y-87639361D01*
X212690581Y-87565000D01*
X212309419Y-87565000D01*
X211935581Y-87639361D01*
X211583434Y-87785225D01*
X211266509Y-87996987D01*
X210996987Y-88266509D01*
X210785225Y-88583434D01*
X210639361Y-88935581D01*
X210565000Y-89309419D01*
X209438072Y-89309419D01*
X209438072Y-88200000D01*
X209425812Y-88075518D01*
X209389502Y-87955820D01*
X209330537Y-87845506D01*
X209251185Y-87748815D01*
X209154494Y-87669463D01*
X209044180Y-87610498D01*
X208924482Y-87574188D01*
X208800000Y-87561928D01*
X206200000Y-87561928D01*
X206075518Y-87574188D01*
X205955820Y-87610498D01*
X205845506Y-87669463D01*
X205748815Y-87748815D01*
X205669463Y-87845506D01*
X205610498Y-87955820D01*
X205574188Y-88075518D01*
X205561928Y-88200000D01*
X203936504Y-88200000D01*
X203733491Y-87996987D01*
X203416566Y-87785225D01*
X203064419Y-87639361D01*
X202690581Y-87565000D01*
X202309419Y-87565000D01*
X201935581Y-87639361D01*
X201583434Y-87785225D01*
X201266509Y-87996987D01*
X200996987Y-88266509D01*
X200785225Y-88583434D01*
X200639361Y-88935581D01*
X200565000Y-89309419D01*
X199435000Y-89309419D01*
X199360639Y-88935581D01*
X199214775Y-88583434D01*
X199003013Y-88266509D01*
X198733491Y-87996987D01*
X198416566Y-87785225D01*
X198064419Y-87639361D01*
X197690581Y-87565000D01*
X197309419Y-87565000D01*
X196935581Y-87639361D01*
X196583434Y-87785225D01*
X196266509Y-87996987D01*
X195996987Y-88266509D01*
X195785225Y-88583434D01*
X195639361Y-88935581D01*
X195565000Y-89309419D01*
X194438072Y-89309419D01*
X194438072Y-88200000D01*
X194425812Y-88075518D01*
X194389502Y-87955820D01*
X194330537Y-87845506D01*
X194251185Y-87748815D01*
X194154494Y-87669463D01*
X194044180Y-87610498D01*
X193924482Y-87574188D01*
X193800000Y-87561928D01*
X191200000Y-87561928D01*
X191075518Y-87574188D01*
X190955820Y-87610498D01*
X190845506Y-87669463D01*
X190748815Y-87748815D01*
X190669463Y-87845506D01*
X190610498Y-87955820D01*
X190574188Y-88075518D01*
X190561928Y-88200000D01*
X190561928Y-90363269D01*
X186460199Y-94465000D01*
X186398061Y-94465000D01*
X186198102Y-94504774D01*
X186009744Y-94582795D01*
X185840226Y-94696063D01*
X185696063Y-94840226D01*
X185582795Y-95009744D01*
X185504774Y-95198102D01*
X185465000Y-95398061D01*
X185465000Y-95460198D01*
X180860200Y-100064999D01*
X178009802Y-100064999D01*
X181539802Y-96535000D01*
X181601939Y-96535000D01*
X181801898Y-96495226D01*
X181990256Y-96417205D01*
X182159774Y-96303937D01*
X182303937Y-96159774D01*
X182417205Y-95990256D01*
X182495226Y-95801898D01*
X182535000Y-95601939D01*
X182535000Y-95539801D01*
X186779015Y-91295787D01*
X186935581Y-91360639D01*
X187309419Y-91435000D01*
X187690581Y-91435000D01*
X188064419Y-91360639D01*
X188416566Y-91214775D01*
X188733491Y-91003013D01*
X189003013Y-90733491D01*
X189214775Y-90416566D01*
X189360639Y-90064419D01*
X189435000Y-89690581D01*
X189435000Y-89309419D01*
X189360639Y-88935581D01*
X189214775Y-88583434D01*
X189003013Y-88266509D01*
X188733491Y-87996987D01*
X188416566Y-87785225D01*
X188064419Y-87639361D01*
X187690581Y-87565000D01*
X187309419Y-87565000D01*
X186935581Y-87639361D01*
X186583434Y-87785225D01*
X186266509Y-87996987D01*
X185996987Y-88266509D01*
X185785225Y-88583434D01*
X185639361Y-88935581D01*
X185565000Y-89309419D01*
X185565000Y-89690581D01*
X185639361Y-90064419D01*
X185704213Y-90220985D01*
X181460199Y-94465000D01*
X181398061Y-94465000D01*
X181198102Y-94504774D01*
X181009744Y-94582795D01*
X180840226Y-94696063D01*
X180696063Y-94840226D01*
X180582795Y-95009744D01*
X180504774Y-95198102D01*
X180465000Y-95398061D01*
X180465000Y-95460198D01*
X176310210Y-99614989D01*
X173459812Y-99614989D01*
X176539802Y-96535000D01*
X176601939Y-96535000D01*
X176801898Y-96495226D01*
X176990256Y-96417205D01*
X177159774Y-96303937D01*
X177303937Y-96159774D01*
X177417205Y-95990256D01*
X177495226Y-95801898D01*
X177535000Y-95601939D01*
X177535000Y-95539801D01*
X181779015Y-91295787D01*
X181935581Y-91360639D01*
X182309419Y-91435000D01*
X182690581Y-91435000D01*
X183064419Y-91360639D01*
X183416566Y-91214775D01*
X183733491Y-91003013D01*
X184003013Y-90733491D01*
X184214775Y-90416566D01*
X184360639Y-90064419D01*
X184435000Y-89690581D01*
X184435000Y-89309419D01*
X184360639Y-88935581D01*
X184214775Y-88583434D01*
X184003013Y-88266509D01*
X183733491Y-87996987D01*
X183416566Y-87785225D01*
X183064419Y-87639361D01*
X182690581Y-87565000D01*
X182309419Y-87565000D01*
X181935581Y-87639361D01*
X181583434Y-87785225D01*
X181266509Y-87996987D01*
X180996987Y-88266509D01*
X180785225Y-88583434D01*
X180639361Y-88935581D01*
X180565000Y-89309419D01*
X180565000Y-89690581D01*
X180639361Y-90064419D01*
X180704213Y-90220985D01*
X176460199Y-94465000D01*
X176398061Y-94465000D01*
X176198102Y-94504774D01*
X176009744Y-94582795D01*
X175840226Y-94696063D01*
X175696063Y-94840226D01*
X175582795Y-95009744D01*
X175504774Y-95198102D01*
X175465000Y-95398061D01*
X175465000Y-95460198D01*
X171760220Y-99164979D01*
X168909822Y-99164979D01*
X171539802Y-96535000D01*
X171601939Y-96535000D01*
X171801898Y-96495226D01*
X171990256Y-96417205D01*
X172159774Y-96303937D01*
X172303937Y-96159774D01*
X172417205Y-95990256D01*
X172495226Y-95801898D01*
X172535000Y-95601939D01*
X172535000Y-95539801D01*
X176636731Y-91438072D01*
X178800000Y-91438072D01*
X178924482Y-91425812D01*
X179044180Y-91389502D01*
X179154494Y-91330537D01*
X179251185Y-91251185D01*
X179330537Y-91154494D01*
X179389502Y-91044180D01*
X179425812Y-90924482D01*
X179438072Y-90800000D01*
X179438072Y-88200000D01*
X179425812Y-88075518D01*
X179389502Y-87955820D01*
X179330537Y-87845506D01*
X179251185Y-87748815D01*
X179154494Y-87669463D01*
X179044180Y-87610498D01*
X178924482Y-87574188D01*
X178800000Y-87561928D01*
X176200000Y-87561928D01*
X176075518Y-87574188D01*
X175955820Y-87610498D01*
X175845506Y-87669463D01*
X175748815Y-87748815D01*
X175669463Y-87845506D01*
X175610498Y-87955820D01*
X175574188Y-88075518D01*
X175561928Y-88200000D01*
X175561928Y-90363269D01*
X171460199Y-94465000D01*
X171398061Y-94465000D01*
X171198102Y-94504774D01*
X171009744Y-94582795D01*
X170840226Y-94696063D01*
X170696063Y-94840226D01*
X170582795Y-95009744D01*
X170504774Y-95198102D01*
X170465000Y-95398061D01*
X170465000Y-95460198D01*
X167210230Y-98714969D01*
X164359832Y-98714969D01*
X166539803Y-96535000D01*
X166601939Y-96535000D01*
X166801898Y-96495226D01*
X166990256Y-96417205D01*
X167159774Y-96303937D01*
X167303937Y-96159774D01*
X167417205Y-95990256D01*
X167495226Y-95801898D01*
X167535000Y-95601939D01*
X167535000Y-95539801D01*
X171779015Y-91295787D01*
X171935581Y-91360639D01*
X172309419Y-91435000D01*
X172690581Y-91435000D01*
X173064419Y-91360639D01*
X173416566Y-91214775D01*
X173733491Y-91003013D01*
X174003013Y-90733491D01*
X174214775Y-90416566D01*
X174360639Y-90064419D01*
X174435000Y-89690581D01*
X174435000Y-89309419D01*
X174360639Y-88935581D01*
X174214775Y-88583434D01*
X174003013Y-88266509D01*
X173733491Y-87996987D01*
X173416566Y-87785225D01*
X173064419Y-87639361D01*
X172690581Y-87565000D01*
X172309419Y-87565000D01*
X171935581Y-87639361D01*
X171583434Y-87785225D01*
X171266509Y-87996987D01*
X170996987Y-88266509D01*
X170785225Y-88583434D01*
X170639361Y-88935581D01*
X170565000Y-89309419D01*
X170565000Y-89690581D01*
X170639361Y-90064419D01*
X170704213Y-90220985D01*
X166460199Y-94465000D01*
X166398061Y-94465000D01*
X166198102Y-94504774D01*
X166009744Y-94582795D01*
X165840226Y-94696063D01*
X165696063Y-94840226D01*
X165582795Y-95009744D01*
X165504774Y-95198102D01*
X165465000Y-95398061D01*
X165465000Y-95460197D01*
X162685199Y-98240000D01*
X159834801Y-98240000D01*
X161539802Y-96535000D01*
X161601939Y-96535000D01*
X161801898Y-96495226D01*
X161990256Y-96417205D01*
X162159774Y-96303937D01*
X162303937Y-96159774D01*
X162417205Y-95990256D01*
X162495226Y-95801898D01*
X162535000Y-95601939D01*
X162535000Y-95539801D01*
X166779015Y-91295787D01*
X166935581Y-91360639D01*
X167309419Y-91435000D01*
X167690581Y-91435000D01*
X168064419Y-91360639D01*
X168416566Y-91214775D01*
X168733491Y-91003013D01*
X169003013Y-90733491D01*
X169214775Y-90416566D01*
X169360639Y-90064419D01*
X169435000Y-89690581D01*
X169435000Y-89309419D01*
X169360639Y-88935581D01*
X169214775Y-88583434D01*
X169003013Y-88266509D01*
X168733491Y-87996987D01*
X168416566Y-87785225D01*
X168064419Y-87639361D01*
X167690581Y-87565000D01*
X167309419Y-87565000D01*
X166935581Y-87639361D01*
X166583434Y-87785225D01*
X166266509Y-87996987D01*
X165996987Y-88266509D01*
X165785225Y-88583434D01*
X165639361Y-88935581D01*
X165565000Y-89309419D01*
X165565000Y-89690581D01*
X165639361Y-90064419D01*
X165704213Y-90220985D01*
X161460199Y-94465000D01*
X161398061Y-94465000D01*
X161198102Y-94504774D01*
X161009744Y-94582795D01*
X160840226Y-94696063D01*
X160696063Y-94840226D01*
X160582795Y-95009744D01*
X160504774Y-95198102D01*
X160465000Y-95398061D01*
X160465000Y-95460198D01*
X158185199Y-97740000D01*
X155334801Y-97740000D01*
X156539802Y-96535000D01*
X156601939Y-96535000D01*
X156801898Y-96495226D01*
X156990256Y-96417205D01*
X157159774Y-96303937D01*
X157303937Y-96159774D01*
X157417205Y-95990256D01*
X157495226Y-95801898D01*
X157535000Y-95601939D01*
X157535000Y-95539801D01*
X161636731Y-91438072D01*
X163800000Y-91438072D01*
X163924482Y-91425812D01*
X164044180Y-91389502D01*
X164154494Y-91330537D01*
X164251185Y-91251185D01*
X164330537Y-91154494D01*
X164389502Y-91044180D01*
X164425812Y-90924482D01*
X164438072Y-90800000D01*
X164438072Y-88200000D01*
X164425812Y-88075518D01*
X164389502Y-87955820D01*
X164330537Y-87845506D01*
X164251185Y-87748815D01*
X164154494Y-87669463D01*
X164044180Y-87610498D01*
X163924482Y-87574188D01*
X163800000Y-87561928D01*
X161200000Y-87561928D01*
X161075518Y-87574188D01*
X160955820Y-87610498D01*
X160845506Y-87669463D01*
X160748815Y-87748815D01*
X160669463Y-87845506D01*
X160610498Y-87955820D01*
X160574188Y-88075518D01*
X160561928Y-88200000D01*
X160561928Y-90363269D01*
X156460199Y-94465000D01*
X156398061Y-94465000D01*
X156198102Y-94504774D01*
X156009744Y-94582795D01*
X155840226Y-94696063D01*
X155696063Y-94840226D01*
X155582795Y-95009744D01*
X155504774Y-95198102D01*
X155465000Y-95398061D01*
X155465000Y-95460198D01*
X153685199Y-97240000D01*
X150834801Y-97240000D01*
X151539802Y-96535000D01*
X151601939Y-96535000D01*
X151801898Y-96495226D01*
X151990256Y-96417205D01*
X152159774Y-96303937D01*
X152303937Y-96159774D01*
X152417205Y-95990256D01*
X152495226Y-95801898D01*
X152535000Y-95601939D01*
X152535000Y-95539801D01*
X156779015Y-91295787D01*
X156935581Y-91360639D01*
X157309419Y-91435000D01*
X157690581Y-91435000D01*
X158064419Y-91360639D01*
X158416566Y-91214775D01*
X158733491Y-91003013D01*
X159003013Y-90733491D01*
X159214775Y-90416566D01*
X159360639Y-90064419D01*
X159435000Y-89690581D01*
X159435000Y-89309419D01*
X159360639Y-88935581D01*
X159214775Y-88583434D01*
X159003013Y-88266509D01*
X158733491Y-87996987D01*
X158416566Y-87785225D01*
X158064419Y-87639361D01*
X157690581Y-87565000D01*
X157309419Y-87565000D01*
X156935581Y-87639361D01*
X156583434Y-87785225D01*
X156266509Y-87996987D01*
X155996987Y-88266509D01*
X155785225Y-88583434D01*
X155639361Y-88935581D01*
X155565000Y-89309419D01*
X155565000Y-89690581D01*
X155639361Y-90064419D01*
X155704213Y-90220985D01*
X151460199Y-94465000D01*
X151398061Y-94465000D01*
X151198102Y-94504774D01*
X151009744Y-94582795D01*
X150840226Y-94696063D01*
X150696063Y-94840226D01*
X150582795Y-95009744D01*
X150504774Y-95198102D01*
X150465000Y-95398061D01*
X150465000Y-95460198D01*
X149185199Y-96740000D01*
X146334802Y-96740000D01*
X146539802Y-96535000D01*
X146601939Y-96535000D01*
X146801898Y-96495226D01*
X146990256Y-96417205D01*
X147159774Y-96303937D01*
X147303937Y-96159774D01*
X147417205Y-95990256D01*
X147495226Y-95801898D01*
X147535000Y-95601939D01*
X147535000Y-95539801D01*
X151779015Y-91295787D01*
X151935581Y-91360639D01*
X152309419Y-91435000D01*
X152690581Y-91435000D01*
X153064419Y-91360639D01*
X153416566Y-91214775D01*
X153733491Y-91003013D01*
X154003013Y-90733491D01*
X154214775Y-90416566D01*
X154360639Y-90064419D01*
X154435000Y-89690581D01*
X154435000Y-89309419D01*
X154360639Y-88935581D01*
X154214775Y-88583434D01*
X154003013Y-88266509D01*
X153733491Y-87996987D01*
X153416566Y-87785225D01*
X153064419Y-87639361D01*
X152690581Y-87565000D01*
X152309419Y-87565000D01*
X151935581Y-87639361D01*
X151583434Y-87785225D01*
X151266509Y-87996987D01*
X150996987Y-88266509D01*
X150785225Y-88583434D01*
X150639361Y-88935581D01*
X150565000Y-89309419D01*
X150565000Y-89690581D01*
X150639361Y-90064419D01*
X150704213Y-90220985D01*
X146460199Y-94465000D01*
X146398061Y-94465000D01*
X146198102Y-94504774D01*
X146009744Y-94582795D01*
X145840226Y-94696063D01*
X145696063Y-94840226D01*
X145582795Y-95009744D01*
X145504774Y-95198102D01*
X145465000Y-95398061D01*
X145465000Y-95460198D01*
X144685199Y-96240000D01*
X142223711Y-96240000D01*
X142303937Y-96159774D01*
X142417205Y-95990256D01*
X142495226Y-95801898D01*
X142535000Y-95601939D01*
X142535000Y-95539801D01*
X146636731Y-91438072D01*
X148800000Y-91438072D01*
X148924482Y-91425812D01*
X149044180Y-91389502D01*
X149154494Y-91330537D01*
X149251185Y-91251185D01*
X149330537Y-91154494D01*
X149389502Y-91044180D01*
X149425812Y-90924482D01*
X149438072Y-90800000D01*
X149438072Y-88200000D01*
X149425812Y-88075518D01*
X149389502Y-87955820D01*
X149330537Y-87845506D01*
X149251185Y-87748815D01*
X149154494Y-87669463D01*
X149044180Y-87610498D01*
X148924482Y-87574188D01*
X148800000Y-87561928D01*
X146200000Y-87561928D01*
X146075518Y-87574188D01*
X145955820Y-87610498D01*
X145845506Y-87669463D01*
X145748815Y-87748815D01*
X145669463Y-87845506D01*
X145610498Y-87955820D01*
X145574188Y-88075518D01*
X145561928Y-88200000D01*
X145561928Y-90363269D01*
X141460199Y-94465000D01*
X141398061Y-94465000D01*
X141198102Y-94504774D01*
X141009744Y-94582795D01*
X140840226Y-94696063D01*
X140696063Y-94840226D01*
X140582795Y-95009744D01*
X140504774Y-95198102D01*
X140465000Y-95398061D01*
X140465000Y-95460198D01*
X140185199Y-95740000D01*
X137507538Y-95740000D01*
X137535000Y-95601939D01*
X137535000Y-95539801D01*
X141779015Y-91295787D01*
X141935581Y-91360639D01*
X142309419Y-91435000D01*
X142690581Y-91435000D01*
X143064419Y-91360639D01*
X143416566Y-91214775D01*
X143733491Y-91003013D01*
X144003013Y-90733491D01*
X144214775Y-90416566D01*
X144360639Y-90064419D01*
X144435000Y-89690581D01*
X144435000Y-89309419D01*
X144360639Y-88935581D01*
X144214775Y-88583434D01*
X144003013Y-88266509D01*
X143733491Y-87996987D01*
X143416566Y-87785225D01*
X143064419Y-87639361D01*
X142690581Y-87565000D01*
X142309419Y-87565000D01*
X141935581Y-87639361D01*
X141583434Y-87785225D01*
X141266509Y-87996987D01*
X140996987Y-88266509D01*
X140785225Y-88583434D01*
X140639361Y-88935581D01*
X140565000Y-89309419D01*
X140565000Y-89690581D01*
X140639361Y-90064419D01*
X140704213Y-90220985D01*
X136460199Y-94465000D01*
X136398061Y-94465000D01*
X136198102Y-94504774D01*
X136009744Y-94582795D01*
X135840226Y-94696063D01*
X135696063Y-94840226D01*
X135582795Y-95009744D01*
X135504774Y-95198102D01*
X135496440Y-95240000D01*
X133007538Y-95240000D01*
X133035000Y-95101939D01*
X133035000Y-95039801D01*
X136779015Y-91295787D01*
X136935581Y-91360639D01*
X137309419Y-91435000D01*
X137690581Y-91435000D01*
X138064419Y-91360639D01*
X138416566Y-91214775D01*
X138733491Y-91003013D01*
X139003013Y-90733491D01*
X139214775Y-90416566D01*
X139360639Y-90064419D01*
X139435000Y-89690581D01*
X139435000Y-89309419D01*
X139360639Y-88935581D01*
X139214775Y-88583434D01*
X139003013Y-88266509D01*
X138733491Y-87996987D01*
X138416566Y-87785225D01*
X138064419Y-87639361D01*
X137690581Y-87565000D01*
X137309419Y-87565000D01*
X136935581Y-87639361D01*
X136583434Y-87785225D01*
X136266509Y-87996987D01*
X135996987Y-88266509D01*
X135785225Y-88583434D01*
X135639361Y-88935581D01*
X135565000Y-89309419D01*
X135565000Y-89690581D01*
X135639361Y-90064419D01*
X135704213Y-90220985D01*
X131960199Y-93965000D01*
X131898061Y-93965000D01*
X131698102Y-94004774D01*
X131509744Y-94082795D01*
X131340226Y-94196063D01*
X131196063Y-94340226D01*
X131082795Y-94509744D01*
X131004774Y-94698102D01*
X130996440Y-94740000D01*
X125365131Y-94740000D01*
X131617060Y-88488072D01*
X132350000Y-88488072D01*
X132474482Y-88475812D01*
X132594180Y-88439502D01*
X132704494Y-88380537D01*
X132801185Y-88301185D01*
X132880537Y-88204494D01*
X132939502Y-88094180D01*
X132975812Y-87974482D01*
X132988072Y-87850000D01*
X132988072Y-86150000D01*
X132975812Y-86025518D01*
X132939502Y-85905820D01*
X132880537Y-85795506D01*
X132801185Y-85698815D01*
X132704494Y-85619463D01*
X132594180Y-85560498D01*
X132474482Y-85524188D01*
X132350000Y-85511928D01*
X130650000Y-85511928D01*
X130525518Y-85524188D01*
X130405820Y-85560498D01*
X130295506Y-85619463D01*
X130198815Y-85698815D01*
X130119463Y-85795506D01*
X130060498Y-85905820D01*
X130024188Y-86025518D01*
X130011928Y-86150000D01*
X130011928Y-86882940D01*
X124029869Y-92865000D01*
X79938072Y-92865000D01*
X79938072Y-92700000D01*
X79925812Y-92575518D01*
X79889502Y-92455820D01*
X79830537Y-92345506D01*
X79751185Y-92248815D01*
X79654494Y-92169463D01*
X79544180Y-92110498D01*
X79424482Y-92074188D01*
X79300000Y-92061928D01*
X76700000Y-92061928D01*
X76575518Y-92074188D01*
X76455820Y-92110498D01*
X76345506Y-92169463D01*
X76248815Y-92248815D01*
X76169463Y-92345506D01*
X76110498Y-92455820D01*
X76074188Y-92575518D01*
X76061928Y-92700000D01*
X76061928Y-92865000D01*
X75755752Y-92865000D01*
X75700000Y-92859509D01*
X75644248Y-92865000D01*
X75477501Y-92881423D01*
X75263553Y-92946324D01*
X75066377Y-93051716D01*
X74893551Y-93193551D01*
X74858004Y-93236865D01*
X74729869Y-93365000D01*
X73055741Y-93365000D01*
X72999999Y-93359510D01*
X72944257Y-93365000D01*
X72944248Y-93365000D01*
X72777501Y-93381423D01*
X72563553Y-93446324D01*
X72366377Y-93551716D01*
X72193551Y-93693551D01*
X72158011Y-93736857D01*
X69405000Y-96489869D01*
X69405000Y-94200131D01*
X73255907Y-90349224D01*
X76830381Y-90349224D01*
X76962317Y-90644312D01*
X77303045Y-90815159D01*
X77670557Y-90916250D01*
X78050729Y-90943701D01*
X78428951Y-90896457D01*
X78790690Y-90776333D01*
X79037683Y-90644312D01*
X79169619Y-90349224D01*
X78000000Y-89179605D01*
X76830381Y-90349224D01*
X73255907Y-90349224D01*
X74554402Y-89050729D01*
X76056299Y-89050729D01*
X76103543Y-89428951D01*
X76223667Y-89790690D01*
X76355688Y-90037683D01*
X76650776Y-90169619D01*
X77820395Y-89000000D01*
X78179605Y-89000000D01*
X79349224Y-90169619D01*
X79644312Y-90037683D01*
X79815159Y-89696955D01*
X79916250Y-89329443D01*
X79943701Y-88949271D01*
X79896457Y-88571049D01*
X79776333Y-88209310D01*
X79644312Y-87962317D01*
X79393104Y-87850000D01*
X112011928Y-87850000D01*
X112024188Y-87974482D01*
X112060498Y-88094180D01*
X112119463Y-88204494D01*
X112198815Y-88301185D01*
X112295506Y-88380537D01*
X112405820Y-88439502D01*
X112525518Y-88475812D01*
X112650000Y-88488072D01*
X113214250Y-88485000D01*
X113373000Y-88326250D01*
X113373000Y-87127000D01*
X113627000Y-87127000D01*
X113627000Y-88326250D01*
X113785750Y-88485000D01*
X114350000Y-88488072D01*
X114474482Y-88475812D01*
X114594180Y-88439502D01*
X114704494Y-88380537D01*
X114801185Y-88301185D01*
X114880537Y-88204494D01*
X114939502Y-88094180D01*
X114975812Y-87974482D01*
X114988072Y-87850000D01*
X114985000Y-87285750D01*
X114826250Y-87127000D01*
X113627000Y-87127000D01*
X113373000Y-87127000D01*
X112173750Y-87127000D01*
X112015000Y-87285750D01*
X112011928Y-87850000D01*
X79393104Y-87850000D01*
X79349224Y-87830381D01*
X78179605Y-89000000D01*
X77820395Y-89000000D01*
X76650776Y-87830381D01*
X76355688Y-87962317D01*
X76184841Y-88303045D01*
X76083750Y-88670557D01*
X76056299Y-89050729D01*
X74554402Y-89050729D01*
X75954355Y-87650776D01*
X76830381Y-87650776D01*
X78000000Y-88820395D01*
X79169619Y-87650776D01*
X79037683Y-87355688D01*
X78696955Y-87184841D01*
X78329443Y-87083750D01*
X77949271Y-87056299D01*
X77571049Y-87103543D01*
X77209310Y-87223667D01*
X76962317Y-87355688D01*
X76830381Y-87650776D01*
X75954355Y-87650776D01*
X77455131Y-86150000D01*
X112011928Y-86150000D01*
X112015000Y-86714250D01*
X112173750Y-86873000D01*
X113373000Y-86873000D01*
X113373000Y-85673750D01*
X113627000Y-85673750D01*
X113627000Y-86873000D01*
X114826250Y-86873000D01*
X114985000Y-86714250D01*
X114988072Y-86150000D01*
X114975812Y-86025518D01*
X114939502Y-85905820D01*
X114880537Y-85795506D01*
X114801185Y-85698815D01*
X114704494Y-85619463D01*
X114594180Y-85560498D01*
X114474482Y-85524188D01*
X114350000Y-85511928D01*
X113785750Y-85515000D01*
X113627000Y-85673750D01*
X113373000Y-85673750D01*
X113214250Y-85515000D01*
X112650000Y-85511928D01*
X112525518Y-85524188D01*
X112405820Y-85560498D01*
X112295506Y-85619463D01*
X112198815Y-85698815D01*
X112119463Y-85795506D01*
X112060498Y-85905820D01*
X112024188Y-86025518D01*
X112011928Y-86150000D01*
X77455131Y-86150000D01*
X77693241Y-85911891D01*
X77809419Y-85935000D01*
X78190581Y-85935000D01*
X78564419Y-85860639D01*
X78916566Y-85714775D01*
X79233491Y-85503013D01*
X79503013Y-85233491D01*
X79714775Y-84916566D01*
X79860639Y-84564419D01*
X79935000Y-84190581D01*
X79935000Y-83809419D01*
X79860639Y-83435581D01*
X79796143Y-83279872D01*
X259265000Y-83279872D01*
X259265000Y-83720128D01*
X259350890Y-84151925D01*
X259519369Y-84558669D01*
X259763962Y-84924729D01*
X260075271Y-85236038D01*
X260441331Y-85480631D01*
X260848075Y-85649110D01*
X261279872Y-85735000D01*
X261720128Y-85735000D01*
X262151925Y-85649110D01*
X262558669Y-85480631D01*
X262924729Y-85236038D01*
X263236038Y-84924729D01*
X263480631Y-84558669D01*
X263649110Y-84151925D01*
X263735000Y-83720128D01*
X263735000Y-83279872D01*
X263649110Y-82848075D01*
X263480631Y-82441331D01*
X263236038Y-82075271D01*
X262924729Y-81763962D01*
X262558669Y-81519369D01*
X262151925Y-81350890D01*
X261720128Y-81265000D01*
X261279872Y-81265000D01*
X260848075Y-81350890D01*
X260441331Y-81519369D01*
X260075271Y-81763962D01*
X259763962Y-82075271D01*
X259519369Y-82441331D01*
X259350890Y-82848075D01*
X259265000Y-83279872D01*
X79796143Y-83279872D01*
X79714775Y-83083434D01*
X79503013Y-82766509D01*
X79233491Y-82496987D01*
X78916566Y-82285225D01*
X78564419Y-82139361D01*
X78190581Y-82065000D01*
X77809419Y-82065000D01*
X77435581Y-82139361D01*
X77083434Y-82285225D01*
X76766509Y-82496987D01*
X76496987Y-82766509D01*
X76285225Y-83083434D01*
X76139361Y-83435581D01*
X76065000Y-83809419D01*
X76065000Y-84190581D01*
X76088109Y-84306759D01*
X67506860Y-92888009D01*
X67463552Y-92923551D01*
X67321717Y-93096377D01*
X67288773Y-93158012D01*
X67216324Y-93293554D01*
X67151423Y-93507502D01*
X67129509Y-93730000D01*
X67135001Y-93785761D01*
X67135000Y-101034893D01*
X67116525Y-101053368D01*
X66954010Y-101296589D01*
X66842068Y-101566842D01*
X66785000Y-101853740D01*
X66785000Y-101879868D01*
X65966859Y-102698010D01*
X65923551Y-102733552D01*
X65781716Y-102906378D01*
X65760200Y-102946632D01*
X65676323Y-103103555D01*
X65660000Y-103157364D01*
X65660000Y-83279872D01*
X66265000Y-83279872D01*
X66265000Y-83720128D01*
X66350890Y-84151925D01*
X66519369Y-84558669D01*
X66763962Y-84924729D01*
X67075271Y-85236038D01*
X67441331Y-85480631D01*
X67848075Y-85649110D01*
X68279872Y-85735000D01*
X68720128Y-85735000D01*
X69151925Y-85649110D01*
X69558669Y-85480631D01*
X69924729Y-85236038D01*
X70236038Y-84924729D01*
X70480631Y-84558669D01*
X70649110Y-84151925D01*
X70735000Y-83720128D01*
X70735000Y-83279872D01*
X70649110Y-82848075D01*
X70480631Y-82441331D01*
X70236038Y-82075271D01*
X69924729Y-81763962D01*
X69558669Y-81519369D01*
X69151925Y-81350890D01*
X68720128Y-81265000D01*
X68279872Y-81265000D01*
X67848075Y-81350890D01*
X67441331Y-81519369D01*
X67075271Y-81763962D01*
X66763962Y-82075271D01*
X66519369Y-82441331D01*
X66350890Y-82848075D01*
X66265000Y-83279872D01*
X65660000Y-83279872D01*
X65660000Y-80660000D01*
X264340000Y-80660000D01*
X264340001Y-139340000D01*
G37*
%TD.AperFunction*%
D18*
X198811426Y-118813226D02*
X198811425Y-133402687D01*
X198798171Y-133403992D01*
X198631575Y-133454528D01*
X198478039Y-133536595D01*
X198343463Y-133647038D01*
X198233020Y-133781614D01*
X198150953Y-133935150D01*
X198100417Y-134101746D01*
X198083353Y-134275000D01*
X198083353Y-135540010D01*
X181283068Y-135540010D01*
X181320653Y-135416110D01*
X181342140Y-135197949D01*
X181342140Y-134802050D01*
X181320653Y-134583889D01*
X181235739Y-134303966D01*
X181097846Y-134045986D01*
X180912274Y-133819866D01*
X180686153Y-133634294D01*
X180428173Y-133496401D01*
X180148250Y-133411487D01*
X179857140Y-133382815D01*
X179566029Y-133411487D01*
X179286106Y-133496401D01*
X179028126Y-133634294D01*
X178802006Y-133819866D01*
X178616434Y-134045987D01*
X178607140Y-134063374D01*
X178597846Y-134045986D01*
X178412274Y-133819866D01*
X178186153Y-133634294D01*
X177928173Y-133496401D01*
X177648250Y-133411487D01*
X177357140Y-133382815D01*
X177066029Y-133411487D01*
X176895238Y-133463296D01*
X172420944Y-128989003D01*
X172397141Y-128959999D01*
X172281416Y-128865026D01*
X172149387Y-128794454D01*
X172006126Y-128750997D01*
X171894473Y-128740000D01*
X171894462Y-128740000D01*
X171857140Y-128736324D01*
X171819818Y-128740000D01*
X106654802Y-128740000D01*
X105764802Y-127850000D01*
X112011928Y-127850000D01*
X112024188Y-127974482D01*
X112060498Y-128094180D01*
X112119463Y-128204494D01*
X112198815Y-128301185D01*
X112295506Y-128380537D01*
X112405820Y-128439502D01*
X112525518Y-128475812D01*
X112650000Y-128488072D01*
X113214250Y-128485000D01*
X113373000Y-128326250D01*
X113373000Y-127127000D01*
X113627000Y-127127000D01*
X113627000Y-128326250D01*
X113785750Y-128485000D01*
X114350000Y-128488072D01*
X114474482Y-128475812D01*
X114594180Y-128439502D01*
X114704494Y-128380537D01*
X114801185Y-128301185D01*
X114880537Y-128204494D01*
X114939502Y-128094180D01*
X114975812Y-127974482D01*
X114988072Y-127850000D01*
X114985000Y-127285750D01*
X114826250Y-127127000D01*
X113627000Y-127127000D01*
X113373000Y-127127000D01*
X112173750Y-127127000D01*
X112015000Y-127285750D01*
X112011928Y-127850000D01*
X105764802Y-127850000D01*
X105281209Y-127366408D01*
X105325000Y-127146260D01*
X105325000Y-126853740D01*
X105281209Y-126633592D01*
X105764801Y-126150000D01*
X112011928Y-126150000D01*
X112015000Y-126714250D01*
X112173750Y-126873000D01*
X113373000Y-126873000D01*
X113373000Y-125673750D01*
X113627000Y-125673750D01*
X113627000Y-126873000D01*
X114826250Y-126873000D01*
X114985000Y-126714250D01*
X114988072Y-126150000D01*
X130011928Y-126150000D01*
X130011928Y-127850000D01*
X130024188Y-127974482D01*
X130060498Y-128094180D01*
X130119463Y-128204494D01*
X130198815Y-128301185D01*
X130295506Y-128380537D01*
X130405820Y-128439502D01*
X130525518Y-128475812D01*
X130650000Y-128488072D01*
X132350000Y-128488072D01*
X132474482Y-128475812D01*
X132594180Y-128439502D01*
X132704494Y-128380537D01*
X132801185Y-128301185D01*
X132880537Y-128204494D01*
X132939502Y-128094180D01*
X132975812Y-127974482D01*
X132988072Y-127850000D01*
X132988072Y-126150000D01*
X132975812Y-126025518D01*
X132939502Y-125905820D01*
X132880537Y-125795506D01*
X132801185Y-125698815D01*
X132704494Y-125619463D01*
X132594180Y-125560498D01*
X132474482Y-125524188D01*
X132350000Y-125511928D01*
X130650000Y-125511928D01*
X130525518Y-125524188D01*
X130405820Y-125560498D01*
X130295506Y-125619463D01*
X130198815Y-125698815D01*
X130119463Y-125795506D01*
X130060498Y-125905820D01*
X130024188Y-126025518D01*
X130011928Y-126150000D01*
X114988072Y-126150000D01*
X114975812Y-126025518D01*
X114939502Y-125905820D01*
X114880537Y-125795506D01*
X114801185Y-125698815D01*
X114704494Y-125619463D01*
X114594180Y-125560498D01*
X114474482Y-125524188D01*
X114350000Y-125511928D01*
X113785750Y-125515000D01*
X113627000Y-125673750D01*
X113373000Y-125673750D01*
X113214250Y-125515000D01*
X112650000Y-125511928D01*
X112525518Y-125524188D01*
X112405820Y-125560498D01*
X112295506Y-125619463D01*
X112198815Y-125698815D01*
X112119463Y-125795506D01*
X112060498Y-125905820D01*
X112024188Y-126025518D01*
X112011928Y-126150000D01*
X105764801Y-126150000D01*
X109959803Y-121955000D01*
X110021939Y-121955000D01*
X110221898Y-121915226D01*
X110410256Y-121837205D01*
X110579774Y-121723937D01*
X110703711Y-121600000D01*
X176456289Y-121600000D01*
X176500226Y-121643937D01*
X176669744Y-121757205D01*
X176858102Y-121835226D01*
X177058061Y-121875000D01*
X177261939Y-121875000D01*
X177461898Y-121835226D01*
X177650256Y-121757205D01*
X177819774Y-121643937D01*
X177963937Y-121499774D01*
X178077205Y-121330256D01*
X178155226Y-121141898D01*
X178179560Y-121019560D01*
X178301898Y-120995226D01*
X178490256Y-120917205D01*
X178659774Y-120803937D01*
X178803937Y-120659774D01*
X178917205Y-120490256D01*
X178995226Y-120301898D01*
X179035000Y-120101939D01*
X179035000Y-120035000D01*
X179101939Y-120035000D01*
X179301898Y-119995226D01*
X179490256Y-119917205D01*
X179659774Y-119803937D01*
X179803937Y-119659774D01*
X179917205Y-119490256D01*
X179995226Y-119301898D01*
X180035000Y-119101939D01*
X180035000Y-119035000D01*
X180101939Y-119035000D01*
X180301898Y-118995226D01*
X180490256Y-118917205D01*
X180659774Y-118803937D01*
X180803937Y-118659774D01*
X180917205Y-118490256D01*
X180995226Y-118301898D01*
X181035000Y-118101939D01*
X181035000Y-118035000D01*
X181101939Y-118035000D01*
X181301898Y-117995226D01*
X181490256Y-117917205D01*
X181659774Y-117803937D01*
X181803937Y-117659774D01*
X181917205Y-117490256D01*
X181995226Y-117301898D01*
X182035000Y-117101939D01*
X182035000Y-117035000D01*
X182101939Y-117035000D01*
X182301898Y-116995226D01*
X182490256Y-116917205D01*
X182659774Y-116803937D01*
X182803937Y-116659774D01*
X182917205Y-116490256D01*
X182995226Y-116301898D01*
X183035000Y-116101939D01*
X183035000Y-116035000D01*
X183101939Y-116035000D01*
X183301898Y-115995226D01*
X183490256Y-115917205D01*
X183659774Y-115803937D01*
X183803937Y-115659774D01*
X183917205Y-115490256D01*
X183995226Y-115301898D01*
X184035000Y-115101939D01*
X184035000Y-115035000D01*
X184101939Y-115035000D01*
X184301898Y-114995226D01*
X184490256Y-114917205D01*
X184659774Y-114803937D01*
X184803937Y-114659774D01*
X184917205Y-114490256D01*
X184995226Y-114301898D01*
X185035000Y-114101939D01*
X185035000Y-114035000D01*
X185101939Y-114035000D01*
X185301898Y-113995226D01*
X185490256Y-113917205D01*
X185659774Y-113803937D01*
X185803937Y-113659774D01*
X185917205Y-113490256D01*
X185995226Y-113301898D01*
X186035000Y-113101939D01*
X186035000Y-113035000D01*
X186101939Y-113035000D01*
X186301898Y-112995226D01*
X186490256Y-112917205D01*
X186659774Y-112803937D01*
X186803937Y-112659774D01*
X186917205Y-112490256D01*
X186995226Y-112301898D01*
X187035000Y-112101939D01*
X187035000Y-112035000D01*
X187101939Y-112035000D01*
X187301898Y-111995226D01*
X187490256Y-111917205D01*
X187659774Y-111803937D01*
X187803937Y-111659774D01*
X187917205Y-111490256D01*
X187995226Y-111301898D01*
X188035000Y-111101939D01*
X188035000Y-111035000D01*
X188101939Y-111035000D01*
X188301898Y-110995226D01*
X188490256Y-110917205D01*
X188659774Y-110803937D01*
X188803937Y-110659774D01*
X188917205Y-110490256D01*
X188995226Y-110301898D01*
X189035000Y-110101939D01*
X189035000Y-110035000D01*
X189101939Y-110035000D01*
X189301898Y-109995226D01*
X189490256Y-109917205D01*
X189659774Y-109803937D01*
X189730956Y-109732755D01*
X198811426Y-118813226D01*
%TA.AperFunction,Conductor*%
D19*
G36*
X198811426Y-118813226D02*
G01*
X198811425Y-133402687D01*
X198798171Y-133403992D01*
X198631575Y-133454528D01*
X198478039Y-133536595D01*
X198343463Y-133647038D01*
X198233020Y-133781614D01*
X198150953Y-133935150D01*
X198100417Y-134101746D01*
X198083353Y-134275000D01*
X198083353Y-135540010D01*
X181283068Y-135540010D01*
X181320653Y-135416110D01*
X181342140Y-135197949D01*
X181342140Y-134802050D01*
X181320653Y-134583889D01*
X181235739Y-134303966D01*
X181097846Y-134045986D01*
X180912274Y-133819866D01*
X180686153Y-133634294D01*
X180428173Y-133496401D01*
X180148250Y-133411487D01*
X179857140Y-133382815D01*
X179566029Y-133411487D01*
X179286106Y-133496401D01*
X179028126Y-133634294D01*
X178802006Y-133819866D01*
X178616434Y-134045987D01*
X178607140Y-134063374D01*
X178597846Y-134045986D01*
X178412274Y-133819866D01*
X178186153Y-133634294D01*
X177928173Y-133496401D01*
X177648250Y-133411487D01*
X177357140Y-133382815D01*
X177066029Y-133411487D01*
X176895238Y-133463296D01*
X172420944Y-128989003D01*
X172397141Y-128959999D01*
X172281416Y-128865026D01*
X172149387Y-128794454D01*
X172006126Y-128750997D01*
X171894473Y-128740000D01*
X171894462Y-128740000D01*
X171857140Y-128736324D01*
X171819818Y-128740000D01*
X106654802Y-128740000D01*
X105764802Y-127850000D01*
X112011928Y-127850000D01*
X112024188Y-127974482D01*
X112060498Y-128094180D01*
X112119463Y-128204494D01*
X112198815Y-128301185D01*
X112295506Y-128380537D01*
X112405820Y-128439502D01*
X112525518Y-128475812D01*
X112650000Y-128488072D01*
X113214250Y-128485000D01*
X113373000Y-128326250D01*
X113373000Y-127127000D01*
X113627000Y-127127000D01*
X113627000Y-128326250D01*
X113785750Y-128485000D01*
X114350000Y-128488072D01*
X114474482Y-128475812D01*
X114594180Y-128439502D01*
X114704494Y-128380537D01*
X114801185Y-128301185D01*
X114880537Y-128204494D01*
X114939502Y-128094180D01*
X114975812Y-127974482D01*
X114988072Y-127850000D01*
X114985000Y-127285750D01*
X114826250Y-127127000D01*
X113627000Y-127127000D01*
X113373000Y-127127000D01*
X112173750Y-127127000D01*
X112015000Y-127285750D01*
X112011928Y-127850000D01*
X105764802Y-127850000D01*
X105281209Y-127366408D01*
X105325000Y-127146260D01*
X105325000Y-126853740D01*
X105281209Y-126633592D01*
X105764801Y-126150000D01*
X112011928Y-126150000D01*
X112015000Y-126714250D01*
X112173750Y-126873000D01*
X113373000Y-126873000D01*
X113373000Y-125673750D01*
X113627000Y-125673750D01*
X113627000Y-126873000D01*
X114826250Y-126873000D01*
X114985000Y-126714250D01*
X114988072Y-126150000D01*
X130011928Y-126150000D01*
X130011928Y-127850000D01*
X130024188Y-127974482D01*
X130060498Y-128094180D01*
X130119463Y-128204494D01*
X130198815Y-128301185D01*
X130295506Y-128380537D01*
X130405820Y-128439502D01*
X130525518Y-128475812D01*
X130650000Y-128488072D01*
X132350000Y-128488072D01*
X132474482Y-128475812D01*
X132594180Y-128439502D01*
X132704494Y-128380537D01*
X132801185Y-128301185D01*
X132880537Y-128204494D01*
X132939502Y-128094180D01*
X132975812Y-127974482D01*
X132988072Y-127850000D01*
X132988072Y-126150000D01*
X132975812Y-126025518D01*
X132939502Y-125905820D01*
X132880537Y-125795506D01*
X132801185Y-125698815D01*
X132704494Y-125619463D01*
X132594180Y-125560498D01*
X132474482Y-125524188D01*
X132350000Y-125511928D01*
X130650000Y-125511928D01*
X130525518Y-125524188D01*
X130405820Y-125560498D01*
X130295506Y-125619463D01*
X130198815Y-125698815D01*
X130119463Y-125795506D01*
X130060498Y-125905820D01*
X130024188Y-126025518D01*
X130011928Y-126150000D01*
X114988072Y-126150000D01*
X114975812Y-126025518D01*
X114939502Y-125905820D01*
X114880537Y-125795506D01*
X114801185Y-125698815D01*
X114704494Y-125619463D01*
X114594180Y-125560498D01*
X114474482Y-125524188D01*
X114350000Y-125511928D01*
X113785750Y-125515000D01*
X113627000Y-125673750D01*
X113373000Y-125673750D01*
X113214250Y-125515000D01*
X112650000Y-125511928D01*
X112525518Y-125524188D01*
X112405820Y-125560498D01*
X112295506Y-125619463D01*
X112198815Y-125698815D01*
X112119463Y-125795506D01*
X112060498Y-125905820D01*
X112024188Y-126025518D01*
X112011928Y-126150000D01*
X105764801Y-126150000D01*
X109959803Y-121955000D01*
X110021939Y-121955000D01*
X110221898Y-121915226D01*
X110410256Y-121837205D01*
X110579774Y-121723937D01*
X110703711Y-121600000D01*
X176456289Y-121600000D01*
X176500226Y-121643937D01*
X176669744Y-121757205D01*
X176858102Y-121835226D01*
X177058061Y-121875000D01*
X177261939Y-121875000D01*
X177461898Y-121835226D01*
X177650256Y-121757205D01*
X177819774Y-121643937D01*
X177963937Y-121499774D01*
X178077205Y-121330256D01*
X178155226Y-121141898D01*
X178179560Y-121019560D01*
X178301898Y-120995226D01*
X178490256Y-120917205D01*
X178659774Y-120803937D01*
X178803937Y-120659774D01*
X178917205Y-120490256D01*
X178995226Y-120301898D01*
X179035000Y-120101939D01*
X179035000Y-120035000D01*
X179101939Y-120035000D01*
X179301898Y-119995226D01*
X179490256Y-119917205D01*
X179659774Y-119803937D01*
X179803937Y-119659774D01*
X179917205Y-119490256D01*
X179995226Y-119301898D01*
X180035000Y-119101939D01*
X180035000Y-119035000D01*
X180101939Y-119035000D01*
X180301898Y-118995226D01*
X180490256Y-118917205D01*
X180659774Y-118803937D01*
X180803937Y-118659774D01*
X180917205Y-118490256D01*
X180995226Y-118301898D01*
X181035000Y-118101939D01*
X181035000Y-118035000D01*
X181101939Y-118035000D01*
X181301898Y-117995226D01*
X181490256Y-117917205D01*
X181659774Y-117803937D01*
X181803937Y-117659774D01*
X181917205Y-117490256D01*
X181995226Y-117301898D01*
X182035000Y-117101939D01*
X182035000Y-117035000D01*
X182101939Y-117035000D01*
X182301898Y-116995226D01*
X182490256Y-116917205D01*
X182659774Y-116803937D01*
X182803937Y-116659774D01*
X182917205Y-116490256D01*
X182995226Y-116301898D01*
X183035000Y-116101939D01*
X183035000Y-116035000D01*
X183101939Y-116035000D01*
X183301898Y-115995226D01*
X183490256Y-115917205D01*
X183659774Y-115803937D01*
X183803937Y-115659774D01*
X183917205Y-115490256D01*
X183995226Y-115301898D01*
X184035000Y-115101939D01*
X184035000Y-115035000D01*
X184101939Y-115035000D01*
X184301898Y-114995226D01*
X184490256Y-114917205D01*
X184659774Y-114803937D01*
X184803937Y-114659774D01*
X184917205Y-114490256D01*
X184995226Y-114301898D01*
X185035000Y-114101939D01*
X185035000Y-114035000D01*
X185101939Y-114035000D01*
X185301898Y-113995226D01*
X185490256Y-113917205D01*
X185659774Y-113803937D01*
X185803937Y-113659774D01*
X185917205Y-113490256D01*
X185995226Y-113301898D01*
X186035000Y-113101939D01*
X186035000Y-113035000D01*
X186101939Y-113035000D01*
X186301898Y-112995226D01*
X186490256Y-112917205D01*
X186659774Y-112803937D01*
X186803937Y-112659774D01*
X186917205Y-112490256D01*
X186995226Y-112301898D01*
X187035000Y-112101939D01*
X187035000Y-112035000D01*
X187101939Y-112035000D01*
X187301898Y-111995226D01*
X187490256Y-111917205D01*
X187659774Y-111803937D01*
X187803937Y-111659774D01*
X187917205Y-111490256D01*
X187995226Y-111301898D01*
X188035000Y-111101939D01*
X188035000Y-111035000D01*
X188101939Y-111035000D01*
X188301898Y-110995226D01*
X188490256Y-110917205D01*
X188659774Y-110803937D01*
X188803937Y-110659774D01*
X188917205Y-110490256D01*
X188995226Y-110301898D01*
X189035000Y-110101939D01*
X189035000Y-110035000D01*
X189101939Y-110035000D01*
X189301898Y-109995226D01*
X189490256Y-109917205D01*
X189659774Y-109803937D01*
X189730956Y-109732755D01*
X198811426Y-118813226D01*
G37*
%TD.AperFunction*%
%TD*%
M02*
