M48
; DRILL file {KiCad (5.1.12)-1} date 12/19/21 17:26:04
; FORMAT={-:-/ absolute / inch / decimal}
; #@! TF.CreationDate,2021-12-19T17:26:04-05:00
; #@! TF.GenerationSoftware,Kicad,Pcbnew,(5.1.12)-1
; #@! TF.FileFunction,Plated,1,2,PTH
FMAT,2
INCH
T1C0.0157
T2C0.0374
T3C0.0394
T4C0.0512
%
G90
G05
T1
X2.7362Y-3.937
X3.1693Y-5.4724
X3.6024Y-4.2913
X3.6614Y-4.3307
X3.7205Y-4.3701
X3.7795Y-4.4094
X3.839Y-4.4492
X3.8988Y-4.4894
X3.9587Y-4.5295
X4.0185Y-4.5697
X4.0783Y-4.6098
X4.1382Y-4.65
X4.198Y-4.6902
X4.2579Y-4.7303
X4.3276Y-4.7606
X5.1969Y-3.7402
X5.374Y-3.7598
X5.5709Y-3.7598
X5.7677Y-3.7598
X5.9646Y-3.7598
X5.9646Y-4.0945
X6.1614Y-3.7598
X6.1614Y-4.1339
X6.3583Y-3.7598
X6.5551Y-3.7598
X6.7126Y-4.1929
X6.752Y-3.7598
X6.7717Y-4.252
X6.9488Y-3.7598
X6.9748Y-4.7575
X7.0079Y-4.7244
X7.0472Y-4.685
X7.0866Y-4.6457
X7.126Y-4.6063
X7.1457Y-3.7598
X7.1654Y-4.5669
X7.2047Y-4.5276
X7.2441Y-4.4882
X7.2835Y-4.4488
X7.3228Y-4.4094
X7.3425Y-3.7598
X7.3622Y-4.3701
X7.4016Y-4.3307
X7.4409Y-4.2913
X9.5945Y-5.4252
T2
X2.9921Y-5.315
X3.0906Y-5.315
X3.189Y-5.315
X3.9651Y-5.315
X4.0636Y-5.315
X4.162Y-5.315
X4.9381Y-5.315
X5.0366Y-5.315
X5.135Y-5.315
X5.9111Y-5.315
X6.0096Y-5.315
X6.108Y-5.315
X6.8841Y-5.315
X6.9826Y-5.315
X7.081Y-5.315
X7.8571Y-5.315
X7.9556Y-5.315
X8.054Y-5.315
X8.8301Y-5.315
X8.9286Y-5.315
X9.027Y-5.315
X9.8031Y-5.315
X9.9016Y-5.315
X10.0Y-5.315
T3
X2.6878Y-4.0157
X2.6882Y-5.0
X2.7878Y-4.0157
X2.7882Y-5.0
X2.8878Y-4.0157
X2.8882Y-5.0
X2.9878Y-4.0157
X2.9882Y-5.0
X3.0878Y-4.0157
X3.0882Y-5.0
X3.1878Y-4.0157
X3.1882Y-5.0
X3.2878Y-4.0157
X3.2882Y-5.0
X3.3878Y-4.0157
X3.3882Y-5.0
X3.4878Y-4.0157
X3.4882Y-5.0
X3.5878Y-4.0157
X3.5882Y-5.0
X3.6878Y-4.0157
X3.6882Y-5.0
X3.7878Y-4.0157
X3.7882Y-5.0
X3.8878Y-4.0157
X3.8882Y-5.0
X3.9878Y-4.0157
X3.9882Y-5.0
X4.0878Y-4.0157
X4.0882Y-5.0
X4.4685Y-3.4252
X4.4685Y-5.0
X5.1772Y-3.4252
X5.1772Y-5.0
T4
X3.0709Y-3.3071
X3.0709Y-3.5039
X3.0709Y-3.7008
X5.4134Y-3.5236
X5.6102Y-3.5236
X5.8071Y-3.5236
X6.0039Y-3.5236
X6.2008Y-3.5236
X6.3976Y-3.5236
X6.5945Y-3.5236
X6.7913Y-3.5236
X6.9882Y-3.5236
X7.185Y-3.5236
X7.3819Y-3.5236
X7.5787Y-3.5236
X7.7756Y-3.5236
X7.9724Y-3.5236
X8.1693Y-3.5236
X8.3661Y-3.5236
X8.563Y-3.5236
X8.7598Y-3.5236
X8.9567Y-3.5236
X9.1535Y-3.5236
X9.3504Y-3.5236
X9.5472Y-3.5236
X9.7441Y-3.5236
X9.9409Y-3.5236
X10.1969Y-4.1339
X10.1969Y-4.3307
X10.1969Y-4.5276
T0
M30
