%TF.GenerationSoftware,KiCad,Pcbnew,(5.1.12)-1*%
%TF.CreationDate,2021-12-19T17:26:02-05:00*%
%TF.ProjectId,FlipDisplay-Main,466c6970-4469-4737-906c-61792d4d6169,rev?*%
%TF.SameCoordinates,Original*%
%TF.FileFunction,Soldermask,Top*%
%TF.FilePolarity,Negative*%
%FSLAX46Y46*%
G04 Gerber Fmt 4.6, Leading zero omitted, Abs format (unit mm)*
G04 Created by KiCad (PCBNEW (5.1.12)-1) date 2021-12-19 17:26:02*
%MOMM*%
%LPD*%
G01*
G04 APERTURE LIST*
%ADD10C,2.600000*%
%ADD11R,2.600000X2.600000*%
%ADD12C,3.200000*%
%ADD13O,1.700000X1.950000*%
%ADD14R,1.700000X1.700000*%
%ADD15O,1.700000X1.700000*%
G04 APERTURE END LIST*
D10*
%TO.C,J13*%
X242500000Y-89500000D03*
X247500000Y-89500000D03*
D11*
X252500000Y-89500000D03*
%TD*%
D12*
%TO.C,4*%
X68500000Y-83500000D03*
%TD*%
%TO.C,4*%
X68500000Y-136500000D03*
%TD*%
%TO.C,4*%
X261500000Y-83500000D03*
%TD*%
%TO.C,4*%
X261500000Y-136500000D03*
%TD*%
D10*
%TO.C,J24*%
X78000000Y-84000000D03*
X78000000Y-89000000D03*
D11*
X78000000Y-94000000D03*
%TD*%
D10*
%TO.C,J15*%
X259000000Y-115000000D03*
X259000000Y-110000000D03*
D11*
X259000000Y-105000000D03*
%TD*%
D10*
%TO.C,J12*%
X227500000Y-89500000D03*
X232500000Y-89500000D03*
D11*
X237500000Y-89500000D03*
%TD*%
D10*
%TO.C,J10*%
X212500000Y-89500000D03*
X217500000Y-89500000D03*
D11*
X222500000Y-89500000D03*
%TD*%
D10*
%TO.C,J9*%
X197500000Y-89500000D03*
X202500000Y-89500000D03*
D11*
X207500000Y-89500000D03*
%TD*%
D10*
%TO.C,J6*%
X182500000Y-89500000D03*
X187500000Y-89500000D03*
D11*
X192500000Y-89500000D03*
%TD*%
D10*
%TO.C,J5*%
X167500000Y-89500000D03*
X172500000Y-89500000D03*
D11*
X177500000Y-89500000D03*
%TD*%
D10*
%TO.C,J4*%
X152500000Y-89500000D03*
X157500000Y-89500000D03*
D11*
X162500000Y-89500000D03*
%TD*%
D10*
%TO.C,J1*%
X137500000Y-89500000D03*
X142500000Y-89500000D03*
D11*
X147500000Y-89500000D03*
%TD*%
D13*
%TO.C,J23*%
X254000000Y-135000000D03*
X251500000Y-135000000D03*
G36*
G01*
X248150000Y-135725000D02*
X248150000Y-134275000D01*
G75*
G02*
X248400000Y-134025000I250000J0D01*
G01*
X249600000Y-134025000D01*
G75*
G02*
X249850000Y-134275000I0J-250000D01*
G01*
X249850000Y-135725000D01*
G75*
G02*
X249600000Y-135975000I-250000J0D01*
G01*
X248400000Y-135975000D01*
G75*
G02*
X248150000Y-135725000I0J250000D01*
G01*
G37*
%TD*%
%TO.C,J22*%
X81000000Y-135000000D03*
X78500000Y-135000000D03*
G36*
G01*
X75150000Y-135725000D02*
X75150000Y-134275000D01*
G75*
G02*
X75400000Y-134025000I250000J0D01*
G01*
X76600000Y-134025000D01*
G75*
G02*
X76850000Y-134275000I0J-250000D01*
G01*
X76850000Y-135725000D01*
G75*
G02*
X76600000Y-135975000I-250000J0D01*
G01*
X75400000Y-135975000D01*
G75*
G02*
X75150000Y-135725000I0J250000D01*
G01*
G37*
%TD*%
%TO.C,J21*%
X229285710Y-135000000D03*
X226785710Y-135000000D03*
G36*
G01*
X223435710Y-135725000D02*
X223435710Y-134275000D01*
G75*
G02*
X223685710Y-134025000I250000J0D01*
G01*
X224885710Y-134025000D01*
G75*
G02*
X225135710Y-134275000I0J-250000D01*
G01*
X225135710Y-135725000D01*
G75*
G02*
X224885710Y-135975000I-250000J0D01*
G01*
X223685710Y-135975000D01*
G75*
G02*
X223435710Y-135725000I0J250000D01*
G01*
G37*
%TD*%
D14*
%TO.C,J20*%
X113500000Y-127000000D03*
%TD*%
%TO.C,J19*%
X131500000Y-87000000D03*
%TD*%
%TO.C,J18*%
X113500000Y-87000000D03*
%TD*%
%TO.C,J17*%
X131500000Y-127000000D03*
%TD*%
D13*
%TO.C,J16*%
X204571425Y-135000000D03*
X202071425Y-135000000D03*
G36*
G01*
X198721425Y-135725000D02*
X198721425Y-134275000D01*
G75*
G02*
X198971425Y-134025000I250000J0D01*
G01*
X200171425Y-134025000D01*
G75*
G02*
X200421425Y-134275000I0J-250000D01*
G01*
X200421425Y-135725000D01*
G75*
G02*
X200171425Y-135975000I-250000J0D01*
G01*
X198971425Y-135975000D01*
G75*
G02*
X198721425Y-135725000I0J250000D01*
G01*
G37*
%TD*%
%TO.C,J14*%
X179857140Y-135000000D03*
X177357140Y-135000000D03*
G36*
G01*
X174007140Y-135725000D02*
X174007140Y-134275000D01*
G75*
G02*
X174257140Y-134025000I250000J0D01*
G01*
X175457140Y-134025000D01*
G75*
G02*
X175707140Y-134275000I0J-250000D01*
G01*
X175707140Y-135725000D01*
G75*
G02*
X175457140Y-135975000I-250000J0D01*
G01*
X174257140Y-135975000D01*
G75*
G02*
X174007140Y-135725000I0J250000D01*
G01*
G37*
%TD*%
%TO.C,J11*%
X155142855Y-135000000D03*
X152642855Y-135000000D03*
G36*
G01*
X149292855Y-135725000D02*
X149292855Y-134275000D01*
G75*
G02*
X149542855Y-134025000I250000J0D01*
G01*
X150742855Y-134025000D01*
G75*
G02*
X150992855Y-134275000I0J-250000D01*
G01*
X150992855Y-135725000D01*
G75*
G02*
X150742855Y-135975000I-250000J0D01*
G01*
X149542855Y-135975000D01*
G75*
G02*
X149292855Y-135725000I0J250000D01*
G01*
G37*
%TD*%
D15*
%TO.C,J8*%
X103840000Y-127000000D03*
X101300000Y-127000000D03*
X98760000Y-127000000D03*
X96220000Y-127000000D03*
X93680000Y-127000000D03*
X91140000Y-127000000D03*
X88600000Y-127000000D03*
X86060000Y-127000000D03*
X83520000Y-127000000D03*
X80980000Y-127000000D03*
X78440000Y-127000000D03*
X75900000Y-127000000D03*
X73360000Y-127000000D03*
X70820000Y-127000000D03*
D14*
X68280000Y-127000000D03*
%TD*%
D13*
%TO.C,J7*%
X130428570Y-135000000D03*
X127928570Y-135000000D03*
G36*
G01*
X124578570Y-135725000D02*
X124578570Y-134275000D01*
G75*
G02*
X124828570Y-134025000I250000J0D01*
G01*
X126028570Y-134025000D01*
G75*
G02*
X126278570Y-134275000I0J-250000D01*
G01*
X126278570Y-135725000D01*
G75*
G02*
X126028570Y-135975000I-250000J0D01*
G01*
X124828570Y-135975000D01*
G75*
G02*
X124578570Y-135725000I0J250000D01*
G01*
G37*
%TD*%
%TO.C,J3*%
X105714285Y-135000000D03*
X103214285Y-135000000D03*
G36*
G01*
X99864285Y-135725000D02*
X99864285Y-134275000D01*
G75*
G02*
X100114285Y-134025000I250000J0D01*
G01*
X101314285Y-134025000D01*
G75*
G02*
X101564285Y-134275000I0J-250000D01*
G01*
X101564285Y-135725000D01*
G75*
G02*
X101314285Y-135975000I-250000J0D01*
G01*
X100114285Y-135975000D01*
G75*
G02*
X99864285Y-135725000I0J250000D01*
G01*
G37*
%TD*%
D15*
%TO.C,J2*%
X68270000Y-102000000D03*
X70810000Y-102000000D03*
X73350000Y-102000000D03*
X75890000Y-102000000D03*
X78430000Y-102000000D03*
X80970000Y-102000000D03*
X83510000Y-102000000D03*
X86050000Y-102000000D03*
X88590000Y-102000000D03*
X91130000Y-102000000D03*
X93670000Y-102000000D03*
X96210000Y-102000000D03*
X98750000Y-102000000D03*
X101290000Y-102000000D03*
D14*
X103830000Y-102000000D03*
%TD*%
M02*
